<svg xmlns="http://www.w3.org/2000/svg" width="295" height="190" viewBox="0 0 295 190">
  <g id="Grupo_1073069" data-name="Grupo 1073069" transform="translate(-600 -372)">
    <rect id="Rectángulo_382346" data-name="Rectángulo 382346" width="295" height="190" rx="3" transform="translate(600 372)" fill="#273a89"/>
    <g id="Grupo_1073067" data-name="Grupo 1073067" transform="translate(580 376.006)">
      <g id="Grupo_1073068" data-name="Grupo 1073068">
        <path id="Trazado_819910" data-name="Trazado 819910" d="M539.166,162.694c1.547,2.277,3.9,3.747,1.695,5.83-2.465,2.325-9.252,9.376-9.252,9.376l6.1,13.385s9.562-9.652,14.57-15.024,7.712-10.9,4.434-16.641-17.545,3.074-17.545,3.074" transform="translate(-270.121 -80.121)" fill="#f2ac30"/>
        <path id="Trazado_819911" data-name="Trazado 819911" d="M538.7,162.484c.66.933,1.445,1.77,2.091,2.713.879,1.287.224,2.258-.759,3.2-1.191,1.146-2.348,2.324-3.507,3.5q-2.689,2.729-5.345,5.493a.253.253,0,0,0-.038.3q3.05,6.692,6.1,13.385a.248.248,0,0,0,.386.05q3.68-3.716,7.324-7.463,2.858-2.936,5.684-5.9a37.513,37.513,0,0,0,5.769-7.254,11.97,11.97,0,0,0,1.541-8.013c-.337-1.888-1.233-4.1-3.08-4.944-3.121-1.428-7.352.363-10.236,1.6a44.556,44.556,0,0,0-5.842,3c-.27.166-.023.592.248.424a44.154,44.154,0,0,1,7.369-3.62,18.107,18.107,0,0,1,5.875-1.359c2.4-.067,3.738,1.06,4.649,3.219,2.841,6.733-3.026,12.8-7.278,17.27-3.5,3.677-7.057,7.3-10.62,10.92q-.875.889-1.753,1.775l.386.05-6.079-13.342c-.072-.158-.157.357-.008.2l.286-.3q.676-.7,1.353-1.4,2.129-2.2,4.275-4.372,1.044-1.057,2.1-2.1a10.5,10.5,0,0,0,1.76-1.812c1.238-2.1-1.119-3.905-2.226-5.47-.182-.256-.608-.011-.424.248" transform="translate(-269.87 -79.786)" fill="#f2ac30"/>
        <path id="Trazado_819912" data-name="Trazado 819912" d="M458.619,226.576c-.293,4-3.86,41.8-5.874,63.064h22.207l6.068-52,4.987,52h25.36c-1.816-17.935-4.75-46.59-5.489-51.864-1.093-7.786-2.6-21.535-9.151-32.735-4.508-.683-40.7,7.74-40.7,7.74.82,2.457,3,8.195,2.595,13.795" transform="translate(-230.05 -104.166)" fill="#32015c"/>
        <path id="Trazado_819913" data-name="Trazado 819913" d="M454.4,266.546q-1.075,11.416-2.16,22.832h.49q1.5-15.835,2.993-31.671c.982-10.457,2.113-20.917,2.886-31.393.289-4.722-1.042-9.194-2.522-13.615q7.493-1.74,15.015-3.348c7.486-1.609,15.053-3.393,22.674-4.229.638-.07,2.339-.463,2.69.143a54,54,0,0,1,4.312,9.77,100.722,100.722,0,0,1,3.982,18.039c.9,6.28,1.576,12.584,2.247,18.893q1.99,18.7,3.86,37.41h.491q-1.8-17.833-3.674-35.658c-.64-6.049-1.258-12.1-2.082-18.128a129.739,129.739,0,0,0-3.285-17.22,64.9,64.9,0,0,0-3.341-9.273,49.12,49.12,0,0,0-2.3-4.445c-.131-.226-.675-.159-.894-.16a46.169,46.169,0,0,0-7.912,1.015c-4.053.7-8.086,1.517-12.112,2.354q-9.693,2.015-19.34,4.252l-.721.167a.246.246,0,0,0-.172.3c1.5,4.459,2.877,8.962,2.586,13.729-.991,13.426-2.455,26.83-3.718,40.232" transform="translate(-229.792 -103.903)" fill="#32015c"/>
        <path id="Trazado_819914" data-name="Trazado 819914" d="M503.953,271.109a.246.246,0,0,0-.492,0q-1.9,16.307-3.805,32.614-1.132,9.693-2.262,19.387h.491q1.16-9.938,2.319-19.875,1.74-14.906,3.479-29.813,1.459,15.211,2.918,30.423l1.847,19.264h.492q-.959-10-1.918-20l-3.069-32" transform="translate(-252.737 -137.636)" fill="#32015c"/>
        <path id="Trazado_819915" data-name="Trazado 819915" d="M317.684,76.792c-.546-1.638-2.821-8.1-2.821-8.1s-6.648-4.187-9.561-5.826-4.189-7.284.546-8.651c1.275-2.367,3.223-2.574,4.316-1.938.727-5.372,3.446-6.02,6.45-5.018s4.834,3.582,6.655,7.68,2.247,6.286,3.795,10.384,2.731,7.195,2.731,7.195-3.552,7.466-12.111,4.279" transform="translate(-153.808 -23.811)" fill="#ffd4d4"/>
        <path id="Trazado_819916" data-name="Trazado 819916" d="M322.556,72.418a7.284,7.284,0,1,1-7.284-7.284,7.284,7.284,0,0,1,7.284,7.284" transform="translate(-156.495 -33.096)" fill="#d4336e"/>
        <path id="Trazado_819917" data-name="Trazado 819917" d="M305.509,65.439c1.025,1.161,2.732.546,2.459-1.98,1.707-.138,2.048-2.527,3.619-4.645.683,2.732,1.913,3.073,2.8,2.663s1.639-.956,1.706-3.482.82-3.21,1.913-2.868,2.049,2.868,3.414,6.01,1.5,5.6-.479,6.077a6.83,6.83,0,0,0-4.916,3.347c-1.161,2.117.2,4.166,3.825,2.6a9.029,9.029,0,0,0,4.711-4.1,36.457,36.457,0,0,0-2.185-11.54,6.107,6.107,0,0,0-6.9-4.1l-5.667,4.235L305.3,62.5" transform="translate(-155.132 -27.095)" fill="#ffd4d4"/>
        <path id="Trazado_819918" data-name="Trazado 819918" d="M472.9,61.47c2.64.228,5.419-2.732,4.781-6.283s-6.238,1.867-6.238,1.867Z" transform="translate(-239.552 -27.429)" fill="#495edb"/>
        <path id="Trazado_819919" data-name="Trazado 819919" d="M472.648,61.437a4.978,4.978,0,0,0,4.531-2.944c.567-1.092,1.219-4.02-.189-4.823-1.878-1.071-4.743,1.748-5.973,2.931a.243.243,0,0,0-.063.239l1.457,4.417c.1.3.574.172.474-.131q-.621-1.884-1.243-3.768l-.194-.588c.017.051-.173.261.087.019.419-.389.857-.757,1.305-1.113.823-.654,3.362-2.7,4.2-1.208.708,1.259.061,3.23-.608,4.351a4.284,4.284,0,0,1-3.786,2.126c-.317-.014-.316.478,0,.492" transform="translate(-239.297 -27.15)" fill="#495edb"/>
        <path id="Trazado_819920" data-name="Trazado 819920" d="M418.958,29.365c-.546,3.459-1.184,6.443,1.912,12s4.188,12.543,14.386,11.131a35.378,35.378,0,0,1,1.276,4.644l13.384-2.913L445.637,41.2c5.692-1.683,5.6-5.26,4.6-7.627s-9.877-11.766-13.065-12.585-14.932-.182-18.21,8.377" transform="translate(-212.651 -10.53)" fill="#ffd4d4"/>
        <path id="Trazado_819921" data-name="Trazado 819921" d="M449.028,56.8c.84-.938-.694-2.959-1.581-2.106s.893,2.877,1.581,2.106" transform="translate(-227.234 -27.684)"/>
        <path id="Trazado_819922" data-name="Trazado 819922" d="M430.007,59.3c.839-.939-.695-2.959-1.583-2.106s.895,2.877,1.583,2.106" transform="translate(-217.568 -28.955)"/>
        <path id="Trazado_819923" data-name="Trazado 819923" d="M433.437,60.085a5.311,5.311,0,0,1-2.577-.713c-1.189-.793-1.072-1.932-.8-2.943.578-2.5-.594-4.69-3.218-6a.246.246,0,1,1,.22-.44c2.8,1.4,4.1,3.85,3.476,6.558-.283,1.06-.283,1.828.578,2.4a4.82,4.82,0,0,0,2.323.641.246.246,0,0,1,0,.492" transform="translate(-216.817 -25.388)"/>
        <path id="Trazado_819924" data-name="Trazado 819924" d="M441.2,70.393a.246.246,0,0,1-.057-.485,8.966,8.966,0,0,0,5.059-3.243.246.246,0,0,1,.377.317,9.422,9.422,0,0,1-5.322,3.4.229.229,0,0,1-.057.007" transform="translate(-224.06 -33.829)"/>
        <path id="Trazado_819925" data-name="Trazado 819925" d="M452.588,74.583a.246.246,0,0,1-.089-.475,11.909,11.909,0,0,0,4.237-2.9l.207-.235a10.832,10.832,0,0,0,1.528-2.03,19.786,19.786,0,0,0,1.079-2.429,7.2,7.2,0,0,0,.578-2.374.246.246,0,1,1,.492,0,7.606,7.606,0,0,1-.608,2.545,20.273,20.273,0,0,1-1.105,2.487,11.213,11.213,0,0,1-1.594,2.126l-.214.242a12.4,12.4,0,0,1-4.421,3.026.246.246,0,0,1-.089.017" transform="translate(-229.845 -32.465)"/>
        <path id="Trazado_819926" data-name="Trazado 819926" d="M442.973,48.242c-.364-1.183,1.046-1.959,3.05-1.138s2.4,1.735,1.775,1.593c-3.6-.819-4.6.046-4.825-.455" transform="translate(-225.055 -23.761)" fill="#495edb"/>
        <path id="Trazado_819927" data-name="Trazado 819927" d="M442.975,47.922c-.4-1.72,2.235-1.056,3.008-.724a5,5,0,0,1,1.4.873l.1.109q.111.309.143.025c-.345-.052-.69-.144-1.035-.2a11.706,11.706,0,0,0-2.466-.166c-.166.006-1.084.194-1.177.028a.246.246,0,0,0-.424.248c.316.563,1.475.215,1.967.205a18.384,18.384,0,0,1,3.1.377.391.391,0,0,0,.487-.353c0-.374-.411-.7-.678-.9a6.451,6.451,0,0,0-2.724-1.151c-1.16-.182-2.491.413-2.177,1.758.073.309.546.178.475-.131" transform="translate(-224.82 -23.507)" fill="#495edb"/>
        <path id="Trazado_819928" data-name="Trazado 819928" d="M424.716,49.969c-1.276-.728-2.96-1.138-3.506-.41s-.091,1.594.455,1.548a24.984,24.984,0,0,1,3.46-.319c.454,0,0-.5-.41-.819" transform="translate(-213.901 -24.988)" fill="#495edb"/>
        <path id="Trazado_819929" data-name="Trazado 819929" d="M424.584,49.462c-.883-.484-2.38-1.2-3.393-.683-.74.381-1.115,1.806-.156,2.2a2.4,2.4,0,0,0,1.222-.026c.673-.092,1.347-.181,2.027-.219.341-.019.782.12.989-.221s-.438-.846-.637-1.011c-.242-.2-.593.145-.348.348.12.1.622.394.317.386a7.5,7.5,0,0,0-.873.046c-.593.052-1.182.139-1.771.219-.183.025-.366.049-.55.067q-.564-.092-.433-.791c.069-.485.463-.606.846-.644a4.717,4.717,0,0,1,2.513.755c.278.152.526-.272.248-.424" transform="translate(-213.645 -24.694)" fill="#495edb"/>
        <path id="Trazado_819930" data-name="Trazado 819930" d="M429.431,13.726c-.638,3.278.181,9.788,3.368,13.2s2.732-2.686,2.368-3.688c1.82-2.093,5.271-2.485,6.592.884a9.378,9.378,0,0,1-.3,3.9,5.171,5.171,0,0,0,2.675-6.237c-.865-1.912-1.183-5.646-.956-8.56S440.494,3.71,432.435,5.8c-2.281-3.966-4.628-4.717-8.753-4.1-3.747.561-7.94-1.978-11.082-.931-2.077.693-3.293,2.937-.151,6.078-4.872-1.366-9.242-1.183-11.154,3.642s.544,11.063,8.149,11.2a16,16,0,0,1,.659-3.061c.592,3.551,3.574,3.607,6.351,1.468a27.031,27.031,0,0,0,4.963-5.327c-1.093,2.96-.137,3.324,2,3.1s4.6-3.552,6.01-4.144" transform="translate(-203.592 -0.263)" fill="#495edb"/>
        <path id="Trazado_819931" data-name="Trazado 819931" d="M428.952,13.4a18.406,18.406,0,0,0,1.178,9.752c.365.928,2.952,6.179,4.626,4.559a3.385,3.385,0,0,0,.671-2.372,10.411,10.411,0,0,0-.083-1.5c-.064-.541-.244-.706.14-1.08a3.517,3.517,0,0,1,5.039-.1c1.292,1.347.9,3.411.459,5.037a.249.249,0,0,0,.361.278,5.5,5.5,0,0,0,3.078-5.207,15.039,15.039,0,0,0-.835-3.042,22.256,22.256,0,0,1-.469-5.247,10.8,10.8,0,0,0-.646-4.882,8.033,8.033,0,0,0-3.585-3.844,7.4,7.4,0,0,0-2.689-.8,11.265,11.265,0,0,0-1.871-.028c-.38.025-1.929.477-2.116.159a7.6,7.6,0,0,0-5.02-3.958,10.879,10.879,0,0,0-3.4.02,15.083,15.083,0,0,1-5.284-.415c-2.311-.516-5.138-1.39-7.281.083-2.339,1.606-.653,4.427.809,5.948l.239-.411c-2.495-.682-5.487-1.264-7.943-.116a7.571,7.571,0,0,0-4.052,5.983,8.393,8.393,0,0,0,1.7,6.383c1.724,2.18,4.556,2.991,7.224,3.075a.252.252,0,0,0,.246-.246,15.683,15.683,0,0,1,.65-3h-.475c.586,2.989,3,3.687,5.559,2.371,2.511-1.289,4.621-3.878,6.205-6.171l-.45-.189c-.3.863-.748,2-.232,2.874.414.7,1.532.607,2.2.56,2.774-.2,4.1-3.1,6.406-4.2.286-.136.037-.561-.248-.424-1.707.816-2.9,2.546-4.494,3.563a4.092,4.092,0,0,1-2.927.543c-1.238-.236-.484-2.063-.231-2.78.1-.278-.3-.406-.45-.19a25.824,25.824,0,0,1-4.3,4.767,6.809,6.809,0,0,1-3.825,1.874c-1.659.127-2.466-1.3-2.745-2.723-.05-.255-.4-.214-.475,0a16.393,16.393,0,0,0-.667,3.127l.246-.246a9.142,9.142,0,0,1-6.708-2.733,7.663,7.663,0,0,1-1.785-5.725,7.284,7.284,0,0,1,3.614-5.948c2.36-1.242,5.391-.616,7.817.047a.248.248,0,0,0,.24-.411c-1.653-1.72-2.941-4.576.043-5.667,2.443-.893,5.455.433,7.887.845,2.272.386,4.488-.338,6.749.007,2.313.354,3.8,2.16,4.921,4.064a.25.25,0,0,0,.278.113c2.7-.662,5.517-.532,7.732,1.3a7.828,7.828,0,0,1,2.681,4.983c.144,1.179-.065,2.412-.039,3.6a21.813,21.813,0,0,0,.554,4.524c.333,1.411.924,2.415.614,3.925a4.772,4.772,0,0,1-2.707,3.443l.362.277c.578-2.11.79-4.324-.99-5.905-1.745-1.55-4.317-.632-5.715.886a.248.248,0,0,0-.063.239,7.465,7.465,0,0,1,.179,3.191c-.346,2.51-2.37.088-3.073-.937a16.861,16.861,0,0,1-2.367-11.769c.056-.31-.418-.443-.475-.131" transform="translate(-203.35 0)" fill="#495edb"/>
        <path id="Trazado_819932" data-name="Trazado 819932" d="M419.649,32.3a.246.246,0,0,1-.243-.214l-.043-.314a6.844,6.844,0,0,1-.093-1.844,6.592,6.592,0,0,1,1.513-3.177,6.021,6.021,0,0,1,1.232-1.227.246.246,0,1,1,.281.4,5.609,5.609,0,0,0-1.133,1.136A6.109,6.109,0,0,0,419.756,30a6.487,6.487,0,0,0,.093,1.7l.044.318a.246.246,0,0,1-.212.276l-.032,0" transform="translate(-213.023 -12.949)"/>
        <path id="Trazado_819933" data-name="Trazado 819933" d="M470.248,47.92l-.038,0a.239.239,0,0,1-.2-.274,4.882,4.882,0,0,0,.088-.779,3.317,3.317,0,0,0-.085-.673c-.084-.375-.178-.8-.313-1.208a8.5,8.5,0,0,0-.752-1.728.246.246,0,1,1,.425-.248,8.985,8.985,0,0,1,.8,1.827,12.74,12.74,0,0,1,.324,1.249,3.759,3.759,0,0,1,.1.782,5.157,5.157,0,0,1-.091.842.256.256,0,0,1-.246.214" transform="translate(-238.263 -21.791)"/>
        <path id="Trazado_819934" data-name="Trazado 819934" d="M332.237,95.965c2.869.819,9.151-.683,12.293-5.053,2.186,4.917,9.561,21.443,10.107,22.262s7.239-4.1,14.888-10.244,12.292-7.921,16.936-7.374,6.83-.137,6.419-2.732-.956-4.781-.956-4.781,5.326,2.185,13.658-2.732c1.776,5.191,1.639,6.147,2.322,6.965s6.83-1.775,12.7-.955,17.984,13.759,23.719,19.122c7.011,6.556,15.138,13.658,11.2,21.581-2.749,5.529-12.655,1.638-12.655,1.638s-.82-2.458-5.191-6.829-11.747-11.884-11.747-11.884,8.65,26.043,10.289,30c-8.741,7.375-34.367,11.113-41.313,7.955-2.273-6.82-9.951-30.445-13.365-36.865-10.38,7.239-17.619,14.205-23.765,16.39s-11.61,4.37-17.074-10.517c-3.128-8.524-8.469-25.951-8.469-25.951" transform="translate(-168.817 -43.348)" fill="#f2ac30"/>
        <path id="Trazado_819935" data-name="Trazado 819935" d="M331.914,95.948c4.487,1.175,9.938-1.629,12.571-5.166h-.425c3.205,7.209,6.315,14.482,9.755,21.583.309.638.485,1.048,1.272.79,1.818-.6,3.5-2.03,5.032-3.125,5.658-4.056,10.772-9.066,16.912-12.4a17.293,17.293,0,0,1,6.361-2.118c2.217-.237,4.41.365,6.63.144,1.338-.133,2.665-.7,2.873-2.163a10.049,10.049,0,0,0-.415-3.13c-.171-.884-.36-1.767-.576-2.642l-.3.3a9.8,9.8,0,0,0,3.77.486,21.377,21.377,0,0,0,10.078-3.243l-.361-.147c.7,2.047,1.169,4.18,1.9,6.21.4,1.1,1.017,1.166,2.115,1.017,3.057-.416,5.978-1.211,9.095-1.2A11.361,11.361,0,0,1,424.44,93.1c4.478,2.76,8.359,6.564,12.14,10.184,3.852,3.689,7.731,7.361,11.55,11.084,4.414,4.3,9.962,10.327,7.087,16.943-1.864,4.289-7.586,3.375-11.19,2.314q-.635-.186-1.255-.415c-.233-.087.109.219.061.09s-.118-.282-.182-.42a21.019,21.019,0,0,0-3.508-4.847c-3.629-4.062-7.68-7.8-11.5-11.685q-.9-.911-1.792-1.823a.248.248,0,0,0-.411.24q2.915,8.776,5.891,17.532c1.193,3.507,2.384,7.015,3.649,10.5.179.491.36.981.547,1.468.075.194.164.352.1.4-.44.365-.91.695-1.384,1.014a31.591,31.591,0,0,1-5.959,3,70.984,70.984,0,0,1-14.792,3.893,59.652,59.652,0,0,1-14.014.854,22.042,22.042,0,0,1-2.581-.345c-.308-.061-1.942-.292-2.054-.628q-.778-2.332-1.547-4.667c-1.527-4.6-3.07-9.2-4.662-13.779-1.254-3.607-2.537-7.206-3.9-10.773a69.13,69.13,0,0,0-3.234-7.568.246.246,0,0,0-.336-.088c-5.668,3.966-10.973,8.419-16.629,12.4a31.544,31.544,0,0,1-11.259,5.277c-4,.889-6.957-1.107-9.131-4.381-3.063-4.613-4.576-10.316-6.3-15.534q-2.917-8.81-5.624-17.69c-.092-.3-.568-.173-.474.131,2.354,7.679,4.767,15.347,7.4,22.936,1.613,4.657,3.287,10.064,7.128,13.412,2.378,2.072,5.305,2.139,8.21,1.331A34.826,34.826,0,0,0,365.338,128c5.454-3.871,10.59-8.167,16.072-12l-.336-.088a89.409,89.409,0,0,1,4.486,10.93c1.781,4.845,3.456,9.729,5.106,14.62,1.249,3.7,2.47,7.413,3.7,11.119.3.887,2.775,1.055,3.552,1.166a35.584,35.584,0,0,0,5.74.265,77.168,77.168,0,0,0,17.927-2.653c5.044-1.324,10.478-3.1,14.551-6.487a.239.239,0,0,0,.063-.24c-2.206-5.371-3.9-10.99-5.759-16.488q-2.282-6.752-4.53-13.516l-.411.239q4.175,4.253,8.367,8.487c2.086,2.105,4.262,4.144,6.142,6.44a13.371,13.371,0,0,1,2.363,3.672c.177.493,1.8.711,2.2.819a17.7,17.7,0,0,0,5.541.673A6.476,6.476,0,0,0,454.9,132.8a9,9,0,0,0,1.525-6.728c-.367-2.725-1.95-5.18-3.6-7.307a63.765,63.765,0,0,0-7.077-7.338c-3.709-3.468-7.282-7.075-10.99-10.543-3.525-3.3-7.236-6.8-11.547-9.055-4.634-2.425-9.76-.453-14.591.087-1.029.115-1.163-.632-1.4-1.476-.523-1.829-1.05-3.648-1.662-5.45a.249.249,0,0,0-.361-.147,21.338,21.338,0,0,1-9.83,3.176,9.119,9.119,0,0,1-3.639-.469c-.183-.074-.343.138-.3.3.217.876.4,1.758.576,2.642.242,1.219.909,2.991-.133,4-.813.79-2.347.736-3.382.726-1.312-.012-2.606-.26-3.918-.265-5.082-.021-9.689,3.126-13.579,6.055-5.012,3.773-9.721,8.276-15.258,11.3-.2.107-1.063.631-1.2.378-.208-.372-.384-.766-.566-1.151-.741-1.561-1.454-3.136-2.169-4.709q-3.7-8.132-7.312-16.3c-.083-.187-.328-.13-.425,0-2.5,3.355-7.758,6.056-12.015,4.94a.246.246,0,0,0-.131.474" transform="translate(-168.559 -43.094)" fill="#f2ac30"/>
        <path id="Trazado_819936" data-name="Trazado 819936" d="M317.534,75.788a2.24,2.24,0,0,1-1.724-.658,2.441,2.441,0,0,1-.044-2.856,7.082,7.082,0,0,1,5.074-3.467,1.524,1.524,0,0,0,1.081-.817c.472-.947.2-2.7-.77-4.924-1.22-2.807-2.274-5.232-3.281-5.545a1.064,1.064,0,0,0-.961.023c-.373.266-.579,1.036-.614,2.29-.071,2.661-.915,3.268-1.849,3.7a1.622,1.622,0,0,1-1.419.008,3.574,3.574,0,0,1-1.582-2.326,18.435,18.435,0,0,0-1,1.77c-.631,1.226-1.181,2.3-2.259,2.517a2.334,2.334,0,0,1-1.053,2.463,1.6,1.6,0,0,1-1.855-.531.246.246,0,0,1,.369-.326,1.128,1.128,0,0,0,1.288.407c.452-.2.884-.881.742-2.2a.246.246,0,0,1,.225-.272c.97-.078,1.471-1.053,2.106-2.286a15.785,15.785,0,0,1,1.335-2.26.243.243,0,0,1,.245-.094.247.247,0,0,1,.191.182c.425,1.7,1.028,2.3,1.458,2.511a1.15,1.15,0,0,0,1-.011c.847-.391,1.5-.879,1.563-3.266.04-1.455.3-2.306.819-2.677a1.553,1.553,0,0,1,1.393-.092c1.166.363,2.077,2.346,3.586,5.819.726,1.672,1.448,3.956.758,5.339a2.011,2.011,0,0,1-1.405,1.075,6.643,6.643,0,0,0-4.758,3.226,1.977,1.977,0,0,0-.024,2.288c.612.672,1.934.658,3.535-.036a8.891,8.891,0,0,0,4.583-3.97.246.246,0,0,1,.452.2,9.2,9.2,0,0,1-4.839,4.226,6.116,6.116,0,0,1-2.371.575" transform="translate(-155.088 -28.927)"/>
        <path id="Trazado_819937" data-name="Trazado 819937" d="M338.676,117.1a6.122,6.122,0,0,1-2.344-.437.246.246,0,0,1,.186-.455,7.106,7.106,0,0,0,4.557.059,11.522,11.522,0,0,0,5.087-2.471c.093-.094.2-.2.317-.3a4.438,4.438,0,0,0,.932-1.071.246.246,0,1,1,.429.239,4.886,4.886,0,0,1-1.027,1.193c-.109.1-.214.2-.312.3a11.977,11.977,0,0,1-5.3,2.592,10.024,10.024,0,0,1-2.521.357" transform="translate(-170.82 -57.063)"/>
        <path id="Trazado_819938" data-name="Trazado 819938" d="M338.84,114.255a.247.247,0,0,1-.231-.161c-.151-.414-.294-.835-.438-1.261-.2-.6-.414-1.219-.653-1.83-.255-.635-.544-1.356-.779-2.06-.061-.183-.139-.362-.215-.539a3.57,3.57,0,0,1-.343-1.111.246.246,0,0,1,.49-.041,3.2,3.2,0,0,0,.3.957c.082.19.165.382.231.579.23.691.517,1.4.769,2.035s.456,1.249.661,1.853c.144.422.285.84.435,1.249a.246.246,0,0,1-.147.316.256.256,0,0,1-.085.015" transform="translate(-170.82 -54.382)"/>
        <path id="Trazado_819939" data-name="Trazado 819939" d="M343.7,113.561a.246.246,0,0,1-.209-.116,5.017,5.017,0,0,1-.412-.942c-.05-.14-.1-.28-.155-.417-.1-.287-.2-.56-.3-.833s-.205-.546-.3-.82c-.2-.549-.446-1.153-.763-1.841-.142-.331-.258-.669-.371-1s-.226-.655-.36-.967a.246.246,0,1,1,.452-.195c.142.329.259.67.373,1s.223.648.355.957c.321.7.576,1.313.779,1.881.091.272.192.54.292.807s.21.558.3.837c.052.128.1.274.157.42a4.569,4.569,0,0,0,.366.848.246.246,0,0,1-.078.339.243.243,0,0,1-.13.037" transform="translate(-173.173 -54.006)"/>
        <path id="Trazado_819940" data-name="Trazado 819940" d="M349.848,111.525a.246.246,0,0,1-.239-.186,5.558,5.558,0,0,0-.276-.741c-.062-.145-.122-.287-.17-.417-.114-.271-.218-.549-.323-.828s-.2-.535-.312-.8l-.026-.063c-.528-1.275-1.074-2.595-1.656-3.891a.246.246,0,0,1,.449-.2c.584,1.3,1.132,2.625,1.662,3.9l.026.063c.114.273.216.546.318.819s.2.546.319.82c.05.132.107.268.166.406a5.953,5.953,0,0,1,.3.813.246.246,0,0,1-.239.306" transform="translate(-176.229 -52.971)"/>
        <path id="Trazado_819941" data-name="Trazado 819941" d="M353.655,107.2a.245.245,0,0,1-.219-.135,4.308,4.308,0,0,1-.2-.486,4.178,4.178,0,0,0-.169-.425l-.7-1.691a12.461,12.461,0,0,1-.546-1.3c-.033-.075-.085-.177-.14-.283a2.751,2.751,0,0,1-.326-.857.246.246,0,0,1,.488-.062,2.423,2.423,0,0,0,.276.694c.061.118.118.23.162.333a12.445,12.445,0,0,0,.532,1.267l.149.321.551,1.376a4.2,4.2,0,0,1,.184.461,3.92,3.92,0,0,0,.171.43.245.245,0,0,1-.219.357" transform="translate(-178.534 -51.702)"/>
        <path id="Trazado_819942" data-name="Trazado 819942" d="M459.085,98.388a.245.245,0,0,1-.244-.222,6.9,6.9,0,0,0-.307-1.357c-.05-.211-.089-.4-.128-.587a9.92,9.92,0,0,0-.282-1.142c-.223-.579-.406-1.175-.584-1.751-.081-.292-.138-.545-.2-.8s-.113-.5-.18-.743a.246.246,0,0,1,.475-.13c.069.254.127.509.185.763s.112.492.179.739c.182.591.363,1.179.584,1.753a10.518,10.518,0,0,1,.3,1.209c.038.184.076.369.119.554a7.065,7.065,0,0,1,.323,1.442.246.246,0,0,1-.22.269h-.025" transform="translate(-232.29 -46.482)"/>
        <path id="Trazado_819943" data-name="Trazado 819943" d="M464.084,98.844a.246.246,0,0,1-.246-.246,1.521,1.521,0,0,0-.084-.413c-.017-.058-.033-.113-.046-.164a5.868,5.868,0,0,0-.221-.847c-.152-.7-.349-1.369-.5-1.873-.1-.356-.177-.7-.258-1.051s-.156-.671-.245-1.006c-.034-.168-.081-.327-.129-.488a3.645,3.645,0,0,1-.2-1.031.246.246,0,1,1,.492,0,3.278,3.278,0,0,0,.178.891c.052.177.1.349.136.516.087.326.166.666.246,1.006s.159.685.251,1.028c.154.5.354,1.183.5,1.878a6.079,6.079,0,0,1,.229.877l.036.123a1.94,1.94,0,0,1,.1.553.246.246,0,0,1-.246.246" transform="translate(-234.83 -46.482)"/>
        <path id="Trazado_819944" data-name="Trazado 819944" d="M469.635,97.826a.247.247,0,0,1-.234-.168c-.023-.07-.046-.152-.069-.234s-.044-.155-.067-.222a3.5,3.5,0,0,1-.19-.667,10.644,10.644,0,0,0-.258-1.075c-.052-.184-.1-.368-.149-.552l-.169-.629c-.313-1.167-.609-2.269-.879-3.426a.246.246,0,0,1,.48-.112c.269,1.15.563,2.248.875,3.411l.17.634c.046.183.1.364.146.544a10.862,10.862,0,0,1,.269,1.119,3.047,3.047,0,0,0,.168.585c.03.087.054.172.078.257s.043.149.064.213a.246.246,0,0,1-.234.324" transform="translate(-237.604 -46.011)"/>
        <path id="Trazado_819945" data-name="Trazado 819945" d="M474.908,95.887a.246.246,0,0,1-.235-.172c-.333-1.048-.614-2.091-.868-3.062l-.129-.422c-.141-.464-.286-.944-.458-1.424-.078-.215-.14-.447-.2-.682a5.893,5.893,0,0,0-.29-.894.246.246,0,0,1,.449-.2,6.28,6.28,0,0,1,.316.969c.059.221.117.439.19.641.177.492.324.978.466,1.449l.131.429c.255.975.534,2.011.864,3.049a.246.246,0,0,1-.16.309.241.241,0,0,1-.074.011" transform="translate(-240.192 -45.164)"/>
        <path id="Trazado_819946" data-name="Trazado 819946" d="M460,103.128a5.093,5.093,0,0,1-.931-.08,10.3,10.3,0,0,1-1.235-.288,8.236,8.236,0,0,0-1.386-.3.246.246,0,0,1,.049-.489,8.726,8.726,0,0,1,1.468.316,10.013,10.013,0,0,0,1.185.277,5.511,5.511,0,0,0,1.49.044,5.856,5.856,0,0,1,.689-.01,4.664,4.664,0,0,0,.884-.034,13.8,13.8,0,0,0,3.129-1.075,20.467,20.467,0,0,0,2.606-1.349c.5-.315,1-.635,1.489-.992.258-.216.541-.5.791-.749a.246.246,0,1,1,.348.347c-.257.257-.547.549-.836.789-.516.376-1.025.7-1.517,1.013a21.066,21.066,0,0,1-2.682,1.391,14.165,14.165,0,0,1-3.247,1.11,5.073,5.073,0,0,1-.977.041,5.5,5.5,0,0,0-.634.008c-.247.021-.473.031-.684.031" transform="translate(-231.82 -49.962)"/>
        <path id="Trazado_819947" data-name="Trazado 819947" d="M430.805,145.07a.245.245,0,0,1-.22-.136c-.108-.216-.2-.448-.283-.671s-.167-.432-.264-.627a9.728,9.728,0,0,0-.537-1.212c-.1-.227-.205-.419-.309-.611a4.685,4.685,0,0,1-.54-1.311.246.246,0,0,1,.483-.1,4.236,4.236,0,0,0,.491,1.175c.109.2.218.407.312.618a9.653,9.653,0,0,1,.554,1.251,6.843,6.843,0,0,1,.269.637c.086.223.167.433.264.628a.246.246,0,0,1-.22.356" transform="translate(-217.805 -71.242)"/>
        <path id="Trazado_819948" data-name="Trazado 819948" d="M513.7,138.72a.28.28,0,0,1-.127-.031,5.553,5.553,0,0,1-1.268-1c-.146-.141-.293-.283-.445-.418a9.937,9.937,0,0,0-1.453-1.025l-1.9-1.223a.3.3,0,0,1-.09-.4.28.28,0,0,1,.391-.093l1.892,1.218a10.383,10.383,0,0,1,1.528,1.08c.162.144.315.291.467.437a5.031,5.031,0,0,0,1.133.907.3.3,0,0,1,.127.392.284.284,0,0,1-.254.162" transform="translate(-258.313 -68.332)"/>
        <path id="Trazado_819949" data-name="Trazado 819949" d="M540.639,198.384a.247.247,0,0,1-.231-.16l-3.176-8.537a.246.246,0,0,1,.461-.172l3.176,8.537a.247.247,0,0,1-.145.317.252.252,0,0,1-.086.015" transform="translate(-272.972 -96.215)"/>
        <path id="Trazado_819950" data-name="Trazado 819950" d="M473.66,226.28a65.407,65.407,0,0,1-6.844-.352.245.245,0,0,1-.218-.271.241.241,0,0,1,.27-.218c13.274,1.4,28.189-1.472,38-7.308a.246.246,0,1,1,.252.423c-8.236,4.9-20.029,7.726-31.461,7.726" transform="translate(-237.088 -110.819)"/>
        <path id="Trazado_819951" data-name="Trazado 819951" d="M534.219,239.69a6.063,6.063,0,0,1-2.374-.5c-3.637-1.539-6.525-6.379-7.668-10.226a.246.246,0,0,1,.472-.14c1.147,3.858,4.053,8.5,7.388,9.913a5.432,5.432,0,0,0,4.828-.226.246.246,0,1,1,.228.436,6.16,6.16,0,0,1-2.874.744" transform="translate(-266.34 -116.181)"/>
        <path id="Trazado_819952" data-name="Trazado 819952" d="M546.941,242.129a.246.246,0,0,1-.244-.223c-.94-9.943-6.07-20.3-6.121-20.4a.246.246,0,1,1,.44-.22c.052.1,5.222,10.538,6.172,20.574a.247.247,0,0,1-.222.268h-.024" transform="translate(-274.665 -112.371)"/>
        <path id="Trazado_819953" data-name="Trazado 819953" d="M308.747,67.7a1.613,1.613,0,0,1-1.231-.593,3.814,3.814,0,0,1-.74-2,7.142,7.142,0,0,1,1.2-3.746.246.246,0,1,1,.422.253,6.685,6.685,0,0,0-1.126,3.479,3.323,3.323,0,0,0,.637,1.715,1.08,1.08,0,0,0,1.133.358.246.246,0,1,1,.144.47,1.481,1.481,0,0,1-.435.065" transform="translate(-155.877 -31.117)"/>
        <path id="Trazado_819954" data-name="Trazado 819954" d="M317.763,60.9a.246.246,0,0,1-.244-.219,24.862,24.862,0,0,1-.078-2.837c0-.263,0-.521,0-.768a.246.246,0,0,1,.492,0c0,.249,0,.508,0,.773a24.44,24.44,0,0,0,.076,2.779.246.246,0,0,1-.218.271h-.027" transform="translate(-161.295 -28.879)"/>
        <path id="Trazado_819955" data-name="Trazado 819955" d="M499.728,244.6a10.559,10.559,0,0,1-2.7-.4.245.245,0,0,1-.164-.163l-5.93-19.142a.246.246,0,1,1,.47-.145l5.89,19.014a8.089,8.089,0,0,0,3.628.209c-1.207-4.184-4.031-15.075-4.061-15.186a.246.246,0,1,1,.477-.124c.029.114,2.96,11.41,4.123,15.4a.247.247,0,0,1-.151.3,4.621,4.621,0,0,1-1.576.241" transform="translate(-249.446 -114.111)"/>
        <path id="Trazado_819956" data-name="Trazado 819956" d="M137.98,139.943a15.066,15.066,0,0,1-3.772,1.385c-.324.05-1.509-9.034-1.509-9.034,5.5-2.015,8.195-3.916,9.651-8.1s-2.561-4.916-2.788-9.139c-.181-3.376.513-14.263-12.052-12.624s-22.674,19.395-17.575,24.768,9.744,6.1,9.653,7.467-4.917,8.832-5.19,9.2,3.46,7.739,7.284,9.288,25.04.819,16.3-13.2" transform="translate(-55.174 -51.961)" fill="#ffd4d4"/>
        <path id="Trazado_819957" data-name="Trazado 819957" d="M53.592,326.483c-.546-7.921-.546-33.736,14.614-44.936,1.229-.956,2.231-3.824,2.231-3.824,6.783,1.775,24.175,6.419,31.869,6.01a41.808,41.808,0,0,1-3.46,6.556l2.412,36.057-19.8.41-3.96-6.283.545,6.01Z" transform="translate(-27.15 -141.118)" fill="#f2ac30"/>
        <path id="Trazado_819958" data-name="Trazado 819958" d="M53.563,326.23a77.455,77.455,0,0,1,2.042-23.936,44.021,44.021,0,0,1,6.068-14.083,28.716,28.716,0,0,1,5.223-5.792,9.9,9.9,0,0,0,2.271-2.248,13.541,13.541,0,0,0,1.2-2.553c.01-.027.02-.054.029-.081l-.3.172c5.178,1.355,10.362,2.688,15.594,3.824,5.282,1.147,10.9,2.449,16.341,2.195l-.237-.311a34.264,34.264,0,0,1-3.358,6.376c-.2.311-.079.727-.055,1.078q.258,3.865.517,7.728.756,11.311,1.513,22.621l.326,4.875.246-.246-15.172.314-3.449.072-.936.019c-.421.008,0,.184-.121-.007L77.432,320.1c-.121-.192-.482-.133-.458.124q.272,3.005.545,6.01l.246-.246H53.317a.246.246,0,0,0,0,.492H77.765a.247.247,0,0,0,.246-.246q-.273-3-.545-6.01l-.458.124,3.876,6.149c.223.355.548.251.934.243l3.376-.07,15.792-.327a.247.247,0,0,0,.246-.246q-1.175-17.571-2.351-35.142-.024-.37-.049-.74c-.02-.289-.07-.009.16-.376a34.135,34.135,0,0,0,3.279-6.289.247.247,0,0,0-.237-.311c-5.408.253-10.959-1.046-16.211-2.177-5.233-1.127-10.416-2.468-15.593-3.824a.251.251,0,0,0-.3.172,15.238,15.238,0,0,1-1.032,2.264,10.958,10.958,0,0,1-2.81,2.8,29.229,29.229,0,0,0-4.835,5.494,43.509,43.509,0,0,0-5.966,13.619,76.82,76.82,0,0,0-2.246,24.105q.016.272.035.545c.022.315.514.317.492,0" transform="translate(-26.875 -140.864)" fill="#f2ac30"/>
        <path id="Trazado_819959" data-name="Trazado 819959" d="M98.181,290.768a.242.242,0,0,1-.042,0c-5.594-.963-10.757-3.135-13.154-5.532a.246.246,0,0,1,.348-.348c2.331,2.33,7.39,4.448,12.89,5.395a.246.246,0,0,1-.041.488" transform="translate(-43.146 -144.72)"/>
        <path id="Trazado_819960" data-name="Trazado 819960" d="M63.056,331.982a.246.246,0,0,1-.245-.235c-.233-5.219-.689-31.837,13.2-43.361a.246.246,0,1,1,.314.379C62.615,300.14,63.071,326.546,63.3,331.724a.246.246,0,0,1-.235.257h-.011" transform="translate(-31.879 -146.506)"/>
        <path id="Trazado_819961" data-name="Trazado 819961" d="M159.046,169.489c4.058-.984,5.8-2.339,8.486-2.612.911-2.914-2.139-7.922-4.279-8.833a17.35,17.35,0,0,1-5.828,2.6c.637,4.3,1.621,8.849,1.621,8.849" transform="translate(-79.991 -80.306)" fill="#32015c"/>
        <path id="Trazado_819962" data-name="Trazado 819962" d="M158.862,169.458c2.829-.71,5.514-2.261,8.42-2.6a.253.253,0,0,0,.237-.181c.707-2.619-.848-5.525-2.453-7.5-.246-.3-1.659-1.957-2.188-1.613a16.689,16.689,0,0,1-5.769,2.571.25.25,0,0,0-.172.3q.669,4.448,1.621,8.849c.067.31.541.179.474-.13q-.947-4.4-1.621-8.849l-.172.3a12.133,12.133,0,0,0,2.469-.786c.5-.216.994-.448,1.483-.694.254-.129,1.661-1.152,1.867-1.055,1.78.842,2.991,3.175,3.652,4.916a6.909,6.909,0,0,1,.473,2.85c-.05.875-1.478.8-2.191,1.022-2.111.666-4.1,1.581-6.262,2.122a.246.246,0,0,0,.131.475" transform="translate(-79.742 -80.038)" fill="#32015c"/>
        <path id="Trazado_819963" data-name="Trazado 819963" d="M143.807,161.94a16.23,16.23,0,0,1-7.534-1.851.246.246,0,0,1,.232-.434,15.593,15.593,0,0,0,10,1.54.246.246,0,0,1,.094.483,14.711,14.711,0,0,1-2.8.262" transform="translate(-69.177 -81.109)"/>
        <path id="Trazado_819964" data-name="Trazado 819964" d="M86.586,110.211c1.208,3.8,3.671,4.814,3.039-.869,10.721-6.419,11.1-15.247,9.595-18.321,6.624.888,11.064,3.893,10.039,11.4,7.033-1.843,6.556-13.726.477-15.911-.136-8.6-9.518-10.781-18.779-5.532-4.151,2.352-5.627,5.221-11.283,7.435-6.635,2.6-8.936,11.067-8.936,18.2,0,10.852-.063,16.161-8.6,22.784S45.59,144.435,50.529,154.874a10.33,10.33,0,0,0,9.561,5.941c-1.844,8.536,3.414,13.589,8.468,13.248,0,0,1.434-17.755,3.278-25.541s5.462-11,11.541-14.068,7.635-4.156,7.033-10.039a65.737,65.737,0,0,0-1.3-7.99c-5.4,2.254-8.074-.873-8.673-3.142-.956-3.619,4.029-6.42,6.146-3.074" transform="translate(-24.906 -39.712)" fill="#32015c"/>
        <path id="Trazado_819965" data-name="Trazado 819965" d="M86.1,110.022c.283.85,1.887,4.694,3.225,2.829a2.839,2.839,0,0,0,.359-1.279,8.3,8.3,0,0,0,.032-1.261c-.021-.958.063-1.169.881-1.7a24.848,24.848,0,0,0,4.913-4.175c3.06-3.382,5.816-9.246,3.673-13.794L98.909,91c2.716.381,5.519,1.1,7.6,2.984,2.3,2.084,2.624,5.272,2.257,8.184a.247.247,0,0,0,.311.237c3.836-1.083,5.485-4.95,5.32-8.678a10.125,10.125,0,0,0-1.735-5.278A7.148,7.148,0,0,0,111,86.775a5.842,5.842,0,0,0-1.175-.645c-.226-.1-.192-1.212-.237-1.509-.695-4.66-4.913-6.942-9.292-6.966-5.707-.031-10.478,3.108-14.716,6.571a25.3,25.3,0,0,1-3.6,2.478c-1.418.8-2.986,1.265-4.385,2.1a13.293,13.293,0,0,0-4.793,5.453c-2.595,5.017-2.5,10.576-2.582,16.06-.073,4.861-.542,9.663-3.474,13.713a31.968,31.968,0,0,1-6.262,5.918,50.747,50.747,0,0,0-7,6.638A21.022,21.022,0,0,0,48.909,145a14.725,14.725,0,0,0,1.161,9.741,10.5,10.5,0,0,0,9.773,6.063l-.237-.311c-.712,3.489-.476,7.185,1.672,10.143a8.256,8.256,0,0,0,7.032,3.418.252.252,0,0,0,.246-.246,216.642,216.642,0,0,1,2.87-23.612c1.026-5.3,3.065-10.021,7.54-13.259a68.971,68.971,0,0,1,7.05-3.978,8.716,8.716,0,0,0,3.962-3.631c.987-2.119.5-4.784.22-6.994a57.086,57.086,0,0,0-1.095-6.23.245.245,0,0,0-.3-.172c-3.087,1.227-6.775,1.013-8.2-2.434-1.4-3.385,3.271-6.692,5.521-3.42.179.259.605.014.424-.248-2.141-3.113-7.226-1.035-6.7,2.7a5.592,5.592,0,0,0,2.437,3.787c1.981,1.361,4.558.918,6.641.09l-.3-.172a59.852,59.852,0,0,1,1.132,6.54c.288,2.279.7,4.946-.589,7.006-1.226,1.962-3.851,3.027-5.821,4.029a30.451,30.451,0,0,0-6.259,3.986c-3.777,3.274-5.334,8.012-6.238,12.777-.92,4.856-1.465,9.79-1.984,14.7-.3,2.841-.576,5.686-.807,8.533l.246-.246a7.839,7.839,0,0,1-6.478-3.006c-2.264-2.746-2.433-6.6-1.753-9.932a.249.249,0,0,0-.237-.311,10.064,10.064,0,0,1-9.013-5.165c-3.5-6.116-1.384-12.818,2.772-17.935a47.309,47.309,0,0,1,6.93-6.678,39.587,39.587,0,0,0,6.262-5.763c2.811-3.523,3.641-7.8,3.855-12.2.265-5.453-.179-10.781,1.7-16.026a15.075,15.075,0,0,1,4.29-6.459A13.842,13.842,0,0,1,80.39,88.03a21.3,21.3,0,0,0,3.954-2.237c2.018-1.423,3.775-3.167,5.872-4.486a20.693,20.693,0,0,1,8.8-3.1,10.7,10.7,0,0,1,7.057,1.528,7.875,7.875,0,0,1,3.166,6.523.255.255,0,0,0,.181.237c6.22,2.377,6.037,13.6-.477,15.437l.311.237c.37-2.941.012-5.92-2.051-8.183-2.043-2.241-5.285-3.055-8.169-3.459a.249.249,0,0,0-.277.362c1.1,2.331.617,5.265-.2,7.6-1.578,4.53-5.312,7.956-9.312,10.388a.241.241,0,0,0-.121.212c.061.605.5,3.674-.584,3.746-1.007.067-1.759-2.3-1.972-2.943-.1-.3-.575-.171-.474.131" transform="translate(-24.659 -39.458)" fill="#32015c"/>
        <path id="Trazado_819966" data-name="Trazado 819966" d="M148.3,135.2c-1.248.166-1.4,2.7-.171,2.629s1.195-2.766.171-2.629" transform="translate(-74.835 -68.696)"/>
        <path id="Trazado_819967" data-name="Trazado 819967" d="M148.817,134.835a.246.246,0,0,1-.14-.449l.053-.036a3.129,3.129,0,0,0,.9-.768.246.246,0,1,1,.43.239,3.306,3.306,0,0,1-1.047.934l-.053.037a.246.246,0,0,1-.139.043" transform="translate(-75.492 -67.812)"/>
        <path id="Trazado_819968" data-name="Trazado 819968" d="M166.544,129.3c-1.241.212-1.3,2.746-.074,2.634s1.094-2.808.074-2.634" transform="translate(-84.136 -65.698)"/>
        <path id="Trazado_819969" data-name="Trazado 819969" d="M167.029,128.914a.246.246,0,0,1-.148-.443l.063-.047a3.1,3.1,0,0,0,.856-.792.246.246,0,1,1,.439.223,3.256,3.256,0,0,1-1,.963l-.062.047a.243.243,0,0,1-.147.049" transform="translate(-84.746 -64.784)"/>
        <path id="Trazado_819970" data-name="Trazado 819970" d="M161.79,136.555a.246.246,0,0,1-.177-.417c.149-.155.292-.3.426-.437,1.41-1.435,1.789-1.821.4-3.935l-.071-.109c-1.63-2.478-1.858-2.967-.383-5.71a.246.246,0,1,1,.432.233c-1.378,2.562-1.212,2.813.362,5.207l.071.109c1.608,2.445,1,3.061-.459,4.549-.133.136-.274.279-.423.434a.244.244,0,0,1-.177.075" transform="translate(-81.807 -63.931)"/>
        <path id="Trazado_819971" data-name="Trazado 819971" d="M141.689,128.532c-.872,1.578-.717,2.389.41,1.4a17.239,17.239,0,0,1,3.654-2.425c.922-.409.031-1.564-1.435-1.3a4.648,4.648,0,0,0-2.629,2.322" transform="translate(-71.711 -64.11)"/>
        <path id="Trazado_819972" data-name="Trazado 819972" d="M141.093,130.357h0a.434.434,0,0,1-.385-.214c-.249-.423.14-1.312.511-1.982a4.817,4.817,0,0,1,2.8-2.446,2.677,2.677,0,0,1,.472-.043,1.548,1.548,0,0,1,1.611.96.747.747,0,0,1-.505.848,16.983,16.983,0,0,0-3.592,2.385,1.578,1.578,0,0,1-.914.493m0-.492,0,.246v-.246h0m3.4-3.7a2.157,2.157,0,0,0-.385.035,4.46,4.46,0,0,0-2.458,2.2,3.1,3.1,0,0,0-.527,1.463,1.5,1.5,0,0,0,.56-.367,17.579,17.579,0,0,1,3.716-2.465c.174-.077.249-.177.224-.3-.051-.239-.472-.57-1.13-.57" transform="translate(-71.457 -63.856)"/>
        <path id="Trazado_819973" data-name="Trazado 819973" d="M163.014,123.545c.887-1.6,2.355-3.21,3.107-3s1.092,1.23.649,1.537-.786-.547-2.253.444c-1.287.868-1.572,1.3-1.5,1.024" transform="translate(-82.826 -61.24)"/>
        <path id="Trazado_819974" data-name="Trazado 819974" d="M162.768,123.62h-.121l-.086-.1a.323.323,0,0,1-.039-.288l.023-.059c.908-1.641,2.47-3.375,3.387-3.123a1.466,1.466,0,0,1,1.01,1.141.724.724,0,0,1-.981.893,1.531,1.531,0,0,0-.407-.065,2.163,2.163,0,0,0-1.154.454c-.606.408-.985.717-1.211.9s-.3.246-.422.246m2.962-3.1c-.481,0-1.374.83-2.149,1.931.158-.116.338-.243.545-.382a2.617,2.617,0,0,1,1.429-.538,1.979,1.979,0,0,1,.532.082c.127.033.2.079.29.014a.346.346,0,0,0,.082-.348.971.971,0,0,0-.655-.75.286.286,0,0,0-.074-.009" transform="translate(-82.572 -60.988)"/>
        <path id="Trazado_819975" data-name="Trazado 819975" d="M153.892,150.889a3.108,3.108,0,0,1-2.031-.821,7.07,7.07,0,0,1-1.522-1.874.246.246,0,1,1,.426-.246,6.571,6.571,0,0,0,1.412,1.743,2.509,2.509,0,0,0,2.154.666,2.271,2.271,0,0,0,.975-.455.246.246,0,1,1,.327.367,2.734,2.734,0,0,1-1.2.568,2.9,2.9,0,0,1-.544.053" transform="translate(-76.373 -75.113)"/>
        <path id="Trazado_819976" data-name="Trazado 819976" d="M155.881,149c-.125,0-.251-.009-.376-.018-.394-.028-.792-.04-1.17-.092-.174-.024-.347-.048-.521-.061-.48-.079-.865-.145-1.3-.245-.13-.035-.251-.064-.372-.093a7.153,7.153,0,0,1-.784-.222,3.416,3.416,0,0,1-.445-.177c-.1-.045-.2-.091-.308-.132a.246.246,0,0,1,.174-.459c.118.044.229.094.336.143a3.039,3.039,0,0,0,.395.157,6.709,6.709,0,0,0,.748.212c.125.031.25.061.375.095.412.094.79.159,1.24.234.162.011.346.036.529.062.4.056.766.062,1.138.089a3.743,3.743,0,0,0,.905-.047l.091.484a4.009,4.009,0,0,1-.655.072" transform="translate(-76.445 -74.937)"/>
        <path id="Trazado_819977" data-name="Trazado 819977" d="M158.843,132.208a2.474,2.474,0,0,1,1.132-.932,1.425,1.425,0,0,1,1.317.3.246.246,0,0,0,.248-.424,1.936,1.936,0,0,0-1.7-.347,2.811,2.811,0,0,0-1.425,1.157c-.181.262.246.508.424.248" transform="translate(-80.474 -66.424)" fill="#495edb"/>
        <path id="Trazado_819978" data-name="Trazado 819978" d="M147.1,122.216c-6.084-3.786-10.167,6.915-5.331,10.46,2.539,1.861,5.6.321,6.847-2.254s.949-6.423-1.516-8.206c-.258-.186-.5.241-.248.424,2.168,1.567,2.335,4.768,1.524,7.087-.936,2.676-4.1,4.422-6.523,2.381-4-3.374-.46-12.866,5-9.468.27.168.517-.257.248-.424" transform="translate(-70.951 -61.695)" fill="#495edb"/>
        <path id="Trazado_819979" data-name="Trazado 819979" d="M131.464,141.376l4.747-1.4a.246.246,0,0,0-.131-.474l-4.747,1.4a.246.246,0,0,0,.131.474" transform="translate(-66.645 -70.878)" fill="#495edb"/>
        <path id="Trazado_819980" data-name="Trazado 819980" d="M170.954,123.333c.338-2.065.306-5.539-1.833-6.7a2.591,2.591,0,0,0-2.8.6c-1.218,1.021-1.714,2.839-1.988,4.327-.372,2.016-.586,6.277,2.323,6.617,2.68.313,3.883-2.686,4.3-4.842.06-.31-.414-.442-.474-.131-.346,1.787-1.152,4.288-3.274,4.5-2.722.277-2.656-3.548-2.5-5.3.164-1.819,1.568-6.771,4.356-5.253,1.773.966,1.69,4.376,1.417,6.045-.051.31.423.443.474.131" transform="translate(-83.392 -59.153)" fill="#495edb"/>
        <path id="Trazado_819981" data-name="Trazado 819981" d="M148.417,355.252c.559-.895-.4-2.282-.888-2.8-1.443-1.53-2.936-2.869-5.758-3-1.034-.05-3.352.413-4.37.182-1.652-.373-2.323-11.928-2.323-11.928-6.556.888-13.567,1.912-13.567,1.912s3.693,14.839,4.69,15.843a4.149,4.149,0,0,0,4.143,1.365,44.619,44.619,0,0,1,5.554-1,10.743,10.743,0,0,1,4.644.547c.66.223.748.781,2,.32.507-.187,1.754.523,2.276.363a5.224,5.224,0,0,0,1-.683c.136-.205,1.638.407,2.594-1.116" transform="translate(-61.742 -171.594)" fill="#ffd4d4"/>
        <path id="Trazado_819982" data-name="Trazado 819982" d="M88.551,222.462,88,225.74a21.218,21.218,0,0,0,9.833,3.369c1.275,6.191,6.648,28.045,6.648,28.045,4.644,1.092,11.609-.092,13.794-1.548-.09-6.829-2.685-22.763-3.414-24.13a11.812,11.812,0,0,0,5.008.274c2-6.1,4.461-12.749,5.372-15.3s1.821-3.642,4.007-4.552,9.47-4.1,8.012-15.844c4.644.637,11.474,1.73,11.474,1.73l-.182-19.485s-11.747-5.828-21.763-.911c3.1,2.914,2.095,8.014-3.551,10.745s-13.294.364-17.755-5.1a19.438,19.438,0,0,0-13.932,15.206c-1.821,9.378-3,24.221-3,24.221" transform="translate(-44.717 -89.133)" fill="#495edb"/>
        <path id="Trazado_819983" data-name="Trazado 819983" d="M88.063,222.121l-.546,3.278a.261.261,0,0,0,.113.278,13.847,13.847,0,0,0,2.644,1.463,23.356,23.356,0,0,0,2.938,1.072c.409.122,4.153.755,4.167.823.7,3.4,1.525,6.779,2.326,10.157q2.107,8.886,4.293,17.751a.245.245,0,0,0,.172.172,23.633,23.633,0,0,0,12.3-.793,7.859,7.859,0,0,0,1.682-.78c.32-.2.093-1.231.078-1.549-.079-1.736-.248-3.47-.434-5.2-.4-3.768-.946-7.523-1.575-11.26-.245-1.455-.507-2.909-.815-4.353a9.014,9.014,0,0,0-.581-2.106l-.278.361a12.064,12.064,0,0,0,5.139.274c.218-.051.271-.473.309-.589q.415-1.261.845-2.518.768-2.261,1.568-4.51c.832-2.358,1.687-4.708,2.537-7.06.859-2.379,1.763-4.188,4.2-5.207a13.591,13.591,0,0,0,5.469-3.973c2.719-3.383,3.129-7.91,2.644-12.075l-.311.238c3.831.529,7.655,1.119,11.474,1.729a.25.25,0,0,0,.311-.237q-.091-9.743-.182-19.485a.243.243,0,0,0-.122-.212c-6.637-3.27-15.242-4.137-22.011-.911a.248.248,0,0,0-.05.387,5.272,5.272,0,0,1,1.017,6.274c-1.21,2.511-3.984,4.134-6.582,4.83-5.67,1.518-11.8-1.5-15.394-5.806a.242.242,0,0,0-.239-.063,20.735,20.735,0,0,0-9.16,5.549c-3.3,3.452-4.626,7.784-5.4,12.387-1.214,7.184-1.972,14.469-2.553,21.729-.025.316.467.314.492,0,.264-3.3.6-6.6.961-9.893.332-3,.706-6,1.146-8.981a44.519,44.519,0,0,1,1.8-8.568,19.212,19.212,0,0,1,10.86-11.062c.44-.181.889-.34,1.341-.489.693-.229.915.341,1.374.825a17.68,17.68,0,0,0,3.394,2.725,16.444,16.444,0,0,0,7.558,2.474,11.771,11.771,0,0,0,10.047-4.186c1.9-2.528,2.022-5.8-.311-8.092q-.024.193-.05.386c5.532-2.637,11.837-2.293,17.585-.573A27.5,27.5,0,0,1,148.1,178.2c.028.014-.036-.309-.032.147q.007.717.013,1.434.083,8.867.166,17.734l.311-.238c-3.819-.61-7.643-1.2-11.474-1.729-.14-.019-.332.061-.311.237.492,4.226.044,8.684-2.772,12.058a15.36,15.36,0,0,1-5.71,3.84,6.628,6.628,0,0,0-3.268,3.743c-.806,1.927-1.44,3.946-2.146,5.91q-1.5,4.189-2.932,8.4c-.055.164-.429,1.513-.439,1.514a5.689,5.689,0,0,1-.726.092,14.018,14.018,0,0,1-4.1-.379.249.249,0,0,0-.278.361,14.546,14.546,0,0,1,.857,3.6c.433,2.261.795,4.535,1.133,6.812.392,2.642.734,5.292,1.007,7.949q.17,1.656.284,3.318c.032.484.057.969.076,1.453.027.662.04.755-.564,1.048a20.89,20.89,0,0,1-8.421,1.55c-.726.015-1.453-.016-2.177-.067-.233-.017-2.141-.231-2.128-.18l-.155-.632q-1.192-4.86-2.366-9.723c-1.42-5.881-2.9-11.76-4.125-17.686a.251.251,0,0,0-.237-.181,22.968,22.968,0,0,1-9.039-2.893q-.3-.179-.58-.377c-.189-.132.06-.007.027.191.025-.149.05-.3.075-.447l.468-2.809c.052-.31-.423-.443-.474-.131" transform="translate(-44.467 -88.858)" fill="#495edb"/>
        <path id="Trazado_819984" data-name="Trazado 819984" d="M103.6,266.5a.247.247,0,0,1-.241-.2c-1.511-7.466-3.155-14.647-4-17.462a.246.246,0,0,1,.471-.141c.848,2.828,2.5,10.026,4.011,17.5a.246.246,0,0,1-.192.29.239.239,0,0,1-.049,0" transform="translate(-50.484 -126.282)"/>
        <path id="Trazado_819985" data-name="Trazado 819985" d="M139.059,265.187a.246.246,0,0,1-.242-.2,12.074,12.074,0,0,0-.887-2.375,34.307,34.307,0,0,1-1.658-4.338c-.626-2.108-.76-6.909-.878-11.144-.072-2.6-.141-5.049-.314-6.47a.245.245,0,0,1,.214-.274.242.242,0,0,1,.274.214c.177,1.444.245,3.908.318,6.515.118,4.205.25,8.972.858,11.018a33.775,33.775,0,0,0,1.636,4.278,12.331,12.331,0,0,1,.921,2.484.246.246,0,0,1-.2.287.243.243,0,0,1-.046,0" transform="translate(-68.637 -122.143)"/>
        <path id="Trazado_819986" data-name="Trazado 819986" d="M187.52,213.5a.246.246,0,0,1-.244-.22c0-.027-.276-2.657-.545-4.451a.246.246,0,0,1,.486-.073c.271,1.806.545,4.447.548,4.473a.246.246,0,0,1-.219.27h-.026" transform="translate(-94.88 -105.966)"/>
        <path id="Trazado_819987" data-name="Trazado 819987" d="M101.675,359.015a.246.246,0,0,1-.245-.234l-.318-6.237a.246.246,0,0,1,.491-.025l.318,6.237a.246.246,0,0,1-.233.258h-.013" transform="translate(-51.377 -179.003)"/>
        <path id="Trazado_819988" data-name="Trazado 819988" d="M101.632,356.373a.246.246,0,0,1-.053-.486l4.145-.911a.246.246,0,0,1,.106.481l-4.145.911a.244.244,0,0,1-.053.006" transform="translate(-51.517 -180.368)"/>
        <path id="Trazado_819989" data-name="Trazado 819989" d="M156.82,372.062a.246.246,0,0,1-.072-.481c.06-.018.073-.043.082-.068a1.733,1.733,0,0,0-.35-1.018,5.855,5.855,0,0,0-3.658-2.169,6.51,6.51,0,0,0-1.857-.043,6.975,6.975,0,0,0-.873.166c-.154.036-.308.072-.462.1a.246.246,0,0,1-.1-.482c.149-.03.3-.064.447-.1a7.461,7.461,0,0,1,.943-.178,7,7,0,0,1,1.988.05,6.364,6.364,0,0,1,3.971,2.371c.068.1.6.93.41,1.465a.59.59,0,0,1-.4.372.247.247,0,0,1-.072.011" transform="translate(-75.88 -186.86)"/>
        <path id="Trazado_819990" data-name="Trazado 819990" d="M161.764,370.338a.246.246,0,0,1-.11-.466c.365-.182.519-.359.548-.628a1.741,1.741,0,0,0-.031-1.024,4.748,4.748,0,0,0-1.484-1.954,6.8,6.8,0,0,0-2.2-1.227,4.166,4.166,0,0,0-2.284-.213c-.354.025-.7.081-1.027.136s-.693.116-1.046.139a.243.243,0,0,1-.262-.229.247.247,0,0,1,.229-.262c.328-.022.668-.078,1-.133s.7-.116,1.051-.139a4.594,4.594,0,0,1,2.519.243,7.237,7.237,0,0,1,2.354,1.324,5.111,5.111,0,0,1,1.618,2.164,2.168,2.168,0,0,1,.048,1.263,1.272,1.272,0,0,1-.812.98.244.244,0,0,1-.11.026" transform="translate(-78.184 -185.09)"/>
        <path id="Trazado_819991" data-name="Trazado 819991" d="M241.876,115.542l-1.229-4.917s3.186-8.285,4.916-8.559,3.734-1.367,3.1-4.462-2.186-2.367-2.186-2.367c-1.547-2.64-2.914-2.458-3.824-2-2.458-3.277-7.74-3.733-10.654,1.639s-1.912,15.661.092,27.68c3.1-2.094,9.788-7.011,9.788-7.011" transform="translate(-116.957 -46.134)" fill="#ffd4d4"/>
        <path id="Trazado_819992" data-name="Trazado 819992" d="M135.53,198.3a19.93,19.93,0,0,1-13.437-5.184.246.246,0,1,1,.328-.366,19.47,19.47,0,0,0,14.353,5.018c3.5-.233,6.663-1.444,8.067-3.085a12.072,12.072,0,0,0,2.5-6.923.256.256,0,0,1,.254-.237.246.246,0,0,1,.237.254A12.34,12.34,0,0,1,145.217,195c-1.488,1.74-4.788,3.019-8.41,3.259-.384.026-.812.042-1.277.042" transform="translate(-61.997 -95.283)"/>
        <path id="Trazado_819993" data-name="Trazado 819993" d="M237.957,115.424c-1.774-.652-2.039-2.177-.586-3.387l7.846-6.539c1.452-1.211,2.9-.677,3.224,1.187l1.741,10.062c.323,1.864-.866,2.853-2.64,2.2Z" transform="translate(-120.137 -53.277)" fill="#7db3db"/>
        <path id="Trazado_819994" data-name="Trazado 819994" d="M255.868,104.566c.092,1.63,1.041,1.992,1.72,1.585-.271,1.81,1.359,2.172,1.812,1.764s-.137-5.7-3.3-5.3a3.271,3.271,0,0,0-.227,1.946" transform="translate(-129.983 -52.132)" fill="#ffd4d4"/>
        <path id="Trazado_819995" data-name="Trazado 819995" d="M239.611,90.947c-4.143-1.153-8.012,2.105-9.235,8.284a38.2,38.2,0,0,0-.037,10.335,15.779,15.779,0,0,1,2.025.329l.252-4.824c1.155.34,6.247,1.019,6.995-1.765s-2.581-3.667-5.568-2.58c.339-1.494,1.086-4.006,2.987-4.686s3.056,4.21,5.229,2.988,1.493-6.926-2.648-8.081" transform="translate(-116.872 -46.095)" fill="#ffd4d4"/>
        <path id="Trazado_819996" data-name="Trazado 819996" d="M237.8,107.765a11.292,11.292,0,0,1-2.816-.338.246.246,0,0,1,.139-.472c.861.253,3.914.678,5.613-.275a2.123,2.123,0,0,0,1.075-1.318,1.85,1.85,0,0,0-.459-1.982c-.94-.862-2.909-.986-4.788-.3a.242.242,0,0,1-.246-.047.245.245,0,0,1-.077-.239c.622-2.739,1.651-4.329,3.144-4.863,1.057-.378,1.859.622,2.635,1.587.955,1.187,1.649,1.927,2.555,1.418a2.2,2.2,0,0,0,.973-1.488,5.56,5.56,0,0,0-.864-4.171A.246.246,0,1,1,245.1,95a6.072,6.072,0,0,1,.935,4.559,2.676,2.676,0,0,1-1.211,1.8c-1.335.753-2.316-.464-3.18-1.538-.7-.87-1.361-1.69-2.087-1.432-1.247.446-2.141,1.782-2.727,4.081,1.913-.575,3.867-.368,4.862.545a2.315,2.315,0,0,1,.6,2.472,2.6,2.6,0,0,1-1.309,1.619,6.7,6.7,0,0,1-3.176.656" transform="translate(-119.313 -48.217)"/>
        <path id="Trazado_819997" data-name="Trazado 819997" d="M256.641,104.617a1.25,1.25,0,0,1-.216-.018c-.362-.063-.978-.354-1.045-1.588a.246.246,0,1,1,.491-.027c.025.469.156,1.045.638,1.13.707.121,1.95-.8,2.555-2.231a3.435,3.435,0,0,0-.225-2.732.246.246,0,1,1,.444-.212,3.872,3.872,0,0,1,.235,3.136c-.61,1.44-1.881,2.542-2.877,2.542" transform="translate(-129.764 -50.202)"/>
        <path id="Trazado_819998" data-name="Trazado 819998" d="M260.439,111.627a1.389,1.389,0,0,1-.913-.32,1.946,1.946,0,0,1-.47-1.925.246.246,0,1,1,.483.092,1.493,1.493,0,0,0,.305,1.458,1.1,1.1,0,0,0,1.106.105.246.246,0,0,1,.169.462,1.98,1.98,0,0,1-.68.128" transform="translate(-131.601 -55.478)"/>
        <path id="Trazado_819999" data-name="Trazado 819999" d="M301.717,135.191l-36.571-21.114a14.694,14.694,0,0,0-13.247,0l-36.571,21.114a14.694,14.694,0,0,0-6.624,11.473v42.229a14.7,14.7,0,0,0,6.624,11.473L251.9,221.479a14.691,14.691,0,0,0,13.247,0l36.571-21.113a14.7,14.7,0,0,0,6.623-11.473V146.664a14.7,14.7,0,0,0-6.623-11.473" transform="translate(-106.048 -57.164)" fill="#def2ff"/>
        <path id="Trazado_820000" data-name="Trazado 820000" d="M310.433,182.494a24.949,24.949,0,1,0-35.638,22.548c2.726,1.656,2.733,3.807,2.615,7.647-.1,3.233-.318,5.837,1.172,7.205,1.189,1.3,3.829,2.21,6.9,2.21s5.713-.907,6.9-2.21c1.49-1.368,1.271-3.972,1.171-7.205-.118-3.84-.111-5.991,2.614-7.647a24.951,24.951,0,0,0,14.262-22.548" transform="translate(-132.383 -80.052)" fill="#f2ac30"/>
        <path id="Trazado_820001" data-name="Trazado 820001" d="M310.482,182.238a25.191,25.191,0,1,0-38.75,21.239,33.566,33.566,0,0,1,3.672,2.2,5.091,5.091,0,0,1,1.559,3.633c.245,2.891-.493,5.885.222,8.732.577,2.3,3.066,3.3,5.145,3.76,3.511.777,9.755.405,11.058-3.76,1.29-4.123-1.962-10.784,3.025-13.2a25.415,25.415,0,0,0,14.069-22.608.246.246,0,0,0-.492,0,24.734,24.734,0,0,1-13.825,22.183,5.556,5.556,0,0,0-3.047,4.888c-.252,2.974.823,6.547-.487,9.338-1.394,2.97-6.332,3.128-9.047,2.859a9,9,0,0,1-4.648-1.682c-1.3-1.028-1.5-2.591-1.546-4.145-.084-2.729.551-5.67-.3-8.327-.75-2.357-3.218-3.105-5.116-4.3A24.708,24.708,0,0,1,260.733,179.5c1.2-11.759,11.156-21.028,22.832-21.9a24.706,24.706,0,0,1,26.426,24.645.246.246,0,0,0,.492,0" transform="translate(-132.187 -79.796)" fill="#f2ac30"/>
        <path id="Trazado_820002" data-name="Trazado 820002" d="M310.954,262.563a37.708,37.708,0,0,1-16.225,0,26.947,26.947,0,0,1,.038,3.487c-.1,3.233-.318,5.837,1.172,7.205,1.189,1.3,3.829,2.21,6.9,2.21s5.713-.907,6.9-2.21c1.49-1.368,1.271-3.972,1.171-7.205a27.04,27.04,0,0,1,.038-3.487" transform="translate(-149.741 -133.414)" fill="#32015c"/>
        <path id="Trazado_820003" data-name="Trazado 820003" d="M310.522,262.073a38.039,38.039,0,0,1-16.094,0,.248.248,0,0,0-.311.237c.285,3.181-.814,6.963.59,9.952,1.241,2.645,5.25,3.162,7.768,3.2,2.688.038,6.316-.641,7.77-3.2a8.123,8.123,0,0,0,.621-3.971c-.007-1.994-.211-3.989-.032-5.98.029-.316-.464-.313-.492,0-.265,2.953.489,6.066-.239,8.965-.769,3.063-5.04,3.655-7.628,3.692-2.723.038-6.69-.7-7.627-3.692a13.023,13.023,0,0,1-.243-4.192,40.046,40.046,0,0,0,0-4.774l-.311.238a38.674,38.674,0,0,0,16.355,0c.31-.067.179-.542-.131-.475" transform="translate(-149.375 -133.162)" fill="#32015c"/>
        <path id="Trazado_820004" data-name="Trazado 820004" d="M291.793,229.383h-.017a.491.491,0,0,1-.475-.508,44.361,44.361,0,0,0-2.229-15.234,10.661,10.661,0,0,1-1.589.071c-4.8-.14-7.54-2.662-8.433-4.78a3.144,3.144,0,0,1,.277-3.409c.471-.513,1.621-1.255,4.027-.473,2.917.95,4.967,3.879,6.362,7.486a9.127,9.127,0,0,0,4.458-2.414,15.229,15.229,0,0,1-4.422-9.881c-.148-4.089,2.082-5.892,4.219-6.216a4.666,4.666,0,0,1,5.273,3.283c.793,2.928-.324,8.555-3.25,12.266q-.2.258-.415.5a10.025,10.025,0,0,0,1.55,1.067,8.531,8.531,0,0,0,1.8.748c1.793-5.4,4.4-7.739,5.88-8.677a4.064,4.064,0,0,1,4.145-.292,3.272,3.272,0,0,1,1.737,2.869c.017,1.2-.575,3.574-4.721,5.965a9.36,9.36,0,0,1-6.346,1.3,47.94,47.94,0,0,0-1.608,15.012.493.493,0,0,1-.479.506.5.5,0,0,1-.505-.479,49.5,49.5,0,0,1,1.6-15.265,9.555,9.555,0,0,1-1.979-.827,10.884,10.884,0,0,1-1.749-1.213,10.062,10.062,0,0,1-4.846,2.682,47.051,47.051,0,0,1,2.226,15.438.492.492,0,0,1-.491.475m-10.356-23.692a1.805,1.805,0,0,0-1.384.5,2.216,2.216,0,0,0-.1,2.361c.78,1.848,3.227,4.052,7.556,4.178a9.593,9.593,0,0,0,1.2-.038c-1.331-3.32-3.2-5.9-5.663-6.7a5.306,5.306,0,0,0-1.614-.3m18.489,6.412a8.528,8.528,0,0,0,5.55-1.2c2.711-1.564,4.252-3.422,4.229-5.1a2.27,2.27,0,0,0-1.22-2.017,3.1,3.1,0,0,0-3.149.257c-1.089.692-3.623,2.792-5.41,8.06m-5.235-17.148a3.775,3.775,0,0,0-.572.043c-1.718.26-3.508,1.765-3.383,5.208a14.18,14.18,0,0,0,4.114,9.207q.2-.227.372-.449c2.992-3.794,3.707-9.058,3.073-11.4a3.636,3.636,0,0,0-3.6-2.61" transform="translate(-141.61 -98.559)" fill="#32015c"/>
        <path id="Trazado_820005" data-name="Trazado 820005" d="M303.8,269.525a23.068,23.068,0,0,1-6.533-.856.246.246,0,1,1,.139-.472c4.286,1.26,8.8.847,12.689.361a.249.249,0,0,1,.274.214.245.245,0,0,1-.214.274,51.14,51.14,0,0,1-6.355.479" transform="translate(-150.96 -136.272)"/>
        <path id="Trazado_820006" data-name="Trazado 820006" d="M229.553,241.634c-1.483,1.162-2.914.586-3.178-1.279l-1.426-10.077c-.264-1.867.948-2.816,2.7-2.112l9.44,3.8c1.748.7,1.965,2.23.481,3.392Z" transform="translate(-114.283 -115.817)" fill="#d4336e"/>
        <path id="Trazado_820007" data-name="Trazado 820007" d="M294.834,310.339a1.977,1.977,0,0,1-.84-.177,2.06,2.06,0,0,1-1.066-2.134,3.755,3.755,0,0,1,2.252-3.209,6.787,6.787,0,0,1,.745-.336,6.2,6.2,0,0,0-3.537-1.5,3.89,3.89,0,0,0-3.993,2.162.246.246,0,1,1-.44-.22,4.37,4.37,0,0,1,4.471-2.432,6.692,6.692,0,0,1,4.022,1.81,9.748,9.748,0,0,1,7.686.942.246.246,0,1,1-.269.412,9.2,9.2,0,0,0-7.038-.954,4.6,4.6,0,0,1,.911,1.589,3,3,0,0,1-.916,3.235,3.091,3.091,0,0,1-1.988.811m1.482-5.477a6.626,6.626,0,0,0-.906.392,3.305,3.305,0,0,0-1.99,2.785,1.638,1.638,0,0,0,.782,1.677,2.26,2.26,0,0,0,2.3-.557,2.506,2.506,0,0,0,.772-2.717,4.233,4.233,0,0,0-.954-1.58" transform="translate(-146.303 -153.694)" fill="#495edb"/>
        <path id="Trazado_820008" data-name="Trazado 820008" d="M369.7,260.363a5.919,5.919,0,1,1-5.918-5.919,5.919,5.919,0,0,1,5.918,5.919" transform="translate(-181.835 -129.288)" fill="#7db3db"/>
        <path id="Trazado_820009" data-name="Trazado 820009" d="M372.957,169.42a2.867,2.867,0,0,1-4.019.546l-4.458-3.389a2.869,2.869,0,0,1,3.473-4.567l4.458,3.39a2.869,2.869,0,0,1,.547,4.02" transform="translate(-184.625 -82.024)" fill="#ffc4c4"/>
        <path id="Trazado_820010" data-name="Trazado 820010" d="M255.222,272.627a2.867,2.867,0,0,1,3.61,1.85l1.718,5.33a2.869,2.869,0,0,1-5.461,1.759l-1.718-5.33a2.868,2.868,0,0,1,1.85-3.609" transform="translate(-128.673 -138.457)" fill="#ffc4c4"/>
        <path id="Trazado_820011" data-name="Trazado 820011" d="M237.052,180.723a4.139,4.139,0,1,1,4.139-4.139,4.143,4.143,0,0,1-4.139,4.139m0-7.785a3.647,3.647,0,1,0,3.647,3.647,3.651,3.651,0,0,0-3.647-3.647" transform="translate(-118.348 -87.624)" fill="#495edb"/>
        <path id="Trazado_820012" data-name="Trazado 820012" d="M283.038,140.052a9.907,9.907,0,0,1-2.7-.426.246.246,0,0,1,.135-.473c2.589.737,4.356.5,6.1-.822a13.811,13.811,0,0,0,1.522-1.352,4.983,4.983,0,0,1-2.1-1.931,4.439,4.439,0,0,1-.358-3.706,2.391,2.391,0,0,1,1.68-1.478,2.993,2.993,0,0,1,3.158,1.654c.914,1.825-.268,3.823-1.524,5.257a4.369,4.369,0,0,0,1.836.115,5.043,5.043,0,0,0,4.138-3.709.246.246,0,1,1,.475.127,5.533,5.533,0,0,1-4.542,4.069,4.859,4.859,0,0,1-2.275-.2,15.178,15.178,0,0,1-1.711,1.544,6.064,6.064,0,0,1-3.824,1.331m4.663-9.725a2.437,2.437,0,0,0-.3.019,1.884,1.884,0,0,0-1.315,1.181,3.91,3.91,0,0,0,.322,3.263,4.464,4.464,0,0,0,2.038,1.807c1.315-1.467,2.35-3.329,1.572-4.883a2.465,2.465,0,0,0-2.314-1.387" transform="translate(-142.353 -65.974)" fill="#f2ac30"/>
        <path id="Trazado_820013" data-name="Trazado 820013" d="M405.216,226.121a40.719,40.719,0,0,0-1.937-7.409c-.546-1.414-.15-2.3-2.267-3.528s-4.712-3.415-5.191-3.62-1.229-3.141-4.029-.546-5.872,2.8-6.623.341c-1.434-.273-2.254-1.433-1.845-2.253s3.688-3.073,3.688-3.073c-1.639.887-4.508,1.092-4.917-.136s.956-2.186,3.278-2.869,11.61-4.849,14.136-3.278,6.557,4.985,9.425,6.9,3.893,4.985,5.259,8.6,2.458,7.444,2.458,7.444-3.582,6.294-11.435,3.425" transform="translate(-194.114 -101.319)" fill="#ffd4d4"/>
        <path id="Trazado_820014" data-name="Trazado 820014" d="M386.216,221a1.9,1.9,0,0,1-1.646-.894.246.246,0,1,1,.406-.279c.893,1.3,2.423.526,4.043-.456l.326-.2c.123-.064.238-.121.352-.177a4.409,4.409,0,0,0,1.1-.68.246.246,0,1,1,.337.358,4.824,4.824,0,0,1-1.219.762c-.111.055-.221.11-.33.166l-.31.187A6.636,6.636,0,0,1,386.216,221" transform="translate(-195.387 -110.898)"/>
        <path id="Trazado_820015" data-name="Trazado 820015" d="M384.775,212.578a3.246,3.246,0,0,1-.837-.106.246.246,0,1,1,.125-.476,4.334,4.334,0,0,0,1.924-.059c.157-.029.316-.057.478-.083a10.241,10.241,0,0,0,1.629-.53c.123-.063.251-.121.38-.179s.245-.112.378-.178c.091-.046.182-.1.275-.16a2.566,2.566,0,0,1,.632-.312.246.246,0,1,1,.135.473,2.175,2.175,0,0,0-.509.258c-.106.065-.21.129-.313.181-.139.07-.267.128-.4.186s-.245.112-.379.178a10.712,10.712,0,0,1-1.74.566c-.175.028-.331.056-.484.084a7.281,7.281,0,0,1-1.3.156" transform="translate(-194.994 -106.952)"/>
        <path id="Trazado_820016" data-name="Trazado 820016" d="M404.485,195.985a2.113,2.113,0,0,1,.589,2.916l-5.667,8.532a2.108,2.108,0,0,1-2.914.589l-8.533-5.666a2.11,2.11,0,0,1-.589-2.915l5.666-8.532a2.109,2.109,0,0,1,2.914-.59Z" transform="translate(-196.655 -96.529)" fill="#495edb"/>
        <path id="Trazado_820017" data-name="Trazado 820017" d="M503.4,152.21c-12.655.672-10.473,11.106-9.462,14.517.925,3.121-3.372,5.725-1.179,9.58s6.063,5.942,12.073,6.216c0,0-.3,6.693-.571,8.877l12.567-.819c-.527-3.871-1.662-11.9-.115-14.888.63-1.215,4.429,3.889,8.467-2.321s-9.126-21.833-21.78-21.162" transform="translate(-250.059 -77.331)" fill="#ffd4d4"/>
        <path id="Trazado_820018" data-name="Trazado 820018" d="M517.676,210.261a.246.246,0,0,1-.014-.491,15.833,15.833,0,0,0,8.619-3.309.246.246,0,0,1,.307.385,16.338,16.338,0,0,1-8.9,3.415h-.014" transform="translate(-262.917 -104.88)"/>
        <path id="Trazado_820019" data-name="Trazado 820019" d="M518.123,184.709c1.258-.063,1.867,2.4.645,2.554s-1.677-2.5-.645-2.554" transform="translate(-262.979 -93.854)"/>
        <path id="Trazado_820020" data-name="Trazado 820020" d="M517.626,184.488a.243.243,0,0,1-.1-.022l-.075-.034a3.264,3.264,0,0,1-1.183-.721.246.246,0,0,1,.38-.313,3.093,3.093,0,0,0,1,.585l.076.034a.246.246,0,0,1-.1.47" transform="translate(-262.298 -93.143)"/>
        <path id="Trazado_820021" data-name="Trazado 820021" d="M499.129,182.22c1.259-.018,1.777,2.464.551,2.575s-1.585-2.562-.551-2.575" transform="translate(-253.311 -92.59)"/>
        <path id="Trazado_820022" data-name="Trazado 820022" d="M498.675,181.967a.252.252,0,0,1-.11-.026l-.083-.041a3.227,3.227,0,0,1-1.146-.759.246.246,0,0,1,.39-.3,3.074,3.074,0,0,0,.974.617l.084.041a.246.246,0,0,1-.11.466" transform="translate(-252.682 -91.841)"/>
        <path id="Trazado_820023" data-name="Trazado 820023" d="M505.008,186.9a3.2,3.2,0,0,1-2.3-.711c-.87-.778-.357-1.722-.017-2.347a6.532,6.532,0,0,0,.98-3.115,2.9,2.9,0,0,0-.912-2.02l-.224-.275a.246.246,0,1,1,.383-.308l.221.271a3.358,3.358,0,0,1,1.025,2.323,6.973,6.973,0,0,1-1.039,3.359c-.4.742-.626,1.264-.087,1.746a3.3,3.3,0,0,0,2.474.577c.14,0,.28-.007.42-.008h0a.246.246,0,0,1,0,.492c-.137,0-.274,0-.411.008-.172,0-.345.008-.518.008" transform="translate(-255.195 -90.463)"/>
        <path id="Trazado_820024" data-name="Trazado 820024" d="M508.653,199.613c-.738,0-1.411-.647-2-1.924a.247.247,0,0,1,.024-.247.251.251,0,0,1,.227-.1,6.984,6.984,0,0,0,3.989-1.63.246.246,0,0,1,.423.213c-.307,1.531-1.334,3.688-2.662,3.688m-1.386-1.787c.448.849.923,1.3,1.386,1.3.826,0,1.6-1.325,1.99-2.564a8.655,8.655,0,0,1-3.375,1.269" transform="translate(-257.429 -99.404)"/>
        <path id="Trazado_820025" data-name="Trazado 820025" d="M514.766,176.886c-.34-.853.493-1.817,2.029-1.168a6.238,6.238,0,0,1,2.812,2.6c.546,1.024-.1.427-.752-.084a4.475,4.475,0,0,0-3.136-1.076c-.563.012-.883.065-.953-.276" transform="translate(-261.525 -89.178)" fill="#d4336e"/>
        <path id="Trazado_820026" data-name="Trazado 820026" d="M519.507,178.881c-.186,0-.394-.161-.847-.524l-.215-.172a4.2,4.2,0,0,0-2.853-1.025l-.3.006c-.09,0-.173,0-.248,0-.219,0-.675,0-.773-.484a1.174,1.174,0,0,1,.123-1.1,1.788,1.788,0,0,1,2.242-.343,6.44,6.44,0,0,1,2.934,2.715c.236.441.281.631.19.783a.335.335,0,0,1-.249.139m-3.916-2.213a4.7,4.7,0,0,1,3.158,1.13l.219.174.077.061a6.031,6.031,0,0,0-2.6-2.337c-.729-.307-1.374-.231-1.644.167a.721.721,0,0,0-.06.684c.024.1.03.132.3.132.071,0,.148,0,.233,0Z" transform="translate(-261.268 -88.932)" fill="#d4336e"/>
        <path id="Trazado_820027" data-name="Trazado 820027" d="M487.642,142.435c1.092-1.866,5.463-6.556,11.564-9.152,0,5.737,3.049,14.66,10.107,14.887-.228,2.368-.5,4.1.09,4.326s2.55-1.047,2.869-3.87a4.183,4.183,0,0,1,6.647,1.639c.911,2.869-1.867,7.329-6.965,5.281-.819-.137-1.821,1.366-1.639,4.643a11.187,11.187,0,0,0,11.2-5.281,13.252,13.252,0,0,0-.548-13.7c-2.594-4.189-3.1-5.874-2.594-8.013,7.558,1.548,12.252-3.737,11.229-10.429s-7.456-10.821-14.695-8.977-9.284,10.391-1.968,15.371c-1.025,1.16-4.173.028-8.133-1.815s-15.757-4.538-21.581,4.576c-5.964,9.333,2.869,15.433,5.122,14.819a12.548,12.548,0,0,1-.705-4.3" transform="translate(-244.504 -57.593)" fill="#d4336e"/>
        <path id="Trazado_820028" data-name="Trazado 820028" d="M518.677,270.817c-4.644-10.744-6.192-17.118-10.653-28.226s-12.656-11.109-17.573-11.656-6.5-2.786-6.777-6.427c-10.107,3.733-12.072-1.039-12.254-.674-.866,5.373-2.55,5.372-8.379,4.552s-13.293,8.65-19.3,16.39c0,0-3.643-10.244-4.554-11.792-4.78,4.166-8.694,3.72-11.631,2.764,0,0,1.276,4.521,2.021,7.662-5.868,1.98,1.177,17.681,4.283,23.719,5.691,11.063,15.608,7.773,23.167-3.7,1.831,1.894,3.886,3.825,3.978,4.736a50.426,50.426,0,0,1-.419,8.388c-.454,2.731-2.731,10.563-2.731,10.835s2.913,7.376,2.913,7.376,28.591.547,28.5,4.644c4.37-.637,18.939.273,27.589-3.916s6.464-13.931,1.82-24.676m-22.217,12.2,1.183-12.93,3.278,12.566Z" transform="translate(-217.127 -113.724)" fill="#7db3db"/>
        <path id="Trazado_820029" data-name="Trazado 820029" d="M518.617,270.443c-2.567-5.96-4.7-12.068-6.873-18.179q-1.7-4.8-3.576-9.541a22.027,22.027,0,0,0-4.336-7.151,16.909,16.909,0,0,0-10.366-4.776,32.09,32.09,0,0,1-5.9-.914c-2.6-.849-3.693-3.045-3.914-5.623a.249.249,0,0,0-.311-.237c-3.4,1.23-8.4,2.642-11.46-.149-.209-.19-.645-.826-.941-.412a5.625,5.625,0,0,0-.319,1.541,7.95,7.95,0,0,1-.513,1.507,2.878,2.878,0,0,1-1.927,1.636c-2.076.569-4.28-.342-6.365-.3-2.126.045-4.126,1.288-5.78,2.5-5.058,3.719-8.924,9.093-12.738,14l.411.109q-.97-2.728-1.981-5.439a44.037,44.037,0,0,0-2.6-6.412.25.25,0,0,0-.387-.05c-3.349,2.849-7.143,4.052-11.392,2.7a.248.248,0,0,0-.3.3c.717,2.542,1.406,5.093,2.021,7.661.058-.1.115-.2.172-.3-3.253,1.195-2.533,5.667-1.986,8.3a60.3,60.3,0,0,0,4.928,13.368c1.916,4.032,4.377,8.477,9.21,9.247,4.955.79,9.477-3.028,12.506-6.465a37.923,37.923,0,0,0,3.068-4.069l-.386.05c.794.818,1.6,1.624,2.382,2.455.589.626,1.487,1.425,1.54,2.339a42.094,42.094,0,0,1-.1,4.97,50.022,50.022,0,0,1-2.007,10.014c-.328,1.215-.673,2.426-.982,3.646a2.529,2.529,0,0,0,.339,1.562c.8,2.092,1.659,4.166,2.509,6.24a.254.254,0,0,0,.237.181c4.483.087,8.97.332,13.438.711a81.571,81.571,0,0,1,9.885,1.315c1.063.223,4.9.788,4.932,2.372a.251.251,0,0,0,.311.237c4.044-.561,8.224-.339,12.294-.63,5-.357,10.156-1.021,14.788-3.048,10.54-4.612,5.877-17.362,2.475-25.276-.125-.291-.548-.04-.424.248,2.038,4.742,4.081,9.882,4.04,15.125a10.64,10.64,0,0,1-1.744,5.938,12.024,12.024,0,0,1-6.018,4.114c-4.692,1.752-9.838,2.223-14.8,2.516-3.561.211-7.2.047-10.742.537l.311.238c-.032-1.842-3.452-2.424-4.732-2.723a76.6,76.6,0,0,0-11.059-1.5c-3.442-.287-6.894-.47-10.345-.594q-1.22-.044-2.44-.073c-.353-.008.139.353-.025-.047q-.433-1.059-.862-2.119-.716-1.763-1.413-3.534c-.205-.523-.593-1.211-.482-1.664.626-2.544,1.381-5.055,2.015-7.6a39.892,39.892,0,0,0,1.1-8.837,7.089,7.089,0,0,0-.156-3.023c-.873-1.723-2.593-3.084-3.916-4.446a.249.249,0,0,0-.386.05c-2.931,4.4-7.043,9.263-12.536,10.265-5.293.965-8.692-3.5-10.774-7.69a73.554,73.554,0,0,1-4.954-12.338c-.734-2.557-2.475-8.585,1.092-9.895a.252.252,0,0,0,.172-.3c-.615-2.568-1.3-5.12-2.021-7.661l-.3.3c4.426,1.406,8.386.137,11.87-2.828l-.386-.05a44.924,44.924,0,0,1,2.64,6.541q.962,2.589,1.889,5.192c.055.154.288.268.411.109,3.868-4.98,7.778-10.353,12.905-14.123a9.137,9.137,0,0,1,6.851-2.108c1.722.236,3.73.634,5.41-.016,1.382-.535,1.941-2,2.284-3.322.121-.47.383-1.018,0-1.34.078.065.147.144.218.216a6.644,6.644,0,0,0,.819.7c3.214,2.336,8,1,11.339-.211l-.311-.238a7.026,7.026,0,0,0,2.068,4.878c1.575,1.414,3.839,1.689,5.855,1.889,4.116.409,8.075,1.16,11.342,3.893a18.962,18.962,0,0,1,5.094,7.488c1.35,3.29,2.565,6.638,3.756,9.989,2.187,6.15,4.338,12.3,6.922,18.3.125.291.548.04.424-.248" transform="translate(-216.855 -113.475)" fill="#7db3db"/>
        <path id="Trazado_820030" data-name="Trazado 820030" d="M567.88,330.572l1.183-12.93-.483.065,3.278,12.566.237-.311-4.461.364c-.314.026-.317.518,0,.492l4.461-.364a.25.25,0,0,0,.238-.311q-1.639-6.283-3.278-12.566a.247.247,0,0,0-.484.065l-1.183,12.93c-.029.316.463.313.492,0" transform="translate(-288.301 -161.278)" fill="#7db3db"/>
        <path id="Trazado_820031" data-name="Trazado 820031" d="M456.262,351.915c2-1.912,6.829-5.281,8.013-3.552a4.172,4.172,0,0,1,3.1-1c1.366-1.457,3.006-1.822,4.644.091s6.555,6.009,7.376,6.829,7.194.637,21.49-2.458c2.913,1.184,3.07,9.428,3.07,9.428-5.307.336-44.4.15-44.4.15Z" transform="translate(-231.837 -175.882)" fill="#ffd4d4"/>
        <path id="Trazado_820032" data-name="Trazado 820032" d="M479.669,357.876a.246.246,0,0,1-.176-.074l-.067-.069a.24.24,0,0,1-.06-.1,4.333,4.333,0,0,1-.471-1.07c-.128-.255-.246-.509-.365-.763s-.241-.516-.379-.791c-.3-.463-.58-.989-.851-1.5-.213-.4-.431-.81-.666-1.2-.352.411-.73.808-1.1,1.194a21.565,21.565,0,0,0-1.547,1.746l-.088.118c-.608.82-1.742,2.342-3.167,1.517a1.5,1.5,0,0,1-.777-.936,3.223,3.223,0,0,1,.482-2.269c.349-.56.734-1.1,1.106-1.625s.746-1.052,1.084-1.591c.183-.275.347-.559.512-.843a7.828,7.828,0,0,1,1.162-1.659.246.246,0,0,1,.348.348,7.355,7.355,0,0,0-1.084,1.558c-.17.292-.339.585-.524.863-.341.546-.725,1.087-1.1,1.609s-.748,1.054-1.086,1.594a2.818,2.818,0,0,0-.43,1.88,1.02,1.02,0,0,0,.542.64c.976.565,1.755-.331,2.534-1.379l.09-.121a21.942,21.942,0,0,1,1.582-1.788c.459-.483.893-.938,1.293-1.43a.246.246,0,0,1,.4.022c.313.487.593,1.012.864,1.52s.542,1.016.844,1.486c.153.3.275.564.4.827s.233.5.366.767a.4.4,0,0,1,.018.048,3.394,3.394,0,0,0,.5,1.07.246.246,0,0,1-.192.4" transform="translate(-238.762 -176.771)"/>
        <path id="Trazado_820033" data-name="Trazado 820033" d="M462.319,357.161a1.977,1.977,0,0,1-1.578-.7c-.9-1.258.405-2.564.835-2.994a23.636,23.636,0,0,1,4.9-3.318.246.246,0,1,1,.24.429,23.259,23.259,0,0,0-4.8,3.241c-.979.978-1.231,1.725-.788,2.343a1.828,1.828,0,0,0,2.217.264,10.369,10.369,0,0,0,2.057-1.392l.324.371a10.789,10.789,0,0,1-2.169,1.465,2.822,2.822,0,0,1-1.24.3" transform="translate(-233.955 -177.9)"/>
        <path id="Trazado_820034" data-name="Trazado 820034" d="M457.859,363.088a.246.246,0,0,1-.034-.489,2.819,2.819,0,0,0,1.363-.613.246.246,0,0,1,.348.348,3.28,3.28,0,0,1-1.642.753l-.035,0" transform="translate(-232.523 -183.896)"/>
        <path id="Trazado_820035" data-name="Trazado 820035" d="M486.516,286.377a.245.245,0,0,1-.168-.066,9.693,9.693,0,0,1-2.2-3.513c-1.444-4.518-.286-9.218,1.18-13.624.08-.239-.312-.678-.571-.968-.1-.114-.2-.221-.271-.317-.259-.439-.5-.851-.739-1.264a.246.246,0,1,1,.425-.247q.359.62.72,1.236c.051.062.138.16.231.264.373.42.84.942.67,1.452-1.44,4.327-2.579,8.934-1.178,13.318a9.3,9.3,0,0,0,2.062,3.3.246.246,0,0,1-.168.425" transform="translate(-245.672 -135.29)"/>
        <path id="Trazado_820036" data-name="Trazado 820036" d="M433.03,261.179a4.634,4.634,0,0,1-2.41-.5.246.246,0,0,1,.271-.411c1.476.973,6.676.361,10.834-2.477a.246.246,0,0,1,.277.406,16.9,16.9,0,0,1-8.972,2.979" transform="translate(-218.751 -130.969)"/>
        <path id="Trazado_820037" data-name="Trazado 820037" d="M462.369,271.692a.246.246,0,0,1-.241-.2,31.14,31.14,0,0,0-2.124-6.8.246.246,0,1,1,.457-.181,31.541,31.541,0,0,1,2.149,6.891.246.246,0,0,1-.2.288.253.253,0,0,1-.047,0" transform="translate(-233.729 -134.324)"/>
        <path id="Trazado_820038" data-name="Trazado 820038" d="M568.448,313.691a.247.247,0,0,1-.237-.178c-.384-1.333-.794-2.862-1.228-4.482-.868-3.237-1.851-6.905-2.892-9.966-1.5-4.411-2.7-8.9-4.008-13.9a.246.246,0,0,1,.176-.3.243.243,0,0,1,.3.176c1.3,4.985,2.5,9.47,4,13.865,1.046,3.076,2.032,6.753,2.9,10,.434,1.617.843,3.144,1.226,4.472a.246.246,0,0,1-.168.3.236.236,0,0,1-.068.01" transform="translate(-284.586 -144.742)"/>
        <path id="Trazado_820039" data-name="Trazado 820039" d="M546.284,350a.242.242,0,0,1-.172-.071.3.3,0,0,1-.072-.3.317.317,0,0,1,.271-.159.182.182,0,0,0,.068-.008.275.275,0,0,1,.051-.019c.108-.027.217-.066.331-.107a4.057,4.057,0,0,1,.567-.17,7.5,7.5,0,0,0,1.087-.261l.26-.075c.231-.04.434-.058.63-.075l.248-.023c-.013-.031-.027-.062-.041-.093a3.18,3.18,0,0,1-.4-1.87,3.712,3.712,0,0,1,1.75-2.28A10.7,10.7,0,0,1,555,343.291c.273-.041.543-.082.81-.126a32.751,32.751,0,0,1,3.454-.307c.563-.03,1.126-.06,1.689-.1,1.343-.068,2.725-.138,4.116-.138h3a.246.246,0,0,1,0,.492h-3c-1.379,0-2.754.069-4.084.137-.561.045-1.128.075-1.695.1a32.315,32.315,0,0,0-3.4.3c-.268.045-.541.086-.816.127a10.345,10.345,0,0,0-3.941,1.136,3.239,3.239,0,0,0-1.526,1.945,2.776,2.776,0,0,0,.362,1.591c.059.133.117.265.169.4a.246.246,0,0,1-.18.333,5.56,5.56,0,0,1-.6.074c-.184.016-.374.032-.565.064l-.23.068a7.8,7.8,0,0,1-1.142.273,3.543,3.543,0,0,0-.485.149c-.121.043-.237.084-.353.114a.569.569,0,0,1-.156.042.248.248,0,0,1-.134.039" transform="translate(-277.448 -174.09)"/>
        <path id="Trazado_820040" data-name="Trazado 820040" d="M557.476,364.883a.246.246,0,0,1-.246-.246,14.509,14.509,0,0,0-.872-5.1l-.12-.336a9.291,9.291,0,0,0-1.083-2.341,5.67,5.67,0,0,0-2.032-1.7.246.246,0,1,1,.236-.431,6.135,6.135,0,0,1,2.206,1.859,9.69,9.69,0,0,1,1.137,2.45l.117.331a14.912,14.912,0,0,1,.9,5.118c0,.005,0,.012,0,.018v.137a.246.246,0,0,1-.246.246" transform="translate(-280.989 -180.228)"/>
        <path id="Trazado_820041" data-name="Trazado 820041" d="M505.9,300.889h-.014a.246.246,0,0,1-.231-.26,26.044,26.044,0,0,1,1.253-4.617,19.908,19.908,0,0,0,.846-2.588c.105-.378.211-.759.328-1.144a44.255,44.255,0,0,0,1.99-8.689,13.874,13.874,0,0,0,.272-2.708,7.724,7.724,0,0,0-.533-2.471c-.165-.524-.337-1.042-.511-1.564-.4-1.206-.814-2.454-1.135-3.737a25.944,25.944,0,0,1-.916-5.317,9.455,9.455,0,0,1,.1-2.1c.029-.225.057-.451.079-.677l.023-.229c.087-.871.177-1.77.345-2.617.141-.471.252-.92.365-1.369s.231-.922.37-1.385a19.834,19.834,0,0,1,.683-1.983c.106-.274.214-.556.322-.853.3-.962.576-1.941.864-2.978.219-.788.441-1.584.679-2.38.086-.436.2-.9.314-1.347s.228-.91.318-1.362c.058-.208.1-.387.148-.564a8.217,8.217,0,0,1,.413-1.306.246.246,0,0,1,.452.194,7.847,7.847,0,0,0-.387,1.233c-.046.181-.093.366-.148.559-.088.445-.205.913-.319,1.366s-.225.9-.314,1.347c-.243.815-.464,1.607-.682,2.393-.277,1-.563,2.025-.873,3-.113.31-.222.594-.329.872a19.56,19.56,0,0,0-.67,1.942c-.138.458-.253.921-.365,1.368s-.229.913-.365,1.369c-.158.8-.246,1.688-.332,2.546l-.023.23c-.023.23-.051.459-.08.689a8.939,8.939,0,0,0-.1,1.994,25.612,25.612,0,0,0,.9,5.233c.321,1.278.732,2.517,1.129,3.715.174.524.347,1.045.511,1.566a8.193,8.193,0,0,1,.557,2.624,14.224,14.224,0,0,1-.277,2.78,44.608,44.608,0,0,1-2.006,8.76c-.116.381-.221.758-.325,1.133a20.829,20.829,0,0,1-.867,2.65,25.818,25.818,0,0,0-1.214,4.451.246.246,0,0,1-.245.232" transform="translate(-256.933 -125.247)"/>
        <path id="Trazado_820042" data-name="Trazado 820042" d="M522.043,237.665a2.374,2.374,0,0,1-1.947-1.154,8.066,8.066,0,0,1-1.351-3.994c-.042-.281-.086-.569-.135-.854-.377.642-.76,1.278-1.182,1.909l-.116.175c-.59.894-1.688,2.559-2.927,2.714a1.571,1.571,0,0,1-1.288-.454c-.985-.914-.913-2.075-.844-3.2l.012-.21a.246.246,0,1,1,.491.029l-.012.211c-.065,1.054-.126,2.049.686,2.8a1.085,1.085,0,0,0,.894.327c1.014-.126,2.07-1.727,2.577-2.5l.117-.177c.535-.8,1.013-1.621,1.475-2.412a.274.274,0,0,1,.26-.136.241.241,0,0,1,.212.173c.112.5.189,1.021.264,1.521a7.6,7.6,0,0,0,1.261,3.776,1.807,1.807,0,0,0,2.241.811,16.4,16.4,0,0,0,2.9-1.347,9.527,9.527,0,0,0,2.329-2,.246.246,0,0,1,.378.315,10.023,10.023,0,0,1-2.449,2.1,16.811,16.811,0,0,1-2.983,1.388,2.32,2.32,0,0,1-.864.175" transform="translate(-260.269 -117.248)"/>
        <path id="Trazado_820043" data-name="Trazado 820043" d="M522.3,243.488a.993.993,0,0,1-.179-.016.825.825,0,0,1-.673-.677,1.238,1.238,0,0,1,.427-1.285,1.182,1.182,0,0,1,1.3-.072.246.246,0,0,1,.122.273.88.88,0,0,1,.126.276,1.226,1.226,0,0,1-.168.974,1.147,1.147,0,0,1-.952.526m.266-1.718a.644.644,0,0,0-.393.132.746.746,0,0,0-.243.789.336.336,0,0,0,.28.3.659.659,0,0,0,.638-.3.741.741,0,0,0,.1-.569.328.328,0,0,0-.191-.235.245.245,0,0,1-.118-.107.672.672,0,0,0-.07,0" transform="translate(-264.942 -122.599)"/>
        <path id="Trazado_820044" data-name="Trazado 820044" d="M517.545,269.4a1.056,1.056,0,0,1-.7-.306,1.186,1.186,0,0,1-.348-.945,1.6,1.6,0,0,1,.636-1.144.816.816,0,0,1,.946-.049.272.272,0,0,1,.111.083.661.661,0,0,1,.453.584,1.781,1.781,0,0,1-.7,1.671.828.828,0,0,1-.4.1m.054-2.08a.285.285,0,0,0-.172.08,1.113,1.113,0,0,0-.44.784.69.69,0,0,0,.194.552c.293.257.468.161.524.129a1.316,1.316,0,0,0,.452-1.161c-.007-.041-.034-.178-.1-.19a.247.247,0,0,1-.156-.1h0a.977.977,0,0,0-.3-.093" transform="translate(-262.441 -135.58)"/>
        <path id="Trazado_820045" data-name="Trazado 820045" d="M515.721,296.917a.858.858,0,0,1-.663-.37,1.66,1.66,0,0,1-.259-1.188.951.951,0,0,1,.381-.675.247.247,0,0,1,.233-.022.235.235,0,0,1,.257-.224.985.985,0,0,1,.958.837,1.512,1.512,0,0,1-.62,1.577.67.67,0,0,1-.288.065m-.16-2.008a.246.246,0,0,1-.109.183.489.489,0,0,0-.167.341,1.178,1.178,0,0,0,.154.8c.133.162.253.221.358.171a1.075,1.075,0,0,0,.349-1.037.491.491,0,0,0-.5-.443.258.258,0,0,1-.085-.019" transform="translate(-261.571 -149.609)"/>
        <path id="Trazado_820046" data-name="Trazado 820046" d="M517.519,336.7a.64.64,0,0,1-.351-.1,1.609,1.609,0,0,1-.438-1.558,2.724,2.724,0,0,0,.266-.37.43.43,0,0,0,.125-.126.969.969,0,0,1,.086-.1.226.226,0,0,1,.063-.046.876.876,0,0,1,1.035.25,1.3,1.3,0,0,1-.153,1.8,1.052,1.052,0,0,1-.633.258m-.3-1.592a.241.241,0,0,1-.005.037c-.077.346.013.9.223,1.037.112.074.287-.028.412-.124a.814.814,0,0,0,.1-1.083.437.437,0,0,0-.414-.157l-.017.023a.869.869,0,0,1-.292.266h0" transform="translate(-262.542 -169.871)"/>
        <path id="Trazado_820047" data-name="Trazado 820047" d="M424.752,213.184c-.956-1.048-3.369-2.322-5.509-3.37-1.815-.888-4.235.774-1.64,3.551s7.467,4.143,7.467,4.143" transform="translate(-211.616 -106.489)" fill="#ffd4d4"/>
        <path id="Trazado_820048" data-name="Trazado 820048" d="M424.814,217.5a.241.241,0,0,1-.066-.009c-.2-.057-4.968-1.416-7.581-4.211-1.721-1.842-1.184-3.017-.873-3.437a2.264,2.264,0,0,1,2.8-.5c2.068,1.013,4.572,2.317,5.582,3.425a.246.246,0,0,1-.363.332c-.966-1.058-3.565-2.4-5.435-3.314a1.793,1.793,0,0,0-2.189.354c-.495.668-.182,1.718.837,2.808,2.519,2.7,7.306,4.06,7.354,4.074a.246.246,0,0,1-.066.483" transform="translate(-211.36 -106.234)"/>
        <path id="Trazado_820049" data-name="Trazado 820049" d="M433.654,340.1H414.237l-7.813-22.821a5.74,5.74,0,0,0-5.064-3.618H368.2a2.568,2.568,0,0,0-2.585,3.618l8.049,23.508c.881,2.282.984,4.161,3.272,4.161h56.716a2.424,2.424,0,0,0,0-4.848" transform="translate(-185.679 -159.378)" fill="#f2ac30"/>
        <path id="Trazado_820050" data-name="Trazado 820050" d="M433.43,339.516H414.207c-.38,0,.1.336-.007.032l-.887-2.591-3.6-10.514-3.021-8.825c-.882-2.578-2.915-4.541-5.789-4.541H371.812c-1.668,0-3.911-.344-5.473.383-2.509,1.169-.89,4.4-.263,6.233l3.58,10.456,3.167,9.251c.725,2.115,1.149,5.455,3.926,5.455h56.668c3.478,0,3.423-5.111.012-5.34-.317-.021-.315.471,0,.492a2.182,2.182,0,1,1-.235,4.357H376.8c-2.183,0-2.556-2.32-3.128-3.992l-.668-1.95q-3.4-9.924-6.8-19.848l-.581-1.7c-.734-2.145.88-3.307,2.8-3.307h29.505c2.811,0,5.453-.276,7.426,2.3a8.652,8.652,0,0,1,1.068,2.5l1.4,4.08q2.974,8.689,5.95,17.378a.251.251,0,0,0,.237.181H433.43a.246.246,0,0,0,0-.492" transform="translate(-185.455 -159.04)" fill="#f2ac30"/>
        <path id="Trazado_820051" data-name="Trazado 820051" d="M421.093,369.094H382.53a.246.246,0,1,1,0-.492h38.563a.246.246,0,0,1,0,.492" transform="translate(-194.247 -187.295)"/>
        <path id="Trazado_820052" data-name="Trazado 820052" d="M409.675,345.225c-1.683,0-3.535-1.668-4.127-3.72a3.419,3.419,0,0,1,.339-3.013,2.12,2.12,0,0,1,1.742-.843c1.684,0,3.535,1.669,4.126,3.721a3.42,3.42,0,0,1-.34,3.013,2.119,2.119,0,0,1-1.74.843m-2.046-7.084a1.62,1.62,0,0,0-1.349.646,2.945,2.945,0,0,0-.26,2.581c.536,1.855,2.175,3.364,3.655,3.364a1.618,1.618,0,0,0,1.347-.646,2.942,2.942,0,0,0,.26-2.581c-.535-1.856-2.174-3.365-3.654-3.365" transform="translate(-205.971 -171.567)"/>
        <path id="Trazado_820053" data-name="Trazado 820053" d="M498.906,176.05c-1.164-1.417-2.9-2.647-3.6-2.308s-.852,1.407-.36,1.628.673-.681,2.3.028c1.423.62,1.778.909,1.661.652" transform="translate(-251.347 -88.253)" fill="#d4336e"/>
        <path id="Trazado_820054" data-name="Trazado 820054" d="M498.644,176.136h0a1.636,1.636,0,0,1-.589-.229c-.263-.127-.64-.31-1.162-.537a2.6,2.6,0,0,0-1-.256,1.294,1.294,0,0,0-.606.157.817.817,0,0,1-.694.07.808.808,0,0,1-.433-.768,1.466,1.466,0,0,1,.786-1.306.879.879,0,0,1,.383-.081c.971,0,2.534,1.264,3.513,2.454a.277.277,0,0,1,.034.054.33.33,0,0,1,0,.319.3.3,0,0,1-.233.123m-2.751-1.514a3.032,3.032,0,0,1,1.2.3c.286.124.529.236.734.332a4.9,4.9,0,0,0-2.494-1.573.4.4,0,0,0-.169.032.969.969,0,0,0-.509.857c0,.061.013.268.143.326a.132.132,0,0,0,.059.015.688.688,0,0,0,.224-.081,1.771,1.771,0,0,1,.816-.2" transform="translate(-251.094 -88)" fill="#d4336e"/>
        <path id="Trazado_820055" data-name="Trazado 820055" d="M549.75,143.929a.246.246,0,0,1-.216-.129,13.21,13.21,0,0,1-1.126-2.57,8.21,8.21,0,0,1-.563-2.773,1.56,1.56,0,0,1,.742-1.44,1.2,1.2,0,0,1,1.31.2c2.135,1.637,1.027,5.05.451,6.441a.245.245,0,0,1-.321.133.253.253,0,0,1-.043-.023.246.246,0,0,1-.115.135.252.252,0,0,1-.117.029m-.693-6.533a.543.543,0,0,0-.249.06,1.1,1.1,0,0,0-.472,1,7.809,7.809,0,0,0,.539,2.623,12.366,12.366,0,0,0,1.026,2.364c.535-1.3,1.549-4.419-.3-5.837a.965.965,0,0,0-.544-.211" transform="translate(-278.371 -69.564)"/>
        <path id="Trazado_820056" data-name="Trazado 820056" d="M556.827,151.473a7.015,7.015,0,0,1-2.535-.685l-.337-.137c-.864-.37-1.8-.745-2.705-1.107a.246.246,0,0,1,.091-.474h.007a.245.245,0,0,1,.14-.164l.5-.222a13.652,13.652,0,0,1,2.62-.962c1.277-.254,3.026-.069,3.774,1.29a1.6,1.6,0,0,1-1.37,2.454c-.061,0-.122.005-.183.005m-4.943-2.2c.764.306,1.538.619,2.259.928l.335.137a6.006,6.006,0,0,0,2.5.643,1.109,1.109,0,0,0,.967-1.73c-.618-1.123-2.129-1.264-3.24-1.042a13.274,13.274,0,0,0-2.52.929Z" transform="translate(-280.023 -75.012)"/>
        <path id="Trazado_820057" data-name="Trazado 820057" d="M551.369,150.536a.245.245,0,0,1-.147-.049c-.222-.166-.433-.358-.637-.543a7.234,7.234,0,0,0-.828-.679,11.825,11.825,0,0,1-1.08-.757c-.207-.156-.418-.316-.647-.476a31.7,31.7,0,0,1-2.615-2.425.246.246,0,0,1,.348-.348,31.111,31.111,0,0,0,2.562,2.38c.221.154.437.318.649.479a11.728,11.728,0,0,0,1.045.732,7.611,7.611,0,0,1,.9.731c.134.121.263.239.394.348a.253.253,0,0,1,.305.239v.123a.247.247,0,0,1-.136.22.25.25,0,0,1-.11.026" transform="translate(-277.101 -73.773)"/>
        <path id="Trazado_820058" data-name="Trazado 820058" d="M201.813,345.109H188.832a.246.246,0,0,1-.241-.194l-6.119-28.386a2.469,2.469,0,0,1,.344-2.1,2.214,2.214,0,0,1,2.507-.484l33.966,10.927a2.049,2.049,0,0,1,.81,3.762l-18.121,16.411a.246.246,0,0,1-.165.063m-12.782-.492h12.688l18.051-16.347a1.57,1.57,0,0,0-.631-2.929l-33.965-10.927a1.758,1.758,0,0,0-1.973.324,2,2,0,0,0-.246,1.687Z" transform="translate(-92.676 -159.437)" fill="#ffd4d4"/>
        <path id="Trazado_820059" data-name="Trazado 820059" d="M194.237,26.022h-.063c-1.61-.029-3.13-1.14-4.172-3.048a9.721,9.721,0,0,1,.19-8.752,11.809,11.809,0,0,0-5.148.637c-3.718,1.377-5.51,4.419-4.794,8.139a.246.246,0,0,1-.483.092c-.765-3.975,1.144-7.225,5.107-8.692a12.308,12.308,0,0,1,5.558-.639,11.492,11.492,0,0,1,1.522-2.161c2.964-3.316,7.189-4.189,11.593-2.394a.246.246,0,0,1-.185.455c-4.2-1.71-8.224-.886-11.04,2.266a11.051,11.051,0,0,0-1.367,1.905,8.285,8.285,0,0,1,6.1,3.8c1.331,2.328,1.493,4.677.446,6.445a3.8,3.8,0,0,1-3.259,1.949m-3.528-11.739a9.258,9.258,0,0,0-.275,8.454c.968,1.775,2.3,2.766,3.749,2.792a3.338,3.338,0,0,0,2.89-1.707c.954-1.611.79-3.78-.45-5.95a7.858,7.858,0,0,0-5.913-3.589" transform="translate(-91.259 -4.212)" fill="#f2ac30"/>
        <path id="Trazado_820060" data-name="Trazado 820060" d="M12.842,175.129a6.976,6.976,0,0,1-3.07-.766.246.246,0,1,1,.216-.442,5.532,5.532,0,0,0,6.68-.93,8.2,8.2,0,0,0,1.591-2.2,5.634,5.634,0,0,1-4.062-3.063c-1.151-2.422-.758-4.434-.007-5.51a2.449,2.449,0,0,1,2.233-1.15c1.085.1,2.056.977,2.732,2.471a8.9,8.9,0,0,1-.185,6.872,6.824,6.824,0,0,0,2.75-.245,5.523,5.523,0,0,0,3.864-6.562.246.246,0,0,1,.486-.075,5.99,5.99,0,0,1-4.206,7.107,7.327,7.327,0,0,1-3.1.242,8.7,8.7,0,0,1-1.749,2.468,5.9,5.9,0,0,1-4.169,1.785m3.381-13.58a2.014,2.014,0,0,0-1.63.95c-.672.962-1.012,2.785.049,5.017a5.175,5.175,0,0,0,3.832,2.817,8.412,8.412,0,0,0,.234-6.593c-.6-1.325-1.428-2.1-2.33-2.184-.052,0-.1-.007-.155-.007" transform="translate(12.301 -93.235)" fill="#ffd4d4"/>
        <path id="Trazado_820061" data-name="Trazado 820061" d="M617.6,247.358a.247.247,0,0,1-.112-.027c-3.365-1.727-4.658-5-3.456-8.762a11.477,11.477,0,0,1,2.719-4.444,10.7,10.7,0,0,1-.709-2.351c-.734-4.088,1.055-7.7,4.909-9.9a.246.246,0,0,1,.244.426c-3.663,2.1-5.364,5.519-4.669,9.39a10.3,10.3,0,0,0,.6,2.071,7.733,7.733,0,0,1,6.285-2.282c2.479.362,4.3,1.6,5,3.385a3.55,3.55,0,0,1-.481,3.574c-.949,1.17-2.642,1.649-4.649,1.317a9.068,9.068,0,0,1-6.317-5.152,10.986,10.986,0,0,0-2.468,4.12c-1.122,3.512.079,6.567,3.212,8.174a.246.246,0,0,1-.113.465m-.265-13.128a8.606,8.606,0,0,0,6.03,5.037c1.854.309,3.339-.1,4.186-1.142a3.067,3.067,0,0,0,.4-3.085c-.633-1.62-2.314-2.741-4.614-3.077a7.3,7.3,0,0,0-6.007,2.267" transform="translate(-335.912 -169.558)" fill="#f2ac30"/>
        <path id="Trazado_820062" data-name="Trazado 820062" d="M554.421,69.319a2.761,2.761,0,0,1-2.289-1.206L547.2,60.854a2.768,2.768,0,0,1,.732-3.833l7.259-4.932a2.767,2.767,0,0,1,3.833.734l4.931,7.257a2.766,2.766,0,0,1-.733,3.834l-7.257,4.929a2.741,2.741,0,0,1-1.545.474m2.315-17.21a2.248,2.248,0,0,0-1.267.388l-7.259,4.932a2.274,2.274,0,0,0-.6,3.15l4.931,7.258a2.275,2.275,0,0,0,3.15.6l7.257-4.929a2.272,2.272,0,0,0,.6-3.15L558.619,53.1a2.269,2.269,0,0,0-1.882-.992" transform="translate(-277.804 -26.228)" fill="#ffd4d4"/>
        <path id="Trazado_820063" data-name="Trazado 820063" d="M505.361,34.505a3.3,3.3,0,1,1,3.3-3.3,3.306,3.306,0,0,1-3.3,3.3m0-6.112a2.81,2.81,0,1,0,2.81,2.811,2.813,2.813,0,0,0-2.81-2.811" transform="translate(-255.107 -14.178)" fill="#7db3db"/>
        <path id="Trazado_820064" data-name="Trazado 820064" d="M52.844,100.408a2.361,2.361,0,1,1-2.361-2.361,2.361,2.361,0,0,1,2.361,2.361" transform="translate(-24.452 -49.82)" fill="#7db3db"/>
        <path id="Trazado_820065" data-name="Trazado 820065" d="M63.768,90.782a2.361,2.361,0,1,1-2.361-2.362,2.362,2.362,0,0,1,2.361,2.362" transform="translate(-30.003 -44.928)" fill="#7db3db"/>
        <path id="Trazado_820066" data-name="Trazado 820066" d="M65.618,104.852a2.361,2.361,0,1,1-2.362-2.362,2.36,2.36,0,0,1,2.362,2.362" transform="translate(-30.942 -52.077)" fill="#7db3db"/>
        <path id="Trazado_820067" data-name="Trazado 820067" d="M351.644,356.216a2.607,2.607,0,0,1-2.45-3.5,2.606,2.606,0,1,1,2.45,3.5m0-4.723a2.115,2.115,0,1,0,1.921,1.225,2.105,2.105,0,0,0-1.921-1.225" transform="translate(-177.352 -178.351)" fill="#7db3db"/>
        <path id="Trazado_820068" data-name="Trazado 820068" d="M338.317,350.357a2.607,2.607,0,0,1-1.1-4.973,2.58,2.58,0,0,1,1.094-.242,2.607,2.607,0,0,1,1.1,4.972,2.578,2.578,0,0,1-1.093.242m0-4.723a2.116,2.116,0,0,0-1.917,3.005,2.126,2.126,0,0,0,1.922,1.226,2.087,2.087,0,0,0,.887-.2,2.115,2.115,0,0,0-.891-4.034" transform="translate(-170.58 -175.374)" fill="#7db3db"/>
        <path id="Trazado_820069" data-name="Trazado 820069" d="M350.3,342.758a2.607,2.607,0,1,1,2.448-1.711,2.615,2.615,0,0,1-2.448,1.711m0-4.723a2.115,2.115,0,1,0,1.92,1.225,2.1,2.1,0,0,0-1.92-1.225" transform="translate(-176.671 -171.513)" fill="#7db3db"/>
        <path id="Trazado_820070" data-name="Trazado 820070" d="M605.853,183.9a2.607,2.607,0,0,1-2.45-3.5,2.606,2.606,0,0,1,2.445-1.71,2.607,2.607,0,0,1,1.1,4.972,2.58,2.58,0,0,1-1.094.242m-.005-4.723a2.115,2.115,0,0,0-1.916,3,2.124,2.124,0,0,0,1.921,1.226,2.116,2.116,0,0,0,1.916-3.006,2.125,2.125,0,0,0-1.921-1.225" transform="translate(-306.52 -90.796)" fill="#495edb"/>
        <path id="Trazado_820071" data-name="Trazado 820071" d="M592.522,178.045a2.617,2.617,0,0,1-2.367-1.511,2.609,2.609,0,0,1,2.364-3.7,2.607,2.607,0,0,1,1.1,4.972,2.581,2.581,0,0,1-1.094.242m0-4.723a2.115,2.115,0,0,0-1.917,3,2.123,2.123,0,0,0,1.92,1.226,2.116,2.116,0,0,0,1.917-3.006,2.124,2.124,0,0,0-1.92-1.225" transform="translate(-299.747 -87.819)" fill="#495edb"/>
        <path id="Trazado_820072" data-name="Trazado 820072" d="M604.508,170.446a2.606,2.606,0,1,1,2.448-1.71,2.614,2.614,0,0,1-2.448,1.71m0-4.723a2.116,2.116,0,1,0,1.92,1.225,2.1,2.1,0,0,0-1.92-1.225" transform="translate(-305.839 -83.958)" fill="#495edb"/>
        <path id="Trazado_820073" data-name="Trazado 820073" d="M274.571,377.114H.429a.5.5,0,0,1,0-.984H274.571a.5.5,0,0,1,0,.984" transform="translate(23.67 -191.12)" fill="#32015c"/>
      </g>
    </g>
  </g>
</svg>
