<svg xmlns="http://www.w3.org/2000/svg" xmlns:xlink="http://www.w3.org/1999/xlink" width="651" height="369" viewBox="0 0 651 369">
  <defs>
    <filter id="Trazado_820915" x="157.566" y="129" width="118" height="33.5" filterUnits="userSpaceOnUse">
      <feOffset dy="2" input="SourceAlpha"/>
      <feGaussianBlur stdDeviation="0.5" result="blur"/>
      <feFlood flood-opacity="0.251"/>
      <feComposite operator="in" in2="blur"/>
      <feComposite in="SourceGraphic"/>
    </filter>
    <filter id="Trazado_820916" x="369.566" y="226" width="118" height="33.5" filterUnits="userSpaceOnUse">
      <feOffset dy="2" input="SourceAlpha"/>
      <feGaussianBlur stdDeviation="0.5" result="blur-2"/>
      <feFlood flood-opacity="0.251"/>
      <feComposite operator="in" in2="blur-2"/>
      <feComposite in="SourceGraphic"/>
    </filter>
    <filter id="Trazado_820917" x="157.566" y="226" width="118" height="33.5" filterUnits="userSpaceOnUse">
      <feOffset dy="2" input="SourceAlpha"/>
      <feGaussianBlur stdDeviation="0.5" result="blur-3"/>
      <feFlood flood-opacity="0.251"/>
      <feComposite operator="in" in2="blur-3"/>
      <feComposite in="SourceGraphic"/>
    </filter>
    <filter id="Trazado_820921" x="369.566" y="129" width="118" height="33.5" filterUnits="userSpaceOnUse">
      <feOffset dy="2" input="SourceAlpha"/>
      <feGaussianBlur stdDeviation="0.5" result="blur-4"/>
      <feFlood flood-opacity="0.251"/>
      <feComposite operator="in" in2="blur-4"/>
      <feComposite in="SourceGraphic"/>
    </filter>
  </defs>
  <g id="Grupo_1073273" data-name="Grupo 1073273" transform="translate(-714 -4751)">
    <path id="Trazado_820911" data-name="Trazado 820911" d="M10,0H641a10,10,0,0,1,10,10V369H0V10A10,10,0,0,1,10,0Z" transform="translate(714 4751)" fill="#fff"/>
    <path id="Trazado_4523" data-name="Trazado 4523" d="M368.9,712.937c-58.114,0-105.4-45.63-105.4-101.719S310.781,509.5,368.9,509.5s105.4,45.63,105.4,101.719c0,33-16.693,64.077-44.653,83.136a4.9,4.9,0,1,1-5.522-8.1c25.279-17.233,40.371-45.284,40.371-75.036,0-50.682-42.882-91.914-95.591-91.914S273.3,560.537,273.3,611.219s42.882,91.914,95.591,91.914a98.8,98.8,0,0,0,31.66-5.161,4.9,4.9,0,1,1,3.135,9.289A108.582,108.582,0,0,1,368.9,712.937Z" transform="translate(671.967 4341.284)" fill="#3ee2a8"/>
    <g id="Grupo_21005" data-name="Grupo 21005" transform="translate(870.67 4839.249)">
      <path id="Trazado_4524" data-name="Trazado 4524" d="M270.522,542.874a1.838,1.838,0,0,1-1.838-1.838V503.765H212.465a1.838,1.838,0,1,1,0-3.677h58.057a1.838,1.838,0,0,1,1.838,1.838v39.109A1.838,1.838,0,0,1,270.522,542.874Z" transform="translate(-210.627 -500.088)" fill="#1565c0"/>
    </g>
    <g id="Grupo_21006" data-name="Grupo 21006" transform="translate(870.514 4833.569)">
      <path id="Trazado_4525" data-name="Trazado 4525" d="M218.585,495.453l1.254,1.346-6.64,6.17,6.64,6.172-1.254,1.346L210.5,502.97Z" transform="translate(-210.5 -495.453)" fill="#1565c0"/>
    </g>
    <g id="Grupo_21008" data-name="Grupo 21008" transform="translate(1140.742 4820.758)">
      <path id="Trazado_4526" data-name="Trazado 4526" d="M432.838,546.276A1.838,1.838,0,0,1,431,544.438v-57.6A1.838,1.838,0,0,1,432.838,485h63.716a1.838,1.838,0,1,1,0,3.677H434.677v55.761A1.838,1.838,0,0,1,432.838,546.276Z" transform="translate(-431 -485)" fill="#1565c0"/>
    </g>
    <g id="Grupo_21009" data-name="Grupo 21009" transform="translate(1198.952 4815.078)">
      <path id="Trazado_4527" data-name="Trazado 4527" d="M479.751,480.365l-1.254,1.346,6.639,6.17-6.639,6.172,1.254,1.346,8.085-7.518Z" transform="translate(-478.497 -480.365)" fill="#1565c0"/>
    </g>
    <g id="Grupo_21011" data-name="Grupo 21011" transform="translate(1140.742 4856.118)">
      <path id="Trazado_4528" data-name="Trazado 4528" d="M496.555,517.53H432.838a1.838,1.838,0,1,1,0-3.677h63.716a1.838,1.838,0,1,1,0,3.677Z" transform="translate(-431 -513.853)" fill="#1565c0"/>
    </g>
    <g id="Grupo_21012" data-name="Grupo 21012" transform="translate(1198.952 4850.438)">
      <path id="Trazado_4529" data-name="Trazado 4529" d="M479.751,509.218l-1.254,1.346,6.639,6.17-6.639,6.172,1.254,1.346,8.085-7.518Z" transform="translate(-478.497 -509.218)" fill="#1565c0"/>
    </g>
    <g id="Grupo_21014" data-name="Grupo 21014" transform="translate(818.322 4942.05)">
      <path id="Trazado_4530" data-name="Trazado 4530" d="M169.75,629.808a1.838,1.838,0,0,1-1.838-1.838V585.809a1.838,1.838,0,0,1,1.838-1.838h76.415A1.839,1.839,0,0,1,248,585.809v33.125a1.838,1.838,0,1,1-3.677,0V587.648H171.589V627.97A1.839,1.839,0,0,1,169.75,629.808Z" transform="translate(-167.912 -583.971)" fill="#1565c0"/>
    </g>
    <g id="Grupo_21015" data-name="Grupo 21015" transform="translate(812.641 4978.704)">
      <path id="Trazado_4531" data-name="Trazado 4531" d="M163.277,615.134l1.346-1.254,6.17,6.64,6.172-6.64,1.346,1.254-7.518,8.085Z" transform="translate(-163.277 -613.88)" fill="#1565c0"/>
    </g>
    <g id="Grupo_21017" data-name="Grupo 21017" transform="translate(1055.353 4977.509)">
      <path id="Trazado_4532" data-name="Trazado 4532" d="M381.605,629.383H363.162a1.838,1.838,0,0,1-1.838-1.838V612.838A1.838,1.838,0,0,1,363.162,611h42.5a1.838,1.838,0,0,1,0,3.677H365v11.03h16.6a1.838,1.838,0,1,1,0,3.677Z" transform="translate(-361.324 -611)" fill="#1565c0"/>
    </g>
    <g id="Grupo_21018" data-name="Grupo 21018" transform="translate(1068.29 4986.537)">
      <path id="Trazado_4533" data-name="Trazado 4533" d="M373.134,633.4l-1.254-1.346,6.64-6.17-6.64-6.172,1.254-1.346,8.085,7.518Z" transform="translate(-371.88 -618.367)" fill="#1565c0"/>
    </g>
    <g id="Grupo_21020" data-name="Grupo 21020" transform="translate(1198.342 4976.051)">
      <path id="Trazado_4534" data-name="Trazado 4534" d="M529.472,629.222H479.838a1.838,1.838,0,1,1,0-3.677h47.8V613.553a1.838,1.838,0,0,1,3.677,0v13.83A1.838,1.838,0,0,1,529.472,629.222Z" transform="translate(-478 -611.715)" fill="#1565c0"/>
    </g>
    <g id="Grupo_21021" data-name="Grupo 21021" transform="translate(1242.298 4975.896)">
      <path id="Trazado_4535" data-name="Trazado 4535" d="M528.9,619.673l-1.346,1.254-6.17-6.64-6.172,6.64-1.346-1.254,7.518-8.085Z" transform="translate(-513.867 -611.588)" fill="#1565c0"/>
    </g>
    <g id="Grupo_21023" data-name="Grupo 21023" transform="translate(1120.208 5004.587)">
      <path id="Trazado_4536" data-name="Trazado 4536" d="M442.637,721.183H416.082a1.838,1.838,0,0,1,0-3.677H440.8V636.838a1.838,1.838,0,1,1,3.677,0v82.506A1.839,1.839,0,0,1,442.637,721.183Z" transform="translate(-414.244 -635)" fill="#1565c0"/>
    </g>
    <g id="Grupo_21024" data-name="Grupo 21024" transform="translate(1120.053 5081.414)">
      <path id="Trazado_4537" data-name="Trazado 4537" d="M422.2,697.689l1.254,1.346-6.64,6.17,6.64,6.172-1.254,1.346-8.085-7.518Z" transform="translate(-414.118 -697.689)" fill="#1565c0"/>
    </g>
    <g id="Grupo_21026" data-name="Grupo 21026" transform="translate(898.749 5089.148)">
      <path id="Trazado_4538" data-name="Trazado 4538" d="M296.27,707.677H235.377a1.838,1.838,0,1,1,0-3.677H296.27a1.838,1.838,0,1,1,0,3.677Z" transform="translate(-233.539 -704)" fill="#1565c0"/>
    </g>
    <g id="Grupo_21027" data-name="Grupo 21027" transform="translate(898.593 5083.47)">
      <path id="Trazado_4539" data-name="Trazado 4539" d="M241.5,714.4l1.254-1.346-6.64-6.17,6.64-6.172-1.254-1.346-8.085,7.518Z" transform="translate(-233.412 -699.367)" fill="#1565c0"/>
    </g>
    <g id="Grupo_21028" data-name="Grupo 21028" transform="translate(954.135 5083.47)">
      <path id="Trazado_4540" data-name="Trazado 4540" d="M279.987,714.4l-1.254-1.346,6.64-6.17-6.64-6.172,1.254-1.346,8.085,7.518Z" transform="translate(-278.733 -699.367)" fill="#1565c0"/>
    </g>
    <path id="Trazado_4541" data-name="Trazado 4541" d="M260.22,723.238a1.839,1.839,0,0,1-1.838-1.838V636.838a1.838,1.838,0,1,1,3.677,0V721.4A1.838,1.838,0,0,1,260.22,723.238Z" transform="translate(670.813 4369.587)" fill="#1565c0"/>
    <path id="Trazado_4542" data-name="Trazado 4542" d="M396.255,648l9.8,22.059L384,666.383Z" transform="translate(699.143 4372.519)" fill="#3ee2a8"/>
    <path id="Trazado_819909" data-name="Trazado 819909" d="M12.638,0h114.8a12.638,12.638,0,0,1,12.638,12.638v4.213A12.638,12.638,0,0,1,127.437,29.49H12.638A12.638,12.638,0,0,1,0,16.851V12.638A12.638,12.638,0,0,1,12.638,0Z" transform="translate(721 4823.334)" fill="#dcecfe"/>
    <path id="Trazado_820912" data-name="Trazado 820912" d="M12,0H128a12,12,0,0,1,12,12v5a12,12,0,0,1-12,12H12A12,12,0,0,1,0,17V12A12,12,0,0,1,12,0Z" transform="translate(1217.066 4808)" fill="#dcecfe"/>
    <path id="Trazado_820913" data-name="Trazado 820913" d="M12,0H128a12,12,0,0,1,12,12v6a12,12,0,0,1-12,12H12A12,12,0,0,1,0,18V12A12,12,0,0,1,12,0Z" transform="translate(1217.066 4843)" fill="#dcecfe"/>
    <path id="Trazado_820914" data-name="Trazado 820914" d="M12,0H150a12,12,0,0,1,12,12v6a12,12,0,0,1-12,12H12A12,12,0,0,1,0,18V12A12,12,0,0,1,12,0Z" transform="translate(1178.066 4940)" fill="#dcecfe"/>
    <g transform="matrix(1, 0, 0, 1, 714, 4751)" filter="url(#Trazado_820915)">
      <path id="Trazado_820915-2" data-name="Trazado 820915" d="M12,0h91a12,12,0,0,1,12,12v6a12,12,0,0,1-12,12H12A12,12,0,0,1,0,18V12A12,12,0,0,1,12,0Z" transform="translate(159.07 129)" fill="#3ee2a8"/>
    </g>
    <g transform="matrix(1, 0, 0, 1, 714, 4751)" filter="url(#Trazado_820916)">
      <path id="Trazado_820916-2" data-name="Trazado 820916" d="M12,0h91a12,12,0,0,1,12,12v6a12,12,0,0,1-12,12H12A12,12,0,0,1,0,18V12A12,12,0,0,1,12,0Z" transform="translate(371.07 226)" fill="#3ee2a8"/>
    </g>
    <g transform="matrix(1, 0, 0, 1, 714, 4751)" filter="url(#Trazado_820917)">
      <path id="Trazado_820917-2" data-name="Trazado 820917" d="M12,0h91a12,12,0,0,1,12,12v6a12,12,0,0,1-12,12H12A12,12,0,0,1,0,18V12A12,12,0,0,1,12,0Z" transform="translate(159.07 226)" fill="#3ee2a8"/>
    </g>
    <path id="Trazado_820918" data-name="Trazado 820918" d="M12,0h91a12,12,0,0,1,12,12v6a12,12,0,0,1-12,12H12A12,12,0,0,1,0,18V12A12,12,0,0,1,12,0Z" transform="translate(755.066 5000)" fill="#3ee2a8"/>
    <path id="Trazado_820919" data-name="Trazado 820919" d="M12,0H143a12,12,0,0,1,12,12v6a12,12,0,0,1-12,12H12A12,12,0,0,1,0,18V12A12,12,0,0,1,12,0Z" transform="translate(738.066 5076)" fill="#dcecfe"/>
    <path id="Trazado_820920" data-name="Trazado 820920" d="M12,0H132a12,12,0,0,1,12,12V23a12,12,0,0,1-12,12H12A12,12,0,0,1,0,23V12A12,12,0,0,1,12,0Z" transform="translate(969.066 5071)" fill="#add3fd"/>
    <g transform="matrix(1, 0, 0, 1, 714, 4751)" filter="url(#Trazado_820921)">
      <path id="Trazado_820921-2" data-name="Trazado 820921" d="M12,0h91a12,12,0,0,1,12,12v6a12,12,0,0,1-12,12H12A12,12,0,0,1,0,18V12A12,12,0,0,1,12,0Z" transform="translate(371.07 129)" fill="#3ee2a8"/>
    </g>
    <path id="Trazado_820922" data-name="Trazado 820922" d="M7.682,0H5.971V-3.545H2.5V0H.785V-8.531H2.5v3.668H5.971V-8.531H7.682Zm3.24,0H9.211V-6.34h1.711Zm0-7.857H9.211V-9.141h1.711Zm4.834,6.1a.59.59,0,0,0-.272-.483A2.767,2.767,0,0,0,14.473-2.6a4.031,4.031,0,0,1-1.69-.674,1.472,1.472,0,0,1-.577-1.225A1.747,1.747,0,0,1,12.9-5.883a2.788,2.788,0,0,1,1.84-.574,3.008,3.008,0,0,1,1.925.574,1.678,1.678,0,0,1,.694,1.43l-.012.035H15.691a.83.83,0,0,0-.246-.621.974.974,0,0,0-.709-.24.969.969,0,0,0-.65.205.638.638,0,0,0-.24.5.569.569,0,0,0,.249.478,2.772,2.772,0,0,0,1.011.331,4.113,4.113,0,0,1,1.737.688,1.51,1.51,0,0,1,.571,1.251,1.673,1.673,0,0,1-.732,1.4,3.161,3.161,0,0,1-1.934.545,2.939,2.939,0,0,1-2-.642,1.794,1.794,0,0,1-.7-1.462l.012-.035h1.564a.889.889,0,0,0,.334.738,1.379,1.379,0,0,0,.826.229,1.175,1.175,0,0,0,.724-.19A.618.618,0,0,0,15.756-1.758Zm4.811-6.135V-6.34h1.072v1.2H20.566V-1.91a.737.737,0,0,0,.155.527.545.545,0,0,0,.407.158,1.633,1.633,0,0,0,.234-.015,1.974,1.974,0,0,0,.229-.05l.141,1.236a3.464,3.464,0,0,1-.5.132,2.987,2.987,0,0,1-.53.044,1.824,1.824,0,0,1-1.362-.486A2.132,2.132,0,0,1,18.861-1.9V-5.139h-.926v-1.2h.926V-7.893ZM22.43-3.229a3.4,3.4,0,0,1,.791-2.323,2.757,2.757,0,0,1,2.191-.905,2.787,2.787,0,0,1,2.2.9,3.384,3.384,0,0,1,.8,2.326v.123a3.389,3.389,0,0,1-.794,2.329,2.775,2.775,0,0,1-2.194.9,2.782,2.782,0,0,1-2.2-.9,3.389,3.389,0,0,1-.794-2.329Zm1.705.123a2.758,2.758,0,0,0,.3,1.392,1.052,1.052,0,0,0,.984.524,1.042,1.042,0,0,0,.97-.527A2.74,2.74,0,0,0,26.7-3.105v-.123a2.712,2.712,0,0,0-.311-1.377,1.051,1.051,0,0,0-.979-.533,1.038,1.038,0,0,0-.97.536,2.736,2.736,0,0,0-.308,1.374ZM32.8-4.869l-.627-.018a1.14,1.14,0,0,0-.627.158,1,1,0,0,0-.375.445V0H29.467V-6.34h1.588l.076.938a2,2,0,0,1,.577-.776,1.287,1.287,0,0,1,.817-.278,1.279,1.279,0,0,1,.237.021q.108.021.22.05ZM35.49,0H33.779V-6.34H35.49Zm0-7.857H33.779V-9.141H35.49ZM40.635,0a3.6,3.6,0,0,1-.161-.457,3.179,3.179,0,0,1-.1-.492,2.345,2.345,0,0,1-.7.768,1.748,1.748,0,0,1-1.031.3A2.141,2.141,0,0,1,37.113-.39a1.837,1.837,0,0,1-.539-1.4,1.672,1.672,0,0,1,.718-1.444,3.585,3.585,0,0,1,2.095-.513h.961v-.5a.986.986,0,0,0-.24-.709.943.943,0,0,0-.715-.252.929.929,0,0,0-.642.2.706.706,0,0,0-.226.554H36.879l-.012-.035a1.608,1.608,0,0,1,.7-1.386A3.041,3.041,0,0,1,39.5-6.457a2.838,2.838,0,0,1,1.849.574,2,2,0,0,1,.706,1.646v2.619a4.954,4.954,0,0,0,.067.838A4.2,4.2,0,0,0,42.34,0ZM39.07-1.143a1.458,1.458,0,0,0,.8-.223,1.2,1.2,0,0,0,.48-.516v-.9h-.961a1.139,1.139,0,0,0-.823.27.886.886,0,0,0-.278.662.661.661,0,0,0,.208.513A.823.823,0,0,0,39.07-1.143Zm7-1.975a4.12,4.12,0,0,1,.647-2.42,2.1,2.1,0,0,1,1.825-.92,1.775,1.775,0,0,1,.855.205,2.058,2.058,0,0,1,.668.586V-9.141h1.717V0H50.32l-.146-.779a2.119,2.119,0,0,1-.709.671,1.874,1.874,0,0,1-.937.231,2.144,2.144,0,0,1-1.813-.855,3.653,3.653,0,0,1-.647-2.262Zm1.705.123a2.582,2.582,0,0,0,.281,1.31.979.979,0,0,0,.914.478,1.331,1.331,0,0,0,.645-.149,1.192,1.192,0,0,0,.451-.437v-2.7a1.317,1.317,0,0,0-.448-.466,1.192,1.192,0,0,0-.636-.167.966.966,0,0,0-.917.557,3.146,3.146,0,0,0-.29,1.453ZM55.852.123a2.853,2.853,0,0,1-2.215-.87,3.189,3.189,0,0,1-.8-2.241v-.234a3.471,3.471,0,0,1,.773-2.332,2.629,2.629,0,0,1,2.127-.9,2.462,2.462,0,0,1,1.96.782,3.091,3.091,0,0,1,.683,2.106v.885H54.6l-.018.035a1.713,1.713,0,0,0,.4,1.055,1.324,1.324,0,0,0,1.052.4,3.519,3.519,0,0,0,.976-.117,3.981,3.981,0,0,0,.829-.357L58.3-.609a3.176,3.176,0,0,1-1.031.521A4.573,4.573,0,0,1,55.852.123ZM55.74-5.139a.95.95,0,0,0-.794.354,1.778,1.778,0,0,0-.337.94l.012.029h2.086v-.129a1.481,1.481,0,0,0-.229-.876A.845.845,0,0,0,55.74-5.139ZM61.178,0H59.467V-9.141h1.711ZM72.463-8.531v5.584a2.806,2.806,0,0,1-.955,2.256,3.687,3.687,0,0,1-2.479.814,3.644,3.644,0,0,1-2.464-.814,2.818,2.818,0,0,1-.946-2.256V-8.531h1.717v5.584a1.756,1.756,0,0,0,.457,1.307,1.683,1.683,0,0,0,1.236.451,1.719,1.719,0,0,0,1.254-.451,1.743,1.743,0,0,0,.463-1.307V-8.531Zm4.781,6.773a.59.59,0,0,0-.272-.483A2.767,2.767,0,0,0,75.961-2.6a4.031,4.031,0,0,1-1.69-.674,1.472,1.472,0,0,1-.577-1.225,1.747,1.747,0,0,1,.691-1.389,2.788,2.788,0,0,1,1.84-.574,3.008,3.008,0,0,1,1.925.574,1.678,1.678,0,0,1,.694,1.43l-.012.035H77.18a.83.83,0,0,0-.246-.621.974.974,0,0,0-.709-.24.969.969,0,0,0-.65.205.638.638,0,0,0-.24.5.569.569,0,0,0,.249.478,2.772,2.772,0,0,0,1.011.331,4.113,4.113,0,0,1,1.737.688A1.51,1.51,0,0,1,78.9-1.822a1.673,1.673,0,0,1-.732,1.4,3.161,3.161,0,0,1-1.934.545,2.939,2.939,0,0,1-2-.642,1.794,1.794,0,0,1-.7-1.462l.012-.035h1.564a.889.889,0,0,0,.334.738,1.379,1.379,0,0,0,.826.229A1.175,1.175,0,0,0,77-1.239.618.618,0,0,0,77.244-1.758Zm6.645.82a2.152,2.152,0,0,1-.744.785A1.973,1.973,0,0,1,82.1.123a1.928,1.928,0,0,1-1.567-.68,3.26,3.26,0,0,1-.565-2.109V-6.34h1.705v3.686a2.047,2.047,0,0,0,.226,1.14.811.811,0,0,0,.7.308,1.7,1.7,0,0,0,.7-.132,1.185,1.185,0,0,0,.48-.39V-6.34h1.711V0H84.07ZM90.516,0a3.6,3.6,0,0,1-.161-.457,3.179,3.179,0,0,1-.1-.492,2.345,2.345,0,0,1-.7.768,1.748,1.748,0,0,1-1.031.3A2.141,2.141,0,0,1,86.994-.39a1.837,1.837,0,0,1-.539-1.4,1.672,1.672,0,0,1,.718-1.444,3.585,3.585,0,0,1,2.095-.513h.961v-.5a.986.986,0,0,0-.24-.709.943.943,0,0,0-.715-.252.929.929,0,0,0-.642.2.706.706,0,0,0-.226.554H86.76l-.012-.035a1.608,1.608,0,0,1,.7-1.386,3.041,3.041,0,0,1,1.937-.583,2.838,2.838,0,0,1,1.849.574,2,2,0,0,1,.706,1.646v2.619a4.954,4.954,0,0,0,.067.838A4.2,4.2,0,0,0,92.221,0ZM88.951-1.143a1.458,1.458,0,0,0,.8-.223,1.2,1.2,0,0,0,.48-.516v-.9h-.961a1.139,1.139,0,0,0-.823.27.886.886,0,0,0-.278.662.661.661,0,0,0,.208.513A.823.823,0,0,0,88.951-1.143Zm7.605-3.727-.627-.018a1.14,1.14,0,0,0-.627.158,1,1,0,0,0-.375.445V0H93.223V-6.34h1.588l.076.938a2,2,0,0,1,.577-.776,1.287,1.287,0,0,1,.817-.278,1.279,1.279,0,0,1,.237.021q.108.021.22.05ZM99.246,0H97.535V-6.34h1.711Zm0-7.857H97.535V-9.141h1.711Zm1.143,4.629a3.4,3.4,0,0,1,.791-2.323,2.757,2.757,0,0,1,2.191-.905,2.787,2.787,0,0,1,2.2.9,3.384,3.384,0,0,1,.8,2.326v.123a3.389,3.389,0,0,1-.794,2.329,2.775,2.775,0,0,1-2.194.9,2.782,2.782,0,0,1-2.2-.9,3.389,3.389,0,0,1-.794-2.329Zm1.705.123a2.758,2.758,0,0,0,.3,1.392,1.052,1.052,0,0,0,.984.524,1.042,1.042,0,0,0,.97-.527,2.74,2.74,0,0,0,.308-1.389v-.123a2.712,2.712,0,0,0-.311-1.377,1.051,1.051,0,0,0-.979-.533,1.038,1.038,0,0,0-.97.536,2.736,2.736,0,0,0-.308,1.374Z" transform="translate(738.066 4842)" fill="#00104e"/>
    <path id="Trazado_820923" data-name="Trazado 820923" d="M-37.916,0V-8.531h2.977a3.52,3.52,0,0,1,2.578,1,3.444,3.444,0,0,1,1.014,2.563v1.412A3.432,3.432,0,0,1-32.361-.993,3.531,3.531,0,0,1-34.939,0Zm1.711-7.213v5.9h1.266a1.67,1.67,0,0,0,1.359-.63,2.465,2.465,0,0,0,.516-1.614V-4.98a2.444,2.444,0,0,0-.516-1.605,1.674,1.674,0,0,0-1.359-.627ZM-28.307,0h-1.711V-6.34h1.711Zm0-7.857h-1.711V-9.141h1.711Zm4.834,6.1a.59.59,0,0,0-.272-.483A2.767,2.767,0,0,0-24.756-2.6a4.031,4.031,0,0,1-1.69-.674,1.472,1.472,0,0,1-.577-1.225,1.747,1.747,0,0,1,.691-1.389,2.788,2.788,0,0,1,1.84-.574,3.008,3.008,0,0,1,1.925.574,1.678,1.678,0,0,1,.694,1.43l-.012.035h-1.652a.83.83,0,0,0-.246-.621.974.974,0,0,0-.709-.24.969.969,0,0,0-.65.205.638.638,0,0,0-.24.5.569.569,0,0,0,.249.478,2.772,2.772,0,0,0,1.011.331,4.113,4.113,0,0,1,1.737.688,1.51,1.51,0,0,1,.571,1.251,1.673,1.673,0,0,1-.732,1.4A3.161,3.161,0,0,1-24.48.123a2.939,2.939,0,0,1-2-.642,1.794,1.794,0,0,1-.7-1.462l.012-.035h1.564a.889.889,0,0,0,.334.738,1.379,1.379,0,0,0,.826.229,1.175,1.175,0,0,0,.724-.19A.618.618,0,0,0-23.473-1.758ZM-17.965.123a2.853,2.853,0,0,1-2.215-.87,3.189,3.189,0,0,1-.8-2.241v-.234A3.471,3.471,0,0,1-20.2-5.555a2.629,2.629,0,0,1,2.127-.9,2.462,2.462,0,0,1,1.96.782,3.091,3.091,0,0,1,.683,2.106v.885h-3.779l-.018.035a1.713,1.713,0,0,0,.4,1.055,1.324,1.324,0,0,0,1.052.4,3.519,3.519,0,0,0,.976-.117,3.981,3.981,0,0,0,.829-.357l.463,1.055a3.176,3.176,0,0,1-1.031.521A4.573,4.573,0,0,1-17.965.123Zm-.111-5.262a.95.95,0,0,0-.794.354,1.778,1.778,0,0,0-.337.94l.012.029h2.086v-.129a1.481,1.481,0,0,0-.229-.876A.845.845,0,0,0-18.076-5.139Zm5.2-1.2.076.908a2.319,2.319,0,0,1,.779-.756,2.023,2.023,0,0,1,1.037-.27,1.885,1.885,0,0,1,1.5.618,2.931,2.931,0,0,1,.539,1.954V0h-1.717V-3.879a1.518,1.518,0,0,0-.237-.964.875.875,0,0,0-.712-.284,1.494,1.494,0,0,0-.671.144,1.31,1.31,0,0,0-.478.4V0h-1.711V-6.34Zm3.352-2.648a1.4,1.4,0,0,1-.349.958,1.125,1.125,0,0,1-.882.4,2.147,2.147,0,0,1-.929-.255,2.03,2.03,0,0,0-.823-.255.422.422,0,0,0-.352.19A.743.743,0,0,0-13-7.5l-.914-.246a1.427,1.427,0,0,1,.349-.958,1.1,1.1,0,0,1,.876-.407,2.34,2.34,0,0,1,.891.255,2.326,2.326,0,0,0,.867.255.445.445,0,0,0,.352-.187.71.71,0,0,0,.152-.463Zm1.594,5.76a3.4,3.4,0,0,1,.791-2.323,2.757,2.757,0,0,1,2.191-.905,2.787,2.787,0,0,1,2.2.9,3.384,3.384,0,0,1,.8,2.326v.123A3.389,3.389,0,0,1-2.739-.776a2.775,2.775,0,0,1-2.194.9,2.782,2.782,0,0,1-2.2-.9,3.389,3.389,0,0,1-.794-2.329Zm1.705.123a2.758,2.758,0,0,0,.3,1.392,1.052,1.052,0,0,0,.984.524,1.042,1.042,0,0,0,.97-.527,2.74,2.74,0,0,0,.308-1.389v-.123a2.712,2.712,0,0,0-.311-1.377,1.051,1.051,0,0,0-.979-.533,1.038,1.038,0,0,0-.97.536,2.736,2.736,0,0,0-.308,1.374Zm12.9.879a1,1,0,0,0-.343-.791,3.444,3.444,0,0,0-1.2-.562A6.843,6.843,0,0,1,2.886-4.629a1.985,1.985,0,0,1-.765-1.646,2.071,2.071,0,0,1,.861-1.714,3.491,3.491,0,0,1,2.2-.665,3.466,3.466,0,0,1,2.282.715A2.236,2.236,0,0,1,8.3-6.064l-.012.035H6.627a1.242,1.242,0,0,0-.387-.981,1.579,1.579,0,0,0-1.084-.343,1.432,1.432,0,0,0-.979.3.992.992,0,0,0-.346.779.851.851,0,0,0,.375.712A5.017,5.017,0,0,0,5.5-4.969a5.572,5.572,0,0,1,2.145,1.04,2.131,2.131,0,0,1,.738,1.69A2.035,2.035,0,0,1,7.529-.51,3.714,3.714,0,0,1,5.268.123,4.041,4.041,0,0,1,2.9-.562a2.261,2.261,0,0,1-.958-2.045l.012-.035H3.615a1.342,1.342,0,0,0,.445,1.113,1.875,1.875,0,0,0,1.207.357,1.648,1.648,0,0,0,1.046-.287A.931.931,0,0,0,6.674-2.227ZM11.314,0H9.6V-6.34h1.711Zm0-7.857H9.6V-9.141h1.711ZM14.309-6.34l.07.838a2.13,2.13,0,0,1,.765-.706,2.2,2.2,0,0,1,1.063-.249,1.937,1.937,0,0,1,1.043.27,1.663,1.663,0,0,1,.656.814,2.2,2.2,0,0,1,.762-.8,2.067,2.067,0,0,1,1.1-.287,1.806,1.806,0,0,1,1.479.665,3.175,3.175,0,0,1,.542,2.03V0H20.08V-3.768a1.777,1.777,0,0,0-.234-1.061.832.832,0,0,0-.7-.3,1.194,1.194,0,0,0-.63.161,1.174,1.174,0,0,0-.425.448q0,.111.006.19t.006.161V0H16.4V-3.768a1.782,1.782,0,0,0-.234-1.052.828.828,0,0,0-.7-.308A1.327,1.327,0,0,0,14.856-5a1.163,1.163,0,0,0-.431.372V0H12.721V-6.34ZM28.822-2.994a3.641,3.641,0,0,1-.65,2.262,2.152,2.152,0,0,1-1.816.855,2.03,2.03,0,0,1-.885-.185A1.817,1.817,0,0,1,24.809-.6V2.438H23.1V-6.34h1.541l.1.75a2.031,2.031,0,0,1,.677-.642,1.831,1.831,0,0,1,.923-.226,2.11,2.11,0,0,1,1.828.92,4.106,4.106,0,0,1,.65,2.42Zm-1.711-.123a3.067,3.067,0,0,0-.3-1.453.975.975,0,0,0-.914-.557,1.292,1.292,0,0,0-.659.158,1.129,1.129,0,0,0-.431.451V-1.74a1.049,1.049,0,0,0,.431.41,1.451,1.451,0,0,0,.671.141.984.984,0,0,0,.911-.486,2.567,2.567,0,0,0,.29-1.318ZM31.676,0H29.965V-9.141h1.711ZM35.83.123a2.853,2.853,0,0,1-2.215-.87,3.189,3.189,0,0,1-.8-2.241v-.234a3.471,3.471,0,0,1,.773-2.332,2.629,2.629,0,0,1,2.127-.9,2.462,2.462,0,0,1,1.96.782,3.091,3.091,0,0,1,.683,2.106v.885H34.582l-.018.035a1.713,1.713,0,0,0,.4,1.055,1.324,1.324,0,0,0,1.052.4,3.519,3.519,0,0,0,.976-.117,3.981,3.981,0,0,0,.829-.357l.463,1.055a3.176,3.176,0,0,1-1.031.521A4.573,4.573,0,0,1,35.83.123Zm-.111-5.262a.95.95,0,0,0-.794.354,1.778,1.778,0,0,0-.337.94l.012.029h2.086v-.129a1.481,1.481,0,0,0-.229-.876A.845.845,0,0,0,35.719-5.139Z" transform="translate(1285.066 4826)" fill="#00104e"/>
    <path id="Trazado_820924" data-name="Trazado 820924" d="M-25.8-3.094V0h-1.711V-8.531h3.264a3.36,3.36,0,0,1,2.314.75,2.515,2.515,0,0,1,.844,1.975,2.5,2.5,0,0,1-.844,1.969,3.377,3.377,0,0,1-2.314.744Zm0-1.318h1.553a1.423,1.423,0,0,0,1.084-.39,1.386,1.386,0,0,0,.369-.993,1.45,1.45,0,0,0-.366-1.017,1.4,1.4,0,0,0-1.087-.4H-25.8Zm9.141-.457-.627-.018a1.14,1.14,0,0,0-.627.158,1,1,0,0,0-.375.445V0H-20V-6.34h1.588l.076.938a2,2,0,0,1,.577-.776,1.287,1.287,0,0,1,.817-.278,1.279,1.279,0,0,1,.237.021q.108.021.22.05Zm.51,1.641a3.4,3.4,0,0,1,.791-2.323,2.757,2.757,0,0,1,2.191-.905,2.787,2.787,0,0,1,2.2.9,3.384,3.384,0,0,1,.8,2.326v.123a3.389,3.389,0,0,1-.794,2.329,2.775,2.775,0,0,1-2.194.9,2.782,2.782,0,0,1-2.2-.9,3.389,3.389,0,0,1-.794-2.329Zm1.705.123a2.758,2.758,0,0,0,.3,1.392,1.052,1.052,0,0,0,.984.524,1.042,1.042,0,0,0,.97-.527,2.74,2.74,0,0,0,.308-1.389v-.123a2.712,2.712,0,0,0-.311-1.377,1.051,1.051,0,0,0-.979-.533,1.038,1.038,0,0,0-.97.536,2.736,2.736,0,0,0-.308,1.374Zm7.383-4.787V-6.34h1.072v1.2H-7.063V-1.91a.737.737,0,0,0,.155.527.545.545,0,0,0,.407.158,1.633,1.633,0,0,0,.234-.015,1.974,1.974,0,0,0,.229-.05L-5.9-.053a3.464,3.464,0,0,1-.5.132,2.987,2.987,0,0,1-.53.044A1.824,1.824,0,0,1-8.291-.363,2.132,2.132,0,0,1-8.769-1.9V-5.139h-.926v-1.2h.926V-7.893ZM-5.2-3.229a3.4,3.4,0,0,1,.791-2.323,2.757,2.757,0,0,1,2.191-.905,2.787,2.787,0,0,1,2.2.9,3.384,3.384,0,0,1,.8,2.326v.123A3.389,3.389,0,0,1-.012-.776a2.775,2.775,0,0,1-2.194.9,2.782,2.782,0,0,1-2.2-.9A3.389,3.389,0,0,1-5.2-3.105Zm1.705.123a2.758,2.758,0,0,0,.3,1.392,1.052,1.052,0,0,0,.984.524,1.042,1.042,0,0,0,.97-.527A2.74,2.74,0,0,0-.929-3.105v-.123a2.712,2.712,0,0,0-.311-1.377,1.051,1.051,0,0,0-.979-.533,1.038,1.038,0,0,0-.97.536A2.736,2.736,0,0,0-3.5-3.229ZM3.888-7.893V-6.34H4.96v1.2H3.888V-1.91a.737.737,0,0,0,.155.527.545.545,0,0,0,.407.158,1.633,1.633,0,0,0,.234-.015,1.974,1.974,0,0,0,.229-.05L5.054-.053a3.464,3.464,0,0,1-.5.132,2.987,2.987,0,0,1-.53.044A1.824,1.824,0,0,1,2.66-.363,2.132,2.132,0,0,1,2.183-1.9V-5.139H1.257v-1.2h.926V-7.893ZM7.813,0H6.1V-6.34H7.813Zm0-7.857H6.1V-9.141H7.813Zm7.125,4.863a3.641,3.641,0,0,1-.65,2.262,2.152,2.152,0,0,1-1.816.855,2.03,2.03,0,0,1-.885-.185A1.817,1.817,0,0,1,10.925-.6V2.438H9.22V-6.34h1.541l.1.75a2.031,2.031,0,0,1,.677-.642,1.831,1.831,0,0,1,.923-.226,2.11,2.11,0,0,1,1.828.92,4.106,4.106,0,0,1,.65,2.42Zm-1.711-.123a3.067,3.067,0,0,0-.3-1.453.975.975,0,0,0-.914-.557,1.292,1.292,0,0,0-.659.158,1.129,1.129,0,0,0-.431.451V-1.74a1.049,1.049,0,0,0,.431.41,1.451,1.451,0,0,0,.671.141.984.984,0,0,0,.911-.486,2.567,2.567,0,0,0,.29-1.318Zm2.5-.111a3.4,3.4,0,0,1,.791-2.323,2.757,2.757,0,0,1,2.191-.905,2.787,2.787,0,0,1,2.2.9,3.384,3.384,0,0,1,.8,2.326v.123a3.389,3.389,0,0,1-.794,2.329,2.775,2.775,0,0,1-2.194.9,2.782,2.782,0,0,1-2.2-.9,3.389,3.389,0,0,1-.794-2.329Zm1.705.123a2.758,2.758,0,0,0,.3,1.392,1.052,1.052,0,0,0,.984.524,1.042,1.042,0,0,0,.97-.527A2.74,2.74,0,0,0,20-3.105v-.123a2.712,2.712,0,0,0-.311-1.377,1.051,1.051,0,0,0-.979-.533,1.038,1.038,0,0,0-.97.536,2.736,2.736,0,0,0-.308,1.374Zm8.76,1.348a.59.59,0,0,0-.272-.483A2.767,2.767,0,0,0,24.911-2.6a4.031,4.031,0,0,1-1.69-.674,1.472,1.472,0,0,1-.577-1.225,1.747,1.747,0,0,1,.691-1.389,2.788,2.788,0,0,1,1.84-.574,3.008,3.008,0,0,1,1.925.574,1.678,1.678,0,0,1,.694,1.43l-.012.035H26.13a.83.83,0,0,0-.246-.621.974.974,0,0,0-.709-.24.969.969,0,0,0-.65.205.638.638,0,0,0-.24.5.569.569,0,0,0,.249.478,2.772,2.772,0,0,0,1.011.331,4.113,4.113,0,0,1,1.737.688,1.51,1.51,0,0,1,.571,1.251,1.673,1.673,0,0,1-.732,1.4,3.161,3.161,0,0,1-1.934.545,2.939,2.939,0,0,1-2-.642,1.794,1.794,0,0,1-.7-1.462l.012-.035h1.564a.889.889,0,0,0,.334.738,1.379,1.379,0,0,0,.826.229,1.175,1.175,0,0,0,.724-.19A.618.618,0,0,0,26.194-1.758Z" transform="translate(1286.066 4862)" fill="#00104e"/>
    <path id="Trazado_820925" data-name="Trazado 820925" d="M-65-3.094V0h-1.711V-8.531h3.264a3.36,3.36,0,0,1,2.314.75,2.515,2.515,0,0,1,.844,1.975,2.5,2.5,0,0,1-.844,1.969,3.377,3.377,0,0,1-2.314.744Zm0-1.318h1.553a1.423,1.423,0,0,0,1.084-.39A1.386,1.386,0,0,0-62-5.795a1.45,1.45,0,0,0-.366-1.017,1.4,1.4,0,0,0-1.087-.4H-65Zm9.141-.457-.627-.018a1.14,1.14,0,0,0-.627.158,1,1,0,0,0-.375.445V0h-1.705V-6.34h1.588l.076.938a2,2,0,0,1,.577-.776,1.287,1.287,0,0,1,.817-.278,1.279,1.279,0,0,1,.237.021q.108.021.22.05Zm.51,1.641a3.4,3.4,0,0,1,.791-2.323,2.757,2.757,0,0,1,2.191-.905,2.787,2.787,0,0,1,2.2.9,3.384,3.384,0,0,1,.8,2.326v.123a3.389,3.389,0,0,1-.794,2.329,2.775,2.775,0,0,1-2.194.9,2.782,2.782,0,0,1-2.2-.9,3.389,3.389,0,0,1-.794-2.329Zm1.705.123a2.758,2.758,0,0,0,.3,1.392,1.052,1.052,0,0,0,.984.524,1.042,1.042,0,0,0,.97-.527,2.74,2.74,0,0,0,.308-1.389v-.123a2.712,2.712,0,0,0-.311-1.377,1.051,1.051,0,0,0-.979-.533,1.038,1.038,0,0,0-.97.536,2.736,2.736,0,0,0-.308,1.374Zm5.08-.012a4.106,4.106,0,0,1,.65-2.42,2.11,2.11,0,0,1,1.828-.92,1.8,1.8,0,0,1,.938.24,2.1,2.1,0,0,1,.691.686l.135-.809h1.471V-.029a2.356,2.356,0,0,1-.809,1.913,3.414,3.414,0,0,1-2.256.677,4.3,4.3,0,0,1-1.02-.132,4.734,4.734,0,0,1-1-.36l.287-1.277a3.926,3.926,0,0,0,.812.284,4.021,4.021,0,0,0,.905.1A1.531,1.531,0,0,0-44.895.879a1.16,1.16,0,0,0,.331-.914V-.609a1.914,1.914,0,0,1-.662.545A1.952,1.952,0,0,1-46.1.123a2.152,2.152,0,0,1-1.816-.855,3.641,3.641,0,0,1-.65-2.262Zm1.711.123a2.6,2.6,0,0,0,.278,1.31.972.972,0,0,0,.911.478A1.412,1.412,0,0,0-45-1.351a1.1,1.1,0,0,0,.437-.419V-4.518A1.169,1.169,0,0,0-45-4.969a1.28,1.28,0,0,0-.653-.158.96.96,0,0,0-.914.557,3.173,3.173,0,0,0-.287,1.453Zm8.648-1.875-.627-.018a1.14,1.14,0,0,0-.627.158,1,1,0,0,0-.375.445V0H-41.54V-6.34h1.588l.076.938a2,2,0,0,1,.577-.776,1.287,1.287,0,0,1,.817-.278,1.279,1.279,0,0,1,.237.021q.108.021.22.05ZM-33.577,0a3.6,3.6,0,0,1-.161-.457,3.179,3.179,0,0,1-.1-.492,2.345,2.345,0,0,1-.7.768,1.748,1.748,0,0,1-1.031.3A2.141,2.141,0,0,1-37.1-.39a1.837,1.837,0,0,1-.539-1.4,1.672,1.672,0,0,1,.718-1.444,3.585,3.585,0,0,1,2.095-.513h.961v-.5a.986.986,0,0,0-.24-.709.943.943,0,0,0-.715-.252.929.929,0,0,0-.642.2.706.706,0,0,0-.226.554h-1.646l-.012-.035a1.608,1.608,0,0,1,.7-1.386,3.041,3.041,0,0,1,1.937-.583,2.838,2.838,0,0,1,1.849.574,2,2,0,0,1,.706,1.646v2.619a4.954,4.954,0,0,0,.067.838A4.2,4.2,0,0,0-31.872,0Zm-1.564-1.143a1.458,1.458,0,0,0,.8-.223,1.2,1.2,0,0,0,.48-.516v-.9h-.961a1.139,1.139,0,0,0-.823.27.886.886,0,0,0-.278.662.661.661,0,0,0,.208.513A.823.823,0,0,0-35.142-1.143Zm5.859-5.2.07.838a2.13,2.13,0,0,1,.765-.706,2.2,2.2,0,0,1,1.063-.249,1.937,1.937,0,0,1,1.043.27,1.663,1.663,0,0,1,.656.814,2.2,2.2,0,0,1,.762-.8,2.067,2.067,0,0,1,1.1-.287,1.806,1.806,0,0,1,1.479.665,3.175,3.175,0,0,1,.542,2.03V0h-1.711V-3.768a1.777,1.777,0,0,0-.234-1.061.832.832,0,0,0-.7-.3,1.194,1.194,0,0,0-.63.161,1.174,1.174,0,0,0-.425.448q0,.111.006.19t.006.161V0H-27.19V-3.768a1.782,1.782,0,0,0-.234-1.052.828.828,0,0,0-.7-.308A1.327,1.327,0,0,0-28.734-5a1.163,1.163,0,0,0-.431.372V0H-30.87V-6.34ZM-16.749,0a3.6,3.6,0,0,1-.161-.457,3.179,3.179,0,0,1-.1-.492,2.345,2.345,0,0,1-.7.768,1.748,1.748,0,0,1-1.031.3A2.141,2.141,0,0,1-20.271-.39a1.837,1.837,0,0,1-.539-1.4,1.672,1.672,0,0,1,.718-1.444A3.585,3.585,0,0,1-18-3.744h.961v-.5a.986.986,0,0,0-.24-.709.943.943,0,0,0-.715-.252.929.929,0,0,0-.642.2.706.706,0,0,0-.226.554H-20.5l-.012-.035a1.608,1.608,0,0,1,.7-1.386,3.041,3.041,0,0,1,1.937-.583,2.838,2.838,0,0,1,1.849.574,2,2,0,0,1,.706,1.646v2.619a4.954,4.954,0,0,0,.067.838A4.2,4.2,0,0,0-15.044,0Zm-1.564-1.143a1.458,1.458,0,0,0,.8-.223,1.2,1.2,0,0,0,.48-.516v-.9H-18a1.139,1.139,0,0,0-.823.27.886.886,0,0,0-.278.662.661.661,0,0,0,.208.513A.823.823,0,0,0-18.313-1.143Zm6.92-.047a.952.952,0,0,0,.709-.267.968.968,0,0,0,.264-.712h1.559l.012.035A1.984,1.984,0,0,1-9.565-.524a2.673,2.673,0,0,1-1.828.647,2.7,2.7,0,0,1-2.174-.9,3.418,3.418,0,0,1-.768-2.3v-.176a3.441,3.441,0,0,1,.765-2.3,2.678,2.678,0,0,1,2.165-.905,2.615,2.615,0,0,1,1.869.668,2.232,2.232,0,0,1,.686,1.758L-8.862-4h-1.559a1.265,1.265,0,0,0-.261-.817.876.876,0,0,0-.724-.325.976.976,0,0,0-.94.53,2.908,2.908,0,0,0-.278,1.356v.176a2.9,2.9,0,0,0,.278,1.365A.99.99,0,0,0-11.394-1.189ZM-6.056,0H-7.767V-6.34h1.711Zm0-7.857H-7.767V-9.141h1.711Zm1.143,4.629a3.4,3.4,0,0,1,.791-2.323,2.757,2.757,0,0,1,2.191-.905,2.787,2.787,0,0,1,2.2.9,3.384,3.384,0,0,1,.8,2.326v.123A3.389,3.389,0,0,1,.275-.776a2.775,2.775,0,0,1-2.194.9,2.782,2.782,0,0,1-2.2-.9,3.389,3.389,0,0,1-.794-2.329Zm1.705.123a2.758,2.758,0,0,0,.3,1.392,1.052,1.052,0,0,0,.984.524,1.042,1.042,0,0,0,.97-.527A2.74,2.74,0,0,0-.642-3.105v-.123A2.712,2.712,0,0,0-.952-4.605a1.051,1.051,0,0,0-.979-.533A1.038,1.038,0,0,0-2.9-4.6a2.736,2.736,0,0,0-.308,1.374Zm1.623-5.941h1.9l.012.035L-1.292-7.488H-2.751ZM3.688-6.34l.076.908a2.319,2.319,0,0,1,.779-.756,2.023,2.023,0,0,1,1.037-.27,1.885,1.885,0,0,1,1.5.618A2.931,2.931,0,0,1,7.62-3.885V0H5.9V-3.879a1.518,1.518,0,0,0-.237-.964.875.875,0,0,0-.712-.284,1.494,1.494,0,0,0-.671.144,1.31,1.31,0,0,0-.478.4V0H2.095V-6.34ZM14.634.123a2.853,2.853,0,0,1-2.215-.87,3.189,3.189,0,0,1-.8-2.241v-.234A3.471,3.471,0,0,1,12.4-5.555a2.629,2.629,0,0,1,2.127-.9,2.462,2.462,0,0,1,1.96.782,3.091,3.091,0,0,1,.683,2.106v.885H13.386l-.018.035a1.713,1.713,0,0,0,.4,1.055,1.324,1.324,0,0,0,1.052.4,3.519,3.519,0,0,0,.976-.117,3.981,3.981,0,0,0,.829-.357l.463,1.055a3.176,3.176,0,0,1-1.031.521A4.573,4.573,0,0,1,14.634.123Zm-.111-5.262a.95.95,0,0,0-.794.354,1.778,1.778,0,0,0-.337.94l.012.029h2.086v-.129a1.481,1.481,0,0,0-.229-.876A.845.845,0,0,0,14.522-5.139Zm5.2-1.2.076.908a2.319,2.319,0,0,1,.779-.756,2.023,2.023,0,0,1,1.037-.27,1.885,1.885,0,0,1,1.5.618,2.931,2.931,0,0,1,.539,1.954V0H21.94V-3.879a1.518,1.518,0,0,0-.237-.964.875.875,0,0,0-.712-.284,1.494,1.494,0,0,0-.671.144,1.31,1.31,0,0,0-.478.4V0H18.132V-6.34ZM29.763-3.094V0H28.052V-8.531h3.264a3.36,3.36,0,0,1,2.314.75,2.515,2.515,0,0,1,.844,1.975,2.5,2.5,0,0,1-.844,1.969,3.377,3.377,0,0,1-2.314.744Zm0-1.318h1.553A1.423,1.423,0,0,0,32.4-4.8a1.386,1.386,0,0,0,.369-.993A1.45,1.45,0,0,0,32.4-6.812a1.4,1.4,0,0,0-1.087-.4H29.763ZM39.243,0a3.6,3.6,0,0,1-.161-.457,3.179,3.179,0,0,1-.1-.492,2.345,2.345,0,0,1-.7.768,1.748,1.748,0,0,1-1.031.3A2.141,2.141,0,0,1,35.722-.39a1.837,1.837,0,0,1-.539-1.4A1.672,1.672,0,0,1,35.9-3.231,3.585,3.585,0,0,1,38-3.744h.961v-.5a.986.986,0,0,0-.24-.709A.943.943,0,0,0,38-5.209a.929.929,0,0,0-.642.2.706.706,0,0,0-.226.554H35.487l-.012-.035a1.608,1.608,0,0,1,.7-1.386,3.041,3.041,0,0,1,1.937-.583,2.838,2.838,0,0,1,1.849.574,2,2,0,0,1,.706,1.646v2.619a4.954,4.954,0,0,0,.067.838A4.2,4.2,0,0,0,40.948,0ZM37.679-1.143a1.458,1.458,0,0,0,.8-.223,1.2,1.2,0,0,0,.48-.516v-.9H38a1.139,1.139,0,0,0-.823.27.886.886,0,0,0-.278.662.661.661,0,0,0,.208.513A.823.823,0,0,0,37.679-1.143Zm7.605-3.727-.627-.018a1.14,1.14,0,0,0-.627.158,1,1,0,0,0-.375.445V0H41.95V-6.34h1.588l.076.938a2,2,0,0,1,.577-.776,1.287,1.287,0,0,1,.817-.278,1.279,1.279,0,0,1,.237.021q.108.021.22.05ZM48.812.123A2.853,2.853,0,0,1,46.6-.747a3.189,3.189,0,0,1-.8-2.241v-.234a3.471,3.471,0,0,1,.773-2.332,2.629,2.629,0,0,1,2.127-.9,2.462,2.462,0,0,1,1.96.782,3.091,3.091,0,0,1,.683,2.106v.885H47.563l-.018.035a1.713,1.713,0,0,0,.4,1.055,1.324,1.324,0,0,0,1.052.4,3.519,3.519,0,0,0,.976-.117,3.981,3.981,0,0,0,.829-.357l.463,1.055a3.176,3.176,0,0,1-1.031.521A4.573,4.573,0,0,1,48.812.123ZM48.7-5.139a.95.95,0,0,0-.794.354,1.778,1.778,0,0,0-.337.94l.012.029h2.086v-.129a1.481,1.481,0,0,0-.229-.876A.845.845,0,0,0,48.7-5.139Zm5.484-1.2V.234a2.36,2.36,0,0,1-.592,1.72,2.195,2.195,0,0,1-1.646.606,3.573,3.573,0,0,1-.428-.023,3.547,3.547,0,0,1-.41-.076l.082-1.307a2.188,2.188,0,0,0,.27.053,2.222,2.222,0,0,0,.287.018A.634.634,0,0,0,52.28.981a1.219,1.219,0,0,0,.188-.747V-6.34Zm-.035-1.529H52.433V-9.141h1.717ZM59.259,0A3.6,3.6,0,0,1,59.1-.457,3.179,3.179,0,0,1,59-.949a2.345,2.345,0,0,1-.7.768,1.748,1.748,0,0,1-1.031.3A2.141,2.141,0,0,1,55.737-.39a1.837,1.837,0,0,1-.539-1.4,1.672,1.672,0,0,1,.718-1.444,3.585,3.585,0,0,1,2.095-.513h.961v-.5a.986.986,0,0,0-.24-.709.943.943,0,0,0-.715-.252.929.929,0,0,0-.642.2.706.706,0,0,0-.226.554H55.5l-.012-.035a1.608,1.608,0,0,1,.7-1.386,3.041,3.041,0,0,1,1.937-.583,2.838,2.838,0,0,1,1.849.574,2,2,0,0,1,.706,1.646v2.619a4.954,4.954,0,0,0,.067.838A4.2,4.2,0,0,0,60.964,0ZM57.694-1.143a1.458,1.458,0,0,0,.8-.223,1.2,1.2,0,0,0,.48-.516v-.9h-.961a1.139,1.139,0,0,0-.823.27.886.886,0,0,0-.278.662.661.661,0,0,0,.208.513A.823.823,0,0,0,57.694-1.143Zm7.7-.615a.59.59,0,0,0-.272-.483A2.767,2.767,0,0,0,64.11-2.6a4.031,4.031,0,0,1-1.69-.674,1.472,1.472,0,0,1-.577-1.225,1.747,1.747,0,0,1,.691-1.389,2.788,2.788,0,0,1,1.84-.574,3.008,3.008,0,0,1,1.925.574,1.678,1.678,0,0,1,.694,1.43l-.012.035H65.329a.83.83,0,0,0-.246-.621.974.974,0,0,0-.709-.24.969.969,0,0,0-.65.205.638.638,0,0,0-.24.5.569.569,0,0,0,.249.478,2.772,2.772,0,0,0,1.011.331,4.113,4.113,0,0,1,1.737.688,1.51,1.51,0,0,1,.571,1.251,1.673,1.673,0,0,1-.732,1.4,3.161,3.161,0,0,1-1.934.545,2.939,2.939,0,0,1-2-.642,1.794,1.794,0,0,1-.7-1.462l.012-.035h1.564a.889.889,0,0,0,.334.738,1.379,1.379,0,0,0,.826.229,1.175,1.175,0,0,0,.724-.19A.618.618,0,0,0,65.394-1.758Z" transform="translate(1256.066 4959)" fill="#00104e"/>
    <path id="Trazado_820926" data-name="Trazado 820926" d="M-22.828-3.7V0h-1.154V-8.525h2.918a3.24,3.24,0,0,1,2.139.621,2.226,2.226,0,0,1,.738,1.8,1.932,1.932,0,0,1-.343,1.143,2.322,2.322,0,0,1-1,.773,1.748,1.748,0,0,1,1.011.741,2.427,2.427,0,0,1,.308,1.269v.8a2.673,2.673,0,0,0,.088.715,1.072,1.072,0,0,0,.3.516V0h-1.189A.955.955,0,0,1-19.3-.586a4.84,4.84,0,0,1-.064-.8v-.779a1.542,1.542,0,0,0-.4-1.113A1.431,1.431,0,0,0-20.854-3.7Zm0-.908h1.646a2.144,2.144,0,0,0,1.409-.372,1.418,1.418,0,0,0,.431-1.134,1.461,1.461,0,0,0-.419-1.116,1.846,1.846,0,0,0-1.3-.4h-1.764ZM-13.881.123a2.682,2.682,0,0,1-2.13-.873,3.36,3.36,0,0,1-.765-2.3V-3.3a3.289,3.289,0,0,1,.788-2.259,2.471,2.471,0,0,1,1.925-.894,2.3,2.3,0,0,1,1.907.791,3.259,3.259,0,0,1,.636,2.1v.609h-4.055l-.018.029a2.62,2.62,0,0,0,.422,1.55,1.474,1.474,0,0,0,1.289.595,2.9,2.9,0,0,0,1.028-.167,2.3,2.3,0,0,0,.759-.46l.451.75a2.774,2.774,0,0,1-.9.554A3.571,3.571,0,0,1-13.881.123Zm-.182-5.672a1.255,1.255,0,0,0-1,.466,2.2,2.2,0,0,0-.483,1.192l.012.029h2.859v-.094a1.846,1.846,0,0,0-.34-1.143A1.228,1.228,0,0,0-14.062-5.549Zm3.574,2.5A4.231,4.231,0,0,1-9.835-5.52,2.105,2.105,0,0,1-8-6.457a2.27,2.27,0,0,1,.987.205,2.024,2.024,0,0,1,.735.6V-9.141h1.154V0h-.885l-.176-.8a2.057,2.057,0,0,1-.768.691A2.293,2.293,0,0,1-8.016.123,2.176,2.176,0,0,1-9.832-.718a3.494,3.494,0,0,1-.656-2.212Zm1.154.123a2.691,2.691,0,0,0,.393,1.538,1.371,1.371,0,0,0,1.219.577,1.529,1.529,0,0,0,.867-.234,1.75,1.75,0,0,0,.574-.656V-4.664a1.777,1.777,0,0,0-.577-.624,1.525,1.525,0,0,0-.853-.231,1.319,1.319,0,0,0-1.228.686,3.539,3.539,0,0,0-.4,1.781ZM-2.156,0H-3.311V-6.34h1.154Zm0-7.963H-3.311V-9.141h1.154ZM3.3-1.705a.769.769,0,0,0-.29-.621,2.8,2.8,0,0,0-1.1-.422A4.61,4.61,0,0,1,.2-3.422a1.361,1.361,0,0,1-.6-1.16A1.672,1.672,0,0,1,.255-5.906a2.574,2.574,0,0,1,1.708-.551,2.551,2.551,0,0,1,1.746.586,1.679,1.679,0,0,1,.639,1.365l-.012.035h-1.1a1,1,0,0,0-.36-.744,1.288,1.288,0,0,0-.911-.334,1.314,1.314,0,0,0-.911.275.859.859,0,0,0-.3.656.7.7,0,0,0,.261.58,2.886,2.886,0,0,0,1.075.375,4.544,4.544,0,0,1,1.77.7,1.4,1.4,0,0,1,.6,1.178A1.669,1.669,0,0,1,3.776-.41,2.816,2.816,0,0,1,1.992.123,2.786,2.786,0,0,1,.082-.492,1.756,1.756,0,0,1-.58-1.928l.012-.035h1.1a1.068,1.068,0,0,0,.457.9,1.768,1.768,0,0,0,1,.284,1.578,1.578,0,0,0,.964-.261A.8.8,0,0,0,3.3-1.705ZM8.52.123A2.682,2.682,0,0,1,6.39-.75a3.36,3.36,0,0,1-.765-2.3V-3.3a3.289,3.289,0,0,1,.788-2.259,2.471,2.471,0,0,1,1.925-.894,2.3,2.3,0,0,1,1.907.791,3.259,3.259,0,0,1,.636,2.1v.609H6.826l-.018.029a2.62,2.62,0,0,0,.422,1.55A1.474,1.474,0,0,0,8.52-.779,2.9,2.9,0,0,0,9.548-.946a2.3,2.3,0,0,0,.759-.46l.451.75a2.774,2.774,0,0,1-.9.554A3.571,3.571,0,0,1,8.52.123ZM8.338-5.549a1.255,1.255,0,0,0-1,.466,2.2,2.2,0,0,0-.483,1.192l.012.029H9.727v-.094A1.846,1.846,0,0,0,9.387-5.1,1.228,1.228,0,0,0,8.338-5.549Zm4.869-.791.082.943a2.3,2.3,0,0,1,.794-.782,2.118,2.118,0,0,1,1.087-.278,2.069,2.069,0,0,1,1.588.6A2.637,2.637,0,0,1,17.32-4V0H16.166V-3.979a1.715,1.715,0,0,0-.331-1.189,1.326,1.326,0,0,0-1.011-.352,1.789,1.789,0,0,0-.905.214,1.554,1.554,0,0,0-.589.6V0H12.176V-6.34Zm3.551-2.578a1.329,1.329,0,0,1-.349.932,1.137,1.137,0,0,1-.876.381,1.681,1.681,0,0,1-.867-.272,1.553,1.553,0,0,0-.75-.272.543.543,0,0,0-.422.19.667.667,0,0,0-.17.46l-.633-.152a1.4,1.4,0,0,1,.346-.946,1.109,1.109,0,0,1,.879-.4,1.784,1.784,0,0,1,.82.275,1.767,1.767,0,0,0,.8.275.548.548,0,0,0,.416-.19.662.662,0,0,0,.176-.466Zm1.969,5.689a3.49,3.49,0,0,1,.762-2.317,2.554,2.554,0,0,1,2.068-.911,2.58,2.58,0,0,1,2.083.908,3.479,3.479,0,0,1,.765,2.32V-3.1a3.473,3.473,0,0,1-.762,2.32,2.572,2.572,0,0,1-2.074.9,2.577,2.577,0,0,1-2.077-.905A3.467,3.467,0,0,1,18.727-3.1Zm1.154.129a3.007,3.007,0,0,0,.425,1.664,1.406,1.406,0,0,0,1.263.656,1.4,1.4,0,0,0,1.254-.656A2.991,2.991,0,0,0,23.25-3.1v-.129a2.982,2.982,0,0,0-.431-1.658,1.412,1.412,0,0,0-1.263-.662,1.392,1.392,0,0,0-1.251.662,3.014,3.014,0,0,0-.425,1.658Z" transform="translate(1077.066 4971)" fill="#00104e"/>
    <path id="Trazado_820927" data-name="Trazado 820927" d="M-59.4-3.094V0h-1.711V-8.531h3.264a3.36,3.36,0,0,1,2.314.75,2.515,2.515,0,0,1,.844,1.975,2.5,2.5,0,0,1-.844,1.969,3.377,3.377,0,0,1-2.314.744Zm0-1.318h1.553A1.423,1.423,0,0,0-56.76-4.8a1.386,1.386,0,0,0,.369-.993,1.45,1.45,0,0,0-.366-1.017,1.4,1.4,0,0,0-1.087-.4H-59.4Zm9.141-.457-.627-.018a1.14,1.14,0,0,0-.627.158,1,1,0,0,0-.375.445V0H-53.59V-6.34H-52l.076.938a2,2,0,0,1,.577-.776,1.287,1.287,0,0,1,.817-.278,1.279,1.279,0,0,1,.237.021q.108.021.22.05ZM-45.48-.937a2.152,2.152,0,0,1-.744.785,1.973,1.973,0,0,1-1.049.275,1.928,1.928,0,0,1-1.567-.68,3.26,3.26,0,0,1-.565-2.109V-6.34H-47.7v3.686a2.047,2.047,0,0,0,.226,1.14.811.811,0,0,0,.7.308,1.7,1.7,0,0,0,.7-.132,1.185,1.185,0,0,0,.48-.39V-6.34h1.711V0H-45.3ZM-39.844.123a2.853,2.853,0,0,1-2.215-.87,3.189,3.189,0,0,1-.8-2.241v-.234a3.471,3.471,0,0,1,.773-2.332,2.629,2.629,0,0,1,2.127-.9A2.462,2.462,0,0,1-38-5.675a3.091,3.091,0,0,1,.683,2.106v.885h-3.779l-.018.035a1.713,1.713,0,0,0,.4,1.055,1.324,1.324,0,0,0,1.052.4,3.519,3.519,0,0,0,.976-.117,3.981,3.981,0,0,0,.829-.357l.463,1.055a3.176,3.176,0,0,1-1.031.521A4.573,4.573,0,0,1-39.844.123Zm-.111-5.262a.95.95,0,0,0-.794.354,1.778,1.778,0,0,0-.337.94l.012.029h2.086v-.129a1.481,1.481,0,0,0-.229-.876A.845.845,0,0,0-39.955-5.139ZM-30.6-2.994A3.708,3.708,0,0,1-31.23-.727a2.14,2.14,0,0,1-1.828.85,1.932,1.932,0,0,1-.97-.234,2,2,0,0,1-.7-.686l-.141.8h-1.447V-9.141h1.705v3.475a1.937,1.937,0,0,1,.659-.586,1.842,1.842,0,0,1,.882-.205,2.1,2.1,0,0,1,1.84.911A4.183,4.183,0,0,1-30.6-3.117ZM-32.3-3.117a3.3,3.3,0,0,0-.272-1.468.956.956,0,0,0-.929-.542,1.277,1.277,0,0,0-.674.167,1.158,1.158,0,0,0-.434.478V-1.8a1.087,1.087,0,0,0,.437.439,1.405,1.405,0,0,0,.683.152.973.973,0,0,0,.926-.466A2.713,2.713,0,0,0-32.3-2.994ZM-25.8,0a3.6,3.6,0,0,1-.161-.457,3.179,3.179,0,0,1-.1-.492,2.345,2.345,0,0,1-.7.768,1.748,1.748,0,0,1-1.031.3A2.141,2.141,0,0,1-29.326-.39a1.837,1.837,0,0,1-.539-1.4,1.672,1.672,0,0,1,.718-1.444,3.585,3.585,0,0,1,2.095-.513h.961v-.5a.986.986,0,0,0-.24-.709.943.943,0,0,0-.715-.252.929.929,0,0,0-.642.2.706.706,0,0,0-.226.554h-1.646l-.012-.035a1.608,1.608,0,0,1,.7-1.386,3.041,3.041,0,0,1,1.937-.583,2.838,2.838,0,0,1,1.849.574,2,2,0,0,1,.706,1.646v2.619a4.954,4.954,0,0,0,.067.838A4.2,4.2,0,0,0-24.1,0Zm-1.564-1.143a1.458,1.458,0,0,0,.8-.223,1.2,1.2,0,0,0,.48-.516v-.9h-.961a1.139,1.139,0,0,0-.823.27.886.886,0,0,0-.278.662.661.661,0,0,0,.208.513A.823.823,0,0,0-27.369-1.143Zm7.7-.615a.59.59,0,0,0-.272-.483A2.767,2.767,0,0,0-20.953-2.6a4.031,4.031,0,0,1-1.69-.674,1.472,1.472,0,0,1-.577-1.225,1.747,1.747,0,0,1,.691-1.389,2.788,2.788,0,0,1,1.84-.574,3.008,3.008,0,0,1,1.925.574,1.678,1.678,0,0,1,.694,1.43l-.012.035h-1.652a.83.83,0,0,0-.246-.621.974.974,0,0,0-.709-.24.969.969,0,0,0-.65.205.638.638,0,0,0-.24.5.569.569,0,0,0,.249.478,2.772,2.772,0,0,0,1.011.331,4.113,4.113,0,0,1,1.737.688,1.51,1.51,0,0,1,.571,1.251,1.673,1.673,0,0,1-.732,1.4,3.161,3.161,0,0,1-1.934.545,2.939,2.939,0,0,1-2-.642,1.794,1.794,0,0,1-.7-1.462l.012-.035H-21.8a.889.889,0,0,0,.334.738,1.379,1.379,0,0,0,.826.229,1.175,1.175,0,0,0,.724-.19A.618.618,0,0,0-19.67-1.758Zm5.484-1.359a4.12,4.12,0,0,1,.647-2.42,2.1,2.1,0,0,1,1.825-.92,1.775,1.775,0,0,1,.855.205,2.058,2.058,0,0,1,.668.586V-9.141h1.717V0H-9.932l-.146-.779a2.119,2.119,0,0,1-.709.671,1.874,1.874,0,0,1-.937.231,2.144,2.144,0,0,1-1.813-.855,3.653,3.653,0,0,1-.647-2.262Zm1.705.123a2.582,2.582,0,0,0,.281,1.31.979.979,0,0,0,.914.478,1.331,1.331,0,0,0,.645-.149,1.192,1.192,0,0,0,.451-.437v-2.7a1.317,1.317,0,0,0-.448-.466,1.192,1.192,0,0,0-.636-.167.966.966,0,0,0-.917.557,3.146,3.146,0,0,0-.29,1.453ZM-4.4.123a2.853,2.853,0,0,1-2.215-.87,3.189,3.189,0,0,1-.8-2.241v-.234a3.471,3.471,0,0,1,.773-2.332,2.629,2.629,0,0,1,2.127-.9,2.462,2.462,0,0,1,1.96.782,3.091,3.091,0,0,1,.683,2.106v.885H-5.648l-.018.035a1.713,1.713,0,0,0,.4,1.055,1.324,1.324,0,0,0,1.052.4,3.519,3.519,0,0,0,.976-.117,3.981,3.981,0,0,0,.829-.357l.463,1.055a3.176,3.176,0,0,1-1.031.521A4.573,4.573,0,0,1-4.4.123Zm-.111-5.262a.95.95,0,0,0-.794.354,1.778,1.778,0,0,0-.337.94l.012.029h2.086v-.129a1.481,1.481,0,0,0-.229-.876A.845.845,0,0,0-4.512-5.139Zm11.2,3.3H3.926L3.352,0H1.564L4.441-8.531H6.193L9.059,0H7.271ZM4.348-3.182H6.275L5.332-6.187H5.3ZM12.4-1.189a.952.952,0,0,0,.709-.267.968.968,0,0,0,.264-.712H14.93l.012.035a1.984,1.984,0,0,1-.715,1.608A2.673,2.673,0,0,1,12.4.123a2.7,2.7,0,0,1-2.174-.9,3.418,3.418,0,0,1-.768-2.3v-.176a3.441,3.441,0,0,1,.765-2.3,2.678,2.678,0,0,1,2.165-.905,2.615,2.615,0,0,1,1.869.668,2.232,2.232,0,0,1,.686,1.758L14.93-4H13.371a1.265,1.265,0,0,0-.261-.817.876.876,0,0,0-.724-.325.976.976,0,0,0-.94.53,2.908,2.908,0,0,0-.278,1.356v.176a2.9,2.9,0,0,0,.278,1.365A.99.99,0,0,0,12.4-1.189ZM18.686.123a2.853,2.853,0,0,1-2.215-.87,3.189,3.189,0,0,1-.8-2.241v-.234a3.471,3.471,0,0,1,.773-2.332,2.629,2.629,0,0,1,2.127-.9,2.462,2.462,0,0,1,1.96.782,3.091,3.091,0,0,1,.683,2.106v.885H17.438l-.018.035a1.713,1.713,0,0,0,.4,1.055,1.324,1.324,0,0,0,1.052.4,3.519,3.519,0,0,0,.976-.117,3.981,3.981,0,0,0,.829-.357l.463,1.055A3.176,3.176,0,0,1,20.1-.088,4.573,4.573,0,0,1,18.686.123Zm-.111-5.262a.95.95,0,0,0-.794.354,1.778,1.778,0,0,0-.337.94l.012.029h2.086v-.129a1.481,1.481,0,0,0-.229-.876A.845.845,0,0,0,18.574-5.139Zm9.357,2.145a3.641,3.641,0,0,1-.65,2.262,2.152,2.152,0,0,1-1.816.855,2.03,2.03,0,0,1-.885-.185A1.817,1.817,0,0,1,23.918-.6V2.438H22.213V-6.34h1.541l.1.75a2.031,2.031,0,0,1,.677-.642,1.831,1.831,0,0,1,.923-.226,2.11,2.11,0,0,1,1.828.92,4.106,4.106,0,0,1,.65,2.42Zm-1.711-.123a3.067,3.067,0,0,0-.3-1.453.975.975,0,0,0-.914-.557,1.292,1.292,0,0,0-.659.158,1.129,1.129,0,0,0-.431.451V-1.74a1.049,1.049,0,0,0,.431.41,1.451,1.451,0,0,0,.671.141.984.984,0,0,0,.911-.486,2.567,2.567,0,0,0,.29-1.318Zm4.816-4.775V-6.34h1.072v1.2H31.037V-1.91a.737.737,0,0,0,.155.527.545.545,0,0,0,.407.158,1.633,1.633,0,0,0,.234-.015,1.974,1.974,0,0,0,.229-.05L32.2-.053a3.464,3.464,0,0,1-.5.132,2.987,2.987,0,0,1-.53.044A1.824,1.824,0,0,1,29.81-.363,2.132,2.132,0,0,1,29.332-1.9V-5.139h-.926v-1.2h.926V-7.893ZM36.9,0a3.6,3.6,0,0,1-.161-.457,3.179,3.179,0,0,1-.1-.492,2.345,2.345,0,0,1-.7.768,1.748,1.748,0,0,1-1.031.3A2.141,2.141,0,0,1,33.381-.39a1.837,1.837,0,0,1-.539-1.4,1.672,1.672,0,0,1,.718-1.444,3.585,3.585,0,0,1,2.095-.513h.961v-.5a.986.986,0,0,0-.24-.709.943.943,0,0,0-.715-.252.929.929,0,0,0-.642.2.706.706,0,0,0-.226.554H33.146l-.012-.035a1.608,1.608,0,0,1,.7-1.386,3.041,3.041,0,0,1,1.937-.583,2.838,2.838,0,0,1,1.849.574,2,2,0,0,1,.706,1.646v2.619a4.954,4.954,0,0,0,.067.838A4.2,4.2,0,0,0,38.607,0ZM35.338-1.143a1.458,1.458,0,0,0,.8-.223,1.2,1.2,0,0,0,.48-.516v-.9h-.961a1.139,1.139,0,0,0-.823.27.886.886,0,0,0-.278.662.661.661,0,0,0,.208.513A.823.823,0,0,0,35.338-1.143Zm6.92-.047a.952.952,0,0,0,.709-.267.968.968,0,0,0,.264-.712h1.559l.012.035a1.984,1.984,0,0,1-.715,1.608,2.673,2.673,0,0,1-1.828.647,2.7,2.7,0,0,1-2.174-.9,3.418,3.418,0,0,1-.768-2.3v-.176a3.441,3.441,0,0,1,.765-2.3,2.678,2.678,0,0,1,2.165-.905,2.615,2.615,0,0,1,1.869.668A2.232,2.232,0,0,1,44.8-4.031L44.789-4H43.23a1.265,1.265,0,0,0-.261-.817.876.876,0,0,0-.724-.325.976.976,0,0,0-.94.53,2.908,2.908,0,0,0-.278,1.356v.176a2.9,2.9,0,0,0,.278,1.365A.99.99,0,0,0,42.258-1.189ZM47.6,0H45.885V-6.34H47.6Zm0-7.857H45.885V-9.141H47.6Zm1.143,4.629a3.4,3.4,0,0,1,.791-2.323,2.757,2.757,0,0,1,2.191-.905,2.787,2.787,0,0,1,2.2.9,3.384,3.384,0,0,1,.8,2.326v.123a3.389,3.389,0,0,1-.794,2.329,2.775,2.775,0,0,1-2.194.9,2.782,2.782,0,0,1-2.2-.9,3.389,3.389,0,0,1-.794-2.329Zm1.705.123a2.758,2.758,0,0,0,.3,1.392,1.052,1.052,0,0,0,.984.524,1.042,1.042,0,0,0,.97-.527,2.74,2.74,0,0,0,.308-1.389v-.123A2.712,2.712,0,0,0,52.7-4.605a1.051,1.051,0,0,0-.979-.533,1.038,1.038,0,0,0-.97.536,2.736,2.736,0,0,0-.308,1.374Zm1.623-5.941h1.9l.012.035L52.359-7.488H50.9ZM57.34-6.34l.076.908a2.319,2.319,0,0,1,.779-.756,2.023,2.023,0,0,1,1.037-.27,1.885,1.885,0,0,1,1.5.618,2.931,2.931,0,0,1,.539,1.954V0H59.555V-3.879a1.518,1.518,0,0,0-.237-.964.875.875,0,0,0-.712-.284,1.494,1.494,0,0,0-.671.144,1.31,1.31,0,0,0-.478.4V0H55.746V-6.34Z" transform="translate(812.066 5094)" fill="#00104e"/>
    <path id="Trazado_820928" data-name="Trazado 820928" d="M-45.615-3.094V0h-1.711V-8.531h3.264a3.36,3.36,0,0,1,2.314.75A2.515,2.515,0,0,1-40.9-5.807a2.5,2.5,0,0,1-.844,1.969,3.377,3.377,0,0,1-2.314.744Zm0-1.318h1.553a1.423,1.423,0,0,0,1.084-.39,1.386,1.386,0,0,0,.369-.993,1.45,1.45,0,0,0-.366-1.017,1.4,1.4,0,0,0-1.087-.4h-1.553Zm9.141-.457-.627-.018a1.14,1.14,0,0,0-.627.158,1,1,0,0,0-.375.445V0h-1.705V-6.34h1.588l.076.938a2,2,0,0,1,.577-.776,1.287,1.287,0,0,1,.817-.278,1.279,1.279,0,0,1,.237.021q.108.021.22.05ZM-31.7-.937a2.152,2.152,0,0,1-.744.785,1.973,1.973,0,0,1-1.049.275,1.928,1.928,0,0,1-1.567-.68,3.26,3.26,0,0,1-.565-2.109V-6.34h1.705v3.686a2.047,2.047,0,0,0,.226,1.14.811.811,0,0,0,.7.308,1.7,1.7,0,0,0,.7-.132,1.185,1.185,0,0,0,.48-.39V-6.34H-30.1V0h-1.418ZM-26.062.123a2.853,2.853,0,0,1-2.215-.87,3.189,3.189,0,0,1-.8-2.241v-.234A3.471,3.471,0,0,1-28.3-5.555a2.629,2.629,0,0,1,2.127-.9,2.462,2.462,0,0,1,1.96.782,3.091,3.091,0,0,1,.683,2.106v.885h-3.779l-.018.035a1.713,1.713,0,0,0,.4,1.055,1.324,1.324,0,0,0,1.052.4,3.519,3.519,0,0,0,.976-.117,3.981,3.981,0,0,0,.829-.357l.463,1.055a3.176,3.176,0,0,1-1.031.521A4.573,4.573,0,0,1-26.062.123Zm-.111-5.262a.95.95,0,0,0-.794.354,1.778,1.778,0,0,0-.337.94l.012.029h2.086v-.129a1.481,1.481,0,0,0-.229-.876A.845.845,0,0,0-26.174-5.139Zm9.357,2.145a3.708,3.708,0,0,1-.633,2.268,2.14,2.14,0,0,1-1.828.85,1.932,1.932,0,0,1-.97-.234,2,2,0,0,1-.7-.686l-.141.8h-1.447V-9.141h1.705v3.475a1.937,1.937,0,0,1,.659-.586,1.842,1.842,0,0,1,.882-.205,2.1,2.1,0,0,1,1.84.911,4.183,4.183,0,0,1,.633,2.429Zm-1.705-.123a3.3,3.3,0,0,0-.272-1.468.956.956,0,0,0-.929-.542,1.277,1.277,0,0,0-.674.167,1.158,1.158,0,0,0-.434.478V-1.8a1.087,1.087,0,0,0,.437.439,1.405,1.405,0,0,0,.683.152.973.973,0,0,0,.926-.466,2.713,2.713,0,0,0,.264-1.321ZM-12.023,0a3.6,3.6,0,0,1-.161-.457,3.179,3.179,0,0,1-.1-.492,2.345,2.345,0,0,1-.7.768,1.748,1.748,0,0,1-1.031.3A2.141,2.141,0,0,1-15.545-.39a1.837,1.837,0,0,1-.539-1.4,1.672,1.672,0,0,1,.718-1.444,3.585,3.585,0,0,1,2.095-.513h.961v-.5a.986.986,0,0,0-.24-.709.943.943,0,0,0-.715-.252.929.929,0,0,0-.642.2.706.706,0,0,0-.226.554h-1.646l-.012-.035a1.608,1.608,0,0,1,.7-1.386,3.041,3.041,0,0,1,1.937-.583,2.838,2.838,0,0,1,1.849.574A2,2,0,0,1-10.6-4.236v2.619a4.954,4.954,0,0,0,.067.838A4.2,4.2,0,0,0-10.318,0Zm-1.564-1.143a1.458,1.458,0,0,0,.8-.223,1.2,1.2,0,0,0,.48-.516v-.9h-.961a1.139,1.139,0,0,0-.823.27.886.886,0,0,0-.278.662.661.661,0,0,0,.208.513A.823.823,0,0,0-13.588-1.143Zm7.7-.615a.59.59,0,0,0-.272-.483A2.767,2.767,0,0,0-7.172-2.6a4.031,4.031,0,0,1-1.69-.674,1.472,1.472,0,0,1-.577-1.225,1.747,1.747,0,0,1,.691-1.389,2.788,2.788,0,0,1,1.84-.574,3.008,3.008,0,0,1,1.925.574,1.678,1.678,0,0,1,.694,1.43l-.012.035H-5.953A.83.83,0,0,0-6.2-5.039a.974.974,0,0,0-.709-.24.969.969,0,0,0-.65.205.638.638,0,0,0-.24.5.569.569,0,0,0,.249.478,2.772,2.772,0,0,0,1.011.331A4.113,4.113,0,0,1-4.8-3.073,1.51,1.51,0,0,1-4.23-1.822a1.673,1.673,0,0,1-.732,1.4A3.161,3.161,0,0,1-6.9.123a2.939,2.939,0,0,1-2-.642A1.794,1.794,0,0,1-9.6-1.98l.012-.035h1.564a.889.889,0,0,0,.334.738,1.379,1.379,0,0,0,.826.229,1.175,1.175,0,0,0,.724-.19A.618.618,0,0,0-5.889-1.758ZM6.75-8.531v5.584A2.806,2.806,0,0,1,5.795-.691,3.687,3.687,0,0,1,3.316.123,3.644,3.644,0,0,1,.853-.691,2.818,2.818,0,0,1-.094-2.947V-8.531H1.623v5.584A1.756,1.756,0,0,0,2.08-1.641a1.683,1.683,0,0,0,1.236.451A1.719,1.719,0,0,0,4.57-1.641a1.743,1.743,0,0,0,.463-1.307V-8.531ZM9.668-6.34l.076.908a2.319,2.319,0,0,1,.779-.756,2.023,2.023,0,0,1,1.037-.27,1.885,1.885,0,0,1,1.5.618A2.931,2.931,0,0,1,13.6-3.885V0H11.883V-3.879a1.518,1.518,0,0,0-.237-.964.875.875,0,0,0-.712-.284,1.494,1.494,0,0,0-.671.144,1.31,1.31,0,0,0-.478.4V0H8.074V-6.34ZM16.676,0H14.965V-6.34h1.711Zm0-7.857H14.965V-9.141h1.711Zm3.457-.035V-6.34h1.072v1.2H20.133V-1.91a.737.737,0,0,0,.155.527.545.545,0,0,0,.407.158,1.633,1.633,0,0,0,.234-.015,1.974,1.974,0,0,0,.229-.05L21.3-.053a3.464,3.464,0,0,1-.5.132,2.987,2.987,0,0,1-.53.044,1.824,1.824,0,0,1-1.362-.486A2.132,2.132,0,0,1,18.428-1.9V-5.139H17.5v-1.2h.926V-7.893ZM26,0a3.6,3.6,0,0,1-.161-.457,3.179,3.179,0,0,1-.1-.492,2.345,2.345,0,0,1-.7.768,1.748,1.748,0,0,1-1.031.3A2.141,2.141,0,0,1,22.477-.39a1.837,1.837,0,0,1-.539-1.4,1.672,1.672,0,0,1,.718-1.444,3.585,3.585,0,0,1,2.095-.513h.961v-.5a.986.986,0,0,0-.24-.709.943.943,0,0,0-.715-.252.929.929,0,0,0-.642.2.706.706,0,0,0-.226.554H22.242l-.012-.035a1.608,1.608,0,0,1,.7-1.386,3.041,3.041,0,0,1,1.937-.583,2.838,2.838,0,0,1,1.849.574,2,2,0,0,1,.706,1.646v2.619a4.954,4.954,0,0,0,.067.838A4.2,4.2,0,0,0,27.7,0ZM24.434-1.143a1.458,1.458,0,0,0,.8-.223,1.2,1.2,0,0,0,.48-.516v-.9H24.75a1.139,1.139,0,0,0-.823.27.886.886,0,0,0-.278.662.661.661,0,0,0,.208.513A.823.823,0,0,0,24.434-1.143Zm7.605-3.727-.627-.018a1.14,1.14,0,0,0-.627.158,1,1,0,0,0-.375.445V0H28.705V-6.34h1.588l.076.938a2,2,0,0,1,.577-.776,1.287,1.287,0,0,1,.817-.278A1.279,1.279,0,0,1,32-6.437q.108.021.22.05ZM34.729,0H33.018V-6.34h1.711Zm0-7.857H33.018V-9.141h1.711ZM39.873,0a3.6,3.6,0,0,1-.161-.457,3.179,3.179,0,0,1-.1-.492,2.345,2.345,0,0,1-.7.768,1.748,1.748,0,0,1-1.031.3A2.141,2.141,0,0,1,36.352-.39a1.837,1.837,0,0,1-.539-1.4,1.672,1.672,0,0,1,.718-1.444,3.585,3.585,0,0,1,2.095-.513h.961v-.5a.986.986,0,0,0-.24-.709.943.943,0,0,0-.715-.252.929.929,0,0,0-.642.2.706.706,0,0,0-.226.554H36.117l-.012-.035a1.608,1.608,0,0,1,.7-1.386,3.041,3.041,0,0,1,1.937-.583,2.838,2.838,0,0,1,1.849.574A2,2,0,0,1,41.3-4.236v2.619a4.954,4.954,0,0,0,.067.838A4.2,4.2,0,0,0,41.578,0ZM38.309-1.143a1.458,1.458,0,0,0,.8-.223,1.2,1.2,0,0,0,.48-.516v-.9h-.961a1.139,1.139,0,0,0-.823.27.886.886,0,0,0-.278.662.661.661,0,0,0,.208.513A.823.823,0,0,0,38.309-1.143Zm7.7-.615a.59.59,0,0,0-.272-.483A2.767,2.767,0,0,0,44.725-2.6a4.031,4.031,0,0,1-1.69-.674,1.472,1.472,0,0,1-.577-1.225,1.747,1.747,0,0,1,.691-1.389,2.788,2.788,0,0,1,1.84-.574,3.008,3.008,0,0,1,1.925.574,1.678,1.678,0,0,1,.694,1.43l-.012.035H45.943a.83.83,0,0,0-.246-.621.974.974,0,0,0-.709-.24.969.969,0,0,0-.65.205.638.638,0,0,0-.24.5.569.569,0,0,0,.249.478,2.772,2.772,0,0,0,1.011.331,4.113,4.113,0,0,1,1.737.688,1.51,1.51,0,0,1,.571,1.251,1.673,1.673,0,0,1-.732,1.4A3.161,3.161,0,0,1,45,.123a2.939,2.939,0,0,1-2-.642,1.794,1.794,0,0,1-.7-1.462l.012-.035h1.564a.889.889,0,0,0,.334.738,1.379,1.379,0,0,0,.826.229,1.175,1.175,0,0,0,.724-.19A.618.618,0,0,0,46.008-1.758ZM-53.725,11h-1.711V2.469h1.711ZM-50.6,4.66l.076.908a2.319,2.319,0,0,1,.779-.756,2.023,2.023,0,0,1,1.037-.27,1.885,1.885,0,0,1,1.5.618,2.931,2.931,0,0,1,.539,1.954V11h-1.717V7.121a1.518,1.518,0,0,0-.237-.964.875.875,0,0,0-.712-.284A1.494,1.494,0,0,0-50,6.017a1.31,1.31,0,0,0-.478.4V11h-1.711V4.66Zm7.26-1.553V4.66h1.072v1.2h-1.072V9.09a.737.737,0,0,0,.155.527.545.545,0,0,0,.407.158,1.633,1.633,0,0,0,.234-.015,1.974,1.974,0,0,0,.229-.05l.141,1.236a3.464,3.464,0,0,1-.5.132,2.987,2.987,0,0,1-.53.044,1.824,1.824,0,0,1-1.362-.486A2.132,2.132,0,0,1-45.041,9.1V5.861h-.926V4.66h.926V3.107Zm4.875,8.016a2.853,2.853,0,0,1-2.215-.87,3.189,3.189,0,0,1-.8-2.241V7.777A3.471,3.471,0,0,1-40.7,5.445a2.629,2.629,0,0,1,2.127-.9,2.462,2.462,0,0,1,1.96.782,3.091,3.091,0,0,1,.683,2.106v.885h-3.779l-.018.035a1.713,1.713,0,0,0,.4,1.055,1.324,1.324,0,0,0,1.052.4,3.519,3.519,0,0,0,.976-.117,3.981,3.981,0,0,0,.829-.357l.463,1.055a3.176,3.176,0,0,1-1.031.521A4.573,4.573,0,0,1-38.461,11.123Zm-.111-5.262a.95.95,0,0,0-.794.354,1.778,1.778,0,0,0-.337.94l.012.029h2.086V7.057a1.481,1.481,0,0,0-.229-.876A.845.845,0,0,0-38.572,5.861Zm3.387,2.021a4.106,4.106,0,0,1,.65-2.42,2.11,2.11,0,0,1,1.828-.92,1.8,1.8,0,0,1,.938.24,2.1,2.1,0,0,1,.691.686l.135-.809h1.471v6.311a2.356,2.356,0,0,1-.809,1.913,3.414,3.414,0,0,1-2.256.677,4.3,4.3,0,0,1-1.02-.132,4.734,4.734,0,0,1-1-.36l.287-1.277a3.926,3.926,0,0,0,.812.284,4.021,4.021,0,0,0,.905.1,1.531,1.531,0,0,0,1.034-.293,1.16,1.16,0,0,0,.331-.914v-.574a1.914,1.914,0,0,1-.662.545,1.952,1.952,0,0,1-.873.188,2.152,2.152,0,0,1-1.816-.855,3.641,3.641,0,0,1-.65-2.262Zm1.711.123a2.6,2.6,0,0,0,.278,1.31.972.972,0,0,0,.911.478,1.412,1.412,0,0,0,.665-.144,1.1,1.1,0,0,0,.437-.419V6.482a1.169,1.169,0,0,0-.437-.451,1.28,1.28,0,0,0-.653-.158.96.96,0,0,0-.914.557,3.173,3.173,0,0,0-.287,1.453Zm8.648-1.875-.627-.018a1.14,1.14,0,0,0-.627.158,1,1,0,0,0-.375.445V11H-28.16V4.66h1.588l.076.938a2,2,0,0,1,.577-.776,1.287,1.287,0,0,1,.817-.278,1.279,1.279,0,0,1,.237.021q.108.021.22.05ZM-20.2,11a3.6,3.6,0,0,1-.161-.457,3.179,3.179,0,0,1-.1-.492,2.345,2.345,0,0,1-.7.768,1.748,1.748,0,0,1-1.031.3,2.141,2.141,0,0,1-1.535-.513,1.837,1.837,0,0,1-.539-1.4,1.672,1.672,0,0,1,.718-1.444,3.585,3.585,0,0,1,2.095-.513h.961v-.5a.986.986,0,0,0-.24-.709.943.943,0,0,0-.715-.252.929.929,0,0,0-.642.2.706.706,0,0,0-.226.554h-1.646l-.012-.035a1.608,1.608,0,0,1,.7-1.386,3.041,3.041,0,0,1,1.937-.583,2.838,2.838,0,0,1,1.849.574,2,2,0,0,1,.706,1.646V9.383a4.954,4.954,0,0,0,.067.838,4.2,4.2,0,0,0,.214.779Zm-1.564-1.143a1.458,1.458,0,0,0,.8-.223,1.2,1.2,0,0,0,.48-.516v-.9h-.961a1.139,1.139,0,0,0-.823.27.886.886,0,0,0-.278.662.661.661,0,0,0,.208.513A.823.823,0,0,0-21.762,9.857Zm6.92-.047a.952.952,0,0,0,.709-.267.968.968,0,0,0,.264-.712h1.559l.012.035a1.984,1.984,0,0,1-.715,1.608,2.673,2.673,0,0,1-1.828.647,2.7,2.7,0,0,1-2.174-.9,3.418,3.418,0,0,1-.768-2.3V7.748a3.441,3.441,0,0,1,.765-2.3,2.678,2.678,0,0,1,2.165-.905,2.615,2.615,0,0,1,1.869.668A2.232,2.232,0,0,1-12.3,6.969L-12.311,7h-1.559a1.265,1.265,0,0,0-.261-.817.876.876,0,0,0-.724-.325.976.976,0,0,0-.94.53,2.908,2.908,0,0,0-.278,1.356v.176a2.9,2.9,0,0,0,.278,1.365A.99.99,0,0,0-14.842,9.811ZM-9.5,11h-1.711V4.66H-9.5Zm0-7.857h-1.711V1.859H-9.5Zm1.143,4.629A3.4,3.4,0,0,1-7.57,5.448a2.757,2.757,0,0,1,2.191-.905,2.787,2.787,0,0,1,2.2.9,3.384,3.384,0,0,1,.8,2.326v.123a3.389,3.389,0,0,1-.794,2.329,2.775,2.775,0,0,1-2.194.9,2.782,2.782,0,0,1-2.2-.9,3.389,3.389,0,0,1-.794-2.329Zm1.705.123a2.758,2.758,0,0,0,.3,1.392,1.052,1.052,0,0,0,.984.524,1.042,1.042,0,0,0,.97-.527A2.74,2.74,0,0,0-4.09,7.895V7.771A2.712,2.712,0,0,0-4.4,6.395a1.051,1.051,0,0,0-.979-.533,1.038,1.038,0,0,0-.97.536,2.736,2.736,0,0,0-.308,1.374Zm1.623-5.941h1.9l.012.035L-4.74,3.512H-6.2ZM.24,4.66l.076.908A2.319,2.319,0,0,1,1.1,4.813a2.023,2.023,0,0,1,1.037-.27,1.885,1.885,0,0,1,1.5.618,2.931,2.931,0,0,1,.539,1.954V11H2.455V7.121a1.518,1.518,0,0,0-.237-.964.875.875,0,0,0-.712-.284,1.494,1.494,0,0,0-.671.144,1.31,1.31,0,0,0-.478.4V11H-1.354V4.66ZM14.965,8.176l.012.035a2.671,2.671,0,0,1-.832,2.139,3.392,3.392,0,0,1-2.361.773A3.271,3.271,0,0,1,9.3,10.136a3.542,3.542,0,0,1-.943-2.552V5.891a3.607,3.607,0,0,1,.92-2.552A3.136,3.136,0,0,1,11.7,2.346a3.6,3.6,0,0,1,2.438.762,2.622,2.622,0,0,1,.855,2.145l-.012.035H13.313a1.677,1.677,0,0,0-.4-1.222,1.65,1.65,0,0,0-1.222-.4,1.379,1.379,0,0,0-1.2.618,2.734,2.734,0,0,0-.431,1.6V7.584a2.653,2.653,0,0,0,.454,1.605,1.476,1.476,0,0,0,1.263.621,1.5,1.5,0,0,0,1.146-.4,1.746,1.746,0,0,0,.378-1.233Zm.844-.4A3.4,3.4,0,0,1,16.6,5.448a2.757,2.757,0,0,1,2.191-.905,2.787,2.787,0,0,1,2.2.9,3.384,3.384,0,0,1,.8,2.326v.123A3.389,3.389,0,0,1,21,10.224a2.775,2.775,0,0,1-2.194.9,2.782,2.782,0,0,1-2.2-.9,3.389,3.389,0,0,1-.794-2.329Zm1.705.123a2.758,2.758,0,0,0,.3,1.392,1.171,1.171,0,0,0,1.954,0,2.74,2.74,0,0,0,.308-1.389V7.771a2.712,2.712,0,0,0-.311-1.377,1.051,1.051,0,0,0-.979-.533,1.038,1.038,0,0,0-.97.536,2.736,2.736,0,0,0-.308,1.374Zm6.9-3.234.076.908a2.319,2.319,0,0,1,.779-.756,2.023,2.023,0,0,1,1.037-.27,1.885,1.885,0,0,1,1.5.618,2.931,2.931,0,0,1,.539,1.954V11H26.625V7.121a1.518,1.518,0,0,0-.237-.964.875.875,0,0,0-.712-.284A1.494,1.494,0,0,0,25,6.017a1.31,1.31,0,0,0-.478.4V11H22.816V4.66Zm7.26-1.553V4.66h1.072v1.2H31.67V9.09a.737.737,0,0,0,.155.527.545.545,0,0,0,.407.158,1.633,1.633,0,0,0,.234-.015,1.974,1.974,0,0,0,.229-.05l.141,1.236a3.464,3.464,0,0,1-.5.132,2.987,2.987,0,0,1-.53.044,1.824,1.824,0,0,1-1.362-.486A2.132,2.132,0,0,1,29.965,9.1V5.861h-.926V4.66h.926V3.107ZM35.6,11H33.885V4.66H35.6Zm0-7.857H33.885V1.859H35.6ZM38.566,4.66l.076.908a2.319,2.319,0,0,1,.779-.756,2.023,2.023,0,0,1,1.037-.27,1.885,1.885,0,0,1,1.5.618A2.931,2.931,0,0,1,42.5,7.115V11H40.781V7.121a1.518,1.518,0,0,0-.237-.964.875.875,0,0,0-.712-.284,1.494,1.494,0,0,0-.671.144,1.31,1.31,0,0,0-.478.4V11H36.973V4.66Zm9.094,5.4a2.152,2.152,0,0,1-.744.785,1.973,1.973,0,0,1-1.049.275,1.928,1.928,0,0,1-1.567-.68,3.26,3.26,0,0,1-.565-2.109V4.66h1.705V8.346a2.047,2.047,0,0,0,.226,1.14.811.811,0,0,0,.7.308,1.7,1.7,0,0,0,.7-.132,1.185,1.185,0,0,0,.48-.39V4.66H49.26V11H47.842ZM54.287,11a3.6,3.6,0,0,1-.161-.457,3.179,3.179,0,0,1-.1-.492,2.345,2.345,0,0,1-.7.768,1.748,1.748,0,0,1-1.031.3,2.141,2.141,0,0,1-1.535-.513,1.837,1.837,0,0,1-.539-1.4,1.672,1.672,0,0,1,.718-1.444,3.585,3.585,0,0,1,2.095-.513H54v-.5a.986.986,0,0,0-.24-.709.943.943,0,0,0-.715-.252.929.929,0,0,0-.642.2.706.706,0,0,0-.226.554H50.531l-.012-.035a1.608,1.608,0,0,1,.7-1.386,3.041,3.041,0,0,1,1.937-.583A2.838,2.838,0,0,1,55,5.117a2,2,0,0,1,.706,1.646V9.383a4.954,4.954,0,0,0,.067.838,4.2,4.2,0,0,0,.214.779ZM52.723,9.857a1.458,1.458,0,0,0,.8-.223A1.2,1.2,0,0,0,54,9.119v-.9h-.961a1.139,1.139,0,0,0-.823.27.886.886,0,0,0-.278.662.661.661,0,0,0,.208.513A.823.823,0,0,0,52.723,9.857Z" transform="translate(1038.066 5086)" fill="#12263f"/>
    <path id="Trazado_820929" data-name="Trazado 820929" d="M-32.587-3.094V0H-34.3V-8.531h3.264a3.36,3.36,0,0,1,2.314.75,2.515,2.515,0,0,1,.844,1.975,2.5,2.5,0,0,1-.844,1.969,3.377,3.377,0,0,1-2.314.744Zm0-1.318h1.553A1.423,1.423,0,0,0-29.95-4.8a1.386,1.386,0,0,0,.369-.993,1.45,1.45,0,0,0-.366-1.017,1.4,1.4,0,0,0-1.087-.4h-1.553ZM-24.981,0h-1.711V-9.141h1.711Zm5.145,0A3.6,3.6,0,0,1-20-.457a3.179,3.179,0,0,1-.1-.492,2.345,2.345,0,0,1-.7.768,1.748,1.748,0,0,1-1.031.3A2.141,2.141,0,0,1-23.358-.39a1.837,1.837,0,0,1-.539-1.4,1.672,1.672,0,0,1,.718-1.444,3.585,3.585,0,0,1,2.095-.513h.961v-.5a.986.986,0,0,0-.24-.709.943.943,0,0,0-.715-.252.929.929,0,0,0-.642.2.706.706,0,0,0-.226.554h-1.646l-.012-.035a1.608,1.608,0,0,1,.7-1.386,3.041,3.041,0,0,1,1.937-.583,2.838,2.838,0,0,1,1.849.574,2,2,0,0,1,.706,1.646v2.619a4.954,4.954,0,0,0,.067.838A4.2,4.2,0,0,0-18.132,0ZM-21.4-1.143a1.458,1.458,0,0,0,.8-.223,1.2,1.2,0,0,0,.48-.516v-.9h-.961a1.139,1.139,0,0,0-.823.27.886.886,0,0,0-.278.662.661.661,0,0,0,.208.513A.823.823,0,0,0-21.4-1.143Zm5.836-5.2.076.908a2.319,2.319,0,0,1,.779-.756,2.023,2.023,0,0,1,1.037-.27,1.885,1.885,0,0,1,1.5.618,2.931,2.931,0,0,1,.539,1.954V0h-1.717V-3.879a1.518,1.518,0,0,0-.237-.964.875.875,0,0,0-.712-.284,1.494,1.494,0,0,0-.671.144,1.31,1.31,0,0,0-.478.4V0h-1.711V-6.34ZM-8.558,0h-1.711V-6.34h1.711Zm0-7.857h-1.711V-9.141h1.711ZM-6.747,0V-5.139H-7.69v-1.2h.943v-.434a2.335,2.335,0,0,1,.729-1.843,2.991,2.991,0,0,1,2.054-.647,4.5,4.5,0,0,1,.9.091q.445.091,1.031.261l-.246,1.348q-.428-.129-.776-.2a4.074,4.074,0,0,0-.8-.07,1.28,1.28,0,0,0-.888.27,1.016,1.016,0,0,0-.3.791v.434h1.248v1.2H-5.036V0Zm5.508,0H-2.95V-6.34h1.711ZM2.815-1.189a.952.952,0,0,0,.709-.267.968.968,0,0,0,.264-.712H5.347l.012.035A1.984,1.984,0,0,1,4.644-.524,2.673,2.673,0,0,1,2.815.123a2.7,2.7,0,0,1-2.174-.9,3.418,3.418,0,0,1-.768-2.3v-.176a3.441,3.441,0,0,1,.765-2.3A2.678,2.678,0,0,1,2.8-6.457a2.615,2.615,0,0,1,1.869.668,2.232,2.232,0,0,1,.686,1.758L5.347-4H3.788a1.265,1.265,0,0,0-.261-.817A.876.876,0,0,0,2.8-5.139a.976.976,0,0,0-.94.53,2.908,2.908,0,0,0-.278,1.356v.176a2.9,2.9,0,0,0,.278,1.365A.99.99,0,0,0,2.815-1.189ZM10.093,0a3.6,3.6,0,0,1-.161-.457,3.179,3.179,0,0,1-.1-.492,2.345,2.345,0,0,1-.7.768,1.748,1.748,0,0,1-1.031.3A2.141,2.141,0,0,1,6.571-.39a1.837,1.837,0,0,1-.539-1.4A1.672,1.672,0,0,1,6.75-3.231a3.585,3.585,0,0,1,2.095-.513h.961v-.5a.986.986,0,0,0-.24-.709.943.943,0,0,0-.715-.252.929.929,0,0,0-.642.2.706.706,0,0,0-.226.554H6.337l-.012-.035a1.608,1.608,0,0,1,.7-1.386,3.041,3.041,0,0,1,1.937-.583,2.838,2.838,0,0,1,1.849.574,2,2,0,0,1,.706,1.646v2.619a4.954,4.954,0,0,0,.067.838A4.2,4.2,0,0,0,11.8,0ZM8.528-1.143a1.458,1.458,0,0,0,.8-.223,1.2,1.2,0,0,0,.48-.516v-.9H8.845a1.139,1.139,0,0,0-.823.27.886.886,0,0,0-.278.662.661.661,0,0,0,.208.513A.823.823,0,0,0,8.528-1.143Zm6.92-.047a.952.952,0,0,0,.709-.267.968.968,0,0,0,.264-.712h1.559l.012.035a1.984,1.984,0,0,1-.715,1.608,2.673,2.673,0,0,1-1.828.647,2.7,2.7,0,0,1-2.174-.9,3.418,3.418,0,0,1-.768-2.3v-.176a3.441,3.441,0,0,1,.765-2.3,2.678,2.678,0,0,1,2.165-.905,2.615,2.615,0,0,1,1.869.668,2.232,2.232,0,0,1,.686,1.758L17.979-4H16.421a1.265,1.265,0,0,0-.261-.817.876.876,0,0,0-.724-.325.976.976,0,0,0-.94.53,2.908,2.908,0,0,0-.278,1.356v.176A2.9,2.9,0,0,0,14.5-1.711.99.99,0,0,0,15.448-1.189ZM20.786,0H19.075V-6.34h1.711Zm0-7.857H19.075V-9.141h1.711Zm1.143,4.629a3.4,3.4,0,0,1,.791-2.323,2.757,2.757,0,0,1,2.191-.905,2.787,2.787,0,0,1,2.2.9,3.384,3.384,0,0,1,.8,2.326v.123a3.389,3.389,0,0,1-.794,2.329,2.775,2.775,0,0,1-2.194.9,2.782,2.782,0,0,1-2.2-.9,3.389,3.389,0,0,1-.794-2.329Zm1.705.123a2.758,2.758,0,0,0,.3,1.392,1.052,1.052,0,0,0,.984.524,1.042,1.042,0,0,0,.97-.527A2.74,2.74,0,0,0,26.2-3.105v-.123a2.712,2.712,0,0,0-.311-1.377,1.051,1.051,0,0,0-.979-.533,1.038,1.038,0,0,0-.97.536,2.736,2.736,0,0,0-.308,1.374Zm6.9-3.234.076.908a2.319,2.319,0,0,1,.779-.756,2.023,2.023,0,0,1,1.037-.27,1.885,1.885,0,0,1,1.5.618,2.931,2.931,0,0,1,.539,1.954V0H32.745V-3.879a1.518,1.518,0,0,0-.237-.964.875.875,0,0,0-.712-.284,1.494,1.494,0,0,0-.671.144,1.31,1.31,0,0,0-.478.4V0H28.937V-6.34Z" transform="translate(929.066 4898)" fill="#00104e"/>
    <path id="Trazado_820930" data-name="Trazado 820930" d="M-19.275,0V-9.242h3.225A3.813,3.813,0,0,1-13.257-8.16a3.731,3.731,0,0,1,1.1,2.777v1.53a3.718,3.718,0,0,1-1.1,2.777A3.826,3.826,0,0,1-16.05,0Zm1.854-7.814v6.392h1.371A1.81,1.81,0,0,0-14.577-2.1a2.671,2.671,0,0,0,.559-1.749V-5.4a2.648,2.648,0,0,0-.559-1.739,1.813,1.813,0,0,0-1.473-.679ZM-8.865,0h-1.854V-6.868h1.854Zm0-8.512h-1.854V-9.9h1.854ZM-3.628-1.9a.639.639,0,0,0-.3-.524,3,3,0,0,0-1.095-.384,4.367,4.367,0,0,1-1.831-.73,1.594,1.594,0,0,1-.625-1.327,1.892,1.892,0,0,1,.749-1.5A3.02,3.02,0,0,1-4.732-7a3.259,3.259,0,0,1,2.085.622,1.818,1.818,0,0,1,.752,1.549l-.013.038H-3.7a.9.9,0,0,0-.267-.673,1.055,1.055,0,0,0-.768-.26,1.049,1.049,0,0,0-.7.222.691.691,0,0,0-.26.546.616.616,0,0,0,.27.517,3,3,0,0,0,1.095.359,4.456,4.456,0,0,1,1.882.746,1.636,1.636,0,0,1,.619,1.355A1.813,1.813,0,0,1-2.625-.457a3.425,3.425,0,0,1-2.095.59,3.184,3.184,0,0,1-2.168-.7,1.943,1.943,0,0,1-.759-1.584l.013-.038h1.695a.963.963,0,0,0,.362.8,1.494,1.494,0,0,0,.9.248A1.273,1.273,0,0,0-3.9-1.343.669.669,0,0,0-3.628-1.9ZM2.339.133A3.09,3.09,0,0,1-.06-.809,3.455,3.455,0,0,1-.924-3.237v-.254A3.76,3.76,0,0,1-.086-6.018,2.848,2.848,0,0,1,2.219-7a2.667,2.667,0,0,1,2.123.847,3.349,3.349,0,0,1,.74,2.282v.958H.987l-.019.038A1.856,1.856,0,0,0,1.4-1.727a1.435,1.435,0,0,0,1.139.438,3.813,3.813,0,0,0,1.057-.127,4.312,4.312,0,0,0,.9-.387l.5,1.143A3.44,3.44,0,0,1,3.875-.1,4.954,4.954,0,0,1,2.339.133Zm-.121-5.7a1.029,1.029,0,0,0-.86.384A1.926,1.926,0,0,0,.993-4.164l.013.032h2.26v-.14a1.6,1.6,0,0,0-.248-.949A.916.916,0,0,0,2.219-5.567Zm5.637-1.3.083.984A2.512,2.512,0,0,1,8.782-6.7,2.192,2.192,0,0,1,9.906-7a2.042,2.042,0,0,1,1.625.67,3.175,3.175,0,0,1,.584,2.117V0h-1.86V-4.2A1.644,1.644,0,0,0,10-5.246a.947.947,0,0,0-.771-.308A1.618,1.618,0,0,0,8.5-5.4a1.419,1.419,0,0,0-.517.428V0H6.129V-6.868Zm3.631-2.869A1.515,1.515,0,0,1,11.108-8.7a1.218,1.218,0,0,1-.955.428,2.325,2.325,0,0,1-1.006-.276,2.2,2.2,0,0,0-.892-.276.458.458,0,0,0-.381.206.805.805,0,0,0-.152.492l-.99-.267a1.545,1.545,0,0,1,.378-1.038,1.2,1.2,0,0,1,.949-.441,2.535,2.535,0,0,1,.965.276,2.52,2.52,0,0,0,.939.276.483.483,0,0,0,.381-.2.769.769,0,0,0,.165-.5ZM13.213-3.5a3.686,3.686,0,0,1,.857-2.517A2.987,2.987,0,0,1,16.444-7a3.019,3.019,0,0,1,2.387.978,3.666,3.666,0,0,1,.863,2.52v.133a3.672,3.672,0,0,1-.86,2.523,3.006,3.006,0,0,1-2.377.974,3.014,3.014,0,0,1-2.384-.974,3.672,3.672,0,0,1-.86-2.523Zm1.847.133a2.988,2.988,0,0,0,.33,1.508,1.14,1.14,0,0,0,1.066.568,1.128,1.128,0,0,0,1.051-.571,2.968,2.968,0,0,0,.333-1.5V-3.5A2.938,2.938,0,0,0,17.5-4.989a1.138,1.138,0,0,0-1.06-.578,1.124,1.124,0,0,0-1.051.581A2.964,2.964,0,0,0,15.06-3.5Z" transform="translate(1139.066 4899)" fill="#00104e"/>
    <path id="Trazado_820931" data-name="Trazado 820931" d="M-19.667-3.094V0h-1.711V-8.531h3.264a3.36,3.36,0,0,1,2.314.75,2.515,2.515,0,0,1,.844,1.975A2.5,2.5,0,0,1-15.8-3.838a3.377,3.377,0,0,1-2.314.744Zm0-1.318h1.553A1.423,1.423,0,0,0-17.03-4.8a1.386,1.386,0,0,0,.369-.993,1.45,1.45,0,0,0-.366-1.017,1.4,1.4,0,0,0-1.087-.4h-1.553Zm9.141-.457-.627-.018a1.14,1.14,0,0,0-.627.158,1,1,0,0,0-.375.445V0H-13.86V-6.34h1.588l.076.938a2,2,0,0,1,.577-.776,1.287,1.287,0,0,1,.817-.278,1.279,1.279,0,0,1,.237.021q.108.021.22.05ZM-5.751-.937A2.152,2.152,0,0,1-6.5-.152,1.973,1.973,0,0,1-7.544.123a1.928,1.928,0,0,1-1.567-.68,3.26,3.26,0,0,1-.565-2.109V-6.34h1.705v3.686a2.047,2.047,0,0,0,.226,1.14.811.811,0,0,0,.7.308,1.7,1.7,0,0,0,.7-.132,1.185,1.185,0,0,0,.48-.39V-6.34h1.711V0H-5.569ZM-.114.123a2.853,2.853,0,0,1-2.215-.87,3.189,3.189,0,0,1-.8-2.241v-.234a3.471,3.471,0,0,1,.773-2.332,2.629,2.629,0,0,1,2.127-.9,2.462,2.462,0,0,1,1.96.782,3.091,3.091,0,0,1,.683,2.106v.885H-1.362l-.018.035a1.713,1.713,0,0,0,.4,1.055,1.324,1.324,0,0,0,1.052.4,3.519,3.519,0,0,0,.976-.117,3.981,3.981,0,0,0,.829-.357L2.335-.609A3.176,3.176,0,0,1,1.3-.088,4.573,4.573,0,0,1-.114.123ZM-.226-5.139a.95.95,0,0,0-.794.354,1.778,1.778,0,0,0-.337.94l.012.029H.741v-.129a1.481,1.481,0,0,0-.229-.876A.845.845,0,0,0-.226-5.139ZM9.132-2.994A3.708,3.708,0,0,1,8.5-.727a2.14,2.14,0,0,1-1.828.85A1.932,1.932,0,0,1,5.7-.111,2,2,0,0,1,5-.8L4.86,0H3.413V-9.141H5.118v3.475a1.937,1.937,0,0,1,.659-.586,1.842,1.842,0,0,1,.882-.205,2.1,2.1,0,0,1,1.84.911,4.183,4.183,0,0,1,.633,2.429ZM7.427-3.117a3.3,3.3,0,0,0-.272-1.468.956.956,0,0,0-.929-.542,1.277,1.277,0,0,0-.674.167,1.158,1.158,0,0,0-.434.478V-1.8a1.087,1.087,0,0,0,.437.439,1.405,1.405,0,0,0,.683.152.973.973,0,0,0,.926-.466,2.713,2.713,0,0,0,.264-1.321ZM13.925,0a3.6,3.6,0,0,1-.161-.457,3.179,3.179,0,0,1-.1-.492,2.345,2.345,0,0,1-.7.768,1.748,1.748,0,0,1-1.031.3A2.141,2.141,0,0,1,10.4-.39a1.837,1.837,0,0,1-.539-1.4,1.672,1.672,0,0,1,.718-1.444,3.585,3.585,0,0,1,2.095-.513h.961v-.5a.986.986,0,0,0-.24-.709.943.943,0,0,0-.715-.252.929.929,0,0,0-.642.2.706.706,0,0,0-.226.554H10.169l-.012-.035a1.608,1.608,0,0,1,.7-1.386,3.041,3.041,0,0,1,1.937-.583,2.838,2.838,0,0,1,1.849.574,2,2,0,0,1,.706,1.646v2.619a4.954,4.954,0,0,0,.067.838A4.2,4.2,0,0,0,15.63,0ZM12.36-1.143a1.458,1.458,0,0,0,.8-.223,1.2,1.2,0,0,0,.48-.516v-.9h-.961a1.139,1.139,0,0,0-.823.27.886.886,0,0,0-.278.662.661.661,0,0,0,.208.513A.823.823,0,0,0,12.36-1.143Zm7.7-.615a.59.59,0,0,0-.272-.483A2.767,2.767,0,0,0,18.776-2.6a4.031,4.031,0,0,1-1.69-.674,1.472,1.472,0,0,1-.577-1.225A1.747,1.747,0,0,1,17.2-5.883a2.788,2.788,0,0,1,1.84-.574,3.008,3.008,0,0,1,1.925.574,1.678,1.678,0,0,1,.694,1.43l-.012.035H20a.83.83,0,0,0-.246-.621.974.974,0,0,0-.709-.24.969.969,0,0,0-.65.205.638.638,0,0,0-.24.5.569.569,0,0,0,.249.478,2.772,2.772,0,0,0,1.011.331,4.113,4.113,0,0,1,1.737.688,1.51,1.51,0,0,1,.571,1.251,1.673,1.673,0,0,1-.732,1.4,3.161,3.161,0,0,1-1.934.545,2.939,2.939,0,0,1-2-.642,1.794,1.794,0,0,1-.7-1.462l.012-.035h1.564a.889.889,0,0,0,.334.738,1.379,1.379,0,0,0,.826.229,1.175,1.175,0,0,0,.724-.19A.618.618,0,0,0,20.06-1.758Z" transform="translate(935.066 4995)" fill="#00104e"/>
    <path id="Trazado_820932" data-name="Trazado 820932" d="M-32.528-1.312h3.82V0h-5.531V-8.531h1.711ZM-23.962,0a3.6,3.6,0,0,1-.161-.457,3.179,3.179,0,0,1-.1-.492,2.345,2.345,0,0,1-.7.768,1.748,1.748,0,0,1-1.031.3A2.141,2.141,0,0,1-27.483-.39a1.837,1.837,0,0,1-.539-1.4A1.672,1.672,0,0,1-27.3-3.231a3.585,3.585,0,0,1,2.095-.513h.961v-.5a.986.986,0,0,0-.24-.709.943.943,0,0,0-.715-.252.929.929,0,0,0-.642.2.706.706,0,0,0-.226.554h-1.646l-.012-.035a1.608,1.608,0,0,1,.7-1.386,3.041,3.041,0,0,1,1.937-.583,2.838,2.838,0,0,1,1.849.574,2,2,0,0,1,.706,1.646v2.619a4.954,4.954,0,0,0,.067.838A4.2,4.2,0,0,0-22.257,0Zm-1.564-1.143a1.458,1.458,0,0,0,.8-.223,1.2,1.2,0,0,0,.48-.516v-.9h-.961a1.139,1.139,0,0,0-.823.27.886.886,0,0,0-.278.662.661.661,0,0,0,.208.513A.823.823,0,0,0-25.526-1.143Zm5.836-5.2.076.908a2.319,2.319,0,0,1,.779-.756,2.023,2.023,0,0,1,1.037-.27,1.885,1.885,0,0,1,1.5.618,2.931,2.931,0,0,1,.539,1.954V0h-1.717V-3.879a1.518,1.518,0,0,0-.237-.964.875.875,0,0,0-.712-.284,1.494,1.494,0,0,0-.671.144,1.31,1.31,0,0,0-.478.4V0h-1.711V-6.34Zm7.119,5.027h3.141V0H-14.7V-1.008l3.018-4.008H-14.6V-6.34H-9.53v.979ZM-4.614,0a3.6,3.6,0,0,1-.161-.457,3.179,3.179,0,0,1-.1-.492,2.345,2.345,0,0,1-.7.768A1.748,1.748,0,0,1-6.6.123,2.141,2.141,0,0,1-8.136-.39a1.837,1.837,0,0,1-.539-1.4,1.672,1.672,0,0,1,.718-1.444,3.585,3.585,0,0,1,2.095-.513H-4.9v-.5a.986.986,0,0,0-.24-.709.943.943,0,0,0-.715-.252.929.929,0,0,0-.642.2.706.706,0,0,0-.226.554H-8.37l-.012-.035a1.608,1.608,0,0,1,.7-1.386,3.041,3.041,0,0,1,1.937-.583A2.838,2.838,0,0,1-3.9-5.883,2,2,0,0,1-3.19-4.236v2.619a4.954,4.954,0,0,0,.067.838A4.2,4.2,0,0,0-2.909,0ZM-6.179-1.143a1.458,1.458,0,0,0,.8-.223,1.2,1.2,0,0,0,.48-.516v-.9h-.961a1.139,1.139,0,0,0-.823.27.886.886,0,0,0-.278.662.661.661,0,0,0,.208.513A.823.823,0,0,0-6.179-1.143Zm5.859-5.2.07.838a2.13,2.13,0,0,1,.765-.706,2.2,2.2,0,0,1,1.063-.249,1.937,1.937,0,0,1,1.043.27,1.663,1.663,0,0,1,.656.814,2.2,2.2,0,0,1,.762-.8,2.067,2.067,0,0,1,1.1-.287,1.806,1.806,0,0,1,1.479.665,3.175,3.175,0,0,1,.542,2.03V0H5.452V-3.768a1.777,1.777,0,0,0-.234-1.061.832.832,0,0,0-.7-.3,1.194,1.194,0,0,0-.63.161,1.174,1.174,0,0,0-.425.448q0,.111.006.19t.006.161V0H1.772V-3.768a1.782,1.782,0,0,0-.234-1.052.828.828,0,0,0-.7-.308A1.327,1.327,0,0,0,.229-5,1.163,1.163,0,0,0-.2-4.623V0H-1.907V-6.34ZM10.274,0H8.563V-6.34h1.711Zm0-7.857H8.563V-9.141h1.711ZM14.429.123a2.853,2.853,0,0,1-2.215-.87,3.189,3.189,0,0,1-.8-2.241v-.234a3.471,3.471,0,0,1,.773-2.332,2.629,2.629,0,0,1,2.127-.9,2.462,2.462,0,0,1,1.96.782,3.091,3.091,0,0,1,.683,2.106v.885H13.181l-.018.035a1.713,1.713,0,0,0,.4,1.055,1.324,1.324,0,0,0,1.052.4,3.519,3.519,0,0,0,.976-.117,3.981,3.981,0,0,0,.829-.357l.463,1.055a3.176,3.176,0,0,1-1.031.521A4.573,4.573,0,0,1,14.429.123Zm-.111-5.262a.95.95,0,0,0-.794.354,1.778,1.778,0,0,0-.337.94l.012.029h2.086v-.129a1.481,1.481,0,0,0-.229-.876A.845.845,0,0,0,14.317-5.139Zm5.2-1.2.076.908a2.319,2.319,0,0,1,.779-.756,2.023,2.023,0,0,1,1.037-.27,1.885,1.885,0,0,1,1.5.618,2.931,2.931,0,0,1,.539,1.954V0H21.735V-3.879a1.518,1.518,0,0,0-.237-.964.875.875,0,0,0-.712-.284,1.494,1.494,0,0,0-.671.144,1.31,1.31,0,0,0-.478.4V0H17.927V-6.34Zm7.26-1.553V-6.34h1.072v1.2H26.78V-1.91a.737.737,0,0,0,.155.527.545.545,0,0,0,.407.158,1.633,1.633,0,0,0,.234-.015,1.974,1.974,0,0,0,.229-.05l.141,1.236a3.464,3.464,0,0,1-.5.132,2.987,2.987,0,0,1-.53.044,1.824,1.824,0,0,1-1.362-.486A2.132,2.132,0,0,1,25.075-1.9V-5.139h-.926v-1.2h.926V-7.893Zm1.863,4.664a3.4,3.4,0,0,1,.791-2.323,2.757,2.757,0,0,1,2.191-.905,2.787,2.787,0,0,1,2.2.9,3.384,3.384,0,0,1,.8,2.326v.123a3.389,3.389,0,0,1-.794,2.329,2.775,2.775,0,0,1-2.194.9,2.782,2.782,0,0,1-2.2-.9,3.389,3.389,0,0,1-.794-2.329Zm1.705.123a2.758,2.758,0,0,0,.3,1.392,1.052,1.052,0,0,0,.984.524,1.042,1.042,0,0,0,.97-.527,2.74,2.74,0,0,0,.308-1.389v-.123A2.712,2.712,0,0,0,32.6-4.605a1.051,1.051,0,0,0-.979-.533,1.038,1.038,0,0,0-.97.536,2.736,2.736,0,0,0-.308,1.374Z" transform="translate(811.066 5018)" fill="#00104e"/>
    <path id="Trazado_820933" data-name="Trazado 820933" d="M-28.66-3.06l.013.038a2.893,2.893,0,0,1-.9,2.317,3.675,3.675,0,0,1-2.558.838,3.543,3.543,0,0,1-2.685-1.07A3.837,3.837,0,0,1-35.813-3.7V-5.535a3.907,3.907,0,0,1,1-2.764A3.4,3.4,0,0,1-32.2-9.375a3.9,3.9,0,0,1,2.641.825,2.841,2.841,0,0,1,.927,2.323l-.013.038h-1.8a1.817,1.817,0,0,0-.428-1.323A1.787,1.787,0,0,0-32.2-7.947a1.494,1.494,0,0,0-1.3.67,2.962,2.962,0,0,0-.467,1.73V-3.7a2.874,2.874,0,0,0,.492,1.739,1.6,1.6,0,0,0,1.368.673,1.627,1.627,0,0,0,1.241-.435,1.892,1.892,0,0,0,.409-1.336Zm.914-.438a3.686,3.686,0,0,1,.857-2.517A2.987,2.987,0,0,1-24.515-7a3.019,3.019,0,0,1,2.387.978,3.666,3.666,0,0,1,.863,2.52v.133a3.672,3.672,0,0,1-.86,2.523A3.006,3.006,0,0,1-24.5.133a3.014,3.014,0,0,1-2.384-.974,3.672,3.672,0,0,1-.86-2.523Zm1.847.133a2.988,2.988,0,0,0,.33,1.508,1.14,1.14,0,0,0,1.066.568,1.128,1.128,0,0,0,1.051-.571,2.968,2.968,0,0,0,.333-1.5V-3.5a2.938,2.938,0,0,0-.336-1.492,1.138,1.138,0,0,0-1.06-.578,1.124,1.124,0,0,0-1.051.581A2.964,2.964,0,0,0-25.9-3.5Zm5.491-.013A4.463,4.463,0,0,1-19.706-6a2.278,2.278,0,0,1,1.977-1,1.923,1.923,0,0,1,.927.222,2.23,2.23,0,0,1,.724.635V-9.9h1.86V0H-15.8l-.159-.844a2.3,2.3,0,0,1-.768.727,2.031,2.031,0,0,1-1.016.251,2.322,2.322,0,0,1-1.965-.927,3.957,3.957,0,0,1-.7-2.45Zm1.847.133a2.8,2.8,0,0,0,.3,1.419,1.061,1.061,0,0,0,.99.517,1.442,1.442,0,0,0,.7-.162,1.291,1.291,0,0,0,.489-.473V-4.869a1.427,1.427,0,0,0-.486-.5,1.291,1.291,0,0,0-.689-.181,1.046,1.046,0,0,0-.993.6,3.408,3.408,0,0,0-.314,1.574ZM-10.835,0h-1.854V-6.868h1.854Zm0-8.512h-1.854V-9.9h1.854ZM-8.874,0V-5.567H-9.9v-1.3h1.022v-.47a2.529,2.529,0,0,1,.79-2,3.24,3.24,0,0,1,2.225-.7,4.88,4.88,0,0,1,.978.1q.482.1,1.117.282l-.267,1.46q-.463-.14-.841-.216a4.414,4.414,0,0,0-.866-.076,1.387,1.387,0,0,0-.962.292,1.1,1.1,0,0,0-.321.857v.47h1.352v1.3H-7.021V0Zm5.967,0H-4.761V-6.868h1.854ZM1.485-1.289a1.032,1.032,0,0,0,.768-.289,1.049,1.049,0,0,0,.286-.771H4.228l.013.038A2.149,2.149,0,0,1,3.466-.568a2.9,2.9,0,0,1-1.98.7A2.927,2.927,0,0,1-.87-.841,3.7,3.7,0,0,1-1.7-3.333v-.19A3.728,3.728,0,0,1-.873-6.014,2.9,2.9,0,0,1,1.473-7,2.832,2.832,0,0,1,3.5-6.271a2.418,2.418,0,0,1,.743,1.9l-.013.038H2.539a1.371,1.371,0,0,0-.282-.885.949.949,0,0,0-.784-.352,1.058,1.058,0,0,0-1.019.574,3.151,3.151,0,0,0-.3,1.469v.19a3.139,3.139,0,0,0,.3,1.479A1.072,1.072,0,0,0,1.485-1.289ZM9.369,0a3.9,3.9,0,0,1-.175-.5,3.444,3.444,0,0,1-.1-.533A2.541,2.541,0,0,1,8.334-.2a1.893,1.893,0,0,1-1.117.33A2.319,2.319,0,0,1,5.554-.422,1.99,1.99,0,0,1,4.97-1.936,1.811,1.811,0,0,1,5.748-3.5a3.883,3.883,0,0,1,2.269-.555H9.058V-4.6A1.069,1.069,0,0,0,8.8-5.37a1.022,1.022,0,0,0-.774-.273,1.007,1.007,0,0,0-.7.219.765.765,0,0,0-.244.6H5.3l-.013-.038a1.742,1.742,0,0,1,.759-1.5A3.3,3.3,0,0,1,8.144-7a3.075,3.075,0,0,1,2,.622,2.167,2.167,0,0,1,.765,1.784v2.837a5.366,5.366,0,0,0,.073.908A4.555,4.555,0,0,0,11.216,0ZM7.674-1.238a1.579,1.579,0,0,0,.863-.241,1.3,1.3,0,0,0,.521-.559v-.971H8.017a1.234,1.234,0,0,0-.892.292.96.96,0,0,0-.3.717.716.716,0,0,0,.225.555A.891.891,0,0,0,7.674-1.238Zm7.5-.051a1.032,1.032,0,0,0,.768-.289,1.049,1.049,0,0,0,.286-.771h1.688l.013.038a2.149,2.149,0,0,1-.774,1.742,2.9,2.9,0,0,1-1.98.7,2.927,2.927,0,0,1-2.355-.974,3.7,3.7,0,0,1-.832-2.491v-.19a3.728,3.728,0,0,1,.828-2.491A2.9,2.9,0,0,1,15.158-7a2.832,2.832,0,0,1,2.025.724,2.418,2.418,0,0,1,.743,1.9l-.013.038H16.225a1.371,1.371,0,0,0-.282-.885.949.949,0,0,0-.784-.352,1.058,1.058,0,0,0-1.019.574,3.151,3.151,0,0,0-.3,1.469v.19a3.139,3.139,0,0,0,.3,1.479A1.072,1.072,0,0,0,15.171-1.289ZM20.954,0H19.1V-6.868h1.854Zm0-8.512H19.1V-9.9h1.854ZM22.191-3.5a3.686,3.686,0,0,1,.857-2.517A2.987,2.987,0,0,1,25.422-7a3.019,3.019,0,0,1,2.387.978,3.666,3.666,0,0,1,.863,2.52v.133a3.672,3.672,0,0,1-.86,2.523,3.006,3.006,0,0,1-2.377.974,3.014,3.014,0,0,1-2.384-.974,3.672,3.672,0,0,1-.86-2.523Zm1.847.133a2.988,2.988,0,0,0,.33,1.508,1.14,1.14,0,0,0,1.066.568,1.128,1.128,0,0,0,1.051-.571,2.968,2.968,0,0,0,.333-1.5V-3.5a2.938,2.938,0,0,0-.336-1.492,1.138,1.138,0,0,0-1.06-.578,1.124,1.124,0,0,0-1.051.581A2.964,2.964,0,0,0,24.039-3.5ZM25.8-9.8H27.86l.013.038-1.758,1.65H24.534ZM31.51-6.868l.083.984a2.512,2.512,0,0,1,.844-.819A2.191,2.191,0,0,1,33.56-7a2.042,2.042,0,0,1,1.625.67,3.175,3.175,0,0,1,.584,2.117V0h-1.86V-4.2a1.644,1.644,0,0,0-.257-1.044.947.947,0,0,0-.771-.308,1.618,1.618,0,0,0-.727.156,1.419,1.419,0,0,0-.517.428V0H29.783V-6.868Z" transform="translate(1146.066 4996)" fill="#00104e"/>
    <path id="Trazado_820934" data-name="Trazado 820934" d="M4.877-5.36V0H1.246V-15.641H7.219a6.5,6.5,0,0,1,4.415,1.418A4.7,4.7,0,0,1,13.267-10.5a4.682,4.682,0,0,1-1.633,3.722A6.518,6.518,0,0,1,7.219-5.36Zm0-2.793H7.219a2.384,2.384,0,0,0,1.8-.65,2.315,2.315,0,0,0,.623-1.67,2.413,2.413,0,0,0-.618-1.708,2.348,2.348,0,0,0-1.81-.666H4.877Zm16.607-.376L20.3-8.54a2.012,2.012,0,0,0-1.021.231,1.425,1.425,0,0,0-.591.65V0H15.061V-11.623h3.416l.129,1.708a3.5,3.5,0,0,1,.967-1.418,2.122,2.122,0,0,1,1.407-.5,2.7,2.7,0,0,1,.44.032,3.331,3.331,0,0,1,.408.1Zm.634,2.61a6.144,6.144,0,0,1,1.482-4.27,5.276,5.276,0,0,1,4.136-1.649,5.289,5.289,0,0,1,4.146,1.649,6.144,6.144,0,0,1,1.482,4.27v.226a6.139,6.139,0,0,1-1.482,4.275A5.271,5.271,0,0,1,27.758.226,5.311,5.311,0,0,1,23.6-1.418a6.139,6.139,0,0,1-1.482-4.275Zm3.631.226A4.805,4.805,0,0,0,26.206-3.4a1.624,1.624,0,0,0,1.552.833,1.605,1.605,0,0,0,1.525-.838,4.764,4.764,0,0,0,.462-2.288v-.226a4.782,4.782,0,0,0-.462-2.272,1.618,1.618,0,0,0-1.547-.854,1.6,1.6,0,0,0-1.531.859,4.836,4.836,0,0,0-.457,2.267Zm8.723-.1a7.391,7.391,0,0,1,1.187-4.383A3.87,3.87,0,0,1,39-11.838a2.983,2.983,0,0,1,1.611.435,3.841,3.841,0,0,1,1.2,1.23l.236-1.45h3.2V-.129a4.3,4.3,0,0,1-1.574,3.561,6.747,6.747,0,0,1-4.334,1.262,7.8,7.8,0,0,1-1.891-.247,10.56,10.56,0,0,1-1.891-.666L36.19,1.1a8.63,8.63,0,0,0,1.5.51,7.255,7.255,0,0,0,1.638.167,2.687,2.687,0,0,0,1.724-.462A1.78,1.78,0,0,0,41.615-.15v-.9A3.319,3.319,0,0,1,40.471-.1a3.306,3.306,0,0,1-1.488.322,3.907,3.907,0,0,1-3.33-1.59,6.873,6.873,0,0,1-1.182-4.2Zm3.62.226a4.827,4.827,0,0,0,.414,2.208,1.454,1.454,0,0,0,1.4.79,2.559,2.559,0,0,0,1.015-.183,1.656,1.656,0,0,0,.693-.548V-8.186a1.808,1.808,0,0,0-.687-.639,2.121,2.121,0,0,0-1-.22,1.459,1.459,0,0,0-1.4.9,5.436,5.436,0,0,0-.435,2.358ZM53.754-8.529,52.572-8.54a2.012,2.012,0,0,0-1.021.231,1.425,1.425,0,0,0-.591.65V0H47.33V-11.623h3.416l.129,1.708a3.5,3.5,0,0,1,.967-1.418,2.122,2.122,0,0,1,1.407-.5,2.7,2.7,0,0,1,.44.032,3.331,3.331,0,0,1,.408.1ZM61.8-.011a4.385,4.385,0,0,1-.349-.827,6.342,6.342,0,0,1-.22-.967A4.441,4.441,0,0,1,60.065-.328a2.814,2.814,0,0,1-1.81.553,4.025,4.025,0,0,1-2.841-.94A3.32,3.32,0,0,1,54.4-3.276a3.1,3.1,0,0,1,1.3-2.669,6.738,6.738,0,0,1,3.942-.94h1.493v-.827a1.656,1.656,0,0,0-.354-1.139,1.381,1.381,0,0,0-1.085-.4,1.309,1.309,0,0,0-.94.3,1.225,1.225,0,0,0-.306.918l-3.523-.011L54.9-8.11a3.032,3.032,0,0,1,1.327-2.659,5.945,5.945,0,0,1,3.7-1.069,5.413,5.413,0,0,1,3.5,1.074,3.712,3.712,0,0,1,1.337,3.072v4.383A8.941,8.941,0,0,0,64.92-1.59,9.2,9.2,0,0,0,65.388,0ZM59.243-2.363a2.212,2.212,0,0,0,1.176-.312,1.783,1.783,0,0,0,.714-.741V-4.952H59.673a1.641,1.641,0,0,0-1.257.419,1.507,1.507,0,0,0-.387,1.063,1.028,1.028,0,0,0,.338.8A1.255,1.255,0,0,0,59.243-2.363Zm10.925-9.26.129,1.536a3.845,3.845,0,0,1,1.38-1.294,3.9,3.9,0,0,1,1.907-.457,3.553,3.553,0,0,1,1.869.473,2.9,2.9,0,0,1,1.182,1.439,3.9,3.9,0,0,1,1.38-1.413,3.8,3.8,0,0,1,1.971-.5,3.228,3.228,0,0,1,2.669,1.219,5.977,5.977,0,0,1,.972,3.754V0H79.986V-6.864a3.019,3.019,0,0,0-.349-1.713,1.224,1.224,0,0,0-1.047-.467,2.175,2.175,0,0,0-.929.188,1.96,1.96,0,0,0-.682.521q0,.183.011.317T77-7.756V0H73.369V-6.864a3.054,3.054,0,0,0-.344-1.719,1.239,1.239,0,0,0-1.063-.462,2.1,2.1,0,0,0-.9.188,1.96,1.96,0,0,0-.682.521V0H66.752V-11.623ZM92.415-.011a4.385,4.385,0,0,1-.349-.827,6.342,6.342,0,0,1-.22-.967A4.441,4.441,0,0,1,90.68-.328a2.814,2.814,0,0,1-1.81.553,4.025,4.025,0,0,1-2.841-.94,3.32,3.32,0,0,1-1.015-2.562,3.1,3.1,0,0,1,1.3-2.669,6.738,6.738,0,0,1,3.942-.94h1.493v-.827a1.656,1.656,0,0,0-.354-1.139,1.381,1.381,0,0,0-1.085-.4,1.309,1.309,0,0,0-.94.3,1.225,1.225,0,0,0-.306.918L85.54-8.046l-.021-.064a3.032,3.032,0,0,1,1.327-2.659,5.945,5.945,0,0,1,3.7-1.069,5.413,5.413,0,0,1,3.5,1.074A3.712,3.712,0,0,1,95.38-7.691v4.383a8.941,8.941,0,0,0,.156,1.719A9.2,9.2,0,0,0,96,0ZM89.858-2.363a2.212,2.212,0,0,0,1.176-.312,1.783,1.783,0,0,0,.714-.741V-4.952H90.288a1.641,1.641,0,0,0-1.257.419,1.507,1.507,0,0,0-.387,1.063,1.028,1.028,0,0,0,.338.8A1.255,1.255,0,0,0,89.858-2.363Zm12.482-.2a1.42,1.42,0,0,0,1.106-.4,1.678,1.678,0,0,0,.365-1.166h3.309l.021.064a3.816,3.816,0,0,1-1.316,3.1,5.077,5.077,0,0,1-3.486,1.2,5.142,5.142,0,0,1-4.087-1.638,6.247,6.247,0,0,1-1.434-4.27V-5.93a6.266,6.266,0,0,1,1.429-4.265,5.1,5.1,0,0,1,4.071-1.644,5,5,0,0,1,3.54,1.23,4.242,4.242,0,0,1,1.284,3.368l-.021.064h-3.309a2.249,2.249,0,0,0-.376-1.348,1.289,1.289,0,0,0-1.117-.521,1.492,1.492,0,0,0-1.466.843,5.215,5.215,0,0,0-.414,2.272v.247a5.2,5.2,0,0,0,.414,2.288A1.515,1.515,0,0,0,102.341-2.567ZM112.428,0h-3.642V-11.623h3.642Zm0-14.319h-3.642v-2.438h3.642Zm1.74,8.4a6.144,6.144,0,0,1,1.482-4.27,5.276,5.276,0,0,1,4.136-1.649,5.289,5.289,0,0,1,4.146,1.649,6.144,6.144,0,0,1,1.482,4.27v.226a6.139,6.139,0,0,1-1.482,4.275A5.271,5.271,0,0,1,119.808.226a5.311,5.311,0,0,1-4.157-1.644,6.139,6.139,0,0,1-1.482-4.275Zm3.631.226a4.805,4.805,0,0,0,.457,2.293,1.624,1.624,0,0,0,1.552.833,1.605,1.605,0,0,0,1.525-.838,4.764,4.764,0,0,0,.462-2.288v-.226a4.782,4.782,0,0,0-.462-2.272,1.618,1.618,0,0,0-1.547-.854,1.6,1.6,0,0,0-1.531.859,4.836,4.836,0,0,0-.457,2.267Zm2.428-10.9h3.985l.021.064-3.019,2.793h-3.2Zm10.13,4.974.14,1.633a4.208,4.208,0,0,1,1.407-1.359,3.641,3.641,0,0,1,1.869-.489,3.277,3.277,0,0,1,2.669,1.16,5.74,5.74,0,0,1,.961,3.685V0h-3.631V-7a2.663,2.663,0,0,0-.354-1.574,1.215,1.215,0,0,0-1.031-.467,2.552,2.552,0,0,0-1.042.2,2.081,2.081,0,0,0-.773.58V0h-3.62V-11.623Zm23.858,4.931H148.7v3.9h6.606V0H145.073V-15.641h10.248v2.793H148.7v3.362h5.511Zm7.52-1.5h.064l1.472-3.427h4.071l-3.373,5.747L167.46,0h-4.071l-1.547-3.534h-.064L160.23,0h-4.071l3.491-5.876-3.384-5.747h4.05Zm10.882-6.316v2.89h1.837v2.514h-1.837v5.328a1.3,1.3,0,0,0,.252.9.882.882,0,0,0,.682.274A3.65,3.65,0,0,0,174-2.632a3.859,3.859,0,0,0,.424-.086l.247,2.686a8.765,8.765,0,0,1-.988.2,7.959,7.959,0,0,1-1.042.059,3.629,3.629,0,0,1-2.723-.956,4.22,4.22,0,0,1-.929-3.029v-5.35h-1.622v-2.514h1.622v-2.89Zm10.022,5.983-1.182-.011a2.012,2.012,0,0,0-1.021.231,1.425,1.425,0,0,0-.591.65V0h-3.631V-11.623h3.416l.129,1.708a3.5,3.5,0,0,1,.967-1.418,2.122,2.122,0,0,1,1.407-.5,2.7,2.7,0,0,1,.44.032,3.332,3.332,0,0,1,.408.1ZM188.923.226a5.4,5.4,0,0,1-4.141-1.6,5.692,5.692,0,0,1-1.5-4.05v-.408a6.5,6.5,0,0,1,1.413-4.34,5.018,5.018,0,0,1,4.087-1.665,4.707,4.707,0,0,1,3.647,1.407,5.478,5.478,0,0,1,1.294,3.856v1.9h-6.66l-.021.064a2.257,2.257,0,0,0,.677,1.477,2.363,2.363,0,0,0,1.7.564,7.356,7.356,0,0,0,1.735-.172,10.936,10.936,0,0,0,1.584-.548l.87,2.213a6.644,6.644,0,0,1-2.02.924A9.32,9.32,0,0,1,188.923.226Zm-.14-9.271a1.5,1.5,0,0,0-1.284.553,2.776,2.776,0,0,0-.478,1.5l.021.054h3.137v-.279a2.416,2.416,0,0,0-.317-1.364A1.214,1.214,0,0,0,188.783-9.045Zm9.894-2.578.129,1.536a3.845,3.845,0,0,1,1.38-1.294,3.9,3.9,0,0,1,1.907-.457,3.553,3.553,0,0,1,1.869.473,2.9,2.9,0,0,1,1.182,1.439,3.9,3.9,0,0,1,1.38-1.413,3.8,3.8,0,0,1,1.971-.5,3.228,3.228,0,0,1,2.669,1.219,5.977,5.977,0,0,1,.972,3.754V0H208.5V-6.864a3.019,3.019,0,0,0-.349-1.713,1.224,1.224,0,0,0-1.047-.467,2.175,2.175,0,0,0-.929.188,1.96,1.96,0,0,0-.682.521q0,.183.011.317t.011.263V0h-3.631V-6.864a3.054,3.054,0,0,0-.344-1.719,1.239,1.239,0,0,0-1.063-.462,2.1,2.1,0,0,0-.9.188,1.96,1.96,0,0,0-.682.521V0h-3.631V-11.623ZM220.924-.011a4.385,4.385,0,0,1-.349-.827,6.341,6.341,0,0,1-.22-.967,4.441,4.441,0,0,1-1.166,1.477,2.814,2.814,0,0,1-1.81.553,4.025,4.025,0,0,1-2.841-.94,3.32,3.32,0,0,1-1.015-2.562,3.1,3.1,0,0,1,1.3-2.669,6.738,6.738,0,0,1,3.942-.94h1.493v-.827a1.656,1.656,0,0,0-.354-1.139,1.381,1.381,0,0,0-1.085-.4,1.309,1.309,0,0,0-.94.3,1.225,1.225,0,0,0-.306.918l-3.523-.011-.021-.064a3.032,3.032,0,0,1,1.327-2.659,5.945,5.945,0,0,1,3.7-1.069,5.413,5.413,0,0,1,3.5,1.074,3.712,3.712,0,0,1,1.337,3.072v4.383a8.942,8.942,0,0,0,.156,1.719A9.2,9.2,0,0,0,224.512,0Zm-2.557-2.353a2.212,2.212,0,0,0,1.176-.312,1.783,1.783,0,0,0,.714-.741V-4.952H218.8a1.641,1.641,0,0,0-1.257.419,1.507,1.507,0,0,0-.387,1.063,1.028,1.028,0,0,0,.338.8A1.255,1.255,0,0,0,218.367-2.363Zm13.245-4a14.58,14.58,0,0,1,1.59-7.084,7.641,7.641,0,0,1,3.738-3.733H237l.655,1.708a7.211,7.211,0,0,0-2.267,3.266,16.048,16.048,0,0,0-.892,5.822v.344a16.039,16.039,0,0,0,.892,5.828,7.211,7.211,0,0,0,2.267,3.26L237,4.759h-.064A7.642,7.642,0,0,1,233.2,1.031a14.572,14.572,0,0,1-1.59-7.09Zm13.481-4.007,2.578-5.274h4.189l-4.479,7.756L252.205,0h-4.4l-2.664-5.382L242.473,0h-4.189l4.6-7.885L238.4-15.641h4.157ZM257.05-5.36V0h-3.631V-15.641h5.973a6.5,6.5,0,0,1,4.415,1.418,4.7,4.7,0,0,1,1.633,3.728,4.682,4.682,0,0,1-1.633,3.722,6.518,6.518,0,0,1-4.415,1.413Zm0-2.793h2.342a2.384,2.384,0,0,0,1.8-.65,2.314,2.314,0,0,0,.623-1.67,2.413,2.413,0,0,0-.618-1.708,2.348,2.348,0,0,0-1.81-.666H257.05Zm15.92,2.095A14.037,14.037,0,0,1,271.283.951a7.893,7.893,0,0,1-3.889,3.808h-.064l-.655-1.708A7.449,7.449,0,0,0,268.931-.22a15.83,15.83,0,0,0,.9-5.817v-.344a15.874,15.874,0,0,0-.9-5.822,7.366,7.366,0,0,0-2.256-3.266l.655-1.708h.064a7.891,7.891,0,0,1,3.889,3.813,14.044,14.044,0,0,1,1.687,7ZM279.082,0h-3.62V-3.051h3.62Z" transform="translate(890.066 4785)" fill="#00104e"/>
  </g>
</svg>
