<svg xmlns="http://www.w3.org/2000/svg" width="400" height="258.623" viewBox="0 0 400 258.623">
  <g id="Grupo_1073069" data-name="Grupo 1073069" transform="translate(-705 -372)">
    <rect id="Rectángulo_382346" data-name="Rectángulo 382346" width="400" height="258.623" rx="3" transform="translate(705 372)" fill="#273a89"/>
    <g id="Grupo_1073067" data-name="Grupo 1073067" transform="translate(705 378.857)">
      <g id="Grupo_1073068" data-name="Grupo 1073068" transform="translate(0 0)">
        <path id="Trazado_819910" data-name="Trazado 819910" d="M541.838,164.467c2.095,3.082,5.285,5.072,2.294,7.892-3.336,3.147-12.524,12.692-12.524,12.692l8.256,18.119s12.944-13.065,19.722-20.337,10.439-14.76,6-22.526-23.75,4.161-23.75,4.161" transform="translate(-207.347 -52.694)" fill="#f2ac30"/>
        <path id="Trazado_819911" data-name="Trazado 819911" d="M541.386,164.415c.894,1.263,1.956,2.4,2.83,3.672,1.19,1.742.3,3.056-1.027,4.334-1.612,1.551-3.178,3.146-4.747,4.739q-3.639,3.694-7.235,7.436a.343.343,0,0,0-.052.4q4.129,9.058,8.256,18.119a.335.335,0,0,0,.523.068q4.981-5.03,9.914-10.1,3.869-3.974,7.694-7.988a50.78,50.78,0,0,0,7.809-9.819,16.2,16.2,0,0,0,2.086-10.847c-.457-2.556-1.669-5.549-4.169-6.693-4.225-1.934-9.952.491-13.856,2.159a60.309,60.309,0,0,0-7.907,4.064c-.366.224-.031.8.335.575a59.769,59.769,0,0,1,9.975-4.9,24.51,24.51,0,0,1,7.953-1.84c3.255-.091,5.06,1.435,6.293,4.357,3.845,9.114-4.1,17.332-9.851,23.377-4.74,4.978-9.552,9.887-14.375,14.782q-1.185,1.2-2.372,2.4l.523.068-8.229-18.06c-.1-.214-.213.483-.011.274l.387-.4q.915-.949,1.831-1.894,2.882-2.973,5.786-5.918,1.413-1.431,2.842-2.846a14.206,14.206,0,0,0,2.382-2.453c1.676-2.838-1.514-5.286-3.013-7.4-.246-.347-.823-.015-.574.336" transform="translate(-207.181 -52.474)" fill="#f2ac30"/>
        <path id="Trazado_819912" data-name="Trazado 819912" d="M460.7,234.205c-.4,5.415-5.225,56.575-7.952,85.364h30.06l8.214-70.39,6.751,70.39H532.1c-2.458-24.278-6.429-63.065-7.43-70.2-1.48-10.539-3.514-29.151-12.388-44.311-6.1-.925-55.1,10.477-55.1,10.477,1.109,3.326,4.068,11.093,3.512,18.673" transform="translate(-180.992 -68.508)" fill="#32015c"/>
        <path id="Trazado_819913" data-name="Trazado 819913" d="M455.163,288.492q-1.455,15.453-2.924,30.905h.664q2.031-21.435,4.051-42.871c1.33-14.155,2.86-28.314,3.907-42.494.391-6.392-1.411-12.445-3.414-18.43q10.142-2.356,20.325-4.532c10.133-2.179,20.376-4.593,30.692-5.725.864-.095,3.167-.627,3.642.194a73.1,73.1,0,0,1,5.837,13.225,136.35,136.35,0,0,1,5.39,24.418c1.222,8.5,2.133,17.034,3.042,25.574q2.694,25.312,5.225,50.639h.665q-2.438-24.139-4.973-48.267c-.866-8.188-1.7-16.38-2.818-24.538a175.622,175.622,0,0,0-4.446-23.31A87.851,87.851,0,0,0,515.5,210.73a66.5,66.5,0,0,0-3.107-6.017c-.178-.306-.914-.216-1.21-.217a62.494,62.494,0,0,0-10.71,1.374c-5.486.951-10.945,2.053-16.4,3.186q-13.121,2.728-26.179,5.756l-.976.226a.333.333,0,0,0-.232.409c2.029,6.036,3.895,12.131,3.5,18.584-1.341,18.173-3.323,36.318-5.032,54.459" transform="translate(-180.823 -68.335)" fill="#32015c"/>
        <path id="Trazado_819914" data-name="Trazado 819914" d="M506.273,271.193a.333.333,0,0,0-.666,0q-2.576,22.074-5.151,44.147-1.532,13.121-3.062,26.243h.665q1.57-13.452,3.139-26.9,2.355-20.177,4.709-40.355,1.975,20.591,3.95,41.181l2.5,26.077h.667q-1.3-13.535-2.6-27.069-2.077-21.661-4.155-43.321" transform="translate(-195.913 -90.521)" fill="#32015c"/>
        <path id="Trazado_819915" data-name="Trazado 819915" d="M322.983,87.376c-.738-2.218-3.819-10.971-3.819-10.971s-9-5.668-12.942-7.887-5.67-9.86.739-11.71c1.726-3.2,4.362-3.485,5.842-2.623.985-7.272,4.664-8.148,8.732-6.792s6.544,4.849,9.008,10.4,3.042,8.509,5.137,14.055,3.7,9.739,3.7,9.739-4.808,10.106-16.393,5.792" transform="translate(-130.849 -15.66)" fill="#ffd4d4"/>
        <path id="Trazado_819916" data-name="Trazado 819916" d="M327.708,74.993a9.86,9.86,0,1,1-9.86-9.859,9.86,9.86,0,0,1,9.86,9.859" transform="translate(-132.616 -21.767)" fill="#d4336e"/>
        <path id="Trazado_819917" data-name="Trazado 819917" d="M305.581,69.723c1.387,1.571,3.7.739,3.328-2.68,2.31-.186,2.772-3.421,4.9-6.287.925,3.7,2.589,4.16,3.79,3.6s2.219-1.294,2.31-4.714,1.111-4.344,2.589-3.882,2.774,3.882,4.621,8.135,2.034,7.58-.648,8.226-5.083,1.665-6.654,4.53.277,5.639,5.177,3.514,6.377-5.548,6.377-5.548-.093-8.6-2.958-15.621-9.338-5.548-9.338-5.548L311.4,59.185l-6.1,6.563" transform="translate(-131.72 -17.82)" fill="#ffd4d4"/>
        <path id="Trazado_819918" data-name="Trazado 819918" d="M473.419,64.119c3.573.308,7.335-3.7,6.471-8.5s-8.444,2.527-8.444,2.527Z" transform="translate(-187.242 -18.039)" fill="#495edb"/>
        <path id="Trazado_819919" data-name="Trazado 819919" d="M473.251,64.268a6.738,6.738,0,0,0,6.134-3.986c.767-1.478,1.651-5.441-.256-6.528-2.543-1.449-6.42,2.366-8.085,3.968a.33.33,0,0,0-.086.324l1.973,5.978c.134.405.777.232.642-.177q-.841-2.551-1.683-5.1-.132-.4-.262-.8c.023.069-.234.354.118.025.567-.527,1.161-1.025,1.767-1.506,1.114-.885,4.551-3.655,5.687-1.635.958,1.7.083,4.372-.823,5.89a5.8,5.8,0,0,1-5.124,2.878c-.429-.019-.428.647,0,.666" transform="translate(-187.074 -17.856)" fill="#495edb"/>
        <path id="Trazado_819920" data-name="Trazado 819920" d="M419.119,32.421c-.74,4.683-1.6,8.721,2.588,16.239s5.669,16.978,19.474,15.067a47.884,47.884,0,0,1,1.727,6.287l18.117-3.944-5.793-17.628c7.7-2.278,7.578-7.12,6.221-10.324s-13.37-15.926-17.685-17.036-20.212-.246-24.649,11.339" transform="translate(-169.549 -6.925)" fill="#ffd4d4"/>
        <path id="Trazado_819921" data-name="Trazado 819921" d="M449.673,57.613c1.137-1.27-.939-4-2.141-2.851s1.208,3.894,2.141,2.851" transform="translate(-179.14 -18.207)"/>
        <path id="Trazado_819922" data-name="Trazado 819922" d="M430.652,60.113c1.135-1.272-.94-4-2.143-2.851s1.211,3.894,2.143,2.851" transform="translate(-172.783 -19.043)"/>
        <path id="Trazado_819923" data-name="Trazado 819923" d="M435.818,63.665a7.189,7.189,0,0,1-3.488-.965c-1.609-1.073-1.451-2.615-1.086-3.984.783-3.384-.8-6.348-4.356-8.12a.333.333,0,1,1,.3-.6c3.793,1.893,5.552,5.211,4.705,8.877-.383,1.435-.383,2.475.783,3.255a6.524,6.524,0,0,0,3.145.868.333.333,0,0,1,0,.666" transform="translate(-172.289 -16.697)"/>
        <path id="Trazado_819924" data-name="Trazado 819924" d="M441.29,71.742a.333.333,0,0,1-.077-.657,12.137,12.137,0,0,0,6.849-4.39.333.333,0,0,1,.51.429,12.754,12.754,0,0,1-7.2,4.609.311.311,0,0,1-.077.009" transform="translate(-177.053 -22.249)"/>
        <path id="Trazado_819925" data-name="Trazado 819925" d="M452.675,78.363a.333.333,0,0,1-.121-.643,16.12,16.12,0,0,0,5.736-3.926l.28-.318a14.661,14.661,0,0,0,2.068-2.749,26.782,26.782,0,0,0,1.46-3.288,9.752,9.752,0,0,0,.782-3.214.333.333,0,1,1,.666,0,10.3,10.3,0,0,1-.824,3.446,27.441,27.441,0,0,1-1.5,3.367,15.176,15.176,0,0,1-2.157,2.878l-.29.328a16.791,16.791,0,0,1-5.984,4.1.333.333,0,0,1-.12.023" transform="translate(-180.857 -21.352)"/>
        <path id="Trazado_819926" data-name="Trazado 819926" d="M442.993,48.765c-.493-1.6,1.416-2.651,4.129-1.541s3.245,2.349,2.4,2.157c-4.867-1.109-6.223.062-6.532-.616" transform="translate(-177.707 -15.627)" fill="#495edb"/>
        <path id="Trazado_819927" data-name="Trazado 819927" d="M443.16,48.509c-.545-2.328,3.025-1.43,4.071-.979a6.763,6.763,0,0,1,1.9,1.182l.139.147q.15.418.193.034c-.467-.071-.934-.194-1.4-.276a15.845,15.845,0,0,0-3.339-.225c-.224.008-1.467.262-1.594.037a.333.333,0,0,0-.575.336c.427.762,2,.291,2.662.278a24.884,24.884,0,0,1,4.2.51.529.529,0,0,0,.659-.477c0-.506-.557-.953-.918-1.212a8.733,8.733,0,0,0-3.687-1.558c-1.57-.246-3.372.559-2.947,2.38.1.418.74.241.643-.177" transform="translate(-177.553 -15.46)" fill="#495edb"/>
        <path id="Trazado_819928" data-name="Trazado 819928" d="M426.043,50.249c-1.727-.985-4.007-1.54-4.745-.555s-.123,2.157.616,2.1a33.82,33.82,0,0,1,4.684-.431c.615,0,0-.677-.555-1.109" transform="translate(-170.371 -16.434)" fill="#495edb"/>
        <path id="Trazado_819929" data-name="Trazado 819929" d="M426.042,49.768c-1.2-.654-3.221-1.63-4.593-.924-1,.516-1.509,2.445-.212,2.974a3.252,3.252,0,0,0,1.654-.035c.911-.125,1.824-.245,2.743-.3.461-.026,1.059.162,1.338-.3.292-.481-.593-1.145-.863-1.368-.328-.272-.8.2-.471.471.162.135.842.534.429.522a10.156,10.156,0,0,0-1.182.063c-.8.07-1.6.188-2.4.3-.248.034-.5.067-.744.091q-.764-.125-.587-1.071c.093-.657.627-.82,1.145-.872a6.385,6.385,0,0,1,3.4,1.022c.376.206.712-.368.336-.575" transform="translate(-170.203 -16.241)" fill="#495edb"/>
        <path id="Trazado_819930" data-name="Trazado 819930" d="M439.6,18.4c-.864,4.438.246,13.249,4.559,17.872s3.7-3.636,3.205-4.992c2.464-2.834,7.134-3.364,8.923,1.2.555,1.847-.4,5.273-.4,5.273,3.219-1.22,4.793-5.853,3.621-8.442s-1.6-7.642-1.294-11.587S454.574,4.839,443.666,7.673C440.578,2.3,437.4,1.288,431.818,2.124c-5.072.759-10.748-2.678-15-1.26-2.811.937-4.458,3.975-.205,8.227-6.595-1.849-12.51-1.6-15.1,4.93s.737,14.975,11.031,15.16a21.658,21.658,0,0,1,.892-4.144c.8,4.807,4.838,4.883,8.6,1.987a36.591,36.591,0,0,0,6.718-7.21c-1.48,4.006-.186,4.5,2.711,4.191S437.69,19.2,439.6,18.4" transform="translate(-163.591 -0.173)" fill="#495edb"/>
        <path id="Trazado_819931" data-name="Trazado 819931" d="M439.12,18.135a24.915,24.915,0,0,0,1.594,13.2c.494,1.256,4,8.364,6.261,6.171.824-.8.879-2.137.909-3.211a14.09,14.09,0,0,0-.112-2.031c-.087-.732-.33-.956.19-1.461a4.761,4.761,0,0,1,6.821-.137c1.749,1.824,1.224,4.617.621,6.819a.337.337,0,0,0,.489.376,7.451,7.451,0,0,0,4.166-7.048c-.026-1.418-.809-2.753-1.131-4.117a30.124,30.124,0,0,1-.635-7.1c.017-2.432.124-4.328-.875-6.609a10.874,10.874,0,0,0-4.852-5.2A10.011,10.011,0,0,0,448.927,6.7a15.248,15.248,0,0,0-2.533-.037c-.515.033-2.611.645-2.864.216-1.553-2.635-3.719-4.762-6.795-5.358a14.726,14.726,0,0,0-4.6.027A20.417,20.417,0,0,1,424.979.99c-3.128-.7-6.955-1.881-9.856.112-3.167,2.175-.884,5.992,1.1,8.052l.324-.557c-3.377-.923-7.427-1.711-10.752-.157a10.249,10.249,0,0,0-5.485,8.1,11.36,11.36,0,0,0,2.3,8.64c2.333,2.951,6.167,4.049,9.779,4.163a.341.341,0,0,0,.333-.333,21.228,21.228,0,0,1,.88-4.056h-.643c.794,4.046,4.057,4.991,7.524,3.21,3.4-1.745,6.255-5.25,8.4-8.353l-.609-.256c-.411,1.168-1.013,2.712-.314,3.89.561.945,2.073.822,2.978.758,3.755-.268,5.554-4.2,8.672-5.69.387-.184.05-.759-.336-.575-2.311,1.1-3.926,3.447-6.083,4.823a5.54,5.54,0,0,1-3.962.734c-1.676-.32-.655-2.792-.312-3.763.132-.377-.406-.55-.609-.257a34.956,34.956,0,0,1-5.814,6.452,9.217,9.217,0,0,1-5.177,2.537c-2.246.172-3.338-1.764-3.715-3.686-.068-.345-.545-.29-.643,0a22.193,22.193,0,0,0-.9,4.233l.333-.333c-3.431-.109-6.715-1.11-9.08-3.7a10.372,10.372,0,0,1-2.416-7.749,9.86,9.86,0,0,1,4.892-8.052c3.194-1.681,7.3-.834,10.581.064a.335.335,0,0,0,.324-.556c-2.237-2.328-3.981-6.194.058-7.671,3.306-1.209,7.385.586,10.676,1.144,3.076.522,6.075-.458,9.135.01,3.131.479,5.142,2.924,6.661,5.5a.338.338,0,0,0,.376.152c3.651-.9,7.468-.72,10.467,1.753a10.6,10.6,0,0,1,3.629,6.745c.194,1.6-.088,3.265-.053,4.872a29.535,29.535,0,0,0,.75,6.124c.451,1.91,1.251,3.269.832,5.313a6.46,6.46,0,0,1-3.664,4.66l.489.376c.782-2.856,1.07-5.853-1.34-7.994-2.362-2.1-5.844-.856-7.736,1.2a.337.337,0,0,0-.086.324,10.1,10.1,0,0,1,.242,4.319c-.468,3.4-3.209.119-4.16-1.268a22.823,22.823,0,0,1-3.2-15.931c.075-.42-.566-.6-.642-.177" transform="translate(-163.432 0)" fill="#495edb"/>
        <path id="Trazado_819932" data-name="Trazado 819932" d="M419.794,34.715a.333.333,0,0,1-.33-.29L419.406,34a9.265,9.265,0,0,1-.126-2.5,8.923,8.923,0,0,1,2.048-4.3A8.151,8.151,0,0,1,423,25.543a.333.333,0,1,1,.381.546,7.592,7.592,0,0,0-1.534,1.537,8.269,8.269,0,0,0-1.9,3.974,8.781,8.781,0,0,0,.126,2.308l.06.431a.333.333,0,0,1-.287.374.325.325,0,0,1-.044,0" transform="translate(-169.794 -8.516)"/>
        <path id="Trazado_819933" data-name="Trazado 819933" d="M470.72,49.7a.341.341,0,0,1-.051,0,.323.323,0,0,1-.276-.372,6.606,6.606,0,0,0,.119-1.054,4.489,4.489,0,0,0-.115-.912c-.113-.507-.241-1.081-.423-1.635a11.5,11.5,0,0,0-1.018-2.34.333.333,0,1,1,.575-.336,12.163,12.163,0,0,1,1.077,2.473,17.261,17.261,0,0,1,.439,1.691,5.089,5.089,0,0,1,.131,1.058,6.981,6.981,0,0,1-.124,1.14.347.347,0,0,1-.334.29" transform="translate(-186.394 -14.331)"/>
        <path id="Trazado_819934" data-name="Trazado 819934" d="M332.237,99.732c3.883,1.109,12.388-.924,16.64-6.84,2.959,6.656,12.942,29.026,13.681,30.135s9.8-5.547,20.153-13.867,16.639-10.722,22.925-9.982,9.245-.185,8.69-3.7-1.294-6.471-1.294-6.471,7.21,2.958,18.488-3.7c2.4,7.026,2.218,8.32,3.143,9.429s9.245-2.4,17.194-1.293,24.343,18.625,32.106,25.884c9.491,8.874,20.491,18.487,15.16,29.212-3.721,7.484-17.13,2.217-17.13,2.217s-1.111-3.328-7.026-9.244-15.9-16.086-15.9-16.086,11.709,35.252,13.928,40.614c-11.832,9.983-46.52,15.042-55.922,10.768-3.077-9.232-13.469-41.211-18.092-49.9-14.051,9.8-23.85,19.229-32.168,22.186S351.1,155.011,343.7,134.859c-4.234-11.539-11.463-35.127-11.463-35.127" transform="translate(-140.72 -28.509)" fill="#f2ac30"/>
        <path id="Trazado_819935" data-name="Trazado 819935" d="M331.979,99.886c6.074,1.591,13.453-2.205,17.016-6.993h-.575c4.339,9.758,8.548,19.6,13.2,29.215.418.864.657,1.419,1.722,1.069,2.46-.806,4.743-2.749,6.811-4.231,7.658-5.49,14.581-12.272,22.893-16.781a23.409,23.409,0,0,1,8.61-2.866c3-.32,5.969.494,8.975.2,1.811-.18,3.608-.951,3.888-2.928a13.6,13.6,0,0,0-.562-4.237c-.231-1.2-.487-2.392-.78-3.576l-.409.409a13.27,13.27,0,0,0,5.1.658c4.844-.1,9.506-1.993,13.641-4.39l-.489-.2c.941,2.771,1.583,5.658,2.573,8.407.535,1.483,1.377,1.578,2.863,1.376,4.138-.563,8.092-1.639,12.311-1.619a15.378,15.378,0,0,1,8.448,2.629c6.061,3.736,11.316,8.885,16.432,13.786,5.214,4.994,10.465,9.965,15.635,15,5.975,5.825,13.484,13.979,9.594,22.934-2.523,5.806-10.268,4.568-15.147,3.133q-.859-.252-1.7-.562c-.316-.117.148.3.083.122-.072-.194-.159-.382-.247-.569a28.45,28.45,0,0,0-4.749-6.561c-4.912-5.5-10.4-10.56-15.567-15.817q-1.215-1.233-2.426-2.468a.335.335,0,0,0-.557.324q3.946,11.88,7.975,23.732c1.615,4.747,3.227,9.5,4.939,14.208.242.665.487,1.328.741,1.987.1.262.222.476.138.546-.6.494-1.231.94-1.874,1.372a42.763,42.763,0,0,1-8.066,4.065,96.086,96.086,0,0,1-20.023,5.269,80.746,80.746,0,0,1-18.97,1.157,29.842,29.842,0,0,1-3.494-.467c-.417-.082-2.629-.395-2.78-.85q-1.053-3.156-2.094-6.317c-2.067-6.231-4.156-12.451-6.311-18.651-1.7-4.883-3.434-9.754-5.281-14.583a93.559,93.559,0,0,0-4.377-10.244.333.333,0,0,0-.455-.119c-7.673,5.368-14.854,11.4-22.51,16.781a42.7,42.7,0,0,1-15.24,7.144c-5.42,1.2-9.417-1.5-12.36-5.93-4.146-6.244-6.194-13.964-8.532-21.027q-3.948-11.926-7.613-23.946c-.125-.409-.768-.234-.642.177,3.187,10.394,6.453,20.774,10.012,31.047,2.184,6.3,4.45,13.623,9.649,18.155,3.219,2.805,7.182,2.9,11.114,1.8a47.142,47.142,0,0,0,14.7-7.379c7.383-5.239,14.334-11.055,21.756-16.248l-.455-.119a121.041,121.041,0,0,1,6.073,14.794c2.411,6.558,4.678,13.17,6.911,19.79,1.69,5.011,3.343,10.035,5.012,15.052.4,1.2,3.757,1.427,4.808,1.579a48.17,48.17,0,0,0,7.769.359,104.456,104.456,0,0,0,24.267-3.591c6.828-1.792,14.183-4.2,19.7-8.781a.323.323,0,0,0,.086-.324c-2.986-7.27-5.281-14.876-7.8-22.318q-3.089-9.139-6.132-18.3l-.557.324q5.651,5.757,11.326,11.488c2.824,2.85,5.769,5.61,8.313,8.717a18.1,18.1,0,0,1,3.2,4.97c.239.667,2.434.963,2.98,1.109a23.957,23.957,0,0,0,7.5.912,8.766,8.766,0,0,0,6.48-2.922c2-2.436,2.47-6.089,2.064-9.108-.5-3.689-2.639-7.012-4.866-9.891a86.314,86.314,0,0,0-9.58-9.933c-5.02-4.694-9.857-9.577-14.876-14.271-4.772-4.463-9.795-9.2-15.63-12.257-6.273-3.282-13.212-.613-19.751.118-1.393.156-1.574-.856-1.9-2-.708-2.476-1.421-4.938-2.25-7.377a.337.337,0,0,0-.489-.2,28.883,28.883,0,0,1-13.306,4.3,12.343,12.343,0,0,1-4.926-.635c-.248-.1-.464.186-.409.409.294,1.185.543,2.38.78,3.577.328,1.651,1.23,4.049-.18,5.421-1.1,1.07-3.177,1-4.577.983-1.776-.017-3.528-.352-5.3-.358-6.879-.029-13.116,4.232-18.381,8.2-6.785,5.107-13.158,11.2-20.653,15.3-.264.144-1.439.854-1.63.512-.282-.5-.519-1.037-.766-1.559-1-2.113-1.968-4.245-2.936-6.374q-5-11.008-9.9-22.067c-.113-.254-.444-.176-.575,0-3.379,4.541-10.5,8.2-16.264,6.687a.333.333,0,0,0-.177.642" transform="translate(-140.551 -28.342)" fill="#f2ac30"/>
        <path id="Trazado_819936" data-name="Trazado 819936" d="M321.889,82.457a3.032,3.032,0,0,1-2.333-.89A3.3,3.3,0,0,1,319.5,77.7c1.685-3.072,4.3-4.071,6.869-4.693a2.063,2.063,0,0,0,1.463-1.105c.638-1.282.268-3.649-1.043-6.665-1.651-3.8-3.078-7.082-4.441-7.506a1.441,1.441,0,0,0-1.3.031c-.5.36-.784,1.4-.831,3.1-.1,3.6-1.238,4.424-2.5,5.007a2.2,2.2,0,0,1-1.921.011,4.838,4.838,0,0,1-2.141-3.149,24.942,24.942,0,0,0-1.351,2.4c-.854,1.659-1.6,3.107-3.057,3.407.1,1.656-.418,2.89-1.426,3.334a2.167,2.167,0,0,1-2.511-.719.333.333,0,1,1,.5-.441,1.526,1.526,0,0,0,1.744.551c.612-.27,1.2-1.193,1-2.976a.333.333,0,0,1,.3-.368c1.313-.105,1.991-1.425,2.851-3.094a21.364,21.364,0,0,1,1.808-3.059.329.329,0,0,1,.332-.128.334.334,0,0,1,.258.246c.575,2.3,1.391,3.119,1.974,3.4a1.556,1.556,0,0,0,1.354-.015c1.146-.529,2.031-1.19,2.116-4.42.054-1.97.407-3.121,1.109-3.623a2.1,2.1,0,0,1,1.886-.125c1.579.491,2.811,3.176,4.855,7.877.983,2.264,1.96,5.355,1.027,7.227a2.722,2.722,0,0,1-1.9,1.455c-2.423.587-4.88,1.521-6.44,4.366a2.676,2.676,0,0,0-.033,3.1c.828.909,2.618.89,4.785-.049,4.706-2.043,6.19-5.341,6.2-5.374a.333.333,0,0,1,.611.265c-.062.144-1.588,3.566-6.55,5.72a8.279,8.279,0,0,1-3.209.778" transform="translate(-131.691 -19.025)"/>
        <path id="Trazado_819937" data-name="Trazado 819937" d="M339.559,118.8a8.287,8.287,0,0,1-3.173-.591.333.333,0,0,1,.252-.617,9.619,9.619,0,0,0,6.169.08,15.6,15.6,0,0,0,6.887-3.345c.126-.127.275-.265.429-.407a6.007,6.007,0,0,0,1.261-1.449.333.333,0,1,1,.581.324,6.615,6.615,0,0,1-1.39,1.615c-.147.136-.29.268-.422.4a16.213,16.213,0,0,1-7.18,3.508,13.569,13.569,0,0,1-3.413.483" transform="translate(-142.038 -37.529)"/>
        <path id="Trazado_819938" data-name="Trazado 819938" d="M339.781,116.812a.334.334,0,0,1-.313-.218c-.2-.56-.4-1.13-.593-1.707-.276-.811-.56-1.65-.883-2.478-.345-.859-.736-1.835-1.054-2.789-.083-.248-.188-.49-.292-.73a4.833,4.833,0,0,1-.464-1.5.333.333,0,0,1,.663-.056,4.327,4.327,0,0,0,.412,1.3c.111.257.223.517.312.784.312.935.7,1.9,1.041,2.754s.617,1.691.895,2.509c.194.571.386,1.137.589,1.691a.333.333,0,0,1-.2.427.346.346,0,0,1-.115.02" transform="translate(-142.038 -35.766)"/>
        <path id="Trazado_819939" data-name="Trazado 819939" d="M344.717,116.133a.332.332,0,0,1-.282-.156,6.788,6.788,0,0,1-.557-1.275c-.068-.189-.136-.38-.21-.565-.13-.389-.268-.758-.407-1.127s-.278-.74-.4-1.11c-.264-.743-.6-1.561-1.033-2.492-.192-.448-.35-.906-.5-1.348s-.306-.887-.487-1.309a.333.333,0,1,1,.611-.264c.192.445.351.908.505,1.356.148.431.3.877.481,1.295.435.941.78,1.777,1.054,2.546.124.368.26.73.395,1.092.142.378.284.755.409,1.133.071.173.141.371.212.568a6.187,6.187,0,0,0,.5,1.147.333.333,0,0,1-.106.459.328.328,0,0,1-.176.051" transform="translate(-143.585 -35.519)"/>
        <path id="Trazado_819940" data-name="Trazado 819940" d="M350.917,114.1a.332.332,0,0,1-.323-.252,7.532,7.532,0,0,0-.374-1c-.084-.2-.165-.388-.23-.565-.154-.366-.295-.744-.437-1.121-.136-.362-.272-.724-.422-1.087l-.035-.086c-.715-1.726-1.454-3.512-2.242-5.267a.333.333,0,0,1,.608-.273c.791,1.763,1.532,3.553,2.249,5.285l.035.085c.154.37.292.739.431,1.109s.277.74.431,1.11c.067.179.145.362.224.549a8.052,8.052,0,0,1,.407,1.1.333.333,0,0,1-.323.414" transform="translate(-145.595 -34.838)"/>
        <path id="Trazado_819941" data-name="Trazado 819941" d="M354.467,109.133a.332.332,0,0,1-.3-.183,5.816,5.816,0,0,1-.265-.659,5.644,5.644,0,0,0-.228-.576l-.943-2.289a16.854,16.854,0,0,1-.74-1.759c-.044-.1-.115-.239-.189-.383a3.724,3.724,0,0,1-.441-1.16.333.333,0,0,1,.66-.084,3.279,3.279,0,0,0,.374.939c.082.159.16.312.219.451a16.852,16.852,0,0,0,.72,1.714l.2.435.746,1.862a5.684,5.684,0,0,1,.249.625,5.3,5.3,0,0,0,.232.583.332.332,0,0,1-.3.483" transform="translate(-147.111 -34.003)"/>
        <path id="Trazado_819942" data-name="Trazado 819942" d="M459.767,100.832a.332.332,0,0,1-.33-.3,9.346,9.346,0,0,0-.415-1.837c-.068-.286-.121-.541-.173-.795a13.433,13.433,0,0,0-.382-1.546c-.3-.784-.55-1.591-.79-2.37-.109-.395-.187-.738-.265-1.079s-.152-.67-.244-1.005a.333.333,0,0,1,.642-.176c.093.344.172.689.25,1.033s.151.666.242,1c.247.8.491,1.6.79,2.372a14.239,14.239,0,0,1,.408,1.636c.051.249.1.5.161.75a9.566,9.566,0,0,1,.437,1.952.333.333,0,0,1-.3.364h-.034" transform="translate(-182.466 -30.57)"/>
        <path id="Trazado_819943" data-name="Trazado 819943" d="M464.767,101.449a.333.333,0,0,1-.333-.333,2.059,2.059,0,0,0-.114-.559c-.023-.078-.045-.152-.063-.222a7.932,7.932,0,0,0-.3-1.147c-.206-.952-.472-1.853-.681-2.535-.129-.482-.239-.953-.349-1.423-.105-.454-.211-.908-.332-1.362-.046-.228-.11-.442-.174-.661a4.935,4.935,0,0,1-.268-1.4.333.333,0,1,1,.666,0,4.438,4.438,0,0,0,.241,1.206c.071.239.139.473.184.7.118.441.225.9.333,1.362s.216.927.34,1.392c.209.682.479,1.6.682,2.543a8.224,8.224,0,0,1,.31,1.187l.049.167a2.627,2.627,0,0,1,.141.749.333.333,0,0,1-.333.333" transform="translate(-184.136 -30.57)"/>
        <path id="Trazado_819944" data-name="Trazado 819944" d="M470.35,100.4a.334.334,0,0,1-.316-.228c-.031-.1-.063-.205-.094-.316s-.06-.21-.091-.3a4.737,4.737,0,0,1-.258-.9,14.4,14.4,0,0,0-.35-1.455c-.07-.25-.138-.5-.2-.748l-.228-.852c-.423-1.579-.824-3.071-1.19-4.637a.333.333,0,0,1,.649-.152c.364,1.556.762,3.043,1.184,4.617l.23.858c.062.248.129.493.2.736a14.712,14.712,0,0,1,.363,1.515,4.127,4.127,0,0,0,.227.792c.041.117.073.232.106.348s.058.2.087.288a.333.333,0,0,1-.316.438" transform="translate(-185.961 -30.26)"/>
        <path id="Trazado_819945" data-name="Trazado 819945" d="M475.687,98.363a.334.334,0,0,1-.318-.232c-.451-1.419-.832-2.831-1.175-4.145l-.174-.571c-.19-.628-.387-1.278-.62-1.927-.105-.292-.19-.605-.274-.923a7.972,7.972,0,0,0-.392-1.21.333.333,0,0,1,.608-.274,8.5,8.5,0,0,1,.427,1.312c.08.3.158.594.258.868.239.666.438,1.324.631,1.961l.177.581c.346,1.32.723,2.722,1.17,4.127a.333.333,0,0,1-.217.418.326.326,0,0,1-.1.015" transform="translate(-187.662 -29.703)"/>
        <path id="Trazado_819946" data-name="Trazado 819946" d="M461.337,104.826a6.9,6.9,0,0,1-1.26-.109,13.935,13.935,0,0,1-1.672-.39,11.147,11.147,0,0,0-1.876-.407.333.333,0,0,1,.067-.662,11.811,11.811,0,0,1,1.987.427,13.557,13.557,0,0,0,1.6.376,7.46,7.46,0,0,0,2.017.06,7.928,7.928,0,0,1,.933-.013,6.314,6.314,0,0,0,1.2-.046,18.684,18.684,0,0,0,4.236-1.455,27.707,27.707,0,0,0,3.528-1.826c.672-.427,1.352-.86,2.016-1.343.35-.292.732-.675,1.07-1.013a.333.333,0,1,1,.471.47c-.348.348-.741.743-1.131,1.068-.7.509-1.387.947-2.053,1.371a28.519,28.519,0,0,1-3.631,1.882,19.174,19.174,0,0,1-4.4,1.5,6.866,6.866,0,0,1-1.323.055,7.439,7.439,0,0,0-.858.011c-.334.028-.64.042-.926.042" transform="translate(-182.156 -32.859)"/>
        <path id="Trazado_819947" data-name="Trazado 819947" d="M431.568,146.789a.332.332,0,0,1-.3-.184c-.146-.292-.267-.606-.383-.909s-.226-.585-.358-.848a13.158,13.158,0,0,0-.727-1.641c-.137-.307-.278-.567-.418-.828a6.342,6.342,0,0,1-.731-1.775.333.333,0,0,1,.653-.131,5.732,5.732,0,0,0,.664,1.59c.148.276.3.551.422.837a13.07,13.07,0,0,1,.75,1.693,9.275,9.275,0,0,1,.364.863c.116.3.226.587.358.85a.333.333,0,0,1-.3.482" transform="translate(-172.939 -46.854)"/>
        <path id="Trazado_819948" data-name="Trazado 819948" d="M515.579,140.22a.378.378,0,0,1-.172-.041,7.516,7.516,0,0,1-1.716-1.358c-.2-.19-.4-.383-.6-.566a13.447,13.447,0,0,0-1.967-1.387l-2.574-1.656a.4.4,0,0,1-.122-.546.379.379,0,0,1,.529-.127l2.561,1.649a14.061,14.061,0,0,1,2.069,1.462c.219.194.427.393.632.592a6.811,6.811,0,0,0,1.534,1.228.4.4,0,0,1,.172.531.384.384,0,0,1-.344.22" transform="translate(-199.58 -44.941)"/>
        <path id="Trazado_819949" data-name="Trazado 819949" d="M541.849,201.577a.334.334,0,0,1-.312-.216l-4.3-11.556a.333.333,0,0,1,.625-.232l4.3,11.555a.334.334,0,0,1-.2.429.34.34,0,0,1-.117.021" transform="translate(-209.221 -63.279)"/>
        <path id="Trazado_819950" data-name="Trazado 819950" d="M476.158,229.174a88.538,88.538,0,0,1-9.264-.476.331.331,0,0,1-.3-.366.326.326,0,0,1,.366-.3c17.968,1.891,38.157-1.992,51.438-9.893a.333.333,0,1,1,.341.572c-11.148,6.632-27.112,10.459-42.586,10.459" transform="translate(-185.621 -72.884)"/>
        <path id="Trazado_819951" data-name="Trazado 819951" d="M537.773,243.595a8.207,8.207,0,0,1-3.213-.678c-4.924-2.083-8.832-8.635-10.38-13.842a.333.333,0,0,1,.639-.19c1.552,5.223,5.486,11.508,10,13.418a7.353,7.353,0,0,0,6.536-.306.333.333,0,1,1,.308.59,8.338,8.338,0,0,1-3.89,1.007" transform="translate(-204.86 -76.41)"/>
        <path id="Trazado_819952" data-name="Trazado 819952" d="M549.2,249.548a.333.333,0,0,1-.331-.3c-1.273-13.459-8.216-27.474-8.286-27.614a.333.333,0,1,1,.6-.3c.071.141,7.069,14.264,8.354,27.849a.334.334,0,0,1-.3.363H549.2" transform="translate(-210.335 -73.904)"/>
        <path id="Trazado_819953" data-name="Trazado 819953" d="M309.446,69.984a2.183,2.183,0,0,1-1.667-.8,5.163,5.163,0,0,1-1-2.709A9.667,9.667,0,0,1,308.4,61.4a.333.333,0,1,1,.571.342,9.05,9.05,0,0,0-1.524,4.709,4.5,4.5,0,0,0,.863,2.321,1.462,1.462,0,0,0,1.533.485.333.333,0,1,1,.2.637,2,2,0,0,1-.589.088" transform="translate(-132.21 -20.465)"/>
        <path id="Trazado_819954" data-name="Trazado 819954" d="M317.879,62.344a.333.333,0,0,1-.331-.3,33.667,33.667,0,0,1-.106-3.84c0-.356.007-.705.007-1.04a.333.333,0,0,1,.666,0c0,.337,0,.688-.007,1.047a33.079,33.079,0,0,0,.1,3.762.333.333,0,0,1-.295.367l-.037,0" transform="translate(-135.774 -18.993)"/>
        <path id="Trazado_819955" data-name="Trazado 819955" d="M502.843,251.685a14.294,14.294,0,0,1-3.661-.548.332.332,0,0,1-.222-.22l-8.026-25.911a.333.333,0,0,1,.636-.2l7.973,25.737a10.949,10.949,0,0,0,4.91.283c-1.633-5.664-5.457-20.405-5.5-20.556a.333.333,0,1,1,.645-.168c.039.154,4.006,15.444,5.582,20.848a.334.334,0,0,1-.205.405,6.255,6.255,0,0,1-2.134.326" transform="translate(-193.749 -75.048)"/>
        <path id="Trazado_819956" data-name="Trazado 819956" d="M148.375,153.268a20.394,20.394,0,0,1-5.105,1.875c-.439.068-2.043-12.228-2.043-12.228,7.441-2.727,11.093-5.3,13.064-10.97s-3.466-6.654-3.775-12.37c-.246-4.57.694-19.307-16.314-17.088s-30.692,26.253-23.79,33.527,13.189,8.257,13.066,10.107-6.656,11.955-7.025,12.447,4.683,10.476,9.86,12.573,33.895,1.109,22.062-17.872" transform="translate(-65.98 -34.174)" fill="#ffd4d4"/>
        <path id="Trazado_819957" data-name="Trazado 819957" d="M53.649,343.726c-.74-10.722-.74-45.666,19.782-60.826,1.664-1.294,3.02-5.176,3.02-5.176,9.182,2.4,32.724,8.69,43.139,8.136a56.592,56.592,0,0,1-4.683,8.874l3.265,48.807-26.808.555L86,335.591l.738,8.135Z" transform="translate(-47.549 -92.81)" fill="#f2ac30"/>
        <path id="Trazado_819958" data-name="Trazado 819958" d="M53.8,343.559a104.844,104.844,0,0,1,2.764-32.4,59.588,59.588,0,0,1,8.214-19.064,38.869,38.869,0,0,1,7.07-7.84,13.406,13.406,0,0,0,3.075-3.043,18.33,18.33,0,0,0,1.628-3.456c.013-.037.027-.073.039-.11l-.409.233c7.009,1.834,14.026,3.638,21.108,5.176,7.15,1.553,14.753,3.315,22.12,2.971l-.321-.421a46.38,46.38,0,0,1-4.546,8.63c-.265.421-.107.983-.075,1.459q.35,5.231.7,10.461,1.024,15.311,2.048,30.621l.441,6.6.333-.333-20.536.425-4.669.1-1.266.026c-.57.011,0,.249-.164-.01q-2.623-4.162-5.246-8.323c-.164-.26-.652-.18-.62.168q.369,4.068.738,8.135l.333-.333H53.468a.333.333,0,0,0,0,.666H86.561a.334.334,0,0,0,.333-.333q-.37-4.067-.738-8.135l-.621.168,5.246,8.323c.3.48.742.34,1.264.329l4.57-.095,21.377-.443a.334.334,0,0,0,.333-.333q-1.591-23.785-3.183-47.569-.033-.5-.067-1c-.027-.391-.095-.012.217-.509a46.208,46.208,0,0,0,4.438-8.512.334.334,0,0,0-.321-.421c-7.321.342-14.834-1.415-21.943-2.947-7.084-1.526-14.1-3.341-21.107-5.177a.34.34,0,0,0-.409.232,20.626,20.626,0,0,1-1.4,3.064c-.911,1.646-2.416,2.589-3.8,3.788a39.565,39.565,0,0,0-6.545,7.437,58.894,58.894,0,0,0-8.076,18.434,103.986,103.986,0,0,0-3.04,32.629q.022.369.047.737c.029.426.7.429.666,0" transform="translate(-47.368 -92.643)" fill="#f2ac30"/>
        <path id="Trazado_819959" data-name="Trazado 819959" d="M102.873,292.874a.325.325,0,0,1-.057,0c-7.572-1.3-14.561-4.243-17.806-7.488a.333.333,0,1,1,.471-.471c3.155,3.154,10,6.021,17.448,7.3a.333.333,0,0,1-.056.661" transform="translate(-58.069 -95.179)"/>
        <path id="Trazado_819960" data-name="Trazado 819960" d="M63.168,347.418a.333.333,0,0,1-.332-.318c-.315-7.064-.933-43.1,17.869-58.695a.333.333,0,1,1,.425.513c-18.56,15.4-17.942,51.143-17.63,58.152a.332.332,0,0,1-.318.348h-.015" transform="translate(-50.659 -96.354)"/>
        <path id="Trazado_819961" data-name="Trazado 819961" d="M159.619,173.536c5.493-1.332,7.85-3.166,11.487-3.536,1.233-3.945-2.9-10.723-5.792-11.956a23.485,23.485,0,0,1-7.889,3.514c.862,5.82,2.194,11.979,2.194,11.979" transform="translate(-82.301 -52.815)" fill="#32015c"/>
        <path id="Trazado_819962" data-name="Trazado 819962" d="M159.544,173.681c3.83-.961,7.464-3.061,11.4-3.524a.343.343,0,0,0,.321-.244c.957-3.545-1.147-7.478-3.32-10.148-.334-.41-2.246-2.649-2.962-2.184a22.589,22.589,0,0,1-7.809,3.48.339.339,0,0,0-.232.41q.906,6.02,2.194,11.979c.091.42.732.242.642-.176q-1.282-5.951-2.194-11.979-.116.2-.232.409a16.425,16.425,0,0,0,3.342-1.063c.68-.292,1.346-.606,2.007-.939.344-.174,2.248-1.56,2.527-1.428,2.409,1.139,4.048,4.3,4.944,6.654a9.353,9.353,0,0,1,.64,3.858c-.068,1.184-2,1.078-2.966,1.383-2.857.9-5.556,2.14-8.476,2.872a.333.333,0,0,0,.177.642" transform="translate(-82.138 -52.639)" fill="#32015c"/>
        <path id="Trazado_819963" data-name="Trazado 819963" d="M146.517,162.758a21.97,21.97,0,0,1-10.2-2.505.333.333,0,0,1,.314-.587,21.107,21.107,0,0,0,13.541,2.085.333.333,0,0,1,.127.654,19.914,19.914,0,0,1-3.784.354" transform="translate(-75.189 -53.344)"/>
        <path id="Trazado_819964" data-name="Trazado 819964" d="M99.872,121.547c1.635,5.149,4.969,6.517,4.114-1.177,14.513-8.689,15.021-20.639,12.987-24.8,8.967,1.2,14.977,5.269,13.589,15.438,9.521-2.495,8.875-18.58.646-21.538-.184-11.648-12.884-14.593-25.42-7.488-5.619,3.184-7.616,7.068-15.273,10.064-8.981,3.515-12.1,14.981-12.1,24.635,0,14.689-.085,21.875-11.64,30.841S44.378,167.874,51.064,182a13.983,13.983,0,0,0,12.941,8.042c-2.5,11.554,4.621,18.395,11.463,17.933,0,0,1.941-24.034,4.437-34.573s7.394-14.884,15.623-19.043,10.335-5.626,9.521-13.589a88.985,88.985,0,0,0-1.756-10.816c-7.3,3.051-10.929-1.182-11.74-4.253-1.294-4.9,5.454-8.69,8.319-4.161" transform="translate(-46.073 -26.118)" fill="#32015c"/>
        <path id="Trazado_819965" data-name="Trazado 819965" d="M99.389,121.468c.383,1.151,2.555,6.354,4.365,3.829a3.842,3.842,0,0,0,.485-1.732,11.232,11.232,0,0,0,.044-1.706c-.029-1.3.085-1.583,1.193-2.3a33.635,33.635,0,0,0,6.65-5.651c4.142-4.577,7.873-12.515,4.972-18.672l-.376.489c3.676.515,7.47,1.487,10.289,4.039,3.115,2.821,3.551,7.136,3.055,11.078a.334.334,0,0,0,.421.321c5.193-1.465,7.425-6.7,7.2-11.746a13.705,13.705,0,0,0-2.349-7.144A9.675,9.675,0,0,0,133.092,90a7.908,7.908,0,0,0-1.59-.874c-.306-.131-.26-1.641-.321-2.043-.94-6.308-6.651-9.4-12.578-9.429-7.725-.042-14.183,4.207-19.919,8.894A34.242,34.242,0,0,1,93.815,89.9c-1.919,1.081-4.042,1.712-5.936,2.838a17.994,17.994,0,0,0-6.488,7.381c-3.512,6.791-3.384,14.316-3.5,21.74-.1,6.58-.733,13.08-4.7,18.562-2.31,3.189-5.432,5.576-8.477,8.011a68.693,68.693,0,0,0-9.47,8.985,28.456,28.456,0,0,0-6.2,11.4,19.932,19.932,0,0,0,1.572,13.186,14.219,14.219,0,0,0,13.228,8.208l-.321-.421c-.963,4.723-.645,9.726,2.264,13.729a11.175,11.175,0,0,0,9.519,4.626.341.341,0,0,0,.333-.333,293.26,293.26,0,0,1,3.885-31.961c1.388-7.175,4.149-13.565,10.206-17.948,2.974-2.151,6.353-3.6,9.543-5.385,2.139-1.194,4.3-2.626,5.363-4.915,1.336-2.869.675-6.476.3-9.467a77.268,77.268,0,0,0-1.482-8.433.331.331,0,0,0-.409-.232c-4.178,1.661-9.17,1.371-11.093-3.294-1.889-4.581,4.427-9.058,7.473-4.629.242.351.819.019.575-.336-2.9-4.214-9.781-1.4-9.067,3.653a7.569,7.569,0,0,0,3.3,5.127c2.681,1.842,6.169,1.243,8.99.122l-.409-.232a81.021,81.021,0,0,1,1.533,8.853c.389,3.085.945,6.7-.8,9.483-1.66,2.656-5.213,4.1-7.879,5.454a41.221,41.221,0,0,0-8.473,5.4c-5.112,4.432-7.221,10.845-8.443,17.3-1.245,6.573-1.983,13.252-2.685,19.9-.406,3.845-.78,7.7-1.092,11.55l.333-.333a10.611,10.611,0,0,1-8.768-4.069c-3.064-3.717-3.294-8.929-2.373-13.444a.337.337,0,0,0-.321-.421,13.623,13.623,0,0,1-12.2-6.991C46.9,174.277,49.771,165.2,55.4,158.278a64.04,64.04,0,0,1,9.38-9.04c3-2.452,6.04-4.748,8.477-7.8,3.805-4.769,4.929-10.557,5.219-16.512.359-7.382-.242-14.593,2.3-21.693a20.406,20.406,0,0,1,5.807-8.743,18.737,18.737,0,0,1,5.082-2.79,28.828,28.828,0,0,0,5.352-3.028c2.731-1.926,5.11-4.287,7.949-6.072a28.01,28.01,0,0,1,11.918-4.193,14.478,14.478,0,0,1,9.553,2.069c2.948,1.971,4.183,5.414,4.285,8.829a.345.345,0,0,0,.244.321c8.419,3.218,8.172,18.407-.646,20.9l.421.321c.5-3.982.017-8.014-2.776-11.077-2.766-3.033-7.154-4.135-11.057-4.682a.337.337,0,0,0-.376.489c1.487,3.156.836,7.126-.264,10.282-2.136,6.132-7.191,10.769-12.6,14.061a.326.326,0,0,0-.164.288c.082.819.674,4.973-.79,5.071-1.364.091-2.381-3.115-2.67-3.984-.135-.4-.778-.232-.642.177" transform="translate(-45.911 -25.951)" fill="#32015c"/>
        <path id="Trazado_819966" data-name="Trazado 819966" d="M148.657,135.2c-1.69.224-1.9,3.65-.232,3.559s1.617-3.745.232-3.559" transform="translate(-78.91 -45.18)"/>
        <path id="Trazado_819967" data-name="Trazado 819967" d="M148.9,135.323a.333.333,0,0,1-.189-.607l.071-.049A4.235,4.235,0,0,0,150,133.627a.333.333,0,1,1,.582.324,4.476,4.476,0,0,1-1.417,1.264l-.072.05a.333.333,0,0,1-.188.059" transform="translate(-79.342 -44.598)"/>
        <path id="Trazado_819968" data-name="Trazado 819968" d="M166.885,129.307c-1.679.287-1.76,3.717-.1,3.565s1.481-3.8.1-3.565" transform="translate(-85.027 -43.208)"/>
        <path id="Trazado_819969" data-name="Trazado 819969" d="M167.116,129.415a.333.333,0,0,1-.2-.6l.086-.064a4.19,4.19,0,0,0,1.159-1.072.333.333,0,1,1,.594.3,4.408,4.408,0,0,1-1.355,1.3l-.085.063a.329.329,0,0,1-.2.067" transform="translate(-85.428 -42.607)"/>
        <path id="Trazado_819970" data-name="Trazado 819970" d="M162.07,140.352a.333.333,0,0,1-.24-.564c.2-.21.395-.406.577-.591,1.908-1.943,2.422-2.465.539-5.327l-.1-.147c-2.206-3.354-2.515-4.016-.518-7.729a.332.332,0,1,1,.585.316c-1.865,3.468-1.641,3.807.489,7.048l.1.147c2.177,3.31,1.357,4.143-.622,6.158-.18.184-.371.378-.573.587a.33.33,0,0,1-.239.1" transform="translate(-83.496 -42.046)"/>
        <path id="Trazado_819971" data-name="Trazado 819971" d="M141.887,129.367c-1.18,2.136-.971,3.234.555,1.9a23.334,23.334,0,0,1,4.946-3.283c1.248-.554.043-2.117-1.942-1.756a6.291,6.291,0,0,0-3.559,3.143" transform="translate(-76.855 -42.164)"/>
        <path id="Trazado_819972" data-name="Trazado 819972" d="M141.257,132.014h0a.588.588,0,0,1-.521-.29c-.338-.573.19-1.776.692-2.683a6.52,6.52,0,0,1,3.791-3.31,3.624,3.624,0,0,1,.639-.059,2.1,2.1,0,0,1,2.181,1.3,1.011,1.011,0,0,1-.684,1.147,22.988,22.988,0,0,0-4.862,3.229,2.136,2.136,0,0,1-1.237.668m0-.666,0,.333v-.333h0m4.6-5.011a2.92,2.92,0,0,0-.521.048,6.036,6.036,0,0,0-3.327,2.977,4.194,4.194,0,0,0-.714,1.981,2.037,2.037,0,0,0,.758-.5,23.8,23.8,0,0,1,5.03-3.337c.236-.1.338-.239.3-.4-.069-.323-.639-.771-1.53-.771" transform="translate(-76.689 -41.997)"/>
        <path id="Trazado_819973" data-name="Trazado 819973" d="M163.017,124.613c1.2-2.172,3.187-4.344,4.205-4.067s1.479,1.665.878,2.081-1.064-.74-3.05.6c-1.742,1.174-2.127,1.756-2.033,1.386" transform="translate(-84.166 -40.276)"/>
        <path id="Trazado_819974" data-name="Trazado 819974" d="M162.861,124.891H162.7l-.116-.135a.437.437,0,0,1-.053-.39l.031-.079c1.229-2.222,3.343-4.568,4.585-4.227a1.984,1.984,0,0,1,1.368,1.544.981.981,0,0,1-1.328,1.209,2.071,2.071,0,0,0-.551-.089,2.928,2.928,0,0,0-1.563.614c-.82.553-1.333.971-1.639,1.22s-.409.333-.571.333m4.009-4.2c-.651,0-1.86,1.123-2.908,2.614.214-.156.458-.33.737-.517a3.542,3.542,0,0,1,1.935-.728,2.679,2.679,0,0,1,.72.111c.172.045.264.107.392.019a.468.468,0,0,0,.111-.471,1.315,1.315,0,0,0-.886-1.015.387.387,0,0,0-.1-.012" transform="translate(-83.999 -40.111)"/>
        <path id="Trazado_819975" data-name="Trazado 819975" d="M155.16,151.973a4.206,4.206,0,0,1-2.75-1.111,9.57,9.57,0,0,1-2.061-2.537.333.333,0,1,1,.577-.334,8.9,8.9,0,0,0,1.911,2.36,3.4,3.4,0,0,0,2.916.9,3.074,3.074,0,0,0,1.32-.616.333.333,0,1,1,.442.5,3.7,3.7,0,0,1-1.619.768,3.929,3.929,0,0,1-.736.071" transform="translate(-79.922 -49.4)"/>
        <path id="Trazado_819976" data-name="Trazado 819976" d="M157.8,149.532c-.17,0-.34-.012-.509-.025-.534-.038-1.073-.054-1.584-.124-.235-.033-.47-.065-.705-.083-.65-.107-1.171-.2-1.76-.332-.176-.047-.34-.087-.5-.127a9.683,9.683,0,0,1-1.061-.3,4.629,4.629,0,0,1-.6-.239c-.134-.061-.272-.123-.417-.178a.333.333,0,1,1,.236-.622c.159.06.31.127.455.193a4.112,4.112,0,0,0,.535.213,9.084,9.084,0,0,0,1.012.287c.17.041.339.082.508.128.558.127,1.069.215,1.678.316.219.015.468.049.716.084.539.075,1.037.085,1.541.12a5.066,5.066,0,0,0,1.225-.063l.123.654a5.426,5.426,0,0,1-.886.1" transform="translate(-79.969 -49.285)"/>
        <path id="Trazado_819977" data-name="Trazado 819977" d="M159.009,132.732a3.348,3.348,0,0,1,1.532-1.262,1.929,1.929,0,0,1,1.783.4.333.333,0,0,0,.336-.575,2.621,2.621,0,0,0-2.3-.469,3.805,3.805,0,0,0-1.93,1.567c-.244.355.333.687.575.336" transform="translate(-82.619 -43.686)" fill="#495edb"/>
        <path id="Trazado_819978" data-name="Trazado 819978" d="M149.735,122.5c-8.235-5.125-13.762,9.36-7.216,14.159,3.437,2.519,7.58.435,9.269-3.051s1.285-8.695-2.053-11.107c-.349-.252-.68.326-.336.575,2.934,2.121,3.161,6.454,2.063,9.593-1.266,3.622-5.552,5.986-8.83,3.223-5.418-4.568-.623-17.415,6.767-12.816.366.228.7-.348.336-.575" transform="translate(-76.356 -40.575)" fill="#495edb"/>
        <path id="Trazado_819979" data-name="Trazado 819979" d="M131.572,142.043l6.425-1.9a.333.333,0,0,0-.177-.642l-6.425,1.9a.333.333,0,0,0,.177.642" transform="translate(-73.524 -46.615)" fill="#495edb"/>
        <path id="Trazado_819980" data-name="Trazado 819980" d="M173.37,125.78c.457-2.8.415-7.5-2.481-9.074-1.278-.7-2.789-.027-3.793.814-1.649,1.382-2.32,3.843-2.691,5.857-.5,2.729-.793,8.5,3.144,8.957,3.628.424,5.256-3.635,5.821-6.554.081-.419-.561-.6-.642-.177-.468,2.419-1.559,5.8-4.432,6.1-3.685.376-3.6-4.8-3.382-7.17.222-2.463,2.122-9.165,5.9-7.11,2.4,1.307,2.287,5.923,1.918,8.183-.069.42.573.6.642.177" transform="translate(-84.538 -38.904)" fill="#495edb"/>
        <path id="Trazado_819981" data-name="Trazado 819981" d="M157.932,361.458c.756-1.211-.541-3.089-1.2-3.79-1.954-2.071-3.974-3.883-7.795-4.067-1.4-.067-4.537.559-5.916.246-2.236-.5-3.144-16.145-3.144-16.145-8.874,1.2-18.365,2.589-18.365,2.589s5,20.086,6.348,21.446a5.616,5.616,0,0,0,5.608,1.847,60.4,60.4,0,0,1,7.518-1.355,14.542,14.542,0,0,1,6.286.74c.894.3,1.012,1.057,2.713.433.686-.254,2.374.709,3.081.491a7.071,7.071,0,0,0,1.357-.924c.184-.278,2.218.551,3.511-1.51" transform="translate(-70.299 -112.854)" fill="#ffd4d4"/>
        <path id="Trazado_819982" data-name="Trazado 819982" d="M88.744,239.1,88,243.535s4.683,3.573,13.31,4.56c1.726,8.381,9,37.963,9,37.963,6.286,1.479,15.715-.124,18.672-2.1-.122-9.244-3.635-30.813-4.621-32.663a15.988,15.988,0,0,0,6.779.372c2.711-8.26,6.039-17.257,7.271-20.708s2.466-4.93,5.424-6.162,12.819-5.546,10.846-21.447c6.287.863,15.532,2.342,15.532,2.342l-.246-26.376s-15.9-7.889-29.458-1.233c4.191,3.944,2.836,10.848-4.807,14.545s-18,.493-24.034-6.9a26.312,26.312,0,0,0-18.859,20.584c-2.465,12.694-4.067,32.785-4.067,32.785" transform="translate(-59.102 -58.621)" fill="#495edb"/>
        <path id="Trazado_819983" data-name="Trazado 819983" d="M88.258,238.828l-.739,4.437a.353.353,0,0,0,.152.376,18.745,18.745,0,0,0,3.579,1.981,31.611,31.611,0,0,0,3.977,1.451c.554.165,5.622,1.022,5.64,1.115.953,4.6,2.065,9.176,3.149,13.749q2.852,12.028,5.811,24.029a.331.331,0,0,0,.233.232,31.991,31.991,0,0,0,16.652-1.074,10.641,10.641,0,0,0,2.277-1.056c.433-.274.126-1.666.106-2.1-.107-2.35-.336-4.7-.587-7.036-.548-5.1-1.28-10.184-2.132-15.242-.332-1.97-.686-3.938-1.1-5.892a12.2,12.2,0,0,0-.786-2.851l-.376.489a16.33,16.33,0,0,0,6.956.372c.295-.069.367-.64.419-.8q.562-1.707,1.144-3.408,1.04-3.06,2.122-6.1c1.127-3.192,2.284-6.373,3.434-9.557,1.163-3.22,2.387-5.669,5.685-7.048a18.4,18.4,0,0,0,7.4-5.379c3.68-4.579,4.235-10.707,3.579-16.344l-.421.322c5.186.716,10.362,1.515,15.532,2.341a.338.338,0,0,0,.421-.321q-.123-13.188-.246-26.376a.329.329,0,0,0-.165-.288c-8.984-4.426-20.632-5.6-29.795-1.233a.336.336,0,0,0-.067.523,7.136,7.136,0,0,1,1.376,8.493c-1.638,3.4-5.392,5.6-8.909,6.538-7.676,2.055-15.97-2.027-20.837-7.859a.327.327,0,0,0-.324-.086,28.067,28.067,0,0,0-12.4,7.511c-4.473,4.672-6.262,10.537-7.315,16.767-1.644,9.724-2.669,19.585-3.456,29.413-.034.428.632.425.666,0,.358-4.47.808-8.933,1.3-13.391.449-4.06.955-8.115,1.551-12.157a60.263,60.263,0,0,1,2.439-11.6A26.006,26.006,0,0,1,108.9,186.8c.6-.246,1.2-.46,1.815-.662.937-.31,1.239.462,1.86,1.117a23.934,23.934,0,0,0,4.594,3.689A22.259,22.259,0,0,0,127.4,194.29c4.957.364,10.541-1.607,13.6-5.666,2.578-3.422,2.737-7.847-.421-10.953q-.033.261-.067.523c7.488-3.569,16.022-3.1,23.8-.775a37.218,37.218,0,0,1,5.2,1.951c.038.019-.049-.418-.044.2l.018,1.942q.113,12,.224,24l.421-.322c-5.17-.826-10.345-1.625-15.532-2.341-.189-.026-.449.083-.421.321.666,5.721.06,11.755-3.752,16.322-2.109,2.527-4.832,3.838-7.729,5.2a8.972,8.972,0,0,0-4.423,5.067c-1.091,2.608-1.949,5.341-2.9,8q-2.035,5.67-3.968,11.375c-.075.222-.581,2.047-.594,2.05a7.707,7.707,0,0,1-.982.125,18.974,18.974,0,0,1-5.546-.513.336.336,0,0,0-.376.489,19.69,19.69,0,0,1,1.16,4.878c.587,3.06,1.076,6.139,1.534,9.22.531,3.576.993,7.164,1.364,10.76q.231,2.242.384,4.491c.044.656.077,1.311.1,1.967.037.9.055,1.023-.763,1.418-3.42,1.651-7.667,2.017-11.4,2.1-.983.021-1.966-.021-2.946-.091-.316-.023-2.9-.313-2.88-.243l-.21-.856q-1.613-6.579-3.2-13.162c-1.922-7.961-3.924-15.919-5.584-23.941a.34.34,0,0,0-.321-.245,31.09,31.09,0,0,1-12.236-3.916q-.4-.242-.786-.511c-.256-.178.081-.01.037.259.034-.2.067-.4.1-.605l.633-3.8c.07-.42-.572-.6-.642-.177" transform="translate(-58.938 -58.44)" fill="#495edb"/>
        <path id="Trazado_819984" data-name="Trazado 819984" d="M105.108,272.859a.334.334,0,0,1-.326-.266c-2.045-10.107-4.271-19.826-5.414-23.637a.333.333,0,0,1,.638-.191c1.147,3.828,3.38,13.571,5.429,23.694a.334.334,0,0,1-.26.393.327.327,0,0,1-.067.007" transform="translate(-62.895 -83.053)"/>
        <path id="Trazado_819985" data-name="Trazado 819985" d="M140.467,273.958a.333.333,0,0,1-.327-.271,16.343,16.343,0,0,0-1.2-3.215,46.439,46.439,0,0,1-2.244-5.872c-.847-2.853-1.029-9.352-1.189-15.085-.1-3.514-.19-6.834-.425-8.757a.332.332,0,0,1,.29-.371.328.328,0,0,1,.371.29c.239,1.955.332,5.289.43,8.819.159,5.692.339,12.145,1.161,14.914a45.718,45.718,0,0,0,2.215,5.791,16.691,16.691,0,0,1,1.246,3.362.333.333,0,0,1-.266.389.328.328,0,0,1-.062.006" transform="translate(-74.834 -80.331)"/>
        <path id="Trazado_819986" data-name="Trazado 819986" d="M187.8,215.25a.333.333,0,0,1-.331-.3c0-.036-.374-3.6-.738-6.025a.333.333,0,0,1,.659-.1c.367,2.444.738,6.02.742,6.055a.332.332,0,0,1-.3.366l-.035,0" transform="translate(-92.094 -69.692)"/>
        <path id="Trazado_819987" data-name="Trazado 819987" d="M101.875,361.395a.333.333,0,0,1-.332-.316l-.431-8.442a.333.333,0,0,1,.665-.034l.431,8.443a.333.333,0,0,1-.316.349h-.017" transform="translate(-63.482 -117.727)"/>
        <path id="Trazado_819988" data-name="Trazado 819988" d="M101.719,356.869a.333.333,0,0,1-.071-.658l5.61-1.234a.333.333,0,0,1,.143.651l-5.61,1.233a.328.328,0,0,1-.072.008" transform="translate(-63.574 -118.624)"/>
        <path id="Trazado_819989" data-name="Trazado 819989" d="M159.466,373.588a.333.333,0,0,1-.1-.651c.081-.025.1-.059.111-.092a2.347,2.347,0,0,0-.474-1.378,7.926,7.926,0,0,0-4.951-2.935,8.813,8.813,0,0,0-2.513-.058,9.448,9.448,0,0,0-1.182.224c-.208.049-.417.1-.625.138a.333.333,0,0,1-.13-.652c.2-.041.4-.087.6-.134a10.066,10.066,0,0,1,1.276-.24,9.474,9.474,0,0,1,2.691.067,8.614,8.614,0,0,1,5.376,3.21c.092.138.814,1.258.555,1.983a.8.8,0,0,1-.541.5.333.333,0,0,1-.1.015" transform="translate(-79.598 -122.894)"/>
        <path id="Trazado_819990" data-name="Trazado 819990" d="M164.556,372.486a.333.333,0,0,1-.149-.631c.494-.247.7-.485.742-.85a2.357,2.357,0,0,0-.043-1.386,6.426,6.426,0,0,0-2.009-2.645,9.21,9.21,0,0,0-2.976-1.661,5.638,5.638,0,0,0-3.091-.289c-.479.033-.943.11-1.39.184s-.938.156-1.416.188a.329.329,0,0,1-.354-.31.334.334,0,0,1,.31-.355c.444-.029.9-.106,1.35-.18.463-.077.943-.157,1.423-.188a6.218,6.218,0,0,1,3.41.329,9.8,9.8,0,0,1,3.187,1.792,6.919,6.919,0,0,1,2.19,2.929,2.934,2.934,0,0,1,.065,1.709,1.722,1.722,0,0,1-1.1,1.327.33.33,0,0,1-.148.035" transform="translate(-81.113 -121.73)"/>
        <path id="Trazado_819991" data-name="Trazado 819991" d="M246.014,124.293l-1.663-6.656s4.312-11.214,6.654-11.585,5.055-1.85,4.192-6.04-2.96-3.2-2.96-3.2c-2.094-3.573-3.944-3.327-5.176-2.711-3.328-4.436-10.477-5.053-14.422,2.218s-2.588,21.2.125,37.469c4.191-2.834,13.25-9.49,13.25-9.49" transform="translate(-106.613 -30.342)" fill="#ffd4d4"/>
        <path id="Trazado_819992" data-name="Trazado 819992" d="M140.311,202.109a26.978,26.978,0,0,1-18.188-7.018.333.333,0,1,1,.444-.5A26.355,26.355,0,0,0,142,201.388c4.732-.315,9.019-1.954,10.919-4.176a16.341,16.341,0,0,0,3.387-9.371.347.347,0,0,1,.344-.321.333.333,0,0,1,.321.344,16.7,16.7,0,0,1-3.543,9.777c-2.015,2.356-6.482,4.086-11.383,4.412-.519.035-1.1.057-1.729.057" transform="translate(-70.467 -62.666)"/>
        <path id="Trazado_819993" data-name="Trazado 819993" d="M238.5,119.164c-2.4-.883-2.76-2.947-.794-4.585l10.621-8.851c1.966-1.639,3.93-.916,4.364,1.607l2.357,13.621c.437,2.523-1.172,3.862-3.574,2.98Z" transform="translate(-108.704 -35.039)" fill="#7db3db"/>
        <path id="Trazado_819994" data-name="Trazado 819994" d="M255.888,105.262c.125,2.206,1.409,2.7,2.328,2.145-.367,2.45,1.839,2.94,2.452,2.388s-.185-7.719-4.474-7.168a4.428,4.428,0,0,0-.307,2.635" transform="translate(-115.18 -34.286)" fill="#ffd4d4"/>
        <path id="Trazado_819995" data-name="Trazado 819995" d="M243.007,91.028c-5.608-1.561-10.846,2.85-12.5,11.214-.754,3.813-.553,8.965-.05,13.99a21.358,21.358,0,0,1,2.74.445l.342-6.53c1.563.46,8.456,1.379,9.468-2.389s-3.494-4.964-7.537-3.493c.459-2.022,1.47-5.423,4.044-6.343s4.136,5.7,7.078,4.045,2.021-9.375-3.584-10.938" transform="translate(-106.557 -30.316)" fill="#ffd4d4"/>
        <path id="Trazado_819996" data-name="Trazado 819996" d="M238.863,112.317a15.285,15.285,0,0,1-3.812-.457.333.333,0,0,1,.188-.639c1.165.343,5.3.917,7.6-.372a2.873,2.873,0,0,0,1.455-1.784,2.5,2.5,0,0,0-.621-2.683c-1.272-1.167-3.938-1.335-6.481-.411a.328.328,0,0,1-.334-.063.332.332,0,0,1-.1-.323c.842-3.707,2.235-5.86,4.256-6.582,1.431-.511,2.516.842,3.567,2.149,1.293,1.607,2.232,2.609,3.459,1.92a2.98,2.98,0,0,0,1.318-2.014,7.526,7.526,0,0,0-1.169-5.646.333.333,0,1,1,.552-.372A8.219,8.219,0,0,1,250,101.21a3.622,3.622,0,0,1-1.639,2.441c-1.808,1.019-3.135-.629-4.3-2.082-.947-1.177-1.842-2.288-2.824-1.939-1.688.6-2.9,2.412-3.692,5.524,2.59-.778,5.234-.5,6.581.737a3.134,3.134,0,0,1,.814,3.346,3.513,3.513,0,0,1-1.772,2.192,9.072,9.072,0,0,1-4.3.888" transform="translate(-108.162 -31.711)"/>
        <path id="Trazado_819997" data-name="Trazado 819997" d="M257.087,106.674a1.693,1.693,0,0,1-.292-.025c-.489-.086-1.324-.479-1.414-2.149a.333.333,0,1,1,.665-.036c.034.635.212,1.415.864,1.529.957.164,2.64-1.088,3.458-3.02a4.649,4.649,0,0,0-.3-3.7.333.333,0,1,1,.6-.286,5.241,5.241,0,0,1,.318,4.245c-.826,1.95-2.546,3.44-3.894,3.44" transform="translate(-115.036 -33.017)"/>
        <path id="Trazado_819998" data-name="Trazado 819998" d="M260.949,112.492a1.879,1.879,0,0,1-1.236-.433,2.635,2.635,0,0,1-.637-2.606.333.333,0,1,1,.654.125,2.021,2.021,0,0,0,.413,1.973,1.485,1.485,0,0,0,1.5.143.333.333,0,0,1,.228.625,2.681,2.681,0,0,1-.921.173" transform="translate(-116.244 -36.486)"/>
        <path id="Trazado_819999" data-name="Trazado 819999" d="M334.608,143.215l-49.5-28.58c-4.931-2.847-13-2.847-17.931,0l-49.5,28.58c-4.932,2.847-8.966,9.835-8.966,15.53v57.162c0,5.694,4.034,12.682,8.966,15.53l49.5,28.58c4.93,2.848,13,2.848,17.931,0l49.5-28.58c4.931-2.848,8.965-9.836,8.965-15.53V158.745c0-5.694-4.034-12.683-8.965-15.53" transform="translate(-99.438 -37.595)" fill="#def2ff"/>
        <path id="Trazado_820000" data-name="Trazado 820000" d="M328.078,191.317a33.772,33.772,0,1,0-48.24,30.521c3.691,2.242,3.7,5.153,3.539,10.351-.135,4.376-.431,7.9,1.586,9.753,1.61,1.764,5.183,2.992,9.343,2.992s7.733-1.228,9.344-2.992c2.017-1.852,1.721-5.377,1.585-9.753-.16-5.2-.15-8.109,3.539-10.351a33.775,33.775,0,0,0,19.3-30.521" transform="translate(-116.759 -52.649)" fill="#f2ac30"/>
        <path id="Trazado_820001" data-name="Trazado 820001" d="M328.282,191.148a34.517,34.517,0,0,0-23.258-32.342c-13.917-4.778-29.536.437-38.287,12.089-9.18,12.224-8.608,29.5.718,41.44a34.279,34.279,0,0,0,8.375,7.564c1.615,1.049,3.5,1.726,4.97,2.976a6.891,6.891,0,0,1,2.111,4.918c.331,3.913-.668,7.967.3,11.82.781,3.109,4.15,4.467,6.964,5.09,4.753,1.051,13.2.549,14.969-5.09,1.746-5.582-2.656-14.6,4.094-17.862a34.4,34.4,0,0,0,19.044-30.6.333.333,0,0,0-.666,0A33.481,33.481,0,0,1,308.9,221.176c-2.7,1.35-3.878,3.7-4.125,6.617-.341,4.026,1.115,8.863-.659,12.641-1.888,4.021-8.572,4.235-12.246,3.87a12.178,12.178,0,0,1-6.291-2.276c-1.76-1.392-2.028-3.507-2.093-5.61-.114-3.695.746-7.676-.4-11.272-1.015-3.19-4.356-4.2-6.924-5.822a33.445,33.445,0,0,1-15.225-31.885c1.63-15.917,15.1-28.464,30.905-29.65a33.443,33.443,0,0,1,35.771,33.359.333.333,0,0,0,.666,0" transform="translate(-116.63 -52.48)" fill="#f2ac30"/>
        <path id="Trazado_820002" data-name="Trazado 820002" d="M316.7,262.563a51.041,51.041,0,0,1-21.962,0,36.48,36.48,0,0,1,.052,4.721c-.134,4.376-.43,7.9,1.586,9.753,1.61,1.764,5.183,2.991,9.343,2.991s7.733-1.228,9.344-2.991c2.017-1.852,1.72-5.377,1.585-9.753a36.6,36.6,0,0,1,.052-4.721" transform="translate(-128.174 -87.744)" fill="#32015c"/>
        <path id="Trazado_820003" data-name="Trazado 820003" d="M316.374,262.076a51.49,51.49,0,0,1-21.785,0,.336.336,0,0,0-.421.321c.386,4.306-1.1,9.425.8,13.471,1.68,3.581,7.107,4.28,10.515,4.328,3.639.051,8.549-.868,10.517-4.328.89-1.565.848-3.641.841-5.376-.009-2.7-.285-5.4-.044-8.095.039-.427-.628-.423-.666,0-.358,4,.662,8.211-.323,12.136-1.041,4.147-6.822,4.948-10.326,5-3.686.052-9.055-.943-10.324-5a17.627,17.627,0,0,1-.329-5.674,54.206,54.206,0,0,0,.006-6.462l-.421.322a52.35,52.35,0,0,0,22.139,0c.419-.091.242-.733-.177-.643" transform="translate(-127.934 -87.578)" fill="#32015c"/>
        <path id="Trazado_820004" data-name="Trazado 820004" d="M296.426,241.907H296.4a.665.665,0,0,1-.642-.688,60.048,60.048,0,0,0-3.017-20.622,14.423,14.423,0,0,1-2.151.1c-6.491-.19-10.206-3.6-11.415-6.47-.762-1.8-.621-3.53.375-4.614.638-.694,2.194-1.7,5.45-.64,3.949,1.286,6.724,5.251,8.612,10.133a12.355,12.355,0,0,0,6.034-3.268,20.614,20.614,0,0,1-5.986-13.375c-.2-5.534,2.818-7.975,5.711-8.415a6.317,6.317,0,0,1,7.138,4.444c1.073,3.963-.438,11.581-4.4,16.6q-.276.35-.562.677a13.573,13.573,0,0,0,2.1,1.444,11.549,11.549,0,0,0,2.433,1.013c2.428-7.31,5.962-10.476,7.959-11.745a5.5,5.5,0,0,1,5.61-.4A4.429,4.429,0,0,1,322,209.969c.023,1.627-.778,4.838-6.391,8.074a12.67,12.67,0,0,1-8.59,1.761c-1.445,4.815-2.418,11.39-2.177,20.321a.667.667,0,0,1-.648.684.68.68,0,0,1-.684-.648c-.242-9.01.708-15.7,2.171-20.663a12.938,12.938,0,0,1-2.679-1.12,14.734,14.734,0,0,1-2.367-1.643,13.62,13.62,0,0,1-6.56,3.631,63.688,63.688,0,0,1,3.013,20.9.666.666,0,0,1-.665.643m-14.019-32.07a2.443,2.443,0,0,0-1.873.674,3,3,0,0,0-.13,3.2c1.056,2.5,4.368,5.484,10.228,5.655a12.983,12.983,0,0,0,1.625-.052c-1.8-4.494-4.327-7.986-7.666-9.073a7.183,7.183,0,0,0-2.185-.4m25.027,8.68a11.544,11.544,0,0,0,7.513-1.626c3.669-2.117,5.756-4.632,5.724-6.9a3.073,3.073,0,0,0-1.652-2.73,4.193,4.193,0,0,0-4.263.348c-1.474.937-4.9,3.78-7.323,10.911M300.349,195.3a5.105,5.105,0,0,0-.774.058c-2.325.352-4.749,2.39-4.579,7.05a19.2,19.2,0,0,0,5.569,12.463q.267-.307.5-.608c4.05-5.135,5.018-12.262,4.16-15.43a4.922,4.922,0,0,0-4.88-3.533" transform="translate(-122.827 -64.82)" fill="#32015c"/>
        <path id="Trazado_820005" data-name="Trazado 820005" d="M306.177,270a31.226,31.226,0,0,1-8.843-1.159.333.333,0,1,1,.188-.638c5.8,1.706,11.907,1.146,17.176.488a.337.337,0,0,1,.371.29.332.332,0,0,1-.289.371,69.225,69.225,0,0,1-8.6.648" transform="translate(-128.976 -89.623)"/>
        <path id="Trazado_820006" data-name="Trazado 820006" d="M231.194,246.478c-2.008,1.573-3.944.794-4.3-1.732l-1.931-13.641c-.358-2.527,1.284-3.812,3.65-2.859l12.778,5.146c2.366.953,2.659,3.019.651,4.591Z" transform="translate(-104.854 -76.171)" fill="#d4336e"/>
        <path id="Trazado_820007" data-name="Trazado 820007" d="M297.276,313.119a2.675,2.675,0,0,1-1.137-.24c-.557-.259-1.485-.979-1.443-2.888a5.083,5.083,0,0,1,3.049-4.344,9.176,9.176,0,0,1,1.009-.455,8.4,8.4,0,0,0-4.788-2.029,5.265,5.265,0,0,0-5.4,2.926.333.333,0,1,1-.6-.3,5.915,5.915,0,0,1,6.052-3.292,9.059,9.059,0,0,1,5.444,2.45,13.2,13.2,0,0,1,10.4,1.276.333.333,0,1,1-.364.558,12.458,12.458,0,0,0-9.527-1.291,6.229,6.229,0,0,1,1.234,2.151,4.06,4.06,0,0,1-1.24,4.379,4.183,4.183,0,0,1-2.691,1.1m2.005-7.414a8.967,8.967,0,0,0-1.226.531,4.474,4.474,0,0,0-2.694,3.77,2.217,2.217,0,0,0,1.059,2.27,3.059,3.059,0,0,0,3.108-.754,3.393,3.393,0,0,0,1.045-3.677,5.73,5.73,0,0,0-1.291-2.139" transform="translate(-125.914 -101.082)" fill="#495edb"/>
        <path id="Trazado_820008" data-name="Trazado 820008" d="M373.881,262.456a8.011,8.011,0,1,1-8.011-8.012,8.011,8.011,0,0,1,8.011,8.012" transform="translate(-149.282 -85.031)" fill="#7db3db"/>
        <path id="Trazado_820009" data-name="Trazado 820009" d="M376.355,172.247a3.881,3.881,0,0,1-5.44.74L364.88,168.4a3.883,3.883,0,0,1,4.7-6.182l6.034,4.588a3.884,3.884,0,0,1,.74,5.441" transform="translate(-151.117 -53.945)" fill="#ffc4c4"/>
        <path id="Trazado_820010" data-name="Trazado 820010" d="M255.925,272.676a3.881,3.881,0,0,1,4.886,2.5l2.326,7.215a3.883,3.883,0,0,1-7.392,2.382l-2.325-7.215a3.883,3.883,0,0,1,2.5-4.886" transform="translate(-114.319 -91.06)" fill="#ffc4c4"/>
        <path id="Trazado_820011" data-name="Trazado 820011" d="M238.515,183.65a5.6,5.6,0,1,1,5.6-5.6,5.608,5.608,0,0,1-5.6,5.6m0-10.539a4.936,4.936,0,1,0,4.936,4.936,4.942,4.942,0,0,0-4.936-4.936" transform="translate(-107.528 -57.628)" fill="#495edb"/>
        <path id="Trazado_820012" data-name="Trazado 820012" d="M284.057,143.664a13.41,13.41,0,0,1-3.661-.577.333.333,0,0,1,.182-.64c3.5,1,5.9.676,8.251-1.113a18.7,18.7,0,0,0,2.061-1.83,6.744,6.744,0,0,1-2.845-2.614,6.009,6.009,0,0,1-.484-5.016,3.237,3.237,0,0,1,2.274-2,4.051,4.051,0,0,1,4.275,2.239c1.238,2.471-.362,5.175-2.063,7.116a5.914,5.914,0,0,0,2.486.155,6.826,6.826,0,0,0,5.6-5.02.333.333,0,1,1,.643.172,7.49,7.49,0,0,1-6.148,5.508,6.576,6.576,0,0,1-3.079-.269,20.55,20.55,0,0,1-2.316,2.091,8.208,8.208,0,0,1-5.177,1.8m6.311-13.165a3.3,3.3,0,0,0-.41.025,2.551,2.551,0,0,0-1.78,1.6,5.293,5.293,0,0,0,.435,4.417,6.042,6.042,0,0,0,2.759,2.446c1.78-1.985,3.181-4.506,2.128-6.61a3.336,3.336,0,0,0-3.133-1.877" transform="translate(-123.316 -43.39)" fill="#f2ac30"/>
        <path id="Trazado_820013" data-name="Trazado 820013" d="M413.417,235.57a55.125,55.125,0,0,0-2.622-10.029c-.738-1.914-.2-3.111-3.069-4.775s-6.379-4.623-7.026-4.9-1.663-4.251-5.454-.739-7.948,3.79-8.965.461c-1.941-.369-3.051-1.94-2.5-3.05s4.992-4.159,4.992-4.159c-2.219,1.2-6.1,1.478-6.655-.184s1.294-2.96,4.437-3.883,15.716-6.564,19.134-4.437,8.876,6.748,12.758,9.337,5.269,6.747,7.118,11.647,3.328,10.076,3.328,10.076-4.849,8.519-15.479,4.636" transform="translate(-157.358 -66.635)" fill="#ffd4d4"/>
        <path id="Trazado_820014" data-name="Trazado 820014" d="M386.814,221.972a2.574,2.574,0,0,1-2.228-1.21.333.333,0,1,1,.549-.378c1.209,1.757,3.279.712,5.472-.617l.441-.265c.167-.087.322-.164.476-.24a5.968,5.968,0,0,0,1.488-.92.333.333,0,1,1,.456.485,6.531,6.531,0,0,1-1.65,1.032c-.15.074-.3.148-.446.225l-.42.253a8.983,8.983,0,0,1-4.139,1.635" transform="translate(-158.195 -72.936)"/>
        <path id="Trazado_820015" data-name="Trazado 820015" d="M385.136,213.318a4.393,4.393,0,0,1-1.133-.143.333.333,0,1,1,.169-.644,5.867,5.867,0,0,0,2.6-.079c.212-.039.428-.077.647-.112a13.866,13.866,0,0,0,2.205-.717c.166-.085.34-.164.514-.242s.332-.151.512-.241c.124-.063.246-.138.373-.217a3.473,3.473,0,0,1,.856-.422.333.333,0,1,1,.183.64,2.943,2.943,0,0,0-.689.349c-.143.089-.284.175-.424.245-.188.1-.362.174-.535.252s-.331.151-.513.241a14.5,14.5,0,0,1-2.356.766c-.237.038-.447.076-.655.114a9.856,9.856,0,0,1-1.759.211" transform="translate(-157.937 -70.34)"/>
        <path id="Trazado_820016" data-name="Trazado 820016" d="M410.66,198.112a2.86,2.86,0,0,1,.8,3.947l-7.671,11.549a2.854,2.854,0,0,1-3.944.8l-11.551-7.67a2.857,2.857,0,0,1-.8-3.946l7.67-11.549a2.855,2.855,0,0,1,3.945-.8Z" transform="translate(-159.029 -63.485)" fill="#495edb"/>
        <path id="Trazado_820017" data-name="Trazado 820017" d="M507.383,152.218c-17.13.91-14.177,15.033-12.808,19.65,1.252,4.225-4.565,7.75-1.6,12.967s8.207,8.043,16.343,8.415c0,0-.4,9.06-.772,12.016l17.011-1.109c-.713-5.24-2.249-16.107-.155-20.152.852-1.645,5.995,5.264,11.461-3.142s-12.354-29.553-29.482-28.645" transform="translate(-194.152 -50.859)" fill="#ffd4d4"/>
        <path id="Trazado_820018" data-name="Trazado 820018" d="M517.763,211.624a.333.333,0,0,1-.019-.665,21.432,21.432,0,0,0,11.666-4.479.333.333,0,0,1,.415.521,22.115,22.115,0,0,1-12.043,4.623h-.019" transform="translate(-202.609 -68.978)"/>
        <path id="Trazado_820019" data-name="Trazado 820019" d="M518.325,184.709c1.7-.086,2.527,3.247.874,3.458s-2.27-3.388-.874-3.458" transform="translate(-202.649 -61.726)"/>
        <path id="Trazado_820020" data-name="Trazado 820020" d="M518.126,184.9a.329.329,0,0,1-.136-.029l-.1-.046a4.419,4.419,0,0,1-1.6-.975.333.333,0,0,1,.514-.424,4.186,4.186,0,0,0,1.36.792l.1.046a.333.333,0,0,1-.137.636" transform="translate(-202.201 -61.258)"/>
        <path id="Trazado_820021" data-name="Trazado 820021" d="M499.343,182.22c1.7-.025,2.406,3.336.746,3.486s-2.146-3.468-.746-3.486" transform="translate(-196.29 -60.895)"/>
        <path id="Trazado_820022" data-name="Trazado 820022" d="M499.166,182.4a.341.341,0,0,1-.149-.035l-.112-.056a4.37,4.37,0,0,1-1.551-1.027.332.332,0,0,1,.528-.4,4.16,4.16,0,0,0,1.319.835l.113.056a.333.333,0,0,1-.148.631" transform="translate(-195.877 -60.402)"/>
        <path id="Trazado_820023" data-name="Trazado 820023" d="M505.99,190.038a4.329,4.329,0,0,1-3.109-.962c-1.177-1.053-.483-2.331-.023-3.177a8.842,8.842,0,0,0,1.326-4.217,3.921,3.921,0,0,0-1.235-2.734l-.3-.372a.333.333,0,1,1,.519-.417l.3.366a4.545,4.545,0,0,1,1.387,3.145,9.439,9.439,0,0,1-1.407,4.547c-.545,1-.848,1.71-.118,2.364a4.462,4.462,0,0,0,3.349.781c.19,0,.379-.009.569-.011h0a.333.333,0,0,1,0,.666c-.186,0-.372.006-.557.011-.233.005-.467.011-.7.011" transform="translate(-197.53 -59.496)"/>
        <path id="Trazado_820024" data-name="Trazado 820024" d="M509.369,201.021c-1,0-1.91-.876-2.709-2.6a.334.334,0,0,1,.033-.335.34.34,0,0,1,.308-.136,9.453,9.453,0,0,0,5.4-2.206.333.333,0,0,1,.573.289c-.415,2.073-1.806,4.992-3.6,4.992m-1.876-2.419c.606,1.15,1.249,1.753,1.876,1.753,1.118,0,2.16-1.793,2.693-3.471a11.716,11.716,0,0,1-4.569,1.718" transform="translate(-198.999 -65.376)"/>
        <path id="Trazado_820025" data-name="Trazado 820025" d="M514.793,177.374c-.46-1.155.667-2.459,2.747-1.581a8.444,8.444,0,0,1,3.807,3.525c.74,1.386-.14.579-1.018-.113a6.057,6.057,0,0,0-4.245-1.457c-.762.016-1.2.088-1.29-.374" transform="translate(-201.693 -58.651)" fill="#d4336e"/>
        <path id="Trazado_820026" data-name="Trazado 820026" d="M521.39,180.247c-.252,0-.533-.218-1.147-.71l-.292-.233a5.683,5.683,0,0,0-3.862-1.387l-.411.009c-.122,0-.234.007-.335.007-.3,0-.913,0-1.046-.654a1.589,1.589,0,0,1,.167-1.489c.545-.8,1.749-1.008,3.035-.465A8.718,8.718,0,0,1,521.47,179c.319.6.381.854.258,1.06a.453.453,0,0,1-.338.188m-5.3-3a6.364,6.364,0,0,1,4.274,1.53l.3.236.1.083a8.164,8.164,0,0,0-3.523-3.163c-.987-.416-1.86-.313-2.226.226a.976.976,0,0,0-.082.925c.032.133.041.178.41.178.1,0,.2,0,.316-.007Z" transform="translate(-201.524 -58.489)" fill="#d4336e"/>
        <path id="Trazado_820027" data-name="Trazado 820027" d="M489.923,152.722c1.479-2.526,7.4-8.875,15.653-12.388,0,7.766,4.127,19.844,13.681,20.151-.308,3.206-.678,5.547.122,5.855s3.452-1.417,3.883-5.238c2.282-2.464,7.763-1.665,9,2.219s-2.527,9.921-9.428,7.149c-1.109-.185-2.466,1.849-2.219,6.285,5.608.617,11.771-1.356,15.161-7.148s2.772-12.878-.742-18.55-4.19-7.951-3.511-10.847c10.23,2.1,16.584-5.059,15.2-14.117s-10.093-14.647-19.891-12.151-12.568,14.065-2.663,20.807c-1.388,1.571-5.648.038-11.009-2.457s-21.329-6.142-29.212,6.195c-8.073,12.633,3.883,20.89,6.933,20.059a16.985,16.985,0,0,1-.955-5.824" transform="translate(-190.499 -37.878)" fill="#d4336e"/>
        <path id="Trazado_820028" data-name="Trazado 820028" d="M550.985,287.438c-6.287-14.543-8.381-23.171-14.42-38.207s-17.132-15.037-23.788-15.777-8.8-3.771-9.173-8.7c-13.681,5.054-16.341-1.406-16.587-.913-1.172,7.273-3.452,7.272-11.342,6.162s-17.994,11.709-26.128,22.186c0,0-4.931-13.867-6.164-15.962-6.47,5.639-11.768,5.035-15.744,3.742,0,0,1.727,6.12,2.736,10.371-7.943,2.681,1.593,23.933,5.8,32.107,7.7,14.976,21.127,10.521,31.359-5.009,2.479,2.564,5.26,5.178,5.385,6.411a68.261,68.261,0,0,1-.567,11.355c-.615,3.7-3.7,14.3-3.7,14.667s3.943,9.984,3.943,9.984,38.7.74,38.58,6.286c5.916-.863,25.637.37,37.346-5.3s8.75-18.857,2.464-33.4m-30.074,16.517,1.6-17.5,4.437,17.009Z" transform="translate(-172.493 -74.794)" fill="#7db3db"/>
        <path id="Trazado_820029" data-name="Trazado 820029" d="M551.094,287.106c-3.475-8.067-6.369-16.336-9.3-24.608q-2.306-6.5-4.841-12.915a29.818,29.818,0,0,0-5.869-9.68c-3.711-3.92-8.784-5.78-14.032-6.465-2.672-.349-5.412-.394-7.992-1.238-3.519-1.15-5-4.121-5.3-7.612a.337.337,0,0,0-.422-.321c-4.6,1.665-11.367,3.577-15.512-.2-.283-.258-.873-1.118-1.274-.558a7.613,7.613,0,0,0-.431,2.085,10.762,10.762,0,0,1-.694,2.04,3.9,3.9,0,0,1-2.609,2.214c-2.81.77-5.794-.463-8.616-.4-2.878.061-5.585,1.743-7.824,3.39-6.847,5.034-12.08,12.309-17.242,18.955l.557.147q-1.313-3.692-2.682-7.363a59.609,59.609,0,0,0-3.516-8.679.338.338,0,0,0-.523-.068c-4.534,3.857-9.668,5.484-15.42,3.657a.335.335,0,0,0-.409.409c.97,3.441,1.9,6.894,2.736,10.371.079-.136.156-.273.233-.409-4.4,1.617-3.428,7.672-2.689,11.234,1.3,6.277,3.93,12.328,6.671,18.095,2.593,5.458,5.924,11.474,12.467,12.517,6.707,1.07,12.828-4.1,16.929-8.751a51.331,51.331,0,0,0,4.153-5.508l-.523.068c1.075,1.107,2.167,2.2,3.225,3.323.8.848,2.012,1.929,2.085,3.166a56.989,56.989,0,0,1-.141,6.728,67.716,67.716,0,0,1-2.716,13.555c-.443,1.645-.912,3.284-1.33,4.936a3.423,3.423,0,0,0,.459,2.115c1.089,2.832,2.245,5.639,3.4,8.447a.344.344,0,0,0,.321.244c6.068.118,12.142.45,18.19.963a110.421,110.421,0,0,1,13.381,1.78c1.44.3,6.638,1.067,6.675,3.211a.34.34,0,0,0,.422.321c5.474-.759,11.132-.459,16.642-.852,6.773-.483,13.747-1.382,20.017-4.125,14.267-6.243,7.956-23.5,3.35-34.214-.169-.394-.742-.054-.575.336,2.759,6.419,5.524,13.377,5.469,20.474a14.4,14.4,0,0,1-2.36,8.038c-1.909,2.816-5.047,4.412-8.146,5.568-6.351,2.371-13.317,3.009-20.034,3.406-4.82.285-9.752.063-14.54.727l.421.322c-.043-2.493-4.673-3.281-6.406-3.686a103.681,103.681,0,0,0-14.97-2.025c-4.659-.388-9.331-.637-14-.8q-1.652-.059-3.3-.1c-.477-.011.188.477-.034-.064q-.586-1.433-1.167-2.868-.969-2.387-1.913-4.784c-.278-.708-.8-1.639-.652-2.252.848-3.443,1.869-6.843,2.728-10.284a54.006,54.006,0,0,0,1.492-11.962c.029-1.172.347-2.99-.212-4.092-1.181-2.332-3.51-4.174-5.3-6.018a.337.337,0,0,0-.523.067C463.1,283.062,457.532,289.643,450.1,291c-7.164,1.306-11.766-4.74-14.583-10.409a99.561,99.561,0,0,1-6.706-16.7c-.994-3.461-3.35-11.62,1.479-13.394a.341.341,0,0,0,.232-.41c-.833-3.476-1.766-6.93-2.736-10.371l-.409.409c5.992,1.9,11.352.186,16.068-3.828l-.523-.067a60.813,60.813,0,0,1,3.573,8.854q1.3,3.5,2.557,7.028c.075.208.389.362.557.147,5.235-6.741,10.528-14.014,17.469-19.117,2.811-2.067,5.761-3.336,9.273-2.854,2.331.319,5.05.858,7.323-.022,1.871-.724,2.628-2.7,3.091-4.5.164-.637.519-1.378,0-1.814.105.089.2.194.295.293a8.992,8.992,0,0,0,1.109.945c4.35,3.163,10.825,1.35,15.348-.285l-.422-.322c.214,2.5.881,4.88,2.8,6.6,2.133,1.914,5.2,2.286,7.925,2.557,5.571.554,10.931,1.57,15.352,5.27a25.667,25.667,0,0,1,6.9,10.136c1.828,4.453,3.472,8.986,5.084,13.521,2.961,8.325,5.872,16.646,9.37,24.766.169.394.742.054.575-.336" transform="translate(-172.314 -74.63)" fill="#7db3db"/>
        <path id="Trazado_820030" data-name="Trazado 820030" d="M568.054,335.23l1.6-17.5-.654.089,4.437,17.009.321-.421-6.039.493c-.425.035-.429.7,0,.666l6.039-.493a.339.339,0,0,0,.322-.421q-2.219-8.505-4.437-17.009a.335.335,0,0,0-.655.089l-1.6,17.5c-.039.428.627.424.666,0" transform="translate(-219.303 -106.07)" fill="#7db3db"/>
        <path id="Trazado_820031" data-name="Trazado 820031" d="M456.262,353.957c2.713-2.589,9.244-7.149,10.847-4.808a5.648,5.648,0,0,1,4.19-1.355c1.849-1.972,4.069-2.466,6.286.123s8.873,8.134,9.984,9.244,9.738.862,29.089-3.328c3.943,1.6,4.156,12.762,4.156,12.762-7.184.455-60.1.2-60.1.2Z" transform="translate(-182.167 -115.674)" fill="#ffd4d4"/>
        <path id="Trazado_820032" data-name="Trazado 820032" d="M483.126,361.407a.333.333,0,0,1-.238-.1l-.091-.093a.324.324,0,0,1-.081-.136,5.866,5.866,0,0,1-.637-1.449c-.173-.345-.334-.689-.494-1.033s-.326-.7-.513-1.071c-.405-.627-.785-1.338-1.152-2.026-.288-.541-.584-1.1-.9-1.623-.477.557-.988,1.094-1.485,1.617a29.194,29.194,0,0,0-2.093,2.363l-.119.159c-.824,1.109-2.358,3.17-4.287,2.053a2.032,2.032,0,0,1-1.051-1.266,4.363,4.363,0,0,1,.653-3.071c.473-.758.993-1.491,1.5-2.2s1.01-1.423,1.467-2.153c.248-.373.47-.757.693-1.141a10.6,10.6,0,0,1,1.573-2.246.333.333,0,1,1,.471.471,9.956,9.956,0,0,0-1.467,2.109c-.23.4-.459.792-.71,1.168-.461.738-.981,1.471-1.483,2.178s-1.013,1.427-1.47,2.158a3.815,3.815,0,0,0-.583,2.545,1.38,1.38,0,0,0,.734.866c1.322.764,2.376-.447,3.43-1.867l.122-.164a29.705,29.705,0,0,1,2.142-2.42c.621-.653,1.209-1.27,1.75-1.935a.333.333,0,0,1,.538.03c.424.659.8,1.37,1.169,2.057s.733,1.376,1.142,2.011c.208.409.373.764.539,1.119.158.338.316.677.5,1.038a.544.544,0,0,1,.025.065,4.594,4.594,0,0,0,.676,1.448.333.333,0,0,1-.26.541" transform="translate(-186.722 -116.259)"/>
        <path id="Trazado_820033" data-name="Trazado 820033" d="M462.987,359.653a2.675,2.675,0,0,1-2.136-.954c-1.22-1.7.549-3.471,1.13-4.052a31.994,31.994,0,0,1,6.636-4.492.333.333,0,1,1,.325.581,31.485,31.485,0,0,0-6.5,4.387c-1.325,1.324-1.666,2.334-1.067,3.171a2.475,2.475,0,0,0,3,.358,14.037,14.037,0,0,0,2.784-1.885l.439.5a14.6,14.6,0,0,1-2.936,1.984,3.82,3.82,0,0,1-1.679.4" transform="translate(-183.56 -117.002)"/>
        <path id="Trazado_820034" data-name="Trazado 820034" d="M457.946,363.5a.333.333,0,0,1-.046-.662,3.816,3.816,0,0,0,1.845-.83.333.333,0,1,1,.471.471,4.44,4.44,0,0,1-2.223,1.019.367.367,0,0,1-.047,0" transform="translate(-182.619 -120.945)"/>
        <path id="Trazado_820035" data-name="Trazado 820035" d="M487.585,293.492a.332.332,0,0,1-.227-.09,13.122,13.122,0,0,1-2.972-4.755c-1.954-6.116-.387-12.477,1.6-18.441.108-.324-.422-.918-.772-1.31-.136-.154-.266-.3-.366-.429-.35-.594-.676-1.153-1-1.711a.333.333,0,1,1,.576-.334q.485.839.975,1.673c.068.084.186.217.313.357.505.568,1.137,1.275.907,1.965-1.95,5.857-3.492,12.093-1.595,18.028a12.58,12.58,0,0,0,2.792,4.472.333.333,0,0,1-.227.576" transform="translate(-191.266 -88.978)"/>
        <path id="Trazado_820036" data-name="Trazado 820036" d="M433.922,262.391a6.273,6.273,0,0,1-3.262-.672.333.333,0,1,1,.366-.557c2,1.318,9.036.488,14.665-3.353a.333.333,0,0,1,.376.55,22.881,22.881,0,0,1-12.145,4.032" transform="translate(-173.561 -86.136)"/>
        <path id="Trazado_820037" data-name="Trazado 820037" d="M463.212,274.287a.333.333,0,0,1-.326-.27,42.157,42.157,0,0,0-2.875-9.208.333.333,0,1,1,.619-.246,42.693,42.693,0,0,1,2.91,9.328.333.333,0,0,1-.264.39.339.339,0,0,1-.063.006" transform="translate(-183.412 -88.342)"/>
        <path id="Trazado_820038" data-name="Trazado 820038" d="M571.409,323.887a.334.334,0,0,1-.32-.24c-.519-1.8-1.075-3.874-1.663-6.066-1.175-4.381-2.506-9.347-3.915-13.49-2.031-5.971-3.659-12.053-5.426-18.815a.333.333,0,0,1,.238-.406.329.329,0,0,1,.406.238c1.763,6.748,3.388,12.818,5.412,18.768,1.416,4.163,2.75,9.141,3.928,13.533.587,2.189,1.141,4.255,1.659,6.053a.333.333,0,0,1-.227.412.319.319,0,0,1-.092.013" transform="translate(-216.86 -95.194)"/>
        <path id="Trazado_820039" data-name="Trazado 820039" d="M546.376,352.618a.327.327,0,0,1-.232-.1.406.406,0,0,1-.1-.4.429.429,0,0,1,.367-.215.247.247,0,0,0,.093-.011.371.371,0,0,1,.068-.026c.146-.037.294-.09.447-.144a5.493,5.493,0,0,1,.768-.23,10.158,10.158,0,0,0,1.471-.353l.352-.1c.313-.055.588-.079.853-.1.115-.01.227-.02.336-.031-.018-.043-.037-.084-.055-.126a4.306,4.306,0,0,1-.537-2.531,5.025,5.025,0,0,1,2.369-3.087,14.479,14.479,0,0,1,5.589-1.633c.369-.056.735-.111,1.1-.171a44.327,44.327,0,0,1,4.676-.416c.762-.041,1.524-.081,2.286-.141,1.818-.093,3.688-.187,5.571-.187h4.068a.333.333,0,0,1,0,.666H571.8c-1.867,0-3.728.094-5.528.185-.759.061-1.527.1-2.294.142a43.743,43.743,0,0,0-4.6.409c-.362.061-.732.117-1.1.172a14,14,0,0,0-5.334,1.537,4.384,4.384,0,0,0-2.066,2.633,3.759,3.759,0,0,0,.491,2.153c.079.18.158.359.229.537a.333.333,0,0,1-.244.451,7.524,7.524,0,0,1-.818.1c-.249.021-.506.043-.764.087l-.312.092a10.552,10.552,0,0,1-1.546.37,4.8,4.8,0,0,0-.657.2c-.164.058-.321.113-.477.155a.77.77,0,0,1-.211.057.335.335,0,0,1-.181.053" transform="translate(-212.165 -114.496)"/>
        <path id="Trazado_820040" data-name="Trazado 820040" d="M559.06,368.486a.333.333,0,0,1-.333-.333,19.641,19.641,0,0,0-1.18-6.908l-.162-.456a12.572,12.572,0,0,0-1.465-3.169,7.674,7.674,0,0,0-2.75-2.3.333.333,0,1,1,.319-.584,8.3,8.3,0,0,1,2.986,2.516,13.114,13.114,0,0,1,1.539,3.316l.159.448a20.182,20.182,0,0,1,1.22,6.928c0,.007,0,.016,0,.025v.185a.333.333,0,0,1-.333.333" transform="translate(-214.494 -118.532)"/>
        <path id="Trazado_820041" data-name="Trazado 820041" d="M505.986,320.125h-.019a.332.332,0,0,1-.313-.352,35.257,35.257,0,0,1,1.7-6.249,26.954,26.954,0,0,0,1.145-3.5c.142-.512.286-1.028.444-1.549a59.9,59.9,0,0,0,2.694-11.761,18.782,18.782,0,0,0,.368-3.665,10.456,10.456,0,0,0-.721-3.344c-.224-.709-.457-1.411-.691-2.117-.541-1.633-1.1-3.322-1.537-5.058a35.119,35.119,0,0,1-1.24-7.2,12.8,12.8,0,0,1,.14-2.848c.039-.305.077-.611.107-.916l.031-.31c.117-1.178.239-2.4.467-3.542.19-.638.342-1.246.493-1.854s.313-1.248.5-1.875a26.843,26.843,0,0,1,.925-2.684c.143-.372.29-.752.436-1.155.411-1.3.78-2.627,1.17-4.031.3-1.067.6-2.145.919-3.222.117-.59.274-1.218.425-1.824s.308-1.232.43-1.844c.078-.281.14-.524.2-.764a11.118,11.118,0,0,1,.558-1.768.333.333,0,1,1,.611.262,10.625,10.625,0,0,0-.524,1.669c-.063.246-.126.5-.2.756-.118.6-.278,1.236-.431,1.85s-.3,1.218-.425,1.824c-.329,1.1-.628,2.176-.923,3.239-.375,1.348-.762,2.741-1.181,4.067-.153.42-.3.8-.445,1.18a26.457,26.457,0,0,0-.907,2.629c-.186.621-.343,1.246-.495,1.852s-.31,1.236-.495,1.853c-.214,1.084-.334,2.285-.449,3.447l-.031.311c-.031.311-.069.622-.109.932a12.1,12.1,0,0,0-.138,2.7,34.67,34.67,0,0,0,1.219,7.083c.434,1.73.991,3.408,1.528,5.029.236.709.469,1.414.692,2.119a11.091,11.091,0,0,1,.754,3.551,19.253,19.253,0,0,1-.375,3.763,60.38,60.38,0,0,1-2.715,11.858c-.157.515-.3,1.026-.439,1.533a28.212,28.212,0,0,1-1.174,3.587,34.944,34.944,0,0,0-1.644,6.026.333.333,0,0,1-.332.314" transform="translate(-198.673 -82.373)"/>
        <path id="Trazado_820042" data-name="Trazado 820042" d="M525.518,240.111a3.214,3.214,0,0,1-2.636-1.563,10.918,10.918,0,0,1-1.829-5.406c-.057-.381-.116-.77-.182-1.157-.511.869-1.029,1.73-1.6,2.584l-.156.237c-.8,1.21-2.284,3.464-3.962,3.673a2.126,2.126,0,0,1-1.743-.614c-1.333-1.238-1.237-2.808-1.143-4.326l.017-.284a.333.333,0,1,1,.665.039l-.017.285c-.088,1.427-.171,2.774.929,3.8a1.468,1.468,0,0,0,1.211.442c1.373-.171,2.8-2.338,3.488-3.379l.158-.24c.724-1.086,1.372-2.194,2-3.265a.371.371,0,0,1,.352-.184.327.327,0,0,1,.287.234c.152.681.256,1.382.357,2.059a10.283,10.283,0,0,0,1.707,5.111,2.446,2.446,0,0,0,3.034,1.1,22.191,22.191,0,0,0,3.925-1.823,12.9,12.9,0,0,0,3.153-2.7.333.333,0,0,1,.512.427A13.569,13.569,0,0,1,530.726,238a22.758,22.758,0,0,1-4.038,1.879,3.14,3.14,0,0,1-1.17.236" transform="translate(-200.867 -77.112)"/>
        <path id="Trazado_820043" data-name="Trazado 820043" d="M522.616,244.269a1.346,1.346,0,0,1-.242-.022,1.116,1.116,0,0,1-.911-.917,1.675,1.675,0,0,1,.579-1.739,1.6,1.6,0,0,1,1.756-.1.333.333,0,0,1,.165.37,1.193,1.193,0,0,1,.17.374,1.659,1.659,0,0,1-.228,1.319,1.552,1.552,0,0,1-1.289.712m.359-2.326a.872.872,0,0,0-.532.178,1.01,1.01,0,0,0-.33,1.069.455.455,0,0,0,.379.4.892.892,0,0,0,.864-.411,1,1,0,0,0,.133-.77.444.444,0,0,0-.259-.318.333.333,0,0,1-.16-.145.911.911,0,0,0-.1,0" transform="translate(-203.94 -80.631)"/>
        <path id="Trazado_820044" data-name="Trazado 820044" d="M517.917,270.307a1.429,1.429,0,0,1-.949-.414,1.606,1.606,0,0,1-.471-1.279,2.161,2.161,0,0,1,.862-1.548,1.1,1.1,0,0,1,1.28-.066.368.368,0,0,1,.151.113.9.9,0,0,1,.614.791,2.411,2.411,0,0,1-.947,2.262,1.122,1.122,0,0,1-.539.141m.073-2.816a.386.386,0,0,0-.232.108,1.507,1.507,0,0,0-.6,1.061.934.934,0,0,0,.262.748c.4.348.633.218.71.174a1.781,1.781,0,0,0,.612-1.572c-.009-.056-.046-.24-.138-.258a.334.334,0,0,1-.211-.133l0,0a1.322,1.322,0,0,0-.4-.127" transform="translate(-202.295 -89.168)"/>
        <path id="Trazado_820045" data-name="Trazado 820045" d="M516.054,297.794a1.161,1.161,0,0,1-.9-.5,2.247,2.247,0,0,1-.351-1.609,1.287,1.287,0,0,1,.515-.914.334.334,0,0,1,.316-.029.318.318,0,0,1,.348-.3,1.334,1.334,0,0,1,1.3,1.133,2.047,2.047,0,0,1-.839,2.135.906.906,0,0,1-.39.088m-.216-2.718a.333.333,0,0,1-.147.248.662.662,0,0,0-.226.461,1.6,1.6,0,0,0,.209,1.087c.18.219.342.3.484.232a1.455,1.455,0,0,0,.472-1.4.665.665,0,0,0-.677-.6.35.35,0,0,1-.115-.026" transform="translate(-201.723 -98.395)"/>
        <path id="Trazado_820046" data-name="Trazado 820046" d="M517.812,337.543a.865.865,0,0,1-.475-.14,2.178,2.178,0,0,1-.593-2.109,3.683,3.683,0,0,0,.36-.5.581.581,0,0,0,.169-.171,1.321,1.321,0,0,1,.117-.138.306.306,0,0,1,.085-.062,1.186,1.186,0,0,1,1.4.339,1.762,1.762,0,0,1-.207,2.433,1.424,1.424,0,0,1-.857.35m-.411-2.155a.332.332,0,0,1-.007.05c-.1.468.017,1.223.3,1.4.152.1.388-.037.558-.168a1.1,1.1,0,0,0,.132-1.465.592.592,0,0,0-.561-.212c-.008.01-.016.02-.023.031a1.176,1.176,0,0,1-.4.36l0,0" transform="translate(-202.362 -111.721)"/>
        <path id="Trazado_820047" data-name="Trazado 820047" d="M427.681,214.46c-1.294-1.418-4.561-3.143-7.456-4.562-2.457-1.2-5.733,1.048-2.22,4.807s10.108,5.607,10.108,5.607" transform="translate(-168.869 -70.036)" fill="#ffd4d4"/>
        <path id="Trazado_820048" data-name="Trazado 820048" d="M427.944,220.479a.324.324,0,0,1-.09-.013c-.273-.077-6.725-1.917-10.262-5.7-2.329-2.493-1.6-4.084-1.181-4.652a3.064,3.064,0,0,1,3.79-.682c2.8,1.371,6.188,3.137,7.556,4.636a.333.333,0,1,1-.491.449c-1.307-1.432-4.826-3.247-7.357-4.486a2.427,2.427,0,0,0-2.963.479c-.67.9-.246,2.326,1.133,3.8,3.41,3.649,9.889,5.5,9.955,5.514a.333.333,0,0,1-.09.654" transform="translate(-168.7 -69.868)"/>
        <path id="Trazado_820049" data-name="Trazado 820049" d="M457.782,349.45H431.5l-10.576-30.891a7.77,7.77,0,0,0-6.855-4.9H369.186a3.475,3.475,0,0,0-3.5,4.9l10.895,31.821c1.193,3.089,1.332,5.632,4.429,5.632h76.772a3.281,3.281,0,0,0,0-6.563" transform="translate(-151.811 -104.82)" fill="#f2ac30"/>
        <path id="Trazado_820050" data-name="Trazado 820050" d="M457.635,348.894H431.614c-.515,0,.131.455-.01.043l-1.2-3.507L425.531,331.2q-2.046-5.973-4.09-11.945c-1.194-3.489-3.946-6.147-7.836-6.147H374.227c-2.257,0-5.294-.466-7.408.519-3.4,1.583-1.2,5.958-.355,8.437l4.846,14.154q2.143,6.262,4.287,12.523c.981,2.862,1.555,7.384,5.315,7.384h76.708c4.707,0,4.633-6.918.017-7.229-.43-.029-.426.637,0,.666,4.065.274,3.579,5.9-.318,5.9H380.984c-2.955,0-3.46-3.141-4.235-5.4l-.9-2.639q-4.6-13.433-9.2-26.866l-.787-2.3c-.994-2.9,1.192-4.476,3.789-4.476h39.939c3.8,0,7.381-.374,10.052,3.113a11.712,11.712,0,0,1,1.446,3.385q.946,2.761,1.891,5.523,4.026,11.761,8.054,23.523a.34.34,0,0,0,.321.244h26.283a.333.333,0,0,0,0-.666" transform="translate(-151.663 -104.598)" fill="#f2ac30"/>
        <path id="Trazado_820051" data-name="Trazado 820051" d="M434.817,369.268h-52.2a.333.333,0,1,1,0-.666h52.2a.333.333,0,0,1,0,.666" transform="translate(-157.445 -123.18)"/>
        <path id="Trazado_820052" data-name="Trazado 820052" d="M411.2,347.9c-2.278,0-4.785-2.258-5.587-5.035a4.628,4.628,0,0,1,.459-4.078,2.869,2.869,0,0,1,2.358-1.141c2.28,0,4.785,2.259,5.586,5.036a4.63,4.63,0,0,1-.46,4.078A2.868,2.868,0,0,1,411.2,347.9m-2.77-9.589a2.192,2.192,0,0,0-1.826.875,3.986,3.986,0,0,0-.352,3.494c.725,2.512,2.944,4.554,4.947,4.554a2.19,2.19,0,0,0,1.824-.875,3.983,3.983,0,0,0,.352-3.494c-.724-2.512-2.942-4.555-4.946-4.555" transform="translate(-165.156 -112.836)"/>
        <path id="Trazado_820053" data-name="Trazado 820053" d="M500.408,176.886c-1.576-1.918-3.922-3.583-4.871-3.124s-1.154,1.9-.487,2.2.911-.921,3.109.037c1.926.839,2.407,1.23,2.248.883" transform="translate(-194.999 -58.043)" fill="#d4336e"/>
        <path id="Trazado_820054" data-name="Trazado 820054" d="M500.23,177.179h0a2.215,2.215,0,0,1-.8-.31c-.356-.172-.866-.419-1.573-.726a3.523,3.523,0,0,0-1.354-.347,1.752,1.752,0,0,0-.82.213,1.106,1.106,0,0,1-.94.095,1.094,1.094,0,0,1-.586-1.04,1.984,1.984,0,0,1,1.065-1.768,1.19,1.19,0,0,1,.519-.109c1.314,0,3.43,1.711,4.755,3.322a.374.374,0,0,1,.046.073.446.446,0,0,1,0,.431.41.41,0,0,1-.315.166m-3.723-2.049a4.1,4.1,0,0,1,1.62.4c.387.168.716.319.994.449-1.238-1.234-2.618-2.129-3.376-2.129a.534.534,0,0,0-.229.043,1.312,1.312,0,0,0-.688,1.16c0,.083.018.362.194.441a.179.179,0,0,0,.079.02.931.931,0,0,0,.3-.109,2.4,2.4,0,0,1,1.1-.277" transform="translate(-194.833 -57.876)" fill="#d4336e"/>
        <path id="Trazado_820055" data-name="Trazado 820055" d="M550.424,146.413a.332.332,0,0,1-.293-.175,17.88,17.88,0,0,1-1.525-3.479,11.112,11.112,0,0,1-.762-3.753,2.112,2.112,0,0,1,1-1.95,1.628,1.628,0,0,1,1.773.266c2.89,2.216,1.39,6.835.61,8.719a.331.331,0,0,1-.435.18.347.347,0,0,1-.058-.031.333.333,0,0,1-.156.183.34.34,0,0,1-.159.039m-.938-8.843a.735.735,0,0,0-.337.081,1.485,1.485,0,0,0-.639,1.356,10.57,10.57,0,0,0,.73,3.55,16.737,16.737,0,0,0,1.389,3.2c.724-1.76,2.1-5.981-.407-7.9a1.306,1.306,0,0,0-.736-.286" transform="translate(-212.772 -45.751)"/>
        <path id="Trazado_820056" data-name="Trazado 820056" d="M558.854,152.833a9.5,9.5,0,0,1-3.432-.927l-.457-.186c-1.169-.5-2.436-1.008-3.662-1.5a.333.333,0,0,1,.124-.642h.01a.332.332,0,0,1,.189-.222l.676-.3a18.479,18.479,0,0,1,3.547-1.3c1.729-.344,4.1-.094,5.108,1.746a2.162,2.162,0,0,1-1.855,3.322c-.083.005-.165.007-.248.007m-6.692-2.984c1.035.415,2.082.838,3.058,1.256l.454.185a8.13,8.13,0,0,0,3.388.871,1.5,1.5,0,0,0,1.308-2.342c-.837-1.52-2.882-1.71-4.385-1.411a17.966,17.966,0,0,0-3.412,1.257Z" transform="translate(-213.859 -49.334)"/>
        <path id="Trazado_820057" data-name="Trazado 820057" d="M553.5,152.428a.332.332,0,0,1-.2-.067c-.3-.225-.586-.484-.862-.734a9.793,9.793,0,0,0-1.12-.919,16.019,16.019,0,0,1-1.462-1.024c-.28-.212-.566-.428-.875-.645a42.924,42.924,0,0,1-3.54-3.283.333.333,0,0,1,.471-.471,42.113,42.113,0,0,0,3.468,3.221c.3.209.591.43.878.648a15.868,15.868,0,0,0,1.415.991,10.3,10.3,0,0,1,1.213.989c.181.164.356.324.533.471a.342.342,0,0,1,.414.323v.166a.335.335,0,0,1-.184.3.338.338,0,0,1-.149.035" transform="translate(-211.937 -48.519)"/>
        <path id="Trazado_820058" data-name="Trazado 820058" d="M208.681,356.189H191.11a.333.333,0,0,1-.326-.263L182.5,317.5a3.342,3.342,0,0,1,.466-2.842,3,3,0,0,1,3.393-.655l45.977,14.79a2.773,2.773,0,0,1,1.1,5.093L208.9,356.1a.333.333,0,0,1-.223.086m-17.3-.666h17.174L232.987,333.4a2.126,2.126,0,0,0-.854-3.965l-45.976-14.79a2.379,2.379,0,0,0-2.671.439,2.707,2.707,0,0,0-.333,2.284Z" transform="translate(-90.644 -104.858)" fill="#ffd4d4"/>
        <path id="Trazado_820059" data-name="Trazado 820059" d="M199.412,32.293h-.086c-2.179-.039-4.237-1.543-5.647-4.126-1.846-3.386-1.661-7.917.258-11.847a15.986,15.986,0,0,0-6.968.863c-5.032,1.864-7.458,5.982-6.49,11.017a.333.333,0,1,1-.654.125c-1.035-5.381,1.549-9.78,6.913-11.766a16.66,16.66,0,0,1,7.523-.865,15.555,15.555,0,0,1,2.06-2.926c4.012-4.488,9.732-5.67,15.692-3.241a.333.333,0,0,1-.251.617c-5.686-2.315-11.132-1.2-14.944,3.067a14.958,14.958,0,0,0-1.85,2.579c3.419.545,6.569,2.2,8.252,5.141,1.8,3.151,2.021,6.331.6,8.724a5.14,5.14,0,0,1-4.411,2.638M194.637,16.4c-1.926,3.787-2.151,8.183-.373,11.444,1.31,2.4,3.113,3.745,5.074,3.779a4.519,4.519,0,0,0,3.912-2.311c1.292-2.181,1.07-5.117-.609-8.054-1.615-2.826-4.686-4.383-8-4.858" transform="translate(-89.712 -2.77)" fill="#f2ac30"/>
        <path id="Trazado_820060" data-name="Trazado 820060" d="M13.977,180.1a9.443,9.443,0,0,1-4.155-1.037.333.333,0,1,1,.292-.6,7.488,7.488,0,0,0,9.042-1.259,11.094,11.094,0,0,0,2.154-2.98,7.626,7.626,0,0,1-5.5-4.146c-1.557-3.279-1.026-6-.009-7.458a3.315,3.315,0,0,1,3.023-1.557c1.469.136,2.782,1.323,3.7,3.344a12.047,12.047,0,0,1-.251,9.3,9.236,9.236,0,0,0,3.722-.332c3.043-.935,6.016-3.759,5.23-8.883a.333.333,0,0,1,.658-.1c.85,5.544-2.384,8.6-5.693,9.62a9.918,9.918,0,0,1-4.2.328,11.779,11.779,0,0,1-2.367,3.34,7.982,7.982,0,0,1-5.643,2.416m4.576-18.382a2.726,2.726,0,0,0-2.206,1.286c-.91,1.3-1.37,3.77.066,6.791a7.006,7.006,0,0,0,5.187,3.814,11.387,11.387,0,0,0,.316-8.924c-.812-1.794-1.933-2.844-3.153-2.956-.07-.007-.14-.01-.21-.01" transform="translate(-9.634 -69.251)" fill="#ffd4d4"/>
        <path id="Trazado_820061" data-name="Trazado 820061" d="M619.016,256.382a.335.335,0,0,1-.152-.036c-4.556-2.337-6.3-6.77-4.678-11.86a15.537,15.537,0,0,1,3.68-6.016,14.485,14.485,0,0,1-.96-3.182c-.994-5.533,1.428-10.419,6.645-13.406a.333.333,0,0,1,.33.577c-4.958,2.839-7.261,7.471-6.32,12.71a13.937,13.937,0,0,0,.816,2.8,10.468,10.468,0,0,1,8.507-3.089c3.356.49,5.824,2.159,6.769,4.582A4.805,4.805,0,0,1,633,244.3c-1.285,1.584-3.576,2.232-6.292,1.782-3.544-.588-6.762-3.318-8.551-6.974a14.869,14.869,0,0,0-3.34,5.578c-1.519,4.753.107,8.889,4.348,11.064a.333.333,0,0,1-.153.629m-.359-17.771c1.672,3.574,4.759,6.253,8.163,6.818,2.51.418,4.52-.133,5.667-1.545a4.152,4.152,0,0,0,.547-4.176c-.856-2.193-3.133-3.711-6.245-4.165a9.878,9.878,0,0,0-8.132,3.068" transform="translate(-267.412 -151.07)" fill="#f2ac30"/>
        <path id="Trazado_820062" data-name="Trazado 820062" d="M557.142,75.578a3.738,3.738,0,0,1-3.1-1.633l-6.674-9.825a3.747,3.747,0,0,1,.991-5.188l9.826-6.675a3.746,3.746,0,0,1,5.189.994l6.674,9.823a3.744,3.744,0,0,1-.992,5.189l-9.823,6.672a3.71,3.71,0,0,1-2.092.642m3.134-23.3a3.042,3.042,0,0,0-1.714.525l-9.826,6.675a3.078,3.078,0,0,0-.814,4.263l6.674,9.825a3.079,3.079,0,0,0,4.264.814l9.824-6.672a3.075,3.075,0,0,0,.816-4.265l-6.674-9.824a3.071,3.071,0,0,0-2.548-1.342" transform="translate(-212.399 -17.249)" fill="#ffd4d4"/>
        <path id="Trazado_820063" data-name="Trazado 820063" d="M506.529,36.841A4.469,4.469,0,1,1,511,32.372a4.474,4.474,0,0,1-4.47,4.468m0-8.273a3.8,3.8,0,1,0,3.8,3.8,3.808,3.808,0,0,0-3.8-3.8" transform="translate(-197.472 -9.324)" fill="#7db3db"/>
        <path id="Trazado_820064" data-name="Trazado 820064" d="M54.514,101.243a3.2,3.2,0,1,1-3.2-3.2,3.2,3.2,0,0,1,3.2,3.2" transform="translate(-45.774 -32.765)" fill="#7db3db"/>
        <path id="Trazado_820065" data-name="Trazado 820065" d="M65.437,91.617a3.2,3.2,0,1,1-3.2-3.2,3.2,3.2,0,0,1,3.2,3.2" transform="translate(-49.425 -29.548)" fill="#7db3db"/>
        <path id="Trazado_820066" data-name="Trazado 820066" d="M67.288,105.687a3.2,3.2,0,1,1-3.2-3.2,3.194,3.194,0,0,1,3.2,3.2" transform="translate(-50.043 -34.25)" fill="#7db3db"/>
        <path id="Trazado_820067" data-name="Trazado 820067" d="M352.567,358.06a3.529,3.529,0,0,1-3.316-4.743,3.527,3.527,0,1,1,3.316,4.743m-.005-6.393a2.862,2.862,0,1,0,2.6,1.659,2.849,2.849,0,0,0-2.6-1.659" transform="translate(-146.334 -117.298)" fill="#7db3db"/>
        <path id="Trazado_820068" data-name="Trazado 820068" d="M339.239,352.2a3.529,3.529,0,0,1-1.487-6.731,3.492,3.492,0,0,1,1.481-.328,3.529,3.529,0,0,1,1.486,6.731,3.49,3.49,0,0,1-1.48.328m-.006-6.393a2.864,2.864,0,0,0-2.6,4.068,2.878,2.878,0,0,0,2.6,1.659,2.825,2.825,0,0,0,1.2-.266,2.863,2.863,0,0,0-1.206-5.461" transform="translate(-141.88 -115.34)" fill="#7db3db"/>
        <path id="Trazado_820069" data-name="Trazado 820069" d="M351.221,344.6a3.529,3.529,0,1,1,3.313-2.316,3.539,3.539,0,0,1-3.313,2.316m0-6.393a2.863,2.863,0,1,0,2.6,1.659,2.849,2.849,0,0,0-2.6-1.659" transform="translate(-145.886 -112.801)" fill="#7db3db"/>
        <path id="Trazado_820070" data-name="Trazado 820070" d="M606.776,185.748a3.529,3.529,0,0,1-3.316-4.743,3.527,3.527,0,0,1,3.31-2.315,3.528,3.528,0,0,1,1.487,6.73,3.493,3.493,0,0,1-1.481.328m-.007-6.392a2.864,2.864,0,0,0-2.594,4.067,2.875,2.875,0,0,0,2.6,1.659,2.864,2.864,0,0,0,2.594-4.069,2.876,2.876,0,0,0-2.6-1.658" transform="translate(-231.286 -59.715)" fill="#495edb"/>
        <path id="Trazado_820071" data-name="Trazado 820071" d="M593.446,179.889a3.542,3.542,0,0,1-3.2-2.045,3.531,3.531,0,0,1,3.2-5.014,3.529,3.529,0,0,1,1.486,6.731,3.493,3.493,0,0,1-1.481.328m0-6.393a2.863,2.863,0,0,0-2.595,4.067,2.873,2.873,0,0,0,2.6,1.66,2.865,2.865,0,0,0,2.595-4.069,2.876,2.876,0,0,0-2.6-1.659" transform="translate(-226.831 -57.757)" fill="#495edb"/>
        <path id="Trazado_820072" data-name="Trazado 820072" d="M605.43,172.29a3.527,3.527,0,1,1,3.314-2.315,3.538,3.538,0,0,1-3.314,2.315m0-6.393a2.864,2.864,0,1,0,2.6,1.659,2.849,2.849,0,0,0-2.6-1.659" transform="translate(-230.837 -55.218)" fill="#495edb"/>
        <path id="Trazado_820073" data-name="Trazado 820073" d="M371.665,377.462H.58a.672.672,0,0,1,0-1.332H371.665a.672.672,0,0,1,0,1.332" transform="translate(2.348 -125.696)" fill="#32015c"/>
      </g>
    </g>
  </g>
</svg>
