<svg xmlns="http://www.w3.org/2000/svg" xmlns:xlink="http://www.w3.org/1999/xlink" width="73" height="77" viewBox="0 0 73 77">
  <defs>
    <clipPath id="clip-path">
      <path id="path3529" d="M0-682.665H68.335v68.335H0Z" transform="translate(0 682.665)"/>
    </clipPath>
  </defs>
  <g id="Grupo_1073070" data-name="Grupo 1073070" transform="translate(-727 -755)">
    <rect id="Rectángulo_382263" data-name="Rectángulo 382263" width="73" height="77" rx="8" transform="translate(727 755)" fill="#1682fb"/>
    <g id="g3519" transform="translate(729 1442.665)">
      <g id="g3521" transform="translate(24.58 -632.03)">
        <path id="path3523" d="M-161.935,0h-16.851l-1.162,7.8h19.175Z" transform="translate(179.948)" fill="#495560"/>
      </g>
      <g id="g3525" transform="translate(0 -682.665)">
        <g id="g3527" clip-path="url(#clip-path)">
          <g id="g3533" transform="translate(19.785 58.435)">
            <path id="path3535" d="M-243.66-47.355H-269.1a1.66,1.66,0,0,1-1.592-2.128l.231-.786a3.279,3.279,0,0,1,3.146-2.353h21.872a3.279,3.279,0,0,1,3.146,2.353l.231.786a1.66,1.66,0,0,1-1.592,2.128" transform="translate(270.763 52.623)" fill="#c7c7c7"/>
          </g>
          <g id="g3537" transform="translate(19.785 58.435)">
            <path id="path3539" d="M-109.152,0h-8.7a3.279,3.279,0,0,0-3.146,2.353l-.231.786a1.66,1.66,0,0,0,1.592,2.128h11.784A6.061,6.061,0,0,1-109.152,0" transform="translate(121.293)" fill="#98a5b3"/>
          </g>
          <g id="g3541" transform="translate(1.001 4.633)">
            <path id="path3543" d="M-525.206-413.564h-50.51a7.912,7.912,0,0,1-7.912-7.912v-30.18a7.912,7.912,0,0,1,7.912-7.912h50.51a7.912,7.912,0,0,1,7.912,7.912v30.18a7.912,7.912,0,0,1-7.912,7.912" transform="translate(583.628 459.567)" fill="#495560"/>
          </g>
          <g id="g3545" transform="translate(1.001 4.633)">
            <path id="path3547" d="M-192.6,0h-13.512a7.912,7.912,0,0,0-7.912,7.912v30.18A7.912,7.912,0,0,0-206.109,46h19.487c-7.52-7.87-10.83-29.962-5.975-46" transform="translate(214.021)" fill="#333941"/>
          </g>
          <g id="g3549" transform="translate(6.412 10.044)">
            <path id="path3551" d="M0-284.821v-28.184a3.5,3.5,0,0,1,3.5-3.5H52.012a3.5,3.5,0,0,1,3.5,3.5v28.184a3.5,3.5,0,0,1-3.5,3.5H3.5a3.5,3.5,0,0,1-3.5-3.5" transform="translate(0 316.503)" fill="#faef81"/>
          </g>
          <g id="g3553" transform="translate(6.412 10.044)">
            <path id="path3555" d="M-165.5-316.268c-4.217-8.767-5.929-22.955-3.694-35.18h-11.217a3.5,3.5,0,0,0-3.5,3.5v28.184a3.5,3.5,0,0,0,3.5,3.5Z" transform="translate(183.906 351.448)" fill="#fad271"/>
          </g>
          <g id="g3557" transform="translate(34.168 10.044)">
            <path id="path3559" d="M-218.072,0h-24.257V35.18h24.257a3.5,3.5,0,0,0,3.5-3.5V3.5a3.5,3.5,0,0,0-3.5-3.5" transform="translate(242.329)" fill="#333941"/>
          </g>
          <g id="g3561" transform="translate(1.001 40.51)">
            <path id="path3563" d="M0,0V2.214a7.912,7.912,0,0,0,7.912,7.912h50.51a7.912,7.912,0,0,0,7.912-7.912V0Z" fill="#c7c7c7"/>
          </g>
          <g id="g3565" transform="translate(1.001 40.51)">
            <path id="path3567" d="M0,0V2.214a7.912,7.912,0,0,0,7.912,7.912H27.4A26.766,26.766,0,0,1,21.954,0Z" fill="#98a5b3"/>
          </g>
          <g id="g3569" transform="translate(31.275 42.68)">
            <path id="path3571" d="M-52.009-26A2.893,2.893,0,0,1-54.9-23.112,2.893,2.893,0,0,1-57.795-26,2.893,2.893,0,0,1-54.9-28.9,2.893,2.893,0,0,1-52.009-26" transform="translate(57.795 28.897)" fill="#fff"/>
          </g>
          <g id="g3573" transform="translate(50.908 27.949)">
            <path id="path3575" d="M-5.02-8H-9a1,1,0,0,1-1-1,1,1,0,0,1,1-1H-5.02a1,1,0,0,1,1,1A1,1,0,0,1-5.02-8Z" transform="translate(10 10)" fill="#fff"/>
          </g>
          <g id="g3577" transform="translate(39.202 27.949)">
            <path id="path3579" d="M-.883-8H-9a1,1,0,0,1-1-1,1,1,0,0,1,1-1H-.883a1,1,0,0,1,1,1A1,1,0,0,1-.883-8Z" transform="translate(10 10)" fill="#84dfff"/>
          </g>
          <g id="g3581" transform="translate(46.413 31.59)">
            <path id="path3583" d="M-4.049-8H-9a1,1,0,0,1-1-1,1,1,0,0,1,1-1h4.95a1,1,0,0,1,1,1A1,1,0,0,1-4.049-8Z" transform="translate(10 10)" fill="#84dfff"/>
          </g>
          <g id="g3585" transform="translate(39.202 31.59)">
            <path id="path3587" d="M-5.378-8H-9a1,1,0,0,1-1-1,1,1,0,0,1,1-1h3.621a1,1,0,0,1,1,1A1,1,0,0,1-5.378-8Z" transform="translate(10 10)" fill="#fff"/>
          </g>
          <g id="g3589" transform="translate(46.161 24.309)">
            <path id="path3591" d="M-1.654-8H-9a1,1,0,0,1-1-1,1,1,0,0,1,1-1h7.345a1,1,0,0,1,1,1A1,1,0,0,1-1.654-8Z" transform="translate(10 10)" fill="#55d57b"/>
          </g>
          <g id="g3593" transform="translate(39.202 24.309)">
            <path id="path3595" d="M-5.63-8H-9a1,1,0,0,1-1-1,1,1,0,0,1,1-1H-5.63a1,1,0,0,1,1,1A1,1,0,0,1-5.63-8Z" transform="translate(10 10)" fill="#ff8aa0"/>
          </g>
          <g id="g3597" transform="translate(50.685 20.669)">
            <path id="path3599" d="M-4.8-8H-9a1,1,0,0,1-1-1,1,1,0,0,1,1-1h4.2a1,1,0,0,1,1,1A1,1,0,0,1-4.8-8Z" transform="translate(10 10)" fill="#ff8aa0"/>
          </g>
          <g id="g3601" transform="translate(39.202 20.669)">
            <path id="path3603" d="M-1.106-8H-9a1,1,0,0,1-1-1,1,1,0,0,1,1-1h7.893a1,1,0,0,1,1,1A1,1,0,0,1-1.106-8Z" transform="translate(10 10)" fill="#fff"/>
          </g>
          <g id="g3605" transform="translate(46.413 17.028)">
            <path id="path3607" d="M-4.525-8H-9a1,1,0,0,1-1-1,1,1,0,0,1,1-1h4.474a1,1,0,0,1,1,1A1,1,0,0,1-4.525-8Z" transform="translate(10 10)" fill="#55d57b"/>
          </g>
          <g id="g3609" transform="translate(39.202 17.028)">
            <path id="path3611" d="M-5.378-8H-9a1,1,0,0,1-1-1,1,1,0,0,1,1-1h3.621a1,1,0,0,1,1,1A1,1,0,0,1-5.378-8Z" transform="translate(10 10)" fill="#84dfff"/>
          </g>
          <g id="g3613" transform="translate(5.411 9.043)">
            <path id="path3615" d="M46.511-281.886a1,1,0,0,1-1-1v-26.968a2.5,2.5,0,0,0-2.5-2.5H-5.5a2.5,2.5,0,0,0-2.5,2.5v26.968a1,1,0,0,1-1,1,1,1,0,0,1-1-1v-26.968a4.5,4.5,0,0,1,4.5-4.5H43.013a4.5,4.5,0,0,1,4.5,4.5v26.968A1,1,0,0,1,46.511-281.886Z" transform="translate(10 314.354)"/>
          </g>
          <g id="g3617" transform="translate(0 3.632)">
            <path id="path3619" d="M-448.283,37.329a1,1,0,0,1-.405-.086,8.924,8.924,0,0,1-5.3-8.151V-1.087A8.923,8.923,0,0,1-445.078-10h36.532a1,1,0,0,1,1,1,1,1,0,0,1-1,1h-36.532a6.918,6.918,0,0,0-6.911,6.911v30.18a6.92,6.92,0,0,0,4.113,6.321,1,1,0,0,1,.509,1.321A1,1,0,0,1-448.283,37.329Z" transform="translate(453.991 10)"/>
          </g>
          <g id="g3621" transform="translate(9.377 3.632)">
            <path id="path3623" d="M40.045-421.562H-9a1,1,0,0,1-1-1,1,1,0,0,1,1-1H40.045a6.918,6.918,0,0,0,6.911-6.911v-30.18a6.919,6.919,0,0,0-6.911-6.911H31.1a1,1,0,0,1-1-1,1,1,0,0,1,1-1h8.941a8.923,8.923,0,0,1,8.913,8.913v30.18A8.923,8.923,0,0,1,40.045-421.562Z" transform="translate(10 469.567)"/>
          </g>
          <g id="g3625" transform="translate(0 39.509)">
            <path id="path3627" d="M57.334-8H-9a1,1,0,0,1-1-1,1,1,0,0,1,1-1H57.334a1,1,0,0,1,1,1A1,1,0,0,1,57.334-8Z" transform="translate(10 10)"/>
          </g>
          <g id="g3629" transform="translate(23.579 49.634)">
            <path id="path3631" d="M-9-78.117a1.009,1.009,0,0,1-.149-.011,1,1,0,0,1-.843-1.138l1.162-7.8a1,1,0,0,1,1.138-.843,1,1,0,0,1,.843,1.138l-1.162,7.8A1,1,0,0,1-9-78.117Z" transform="translate(10.001 87.918)"/>
          </g>
          <g id="g3633" transform="translate(41.592 49.634)">
            <path id="path3635" d="M-7.839-.2a1,1,0,0,1-.989-.854l-1.162-7.8A1,1,0,0,1-9.148-9.99a1,1,0,0,1,1.138.843l1.162,7.8A1,1,0,0,1-7.691-.211,1.009,1.009,0,0,1-7.839-.2Z" transform="translate(10.001 10.001)"/>
          </g>
          <g id="g3637" transform="translate(18.784 57.434)">
            <path id="path3639" d="M1.507-55.353H-23.936a2.638,2.638,0,0,1-2.13-1.067,2.638,2.638,0,0,1-.422-2.345l.231-.786a4.3,4.3,0,0,1,4.106-3.072H-.278a4.3,4.3,0,0,1,4.106,3.072l.231.786a2.638,2.638,0,0,1-.422,2.345A2.638,2.638,0,0,1,1.507-55.353Zm-23.658-5.268a2.291,2.291,0,0,0-2.186,1.635l-.231.786a.653.653,0,0,0,.1.58.646.646,0,0,0,.527.264H1.507a.646.646,0,0,0,.527-.264.653.653,0,0,0,.1-.58l-.231-.786A2.291,2.291,0,0,0-.278-60.621Z" transform="translate(26.598 62.623)"/>
          </g>
          <g id="g3641" transform="translate(10.769 20.103)">
            <path id="path3643" d="M-46.077.251a1,1,0,0,1-.708-.293l-4.124-4.125a1,1,0,0,1,0-1.416l4.124-4.124a1,1,0,0,1,1.416,0,1,1,0,0,1,0,1.416l-3.417,3.417,3.417,3.417a1,1,0,0,1,0,1.416A1,1,0,0,1-46.077.251Z" transform="translate(51.203 10)"/>
          </g>
          <g id="g3645" transform="translate(23.685 20.103)">
            <path id="path3647" d="M-9,.251a1,1,0,0,1-.708-.293,1,1,0,0,1,0-1.416L-6.29-4.875-9.707-8.291a1,1,0,0,1,0-1.416,1,1,0,0,1,1.416,0l4.124,4.124a1,1,0,0,1,0,1.416L-8.291-.042A1,1,0,0,1-9,.251Z" transform="translate(10 10)"/>
          </g>
          <g id="g3649" transform="translate(16.972 17.863)">
            <path id="path3651" d="M-9-122.431a1,1,0,0,1-.342-.061,1,1,0,0,1-.6-1.283L-5.309-136.5a1,1,0,0,1,1.283-.6,1,1,0,0,1,.6,1.283L-8.061-123.09A1,1,0,0,1-9-122.431Z" transform="translate(10.003 137.162)"/>
          </g>
        </g>
      </g>
    </g>
  </g>
</svg>
